<?xml version="1.0" encoding="UTF-8" standalone="no"?>
<!DOCTYPE svg PUBLIC "-//W3C//DTD SVG 1.1//EN" "http://www.w3.org/Graphics/SVG/1.1/DTD/svg11.dtd">
<svg xmlns="http://www.w3.org/2000/svg" version="1.1" viewBox="0.00 0.00 1024.00 1024.00">
<g stroke-width="2.00" fill="none" stroke-linecap="butt">
<path stroke="#808080" vector-effect="non-scaling-stroke" d="
  M 685.72 782.46
  Q 711.58 773.53 729.40 753.63
  Q 746.05 735.03 752.80 710.39
  C 753.64 707.30 753.76 704.33 754.63 701.33
  C 755.72 697.58 755.00 693.70 755.64 689.86
  Q 756.60 684.05 755.56 677.97
  C 755.11 675.35 755.70 672.80 755.10 670.20
  C 754.18 666.23 753.87 662.18 752.79 658.28
  Q 742.43 621.01 712.02 598.61
  Q 679.11 574.37 635.68 579.40
  C 633.85 579.62 632.37 580.46 630.45 580.52
  C 626.84 580.63 622.31 582.53 618.90 583.76
  Q 617.87 584.13 617.42 583.13
  Q 610.64 568.14 604.42 554.55
  C 603.35 552.21 602.90 549.07 604.45 546.77
  Q 605.61 545.05 606.31 543.04
  Q 606.49 542.52 606.97 542.24
  Q 608.56 541.33 610.52 541.18
  C 631.27 539.57 651.81 533.58 666.78 519.14
  Q 673.23 512.91 678.05 503.26
  C 679.09 501.16 679.54 498.88 680.45 496.70
  Q 681.45 494.32 681.85 491.60
  Q 683.19 482.63 683.25 474.60
  Q 683.26 471.96 682.45 469.35
  Q 682.28 468.81 682.79 468.57
  C 685.73 467.16 689.04 466.03 691.52 463.92
  C 706.05 451.50 698.69 431.47 691.51 417.65
  C 679.38 394.29 664.40 372.86 647.84 352.16
  Q 645.07 348.69 641.81 345.56
  Q 640.01 343.83 642.36 344.66
  Q 646.27 346.03 651.00 348.20
  Q 656.76 350.84 665.21 352.26
  C 674.23 353.78 684.33 350.44 686.19 340.38
  C 686.43 339.08 685.81 338.20 685.92 336.99
  C 686.14 334.67 682.33 329.16 680.02 328.58
  Q 677.80 328.02 675.72 327.19
  A 1.65 1.65 0.0 0 0 674.53 327.17
  C 671.93 328.11 670.45 331.71 673.67 333.30
  Q 676.37 334.63 678.37 336.51
  C 680.08 338.10 678.38 340.88 677.42 342.45
  A 1.40 1.40 0.0 0 1 676.72 343.03
  Q 671.24 345.09 666.58 344.23
  Q 660.35 343.08 653.77 340.63
  Q 639.03 335.14 625.12 325.95
  C 619.75 322.40 615.41 317.31 610.47 313.04
  C 607.17 310.19 603.52 308.25 600.37 305.27
  A 1.52 1.51 -66.1 0 1 599.90 304.04
  Q 600.11 301.17 599.37 298.74
  Q 599.15 298.01 599.90 298.15
  C 614.20 300.84 627.64 298.94 641.59 295.61
  Q 645.96 294.57 650.90 293.84
  Q 656.04 293.07 660.85 292.38
  Q 664.72 291.83 667.88 292.45
  Q 672.22 293.30 675.50 294.58
  C 678.82 295.88 682.52 299.37 679.39 303.15
  A 0.89 0.88 10.7 0 1 678.96 303.44
  L 673.83 304.96
  Q 673.30 305.11 673.01 305.58
  C 671.33 308.20 672.52 311.26 675.76 311.52
  C 680.12 311.87 683.19 310.40 685.97 307.07
  Q 687.69 305.02 687.96 302.28
  Q 688.64 295.40 683.64 290.89
  Q 678.41 286.16 670.58 285.34
  Q 663.15 284.56 653.98 285.32
  C 652.22 285.46 650.83 286.38 649.05 286.49
  Q 645.16 286.75 641.21 287.79
  Q 631.57 290.30 621.62 291.84
  Q 610.79 293.51 598.64 290.30
  C 597.26 289.94 595.71 289.29 594.84 288.09
  C 591.67 283.71 588.41 280.18 583.45 277.70
  C 582.28 277.12 581.08 277.47 579.85 276.90
  Q 577.24 275.71 573.94 276.85
  A 0.72 0.72 0.0 0 1 572.98 276.19
  Q 572.88 271.25 572.40 266.28
  Q 572.21 264.32 570.95 262.73
  A 1.70 1.67 25.6 0 1 570.58 261.71
  C 570.54 256.78 564.72 249.32 561.55 245.74
  Q 561.19 245.33 561.62 245.01
  C 568.53 239.83 567.93 230.12 562.36 224.22
  C 560.06 221.79 555.69 219.83 552.53 219.76
  Q 541.53 219.51 538.92 229.62
  Q 538.77 230.19 538.21 230.01
  Q 525.36 226.08 512.16 227.93
  Q 504.64 228.98 498.64 231.93
  C 486.68 237.83 475.58 249.27 473.29 262.72
  Q 472.13 269.54 476.37 273.21
  Q 476.88 273.65 476.69 274.29
  C 475.13 279.65 474.93 285.29 473.20 290.67
  Q 471.28 296.66 470.95 299.21
  C 470.33 303.98 469.85 310.31 471.28 315.13
  Q 471.91 317.24 472.57 319.18
  C 475.08 326.54 480.40 332.79 488.02 336.17
  C 491.65 337.77 495.66 337.64 499.51 338.30
  A 0.68 0.68 0.0 0 1 500.07 338.99
  L 499.90 343.89
  Q 499.88 344.56 499.48 345.10
  Q 488.46 359.97 476.56 373.58
  C 472.89 377.77 468.71 381.81 464.79 385.83
  Q 460.16 390.57 455.76 394.81
  Q 439.76 410.26 425.53 424.61
  Q 419.86 430.34 413.85 437.11
  Q 407.49 444.27 406.25 451.80
  C 405.99 453.38 405.12 455.40 404.03 456.55
  Q 401.68 459.02 399.70 461.99
  Q 399.38 462.47 398.82 462.31
  Q 395.48 461.36 392.18 460.35
  Q 381.11 456.96 371.09 460.94
  C 367.85 462.23 362.63 466.09 361.57 470.02
  C 360.59 473.67 358.65 475.34 360.17 479.65
  Q 360.39 480.29 359.88 480.72
  C 352.52 486.97 347.71 492.80 344.96 502.80
  Q 341.42 515.70 345.57 528.23
  Q 351.53 546.23 370.36 552.62
  Q 379.34 555.67 388.22 557.97
  C 391.78 558.89 398.46 558.70 401.23 555.48
  Q 404.09 552.15 404.40 548.53
  Q 404.45 547.86 405.07 548.12
  Q 410.34 550.28 416.28 550.94
  A 1.12 1.12 0.0 0 1 417.26 552.19
  C 416.79 556.01 415.40 559.50 414.60 563.26
  Q 413.49 568.42 412.32 573.79
  Q 412.08 574.90 410.84 576.70
  Q 410.51 577.19 410.61 577.76
  L 410.88 579.22
  A 0.96 0.95 1.8 0 1 409.71 580.31
  L 407.11 579.65
  Q 406.24 579.44 406.67 578.65
  L 407.28 577.55
  A 0.68 0.67 -63.4 0 0 406.97 576.60
  Q 405.45 575.90 404.27 574.76
  Q 403.87 574.38 403.33 574.45
  C 399.28 574.99 395.92 576.41 395.79 580.84
  Q 395.76 581.93 394.68 581.76
  Q 354.31 575.40 319.77 597.77
  C 317.54 599.22 315.73 601.00 313.56 602.44
  Q 311.27 603.97 309.13 605.86
  Q 289.57 623.15 280.19 646.78
  C 278.22 651.76 277.04 656.69 275.52 661.72
  Q 274.83 664.01 274.72 666.15
  C 274.51 670.16 273.23 673.62 273.29 677.75
  Q 273.40 685.02 273.32 692.14
  Q 273.29 694.66 273.86 697.37
  C 274.51 700.44 274.59 703.57 275.47 706.58
  C 276.50 710.10 277.20 713.50 278.44 717.04
  C 288.45 745.72 310.33 768.39 338.37 779.67
  Q 341.29 780.84 344.47 781.44
  Q 344.69 781.49 344.81 781.67
  Q 344.90 781.80 344.90 781.95
  Q 344.91 782.44 344.42 782.46
  Q 338.77 782.72 333.10 782.54
  Q 325.37 782.29 313.21 782.78
  Q 310.73 782.88 309.54 785.73
  Q 309.36 786.17 309.38 786.68
  Q 309.55 790.26 313.13 790.24
  Q 371.33 789.81 431.18 790.15
  C 434.20 790.16 437.18 790.38 440.20 790.15
  Q 443.00 789.93 442.64 787.14
  L 442.43 785.49
  Q 442.06 782.64 439.18 782.64
  L 409.60 782.59
  Q 407.72 782.59 409.52 782.04
  Q 418.81 779.20 427.36 774.25
  Q 460.66 754.98 474.05 718.77
  C 475.35 715.25 476.29 711.51 477.37 707.95
  Q 478.54 704.09 479.08 699.50
  Q 480.60 686.46 479.76 672.53
  C 479.61 670.15 478.68 668.36 478.63 665.98
  Q 478.58 663.56 477.91 661.09
  Q 476.73 656.70 475.54 652.95
  Q 463.96 616.64 432.72 595.37
  Q 432.35 595.12 432.07 594.81
  Q 431.72 594.43 431.24 594.40
  C 429.58 594.30 428.64 592.77 429.05 591.23
  Q 431.00 584.00 432.30 576.84
  Q 432.56 575.44 433.56 576.46
  L 526.61 671.42
  A 0.34 0.34 0.0 0 1 526.44 671.99
  Q 517.28 673.74 508.87 676.67
  Q 501.16 679.35 497.64 685.89
  Q 494.98 690.85 497.10 697.51
  Q 497.34 698.25 497.04 698.96
  Q 493.90 706.44 499.73 710.64
  Q 502.20 712.42 507.61 713.11
  Q 520.31 714.72 532.17 716.05
  C 534.17 716.27 535.90 716.88 537.85 717.05
  Q 544.74 717.65 552.28 717.95
  Q 552.86 717.98 553.06 718.51
  C 562.45 743.85 579.68 763.66 603.83 776.27
  Q 610.62 779.81 615.56 781.06
  Q 616.09 781.19 616.45 781.59
  Q 617.33 782.58 616.00 782.57
  Q 600.42 782.51 586.54 782.67
  Q 582.85 782.71 581.85 785.66
  Q 581.70 786.12 581.76 786.65
  Q 582.19 790.30 585.52 790.27
  C 630.51 789.90 669.79 789.92 712.50 790.20
  C 715.60 790.22 719.37 791.19 721.67 788.34
  C 723.08 786.60 721.48 783.79 719.72 783.12
  Q 718.57 782.69 717.09 782.66
  Q 702.37 782.41 685.76 782.73
  Q 684.89 782.74 685.72 782.46"
/>
<path stroke="#808080" vector-effect="non-scaling-stroke" d="
  M 538.13 298.49
  C 528.79 300.96 524.09 290.92 521.19 284.25
  C 520.69 283.09 519.69 282.20 518.38 282.17
  Q 514.82 282.07 511.74 281.14
  C 508.37 280.12 505.14 280.78 501.84 279.38
  C 500.16 278.68 498.33 278.87 496.56 278.76
  Q 494.51 278.65 492.58 278.03
  Q 488.24 276.63 483.02 276.42
  A 0.45 0.44 -0.6 0 0 482.56 276.88
  Q 482.60 278.23 482.41 279.55
  Q 480.86 290.17 478.42 298.41
  C 476.35 305.42 477.11 311.66 480.10 318.16
  C 482.76 323.96 486.46 328.62 492.86 330.12
  Q 497.53 331.22 501.74 330.89
  Q 503.73 330.73 505.35 329.46
  Q 523.14 315.51 539.81 301.87
  C 540.86 301.01 542.16 300.55 543.21 299.64
  Q 549.92 293.79 557.81 288.50
  C 559.35 287.46 560.61 286.17 561.31 284.41
  A 0.59 0.59 0.0 0 0 560.75 283.60
  Q 554.22 283.82 548.89 282.92
  Q 548.29 282.82 548.44 283.42
  C 550.04 289.91 543.85 296.98 538.13 298.49"
/>
<path stroke="#808080" vector-effect="non-scaling-stroke" d="
  M 528.41 281.69
  C 529.78 285.53 531.17 290.11 535.04 291.83
  C 537.99 293.14 541.51 288.97 541.35 286.29
  C 541.06 281.25 532.36 280.90 528.77 281.13
  A 0.42 0.41 78.4 0 0 528.41 281.69"
/>
<path stroke="#808080" vector-effect="non-scaling-stroke" d="
  M 513.59 355.85
  C 522.11 344.71 530.11 333.27 539.02 322.55
  C 545.53 314.73 552.79 308.30 561.82 304.09
  Q 568.05 301.18 575.42 300.82
  Q 584.61 300.38 591.79 302.64
  A 0.69 0.69 0.0 0 0 592.68 301.93
  C 592.40 298.11 590.11 295.04 588.04 291.99
  Q 585.01 287.54 580.00 284.90
  C 578.50 284.11 577.07 284.32 575.68 285.17
  C 559.93 294.78 545.59 306.40 531.06 318.37
  Q 521.09 326.58 511.12 334.11
  C 506.61 337.52 506.28 344.13 508.86 348.82
  Q 510.84 352.40 512.90 355.81
  A 0.42 0.42 0.0 0 0 513.59 355.85"
/>
<path stroke="#808080" vector-effect="non-scaling-stroke" d="
  M 592.70 359.19
  C 594.13 360.01 593.74 362.10 593.90 363.47
  Q 594.04 364.71 593.63 365.46
  Q 585.61 379.83 575.65 391.89
  C 564.83 405.02 554.96 415.47 538.54 431.88
  Q 538.16 432.27 538.28 432.79
  C 540.93 444.02 544.31 454.22 552.96 462.18
  C 560.97 469.57 572.12 470.50 582.62 469.71
  Q 591.90 469.02 601.49 467.18
  Q 617.10 464.17 627.99 463.26
  Q 635.49 462.62 643.00 462.08
  Q 656.96 461.08 671.82 460.89
  C 675.32 460.84 678.93 460.04 682.39 459.44
  Q 683.72 459.21 684.92 458.24
  Q 692.93 451.76 690.90 441.15
  Q 689.89 435.89 688.54 432.65
  C 686.51 427.79 684.57 423.09 682.10 418.39
  Q 664.73 385.41 641.08 356.87
  C 630.24 343.80 619.20 331.68 606.02 319.50
  Q 598.56 312.61 589.82 309.91
  C 587.09 309.06 584.41 309.15 581.74 308.49
  Q 579.01 307.81 576.05 308.24
  Q 562.12 310.28 552.73 319.25
  Q 544.51 327.10 541.58 331.10
  C 530.32 346.53 519.11 360.98 507.90 375.18
  C 503.32 380.98 498.45 386.37 493.73 392.06
  C 491.09 395.24 488.27 398.13 485.70 401.38
  C 481.83 406.27 476.93 411.37 473.29 415.79
  Q 464.90 425.97 456.05 436.55
  C 449.31 444.59 444.20 452.02 440.43 461.16
  Q 440.19 461.75 440.70 462.14
  C 449.85 469.13 457.45 476.62 462.74 486.75
  A 0.71 0.71 0.0 0 0 463.58 487.11
  C 471.41 484.76 478.55 479.00 484.50 473.44
  Q 507.55 451.93 535.43 423.88
  C 553.19 406.02 569.48 389.29 582.21 368.84
  C 583.66 366.50 584.63 363.98 585.79 361.48
  Q 588.10 356.53 592.70 359.19"
/>
<path stroke="#808080" vector-effect="non-scaling-stroke" d="
  M 413.50 450.63
  Q 413.05 451.29 413.70 451.77
  C 416.58 453.86 419.58 455.71 422.16 458.16
  Q 426.27 462.07 429.35 466.41
  A 0.53 0.53 0.0 0 0 430.17 466.47
  C 431.86 464.73 434.00 462.31 434.17 459.72
  C 434.64 452.37 440.82 443.46 445.26 437.78
  Q 455.89 424.17 472.24 405.21
  Q 491.40 383.00 507.79 362.95
  A 0.78 0.78 0.0 0 0 507.80 361.98
  Q 504.74 358.05 502.96 353.46
  A 0.36 0.35 53.1 0 0 502.35 353.37
  Q 495.79 362.16 488.64 370.92
  C 483.82 376.83 478.33 382.29 473.23 387.82
  Q 467.11 394.45 461.16 400.11
  C 447.32 413.31 434.79 425.60 421.46 439.65
  C 418.14 443.15 416.13 446.82 413.50 450.63"
/>
<path stroke="#808080" vector-effect="non-scaling-stroke" d="
  M 444.73 521.97
  L 444.45 522.24
  A 0.84 0.81 68.7 0 0 444.19 522.87
  Q 444.27 525.89 442.94 528.53
  A 0.47 0.47 0.0 0 0 443.36 529.21
  L 478.50 529.22
  Q 479.22 529.22 479.27 528.50
  C 480.37 512.63 492.20 502.10 505.95 495.25
  C 520.10 488.19 535.64 482.76 551.05 477.58
  C 553.38 476.79 555.85 476.53 558.27 476.00
  Q 560.56 475.51 558.37 474.67
  C 543.54 469.03 534.46 453.90 531.84 438.93
  A 0.28 0.28 0.0 0 0 531.37 438.78
  C 518.21 452.38 504.21 465.27 489.79 478.73
  C 481.30 486.66 472.42 493.41 460.87 495.20
  Q 459.91 495.35 459.17 495.96
  Q 455.94 498.61 452.36 501.38
  C 450.55 502.78 449.20 504.60 447.69 506.31
  Q 446.93 507.16 447.11 508.29
  C 447.47 510.49 446.77 512.34 446.39 514.47
  Q 445.76 518.01 445.06 521.39
  Q 444.99 521.73 444.73 521.97"
/>
<path stroke="#808080" vector-effect="non-scaling-stroke" d="
  M 410.78 459.37
  L 406.11 464.65
  A 0.56 0.55 30.7 0 0 406.34 465.54
  Q 412.21 467.71 418.60 471.02
  Q 420.94 472.24 423.37 471.66
  A 0.78 0.78 0.0 0 0 423.80 470.42
  Q 418.55 463.80 412.21 459.22
  A 1.08 1.07 -50.9 0 0 410.78 459.37"
/>
<path stroke="#808080" vector-effect="non-scaling-stroke" d="
  M 432.11 474.47
  L 449.61 494.32
  A 0.70 0.70 0.0 0 0 450.60 494.38
  L 454.84 490.64
  A 10.34 2.92 48.6 0 0 450.19 480.95
  L 445.45 475.57
  A 10.34 2.92 48.6 0 0 436.42 469.74
  L 432.17 473.49
  A 0.70 0.70 0.0 0 0 432.11 474.47"
/>
<path stroke="#808080" vector-effect="non-scaling-stroke" d="
  M 366.55 492.62
  C 365.46 491.64 364.59 490.23 364.06 488.88
  A 0.97 0.97 0.0 0 0 362.64 488.41
  C 358.53 491.00 356.51 494.77 354.19 498.83
  Q 352.83 501.23 352.29 503.78
  C 351.56 507.22 350.36 510.33 350.49 513.94
  Q 351.37 538.58 374.40 546.28
  Q 386.20 550.22 391.97 551.12
  C 393.54 551.37 395.64 551.30 396.70 549.82
  C 399.90 545.37 391.16 541.91 388.42 541.39
  C 380.13 539.83 371.77 537.52 365.99 531.49
  Q 360.30 525.56 359.39 518.25
  Q 357.55 503.65 366.60 493.93
  Q 367.24 493.25 366.55 492.62"
/>
<path stroke="#808080" vector-effect="non-scaling-stroke" d="
  M 377.49 504.04
  Q 378.78 499.73 380.19 495.71
  A 0.44 0.44 0.0 0 0 379.78 495.12
  C 377.56 495.09 374.56 494.92 372.98 496.92
  C 368.03 503.18 365.37 508.64 366.59 516.98
  C 367.83 525.41 374.39 529.95 382.21 532.42
  Q 383.11 532.70 382.64 531.88
  C 380.72 528.51 378.36 524.97 377.46 521.27
  C 376.14 515.92 375.87 509.49 377.49 504.04"
/>
<path stroke="#808080" vector-effect="non-scaling-stroke" d="
  M 390.64 509.38
  Q 390.55 508.51 390.96 507.44
  Q 391.28 506.61 390.42 506.41
  L 384.75 505.08
  Q 384.16 504.94 384.08 505.54
  C 383.27 511.71 382.65 515.65 385.39 521.99
  C 392.47 538.34 409.90 544.15 426.46 545.09
  Q 429.33 545.25 432.09 544.68
  A 1.90 1.90 0.0 0 0 433.60 542.87
  C 433.69 539.95 431.85 538.29 429.17 537.75
  C 425.86 537.10 422.87 535.83 419.49 535.51
  C 403.54 533.97 392.38 525.85 390.64 509.38"
/>
<path stroke="#808080" vector-effect="non-scaling-stroke" d="
  M 424.48 516.02
  A 0.18 0.18 0.0 0 0 424.30 515.80
  Q 419.82 515.96 414.83 515.26
  C 411.39 514.77 408.18 513.31 404.77 512.44
  C 402.51 511.87 400.54 510.74 398.56 509.59
  Q 397.66 509.07 397.94 510.07
  C 398.73 512.91 399.28 516.36 401.03 518.76
  C 404.46 523.45 409.30 526.12 414.91 526.95
  Q 417.77 527.37 420.44 528.42
  A 0.88 0.87 17.6 0 0 421.61 527.82
  L 424.48 516.02"
/>
<path stroke="#808080" vector-effect="non-scaling-stroke" d="
  M 439.56 513.54
  A 0.32 0.32 0.0 0 0 439.14 513.17
  L 431.54 515.79
  A 0.32 0.32 0.0 0 0 431.33 516.02
  L 428.08 529.65
  A 0.32 0.32 0.0 0 0 428.33 530.03
  L 435.25 531.41
  A 0.32 0.32 0.0 0 0 435.63 531.16
  L 439.56 513.54"
/>
<path stroke="#808080" vector-effect="non-scaling-stroke" d="
  M 440.64 536.62
  A 0.40 0.40 0.0 0 0 440.24 537.09
  L 440.79 540.46
  A 0.40 0.40 0.0 0 0 441.18 540.79
  L 479.81 541.06
  A 0.40 0.40 0.0 0 0 480.21 540.59
  L 479.66 537.22
  A 0.40 0.40 0.0 0 0 479.27 536.89
  L 440.64 536.62"
/>
<path stroke="#808080" vector-effect="non-scaling-stroke" d="
  M 589.73 558.80
  Q 592.80 557.93 594.16 560.69
  Q 603.97 580.63 613.26 599.82
  C 615.36 604.15 617.83 608.43 619.77 612.88
  Q 621.81 617.55 624.26 622.63
  Q 633.12 641.02 641.68 658.79
  Q 641.69 658.82 641.72 658.80
  L 641.95 658.70
  Q 642.18 658.59 642.07 658.36
  Q 629.25 629.54 616.85 599.87
  C 610.68 585.11 603.99 570.61 597.39 556.05
  C 595.90 552.78 594.97 548.41 597.23 545.25
  Q 597.75 544.53 596.88 544.69
  L 586.33 546.57
  Q 585.89 546.65 585.77 547.09
  C 585.46 548.27 585.40 549.38 585.03 550.61
  Q 578.67 571.41 573.39 587.91
  C 572.63 590.30 571.90 592.80 572.87 595.28
  Q 574.04 598.28 574.76 601.30
  A 0.38 0.38 0.0 0 0 575.37 601.50
  Q 575.90 601.07 576.13 600.37
  Q 581.11 584.67 586.62 568.22
  C 587.58 565.35 588.17 562.40 589.02 559.49
  Q 589.18 558.95 589.73 558.80"
/>
<path stroke="#808080" vector-effect="non-scaling-stroke" d="
  M 552.19 662.23
  C 550.30 657.00 547.22 651.86 543.53 647.48
  Q 538.98 642.10 537.73 640.21
  C 528.39 626.11 519.70 612.10 510.86 598.06
  Q 498.25 578.04 486.16 556.63
  C 484.91 554.41 484.14 552.16 483.21 549.79
  A 1.64 1.63 -10.3 0 0 481.70 548.75
  L 439.99 548.60
  Q 438.56 548.59 439.05 549.93
  C 439.94 552.34 443.33 555.24 445.36 557.33
  Q 467.31 579.95 488.24 601.19
  Q 495.10 608.15 501.60 614.87
  Q 522.76 636.72 544.83 658.96
  C 546.47 660.60 547.80 662.44 549.08 664.35
  A 0.81 0.80 -38.5 0 0 550.29 664.48
  L 552.04 662.85
  A 0.58 0.58 0.0 0 0 552.19 662.23"
/>
<path stroke="#808080" vector-effect="non-scaling-stroke" d="
  M 557.03 558.06
  Q 563.55 568.81 567.60 580.52
  Q 568.15 582.13 568.61 580.49
  Q 572.98 564.97 577.90 551.11
  A 0.49 0.48 -88.7 0 0 577.30 550.48
  L 556.88 556.65
  A 0.50 0.49 -25.7 0 0 556.61 557.40
  Q 556.83 557.73 557.03 558.06"
/>
<path stroke="#808080" vector-effect="non-scaling-stroke" d="
  M 416.21 610.19
  Q 417.21 610.51 418.02 611.02
  Q 426.21 616.12 433.53 622.95
  Q 452.39 640.53 457.90 665.94
  Q 458.52 668.81 459.23 671.93
  Q 459.89 674.83 460.49 688.01
  C 460.62 691.00 459.33 693.56 459.11 696.54
  Q 458.89 699.47 458.20 702.63
  C 450.37 738.24 418.98 764.76 382.46 766.07
  Q 353.37 767.12 330.31 750.99
  Q 305.34 733.52 297.15 703.16
  C 296.04 699.06 295.66 694.69 294.80 690.37
  C 294.28 687.75 294.34 681.78 295.12 678.15
  C 295.86 674.70 295.67 671.26 296.43 667.71
  Q 302.72 638.32 325.40 619.16
  Q 340.14 606.69 360.36 602.13
  C 362.73 601.59 365.06 601.56 367.49 600.98
  Q 369.82 600.42 372.65 600.41
  Q 380.09 600.38 387.12 600.78
  Q 387.84 600.82 387.77 600.10
  C 387.29 595.03 388.58 593.07 393.82 593.12
  Q 394.68 593.12 394.81 592.27
  L 395.10 590.30
  Q 395.18 589.75 394.65 589.63
  C 387.51 588.02 377.02 587.59 368.33 588.52
  Q 366.50 588.72 360.79 589.65
  C 341.90 592.74 323.60 602.51 310.06 615.69
  Q 289.67 635.52 283.48 662.48
  Q 283.01 664.54 282.42 666.42
  Q 281.74 668.58 281.73 670.89
  C 281.73 672.51 280.91 673.87 280.84 675.35
  Q 280.50 681.69 280.60 692.12
  Q 280.63 694.08 281.15 695.72
  C 281.95 698.22 281.96 700.57 282.49 703.03
  Q 283.82 709.24 285.90 714.89
  C 296.30 743.17 317.34 763.61 345.91 773.86
  C 348.76 774.88 351.71 775.52 354.55 776.49
  Q 356.08 777.01 357.61 777.15
  C 360.23 777.40 362.52 778.25 365.10 778.36
  Q 376.28 778.82 387.52 778.65
  C 390.51 778.61 393.24 777.89 396.15 777.52
  Q 400.00 777.04 403.61 775.91
  C 438.55 764.97 461.96 738.80 470.57 703.06
  C 471.30 700.02 471.09 696.86 471.75 693.95
  C 472.86 689.00 472.42 683.85 472.36 678.81
  C 472.29 672.61 470.73 665.92 469.32 659.84
  Q 466.35 647.00 458.30 633.41
  Q 445.52 611.83 423.46 599.05
  C 421.59 597.96 420.43 596.10 421.22 593.85
  C 422.76 589.45 423.09 584.89 424.41 580.38
  Q 425.86 575.41 426.94 569.71
  Q 427.35 567.49 428.53 565.59
  A 1.51 1.50 -81.0 0 1 429.43 564.93
  C 432.25 564.16 434.24 565.80 436.08 567.92
  Q 438.66 570.89 441.58 573.87
  Q 487.96 621.10 534.50 668.61
  A 0.91 0.89 -28.0 0 0 535.32 668.85
  L 541.49 667.50
  A 0.51 0.51 0.0 0 0 541.74 666.64
  Q 540.01 664.96 538.39 663.31
  Q 482.05 606.07 432.47 554.87
  Q 431.66 554.03 431.42 552.66
  A 0.55 0.54 -6.0 0 0 430.86 552.21
  L 424.20 552.57
  A 0.54 0.53 73.9 0 0 423.76 553.37
  C 424.86 555.31 423.39 556.48 422.97 558.25
  Q 421.10 566.25 419.11 574.52
  C 418.64 576.48 418.77 578.48 417.94 580.37
  C 416.85 582.85 416.40 585.59 416.11 588.28
  C 415.67 592.41 413.10 595.37 408.50 593.94
  Q 406.05 593.18 403.64 592.57
  A 0.73 0.72 84.5 0 0 402.81 593.58
  Q 404.82 597.93 403.47 602.56
  A 1.34 1.34 0.0 0 0 404.58 604.27
  Q 407.06 604.61 408.59 606.39
  A 1.41 1.38 27.1 0 1 408.93 607.40
  Q 408.83 609.03 408.32 610.76
  Q 397.95 646.28 387.66 679.57
  Q 387.26 680.87 387.35 682.34
  Q 387.39 682.84 388.16 682.77
  A 0.79 0.78 6.3 0 0 388.83 682.24
  Q 398.90 652.73 409.91 621.19
  C 410.97 618.15 412.60 612.45 415.13 610.40
  Q 415.61 610.00 416.21 610.19"
/>
<path stroke="#808080" vector-effect="non-scaling-stroke" d="
  M 581.83 603.81
  A 0.25 0.24 -11.4 0 0 582.23 604.07
  C 584.95 601.57 587.64 598.98 590.83 596.91
  Q 595.69 593.75 600.49 590.60
  Q 600.86 590.35 600.67 589.94
  Q 597.12 582.26 593.12 574.64
  Q 592.81 574.06 592.32 573.63
  A 0.26 0.25 27.8 0 0 591.91 573.75
  Q 588.19 587.05 581.83 603.81"
/>
<path stroke="#808080" vector-effect="non-scaling-stroke" d="
  M 409.3964 584.8250
  A 1.01 0.82 -9.4 0 0 408.2661 584.1810
  A 1.01 0.82 -9.4 0 0 407.4036 585.1550
  A 1.01 0.82 -9.4 0 0 408.5339 585.7990
  A 1.01 0.82 -9.4 0 0 409.3964 584.8250"
/>
<path stroke="#808080" vector-effect="non-scaling-stroke" d="
  M 734.04 677.52
  C 734.78 681.09 734.50 688.88 733.54 693.61
  Q 732.96 696.47 732.46 699.43
  Q 731.61 704.41 730.06 709.03
  C 720.02 739.02 692.98 761.20 661.57 764.44
  Q 654.33 765.19 642.76 764.63
  C 640.22 764.50 638.17 763.81 635.75 763.52
  Q 633.20 763.22 630.73 762.53
  Q 594.23 752.33 576.99 720.61
  A 1.79 1.76 -12.4 0 0 575.51 719.68
  Q 568.49 719.34 561.24 717.35
  A 0.31 0.31 0.0 0 0 560.88 717.78
  C 563.84 724.05 566.77 730.32 570.60 736.15
  Q 585.14 758.30 608.72 769.73
  Q 623.12 776.71 633.92 778.31
  Q 642.58 779.60 662.11 779.15
  Q 664.09 779.11 666.04 778.85
  C 669.12 778.44 671.98 778.35 675.06 777.47
  Q 682.85 775.26 688.46 772.97
  Q 728.24 756.74 743.36 714.62
  C 744.67 710.96 745.31 707.04 746.33 703.22
  C 747.18 700.03 747.09 696.84 747.71 693.64
  Q 748.34 690.37 748.30 686.69
  Q 748.21 678.68 747.78 675.00
  C 743.11 635.60 718.51 604.84 681.46 591.37
  C 677.06 589.77 672.65 589.07 668.25 587.81
  C 666.57 587.34 664.88 587.50 663.16 587.08
  Q 661.38 586.66 659.56 586.50
  Q 639.69 584.82 621.78 591.08
  Q 620.98 591.35 621.33 592.12
  L 626.18 602.91
  A 0.52 0.51 67.4 0 0 626.83 603.18
  Q 629.30 602.25 631.84 601.72
  C 633.80 601.31 635.72 601.48 637.65 600.92
  Q 639.56 600.36 641.81 600.23
  Q 654.91 599.51 658.54 599.99
  Q 697.13 605.06 719.27 636.26
  Q 727.95 648.51 731.95 664.62
  C 732.98 668.77 733.15 673.24 734.04 677.52"
/>
<path stroke="#808080" vector-effect="non-scaling-stroke" d="
  M 580.53 617.99
  C 582.31 622.26 583.44 627.23 584.10 631.43
  Q 584.18 631.96 584.10 632.49
  Q 584.03 633.02 584.16 633.55
  Q 584.39 634.48 584.95 633.71
  C 591.91 624.20 599.76 616.44 609.95 610.35
  Q 610.42 610.06 610.18 609.57
  L 604.83 598.22
  A 0.51 0.50 64.2 0 0 604.15 597.98
  C 596.17 601.94 588.76 608.46 582.56 614.67
  Q 581.49 615.75 580.62 617.03
  Q 580.32 617.48 580.53 617.99"
/>
<path stroke="#808080" vector-effect="non-scaling-stroke" d="
  M 652.36 726.19
  Q 652.48 727.50 652.30 728.78
  Q 652.04 730.61 650.19 730.52
  C 646.12 730.32 642.19 729.20 638.19 728.76
  Q 633.79 728.28 629.04 727.68
  C 625.26 727.21 621.79 726.19 617.95 726.30
  Q 615.52 726.37 613.26 725.69
  Q 610.55 724.88 607.41 724.95
  C 604.42 725.01 601.97 723.52 598.93 723.66
  C 595.08 723.85 590.96 722.42 587.19 721.80
  Q 586.38 721.67 586.83 722.36
  C 597.97 739.12 613.49 749.68 632.54 755.09
  C 634.68 755.70 636.76 755.87 638.91 756.41
  Q 641.16 756.98 643.76 757.10
  Q 657.07 757.72 662.81 756.79
  Q 688.80 752.54 706.08 734.42
  Q 719.04 720.83 724.39 701.63
  C 725.12 699.01 725.19 696.32 725.80 693.70
  Q 726.48 690.80 726.59 687.81
  C 727.42 663.86 717.49 641.19 699.38 625.67
  Q 676.76 606.30 646.24 607.47
  Q 637.58 607.80 629.46 610.22
  Q 628.93 610.38 629.15 610.88
  Q 642.75 642.52 656.91 674.65
  Q 657.57 676.13 657.30 677.73
  A 1.83 1.82 -88.3 0 1 655.70 679.24
  L 606.29 684.64
  Q 605.72 684.70 605.88 685.25
  C 606.69 688.01 608.32 690.39 608.63 693.30
  Q 609.80 704.27 600.57 709.20
  Q 597.70 710.74 593.62 711.03
  Q 587.44 711.46 582.86 710.87
  C 579.59 710.45 576.72 711.17 573.45 710.83
  Q 567.05 710.18 559.32 709.79
  A 0.42 0.42 0.0 0 0 558.89 710.27
  L 558.94 710.56
  Q 559.07 711.41 559.93 711.43
  C 564.53 711.53 568.64 712.86 573.23 713.19
  Q 576.39 713.41 579.44 714.29
  C 581.18 714.80 583.07 714.54 584.87 715.05
  C 589.37 716.32 593.79 716.34 598.31 717.10
  Q 602.42 717.80 606.83 718.21
  C 609.45 718.46 611.74 719.48 614.34 719.53
  Q 617.26 719.58 620.01 720.21
  C 623.48 721.01 627.08 720.55 630.58 721.39
  C 634.22 722.27 637.85 722.07 641.50 722.93
  Q 645.90 723.98 650.46 724.33
  Q 652.20 724.46 652.36 726.19"
/>
<path stroke="#808080" vector-effect="non-scaling-stroke" d="
  M 380.15 680.83
  Q 381.41 676.24 382.76 672.03
  Q 384.27 667.33 385.50 663.30
  Q 391.88 642.42 398.41 620.44
  Q 399.53 616.65 400.50 612.36
  A 0.75 0.74 16.0 0 0 400.02 611.50
  Q 396.70 610.34 393.11 610.21
  C 391.74 610.16 390.78 609.44 389.53 609.18
  C 363.45 603.76 335.79 615.63 319.46 636.10
  Q 304.30 655.11 302.31 680.95
  Q 301.79 687.61 302.91 692.57
  C 303.65 695.87 304.02 699.16 304.92 702.41
  Q 310.27 721.56 323.95 735.45
  Q 347.16 759.01 382.05 758.90
  C 384.64 758.89 387.05 757.89 389.69 757.77
  C 393.71 757.58 397.85 756.01 401.75 754.95
  Q 404.95 754.07 408.07 752.69
  C 432.61 741.83 448.69 719.78 452.11 693.35
  Q 452.67 689.06 452.61 684.26
  Q 452.54 678.04 452.08 675.04
  Q 446.75 640.24 418.73 620.44
  Q 417.76 619.75 417.36 620.87
  Q 405.87 653.05 395.63 683.63
  C 393.12 691.11 384.08 692.49 380.29 685.14
  Q 379.43 683.48 380.15 680.83"
/>
<path stroke="#808080" vector-effect="non-scaling-stroke" d="
  M 613.05 676.65
  Q 616.66 676.91 620.00 676.02
  C 624.64 674.78 629.32 675.82 634.03 674.56
  Q 637.09 673.75 640.63 674.23
  A 0.69 0.68 79.4 0 0 641.32 673.22
  C 640.51 671.74 639.57 670.49 638.82 668.97
  Q 627.40 645.69 615.98 621.33
  Q 615.05 619.35 613.96 617.30
  A 0.53 0.52 -29.7 0 0 613.21 617.10
  Q 598.05 626.63 588.59 641.56
  C 587.90 642.66 587.27 644.16 587.64 645.49
  Q 588.33 647.94 588.96 650.28
  Q 589.22 651.26 590.09 651.79
  C 599.87 657.85 601.99 666.65 604.34 677.09
  A 0.80 0.80 0.0 0 0 605.21 677.70
  C 607.84 677.39 610.38 676.46 613.05 676.65"
/>
<path stroke="#808080" vector-effect="non-scaling-stroke" d="
  M 554.49 651.12
  A 0.25 0.25 0.0 0 0 554.39 651.49
  Q 556.48 654.52 557.93 658.20
  Q 558.21 658.90 558.88 658.58
  C 566.74 654.88 573.48 651.77 581.93 651.87
  Q 582.55 651.88 582.33 651.29
  Q 580.47 646.30 579.63 641.32
  A 0.40 0.40 0.0 0 0 579.11 641.01
  Q 566.91 645.32 554.49 651.12"
/>
<path stroke="#808080" vector-effect="non-scaling-stroke" d="
  M 550.96 701.46
  C 555.96 702.78 561.91 701.69 566.73 702.51
  C 573.53 703.67 580.39 703.70 587.32 703.74
  C 593.08 703.77 600.72 703.62 601.09 696.29
  Q 601.28 692.46 599.96 689.19
  C 596.85 681.44 596.60 673.00 592.84 665.27
  C 588.29 655.90 575.29 658.99 567.52 662.33
  C 563.99 663.85 560.86 666.10 557.61 668.07
  Q 554.22 670.13 549.90 671.79
  Q 536.22 677.05 522.82 680.32
  C 518.39 681.40 513.87 682.55 509.72 684.19
  C 506.00 685.66 499.44 692.04 505.34 695.85
  C 508.50 697.89 512.00 697.89 515.55 698.62
  Q 518.22 699.17 520.77 699.30
  C 525.96 699.56 530.98 700.60 536.27 700.61
  C 541.13 700.63 546.33 700.23 550.96 701.46"
/>
<path stroke="#808080" vector-effect="non-scaling-stroke" d="
  M 496.97 292.29
  A 4.83 4.83 0.0 0 0 492.14 287.46
  A 4.83 4.83 0.0 0 0 487.31 292.29
  A 4.83 4.83 0.0 0 0 492.14 297.12
  A 4.83 4.83 0.0 0 0 496.97 292.29"
/>
<path stroke="#808080" vector-effect="non-scaling-stroke" d="
  M 492.0460 315.9788
  A 5.44 2.48 2.2 0 0 486.7052 313.2918
  A 5.44 2.48 2.2 0 0 481.1740 315.5612
  A 5.44 2.48 2.2 0 0 486.5148 318.2482
  A 5.44 2.48 2.2 0 0 492.0460 315.9788"
/>
<path stroke="#808080" vector-effect="non-scaling-stroke" d="
  M 498.45 450.76
  Q 521.70 429.24 539.59 410.10
  Q 549.67 399.33 560.38 385.63
  Q 567.24 376.86 572.08 368.73
  Q 573.50 366.34 571.41 363.64
  Q 571.12 363.26 570.64 363.16
  Q 567.83 362.55 566.63 364.46
  Q 562.73 370.65 558.62 376.23
  Q 545.62 393.88 527.66 412.30
  C 516.11 424.14 504.37 435.78 491.59 447.57
  Q 488.61 450.32 476.92 460.38
  Q 475.59 461.52 476.47 464.24
  Q 476.66 464.81 477.13 465.20
  Q 479.65 467.26 482.17 465.20
  Q 488.20 460.25 498.45 450.76"
/>
<path stroke="#808080" vector-effect="non-scaling-stroke" d="
  M 672.1764 444.1522
  A 3.13 3.13 0.0 0 0 668.7756 441.3187
  L 660.3704 442.0837
  A 3.13 3.13 0.0 0 0 657.5369 445.4845
  L 658.3436 454.3478
  A 3.13 3.13 0.0 0 0 661.7444 457.1813
  L 670.1496 456.4163
  A 3.13 3.13 0.0 0 0 672.9831 453.0155
  L 672.1764 444.1522"
/>
<path stroke="#808080" vector-effect="non-scaling-stroke" d="
  M 668.7071 447.2755
  A 3.85 1.66 4.7 0 0 665.0060 445.3056
  A 3.85 1.66 4.7 0 0 661.0329 446.6445
  A 3.85 1.66 4.7 0 0 664.7340 448.6144
  A 3.85 1.66 4.7 0 0 668.7071 447.2755"
/>
<path stroke="#808080" vector-effect="non-scaling-stroke" d="
  M 668.7608 451.8084
  A 0.83 0.83 0.0 0 0 667.8804 451.0321
  L 662.1716 451.3913
  A 0.83 0.83 0.0 0 0 661.3954 452.2718
  L 661.3992 452.3316
  A 0.83 0.83 0.0 0 0 662.2796 453.1079
  L 667.9884 452.7487
  A 0.83 0.83 0.0 0 0 668.7646 451.8682
  L 668.7608 451.8084"
/>
</g>
<path fill="#ffffff" d="
  M 1024.00 0.00
  L 1024.00 1024.00
  L 0.00 1024.00
  L 0.00 0.00
  L 1024.00 0.00
  Z
  M 685.72 782.46
  Q 711.58 773.53 729.40 753.63
  Q 746.05 735.03 752.80 710.39
  C 753.64 707.30 753.76 704.33 754.63 701.33
  C 755.72 697.58 755.00 693.70 755.64 689.86
  Q 756.60 684.05 755.56 677.97
  C 755.11 675.35 755.70 672.80 755.10 670.20
  C 754.18 666.23 753.87 662.18 752.79 658.28
  Q 742.43 621.01 712.02 598.61
  Q 679.11 574.37 635.68 579.40
  C 633.85 579.62 632.37 580.46 630.45 580.52
  C 626.84 580.63 622.31 582.53 618.90 583.76
  Q 617.87 584.13 617.42 583.13
  Q 610.64 568.14 604.42 554.55
  C 603.35 552.21 602.90 549.07 604.45 546.77
  Q 605.61 545.05 606.31 543.04
  Q 606.49 542.52 606.97 542.24
  Q 608.56 541.33 610.52 541.18
  C 631.27 539.57 651.81 533.58 666.78 519.14
  Q 673.23 512.91 678.05 503.26
  C 679.09 501.16 679.54 498.88 680.45 496.70
  Q 681.45 494.32 681.85 491.60
  Q 683.19 482.63 683.25 474.60
  Q 683.26 471.96 682.45 469.35
  Q 682.28 468.81 682.79 468.57
  C 685.73 467.16 689.04 466.03 691.52 463.92
  C 706.05 451.50 698.69 431.47 691.51 417.65
  C 679.38 394.29 664.40 372.86 647.84 352.16
  Q 645.07 348.69 641.81 345.56
  Q 640.01 343.83 642.36 344.66
  Q 646.27 346.03 651.00 348.20
  Q 656.76 350.84 665.21 352.26
  C 674.23 353.78 684.33 350.44 686.19 340.38
  C 686.43 339.08 685.81 338.20 685.92 336.99
  C 686.14 334.67 682.33 329.16 680.02 328.58
  Q 677.80 328.02 675.72 327.19
  A 1.65 1.65 0.0 0 0 674.53 327.17
  C 671.93 328.11 670.45 331.71 673.67 333.30
  Q 676.37 334.63 678.37 336.51
  C 680.08 338.10 678.38 340.88 677.42 342.45
  A 1.40 1.40 0.0 0 1 676.72 343.03
  Q 671.24 345.09 666.58 344.23
  Q 660.35 343.08 653.77 340.63
  Q 639.03 335.14 625.12 325.95
  C 619.75 322.40 615.41 317.31 610.47 313.04
  C 607.17 310.19 603.52 308.25 600.37 305.27
  A 1.52 1.51 -66.1 0 1 599.90 304.04
  Q 600.11 301.17 599.37 298.74
  Q 599.15 298.01 599.90 298.15
  C 614.20 300.84 627.64 298.94 641.59 295.61
  Q 645.96 294.57 650.90 293.84
  Q 656.04 293.07 660.85 292.38
  Q 664.72 291.83 667.88 292.45
  Q 672.22 293.30 675.50 294.58
  C 678.82 295.88 682.52 299.37 679.39 303.15
  A 0.89 0.88 10.7 0 1 678.96 303.44
  L 673.83 304.96
  Q 673.30 305.11 673.01 305.58
  C 671.33 308.20 672.52 311.26 675.76 311.52
  C 680.12 311.87 683.19 310.40 685.97 307.07
  Q 687.69 305.02 687.96 302.28
  Q 688.64 295.40 683.64 290.89
  Q 678.41 286.16 670.58 285.34
  Q 663.15 284.56 653.98 285.32
  C 652.22 285.46 650.83 286.38 649.05 286.49
  Q 645.16 286.75 641.21 287.79
  Q 631.57 290.30 621.62 291.84
  Q 610.79 293.51 598.64 290.30
  C 597.26 289.94 595.71 289.29 594.84 288.09
  C 591.67 283.71 588.41 280.18 583.45 277.70
  C 582.28 277.12 581.08 277.47 579.85 276.90
  Q 577.24 275.71 573.94 276.85
  A 0.72 0.72 0.0 0 1 572.98 276.19
  Q 572.88 271.25 572.40 266.28
  Q 572.21 264.32 570.95 262.73
  A 1.70 1.67 25.6 0 1 570.58 261.71
  C 570.54 256.78 564.72 249.32 561.55 245.74
  Q 561.19 245.33 561.62 245.01
  C 568.53 239.83 567.93 230.12 562.36 224.22
  C 560.06 221.79 555.69 219.83 552.53 219.76
  Q 541.53 219.51 538.92 229.62
  Q 538.77 230.19 538.21 230.01
  Q 525.36 226.08 512.16 227.93
  Q 504.64 228.98 498.64 231.93
  C 486.68 237.83 475.58 249.27 473.29 262.72
  Q 472.13 269.54 476.37 273.21
  Q 476.88 273.65 476.69 274.29
  C 475.13 279.65 474.93 285.29 473.20 290.67
  Q 471.28 296.66 470.95 299.21
  C 470.33 303.98 469.85 310.31 471.28 315.13
  Q 471.91 317.24 472.57 319.18
  C 475.08 326.54 480.40 332.79 488.02 336.17
  C 491.65 337.77 495.66 337.64 499.51 338.30
  A 0.68 0.68 0.0 0 1 500.07 338.99
  L 499.90 343.89
  Q 499.88 344.56 499.48 345.10
  Q 488.46 359.97 476.56 373.58
  C 472.89 377.77 468.71 381.81 464.79 385.83
  Q 460.16 390.57 455.76 394.81
  Q 439.76 410.26 425.53 424.61
  Q 419.86 430.34 413.85 437.11
  Q 407.49 444.27 406.25 451.80
  C 405.99 453.38 405.12 455.40 404.03 456.55
  Q 401.68 459.02 399.70 461.99
  Q 399.38 462.47 398.82 462.31
  Q 395.48 461.36 392.18 460.35
  Q 381.11 456.96 371.09 460.94
  C 367.85 462.23 362.63 466.09 361.57 470.02
  C 360.59 473.67 358.65 475.34 360.17 479.65
  Q 360.39 480.29 359.88 480.72
  C 352.52 486.97 347.71 492.80 344.96 502.80
  Q 341.42 515.70 345.57 528.23
  Q 351.53 546.23 370.36 552.62
  Q 379.34 555.67 388.22 557.97
  C 391.78 558.89 398.46 558.70 401.23 555.48
  Q 404.09 552.15 404.40 548.53
  Q 404.45 547.86 405.07 548.12
  Q 410.34 550.28 416.28 550.94
  A 1.12 1.12 0.0 0 1 417.26 552.19
  C 416.79 556.01 415.40 559.50 414.60 563.26
  Q 413.49 568.42 412.32 573.79
  Q 412.08 574.90 410.84 576.70
  Q 410.51 577.19 410.61 577.76
  L 410.88 579.22
  A 0.96 0.95 1.8 0 1 409.71 580.31
  L 407.11 579.65
  Q 406.24 579.44 406.67 578.65
  L 407.28 577.55
  A 0.68 0.67 -63.4 0 0 406.97 576.60
  Q 405.45 575.90 404.27 574.76
  Q 403.87 574.38 403.33 574.45
  C 399.28 574.99 395.92 576.41 395.79 580.84
  Q 395.76 581.93 394.68 581.76
  Q 354.31 575.40 319.77 597.77
  C 317.54 599.22 315.73 601.00 313.56 602.44
  Q 311.27 603.97 309.13 605.86
  Q 289.57 623.15 280.19 646.78
  C 278.22 651.76 277.04 656.69 275.52 661.72
  Q 274.83 664.01 274.72 666.15
  C 274.51 670.16 273.23 673.62 273.29 677.75
  Q 273.40 685.02 273.32 692.14
  Q 273.29 694.66 273.86 697.37
  C 274.51 700.44 274.59 703.57 275.47 706.58
  C 276.50 710.10 277.20 713.50 278.44 717.04
  C 288.45 745.72 310.33 768.39 338.37 779.67
  Q 341.29 780.84 344.47 781.44
  Q 344.69 781.49 344.81 781.67
  Q 344.90 781.80 344.90 781.95
  Q 344.91 782.44 344.42 782.46
  Q 338.77 782.72 333.10 782.54
  Q 325.37 782.29 313.21 782.78
  Q 310.73 782.88 309.54 785.73
  Q 309.36 786.17 309.38 786.68
  Q 309.55 790.26 313.13 790.24
  Q 371.33 789.81 431.18 790.15
  C 434.20 790.16 437.18 790.38 440.20 790.15
  Q 443.00 789.93 442.64 787.14
  L 442.43 785.49
  Q 442.06 782.64 439.18 782.64
  L 409.60 782.59
  Q 407.72 782.59 409.52 782.04
  Q 418.81 779.20 427.36 774.25
  Q 460.66 754.98 474.05 718.77
  C 475.35 715.25 476.29 711.51 477.37 707.95
  Q 478.54 704.09 479.08 699.50
  Q 480.60 686.46 479.76 672.53
  C 479.61 670.15 478.68 668.36 478.63 665.98
  Q 478.58 663.56 477.91 661.09
  Q 476.73 656.70 475.54 652.95
  Q 463.96 616.64 432.72 595.37
  Q 432.35 595.12 432.07 594.81
  Q 431.72 594.43 431.24 594.40
  C 429.58 594.30 428.64 592.77 429.05 591.23
  Q 431.00 584.00 432.30 576.84
  Q 432.56 575.44 433.56 576.46
  L 526.61 671.42
  A 0.34 0.34 0.0 0 1 526.44 671.99
  Q 517.28 673.74 508.87 676.67
  Q 501.16 679.35 497.64 685.89
  Q 494.98 690.85 497.10 697.51
  Q 497.34 698.25 497.04 698.96
  Q 493.90 706.44 499.73 710.64
  Q 502.20 712.42 507.61 713.11
  Q 520.31 714.72 532.17 716.05
  C 534.17 716.27 535.90 716.88 537.85 717.05
  Q 544.74 717.65 552.28 717.95
  Q 552.86 717.98 553.06 718.51
  C 562.45 743.85 579.68 763.66 603.83 776.27
  Q 610.62 779.81 615.56 781.06
  Q 616.09 781.19 616.45 781.59
  Q 617.33 782.58 616.00 782.57
  Q 600.42 782.51 586.54 782.67
  Q 582.85 782.71 581.85 785.66
  Q 581.70 786.12 581.76 786.65
  Q 582.19 790.30 585.52 790.27
  C 630.51 789.90 669.79 789.92 712.50 790.20
  C 715.60 790.22 719.37 791.19 721.67 788.34
  C 723.08 786.60 721.48 783.79 719.72 783.12
  Q 718.57 782.69 717.09 782.66
  Q 702.37 782.41 685.76 782.73
  Q 684.89 782.74 685.72 782.46
  Z"
/>
<path fill="#010101" d="
  M 685.76 782.73
  Q 702.37 782.41 717.09 782.66
  Q 718.57 782.69 719.72 783.12
  C 721.48 783.79 723.08 786.60 721.67 788.34
  C 719.37 791.19 715.60 790.22 712.50 790.20
  C 669.79 789.92 630.51 789.90 585.52 790.27
  Q 582.19 790.30 581.76 786.65
  Q 581.70 786.12 581.85 785.66
  Q 582.85 782.71 586.54 782.67
  Q 600.42 782.51 616.00 782.57
  Q 617.33 782.58 616.45 781.59
  Q 616.09 781.19 615.56 781.06
  Q 610.62 779.81 603.83 776.27
  C 579.68 763.66 562.45 743.85 553.06 718.51
  Q 552.86 717.98 552.28 717.95
  Q 544.74 717.65 537.85 717.05
  C 535.90 716.88 534.17 716.27 532.17 716.05
  Q 520.31 714.72 507.61 713.11
  Q 502.20 712.42 499.73 710.64
  Q 493.90 706.44 497.04 698.96
  Q 497.34 698.25 497.10 697.51
  Q 494.98 690.85 497.64 685.89
  Q 501.16 679.35 508.87 676.67
  Q 517.28 673.74 526.44 671.99
  A 0.34 0.34 0.0 0 0 526.61 671.42
  L 433.56 576.46
  Q 432.56 575.44 432.30 576.84
  Q 431.00 584.00 429.05 591.23
  C 428.64 592.77 429.58 594.30 431.24 594.40
  Q 431.72 594.43 432.07 594.81
  Q 432.35 595.12 432.72 595.37
  Q 463.96 616.64 475.54 652.95
  Q 476.73 656.70 477.91 661.09
  Q 478.58 663.56 478.63 665.98
  C 478.68 668.36 479.61 670.15 479.76 672.53
  Q 480.60 686.46 479.08 699.50
  Q 478.54 704.09 477.37 707.95
  C 476.29 711.51 475.35 715.25 474.05 718.77
  Q 460.66 754.98 427.36 774.25
  Q 418.81 779.20 409.52 782.04
  Q 407.72 782.59 409.60 782.59
  L 439.18 782.64
  Q 442.06 782.64 442.43 785.49
  L 442.64 787.14
  Q 443.00 789.93 440.20 790.15
  C 437.18 790.38 434.20 790.16 431.18 790.15
  Q 371.33 789.81 313.13 790.24
  Q 309.55 790.26 309.38 786.68
  Q 309.36 786.17 309.54 785.73
  Q 310.73 782.88 313.21 782.78
  Q 325.37 782.29 333.10 782.54
  Q 338.77 782.72 344.42 782.46
  Q 344.91 782.44 344.90 781.95
  Q 344.90 781.80 344.81 781.67
  Q 344.69 781.49 344.47 781.44
  Q 341.29 780.84 338.37 779.67
  C 310.33 768.39 288.45 745.72 278.44 717.04
  C 277.20 713.50 276.50 710.10 275.47 706.58
  C 274.59 703.57 274.51 700.44 273.86 697.37
  Q 273.29 694.66 273.32 692.14
  Q 273.40 685.02 273.29 677.75
  C 273.23 673.62 274.51 670.16 274.72 666.15
  Q 274.83 664.01 275.52 661.72
  C 277.04 656.69 278.22 651.76 280.19 646.78
  Q 289.57 623.15 309.13 605.86
  Q 311.27 603.97 313.56 602.44
  C 315.73 601.00 317.54 599.22 319.77 597.77
  Q 354.31 575.40 394.68 581.76
  Q 395.76 581.93 395.79 580.84
  C 395.92 576.41 399.28 574.99 403.33 574.45
  Q 403.87 574.38 404.27 574.76
  Q 405.45 575.90 406.97 576.60
  A 0.68 0.67 -63.4 0 1 407.28 577.55
  L 406.67 578.65
  Q 406.24 579.44 407.11 579.65
  L 409.71 580.31
  A 0.96 0.95 1.8 0 0 410.88 579.22
  L 410.61 577.76
  Q 410.51 577.19 410.84 576.70
  Q 412.08 574.90 412.32 573.79
  Q 413.49 568.42 414.60 563.26
  C 415.40 559.50 416.79 556.01 417.26 552.19
  A 1.12 1.12 0.0 0 0 416.28 550.94
  Q 410.34 550.28 405.07 548.12
  Q 404.45 547.86 404.40 548.53
  Q 404.09 552.15 401.23 555.48
  C 398.46 558.70 391.78 558.89 388.22 557.97
  Q 379.34 555.67 370.36 552.62
  Q 351.53 546.23 345.57 528.23
  Q 341.42 515.70 344.96 502.80
  C 347.71 492.80 352.52 486.97 359.88 480.72
  Q 360.39 480.29 360.17 479.65
  C 358.65 475.34 360.59 473.67 361.57 470.02
  C 362.63 466.09 367.85 462.23 371.09 460.94
  Q 381.11 456.96 392.18 460.35
  Q 395.48 461.36 398.82 462.31
  Q 399.38 462.47 399.70 461.99
  Q 401.68 459.02 404.03 456.55
  C 405.12 455.40 405.99 453.38 406.25 451.80
  Q 407.49 444.27 413.85 437.11
  Q 419.86 430.34 425.53 424.61
  Q 439.76 410.26 455.76 394.81
  Q 460.16 390.57 464.79 385.83
  C 468.71 381.81 472.89 377.77 476.56 373.58
  Q 488.46 359.97 499.48 345.10
  Q 499.88 344.56 499.90 343.89
  L 500.07 338.99
  A 0.68 0.68 0.0 0 0 499.51 338.30
  C 495.66 337.64 491.65 337.77 488.02 336.17
  C 480.40 332.79 475.08 326.54 472.57 319.18
  Q 471.91 317.24 471.28 315.13
  C 469.85 310.31 470.33 303.98 470.95 299.21
  Q 471.28 296.66 473.20 290.67
  C 474.93 285.29 475.13 279.65 476.69 274.29
  Q 476.88 273.65 476.37 273.21
  Q 472.13 269.54 473.29 262.72
  C 475.58 249.27 486.68 237.83 498.64 231.93
  Q 504.64 228.98 512.16 227.93
  Q 525.36 226.08 538.21 230.01
  Q 538.77 230.19 538.92 229.62
  Q 541.53 219.51 552.53 219.76
  C 555.69 219.83 560.06 221.79 562.36 224.22
  C 567.93 230.12 568.53 239.83 561.62 245.01
  Q 561.19 245.33 561.55 245.74
  C 564.72 249.32 570.54 256.78 570.58 261.71
  A 1.70 1.67 25.6 0 0 570.95 262.73
  Q 572.21 264.32 572.40 266.28
  Q 572.88 271.25 572.98 276.19
  A 0.72 0.72 0.0 0 0 573.94 276.85
  Q 577.24 275.71 579.85 276.90
  C 581.08 277.47 582.28 277.12 583.45 277.70
  C 588.41 280.18 591.67 283.71 594.84 288.09
  C 595.71 289.29 597.26 289.94 598.64 290.30
  Q 610.79 293.51 621.62 291.84
  Q 631.57 290.30 641.21 287.79
  Q 645.16 286.75 649.05 286.49
  C 650.83 286.38 652.22 285.46 653.98 285.32
  Q 663.15 284.56 670.58 285.34
  Q 678.41 286.16 683.64 290.89
  Q 688.64 295.40 687.96 302.28
  Q 687.69 305.02 685.97 307.07
  C 683.19 310.40 680.12 311.87 675.76 311.52
  C 672.52 311.26 671.33 308.20 673.01 305.58
  Q 673.30 305.11 673.83 304.96
  L 678.96 303.44
  A 0.89 0.88 10.7 0 0 679.39 303.15
  C 682.52 299.37 678.82 295.88 675.50 294.58
  Q 672.22 293.30 667.88 292.45
  Q 664.72 291.83 660.85 292.38
  Q 656.04 293.07 650.90 293.84
  Q 645.96 294.57 641.59 295.61
  C 627.64 298.94 614.20 300.84 599.90 298.15
  Q 599.15 298.01 599.37 298.74
  Q 600.11 301.17 599.90 304.04
  A 1.52 1.51 -66.1 0 0 600.37 305.27
  C 603.52 308.25 607.17 310.19 610.47 313.04
  C 615.41 317.31 619.75 322.40 625.12 325.95
  Q 639.03 335.14 653.77 340.63
  Q 660.35 343.08 666.58 344.23
  Q 671.24 345.09 676.72 343.03
  A 1.40 1.40 0.0 0 0 677.42 342.45
  C 678.38 340.88 680.08 338.10 678.37 336.51
  Q 676.37 334.63 673.67 333.30
  C 670.45 331.71 671.93 328.11 674.53 327.17
  A 1.65 1.65 0.0 0 1 675.72 327.19
  Q 677.80 328.02 680.02 328.58
  C 682.33 329.16 686.14 334.67 685.92 336.99
  C 685.81 338.20 686.43 339.08 686.19 340.38
  C 684.33 350.44 674.23 353.78 665.21 352.26
  Q 656.76 350.84 651.00 348.20
  Q 646.27 346.03 642.36 344.66
  Q 640.01 343.83 641.81 345.56
  Q 645.07 348.69 647.84 352.16
  C 664.40 372.86 679.38 394.29 691.51 417.65
  C 698.69 431.47 706.05 451.50 691.52 463.92
  C 689.04 466.03 685.73 467.16 682.79 468.57
  Q 682.28 468.81 682.45 469.35
  Q 683.26 471.96 683.25 474.60
  Q 683.19 482.63 681.85 491.60
  Q 681.45 494.32 680.45 496.70
  C 679.54 498.88 679.09 501.16 678.05 503.26
  Q 673.23 512.91 666.78 519.14
  C 651.81 533.58 631.27 539.57 610.52 541.18
  Q 608.56 541.33 606.97 542.24
  Q 606.49 542.52 606.31 543.04
  Q 605.61 545.05 604.45 546.77
  C 602.90 549.07 603.35 552.21 604.42 554.55
  Q 610.64 568.14 617.42 583.13
  Q 617.87 584.13 618.90 583.76
  C 622.31 582.53 626.84 580.63 630.45 580.52
  C 632.37 580.46 633.85 579.62 635.68 579.40
  Q 679.11 574.37 712.02 598.61
  Q 742.43 621.01 752.79 658.28
  C 753.87 662.18 754.18 666.23 755.10 670.20
  C 755.70 672.80 755.11 675.35 755.56 677.97
  Q 756.60 684.05 755.64 689.86
  C 755.00 693.70 755.72 697.58 754.63 701.33
  C 753.76 704.33 753.64 707.30 752.80 710.39
  Q 746.05 735.03 729.40 753.63
  Q 711.58 773.53 685.72 782.46
  Q 684.89 782.74 685.76 782.73
  Z
  M 538.13 298.49
  C 528.79 300.96 524.09 290.92 521.19 284.25
  C 520.69 283.09 519.69 282.20 518.38 282.17
  Q 514.82 282.07 511.74 281.14
  C 508.37 280.12 505.14 280.78 501.84 279.38
  C 500.16 278.68 498.33 278.87 496.56 278.76
  Q 494.51 278.65 492.58 278.03
  Q 488.24 276.63 483.02 276.42
  A 0.45 0.44 -0.6 0 0 482.56 276.88
  Q 482.60 278.23 482.41 279.55
  Q 480.86 290.17 478.42 298.41
  C 476.35 305.42 477.11 311.66 480.10 318.16
  C 482.76 323.96 486.46 328.62 492.86 330.12
  Q 497.53 331.22 501.74 330.89
  Q 503.73 330.73 505.35 329.46
  Q 523.14 315.51 539.81 301.87
  C 540.86 301.01 542.16 300.55 543.21 299.64
  Q 549.92 293.79 557.81 288.50
  C 559.35 287.46 560.61 286.17 561.31 284.41
  A 0.59 0.59 0.0 0 0 560.75 283.60
  Q 554.22 283.82 548.89 282.92
  Q 548.29 282.82 548.44 283.42
  C 550.04 289.91 543.85 296.98 538.13 298.49
  Z
  M 528.41 281.69
  C 529.78 285.53 531.17 290.11 535.04 291.83
  C 537.99 293.14 541.51 288.97 541.35 286.29
  C 541.06 281.25 532.36 280.90 528.77 281.13
  A 0.42 0.41 78.4 0 0 528.41 281.69
  Z
  M 513.59 355.85
  C 522.11 344.71 530.11 333.27 539.02 322.55
  C 545.53 314.73 552.79 308.30 561.82 304.09
  Q 568.05 301.18 575.42 300.82
  Q 584.61 300.38 591.79 302.64
  A 0.69 0.69 0.0 0 0 592.68 301.93
  C 592.40 298.11 590.11 295.04 588.04 291.99
  Q 585.01 287.54 580.00 284.90
  C 578.50 284.11 577.07 284.32 575.68 285.17
  C 559.93 294.78 545.59 306.40 531.06 318.37
  Q 521.09 326.58 511.12 334.11
  C 506.61 337.52 506.28 344.13 508.86 348.82
  Q 510.84 352.40 512.90 355.81
  A 0.42 0.42 0.0 0 0 513.59 355.85
  Z
  M 592.70 359.19
  C 594.13 360.01 593.74 362.10 593.90 363.47
  Q 594.04 364.71 593.63 365.46
  Q 585.61 379.83 575.65 391.89
  C 564.83 405.02 554.96 415.47 538.54 431.88
  Q 538.16 432.27 538.28 432.79
  C 540.93 444.02 544.31 454.22 552.96 462.18
  C 560.97 469.57 572.12 470.50 582.62 469.71
  Q 591.90 469.02 601.49 467.18
  Q 617.10 464.17 627.99 463.26
  Q 635.49 462.62 643.00 462.08
  Q 656.96 461.08 671.82 460.89
  C 675.32 460.84 678.93 460.04 682.39 459.44
  Q 683.72 459.21 684.92 458.24
  Q 692.93 451.76 690.90 441.15
  Q 689.89 435.89 688.54 432.65
  C 686.51 427.79 684.57 423.09 682.10 418.39
  Q 664.73 385.41 641.08 356.87
  C 630.24 343.80 619.20 331.68 606.02 319.50
  Q 598.56 312.61 589.82 309.91
  C 587.09 309.06 584.41 309.15 581.74 308.49
  Q 579.01 307.81 576.05 308.24
  Q 562.12 310.28 552.73 319.25
  Q 544.51 327.10 541.58 331.10
  C 530.32 346.53 519.11 360.98 507.90 375.18
  C 503.32 380.98 498.45 386.37 493.73 392.06
  C 491.09 395.24 488.27 398.13 485.70 401.38
  C 481.83 406.27 476.93 411.37 473.29 415.79
  Q 464.90 425.97 456.05 436.55
  C 449.31 444.59 444.20 452.02 440.43 461.16
  Q 440.19 461.75 440.70 462.14
  C 449.85 469.13 457.45 476.62 462.74 486.75
  A 0.71 0.71 0.0 0 0 463.58 487.11
  C 471.41 484.76 478.55 479.00 484.50 473.44
  Q 507.55 451.93 535.43 423.88
  C 553.19 406.02 569.48 389.29 582.21 368.84
  C 583.66 366.50 584.63 363.98 585.79 361.48
  Q 588.10 356.53 592.70 359.19
  Z
  M 413.50 450.63
  Q 413.05 451.29 413.70 451.77
  C 416.58 453.86 419.58 455.71 422.16 458.16
  Q 426.27 462.07 429.35 466.41
  A 0.53 0.53 0.0 0 0 430.17 466.47
  C 431.86 464.73 434.00 462.31 434.17 459.72
  C 434.64 452.37 440.82 443.46 445.26 437.78
  Q 455.89 424.17 472.24 405.21
  Q 491.40 383.00 507.79 362.95
  A 0.78 0.78 0.0 0 0 507.80 361.98
  Q 504.74 358.05 502.96 353.46
  A 0.36 0.35 53.1 0 0 502.35 353.37
  Q 495.79 362.16 488.64 370.92
  C 483.82 376.83 478.33 382.29 473.23 387.82
  Q 467.11 394.45 461.16 400.11
  C 447.32 413.31 434.79 425.60 421.46 439.65
  C 418.14 443.15 416.13 446.82 413.50 450.63
  Z
  M 444.73 521.97
  L 444.45 522.24
  A 0.84 0.81 68.7 0 0 444.19 522.87
  Q 444.27 525.89 442.94 528.53
  A 0.47 0.47 0.0 0 0 443.36 529.21
  L 478.50 529.22
  Q 479.22 529.22 479.27 528.50
  C 480.37 512.63 492.20 502.10 505.95 495.25
  C 520.10 488.19 535.64 482.76 551.05 477.58
  C 553.38 476.79 555.85 476.53 558.27 476.00
  Q 560.56 475.51 558.37 474.67
  C 543.54 469.03 534.46 453.90 531.84 438.93
  A 0.28 0.28 0.0 0 0 531.37 438.78
  C 518.21 452.38 504.21 465.27 489.79 478.73
  C 481.30 486.66 472.42 493.41 460.87 495.20
  Q 459.91 495.35 459.17 495.96
  Q 455.94 498.61 452.36 501.38
  C 450.55 502.78 449.20 504.60 447.69 506.31
  Q 446.93 507.16 447.11 508.29
  C 447.47 510.49 446.77 512.34 446.39 514.47
  Q 445.76 518.01 445.06 521.39
  Q 444.99 521.73 444.73 521.97
  Z
  M 410.78 459.37
  L 406.11 464.65
  A 0.56 0.55 30.7 0 0 406.34 465.54
  Q 412.21 467.71 418.60 471.02
  Q 420.94 472.24 423.37 471.66
  A 0.78 0.78 0.0 0 0 423.80 470.42
  Q 418.55 463.80 412.21 459.22
  A 1.08 1.07 -50.9 0 0 410.78 459.37
  Z
  M 432.11 474.47
  L 449.61 494.32
  A 0.70 0.70 0.0 0 0 450.60 494.38
  L 454.84 490.64
  A 10.34 2.92 48.6 0 0 450.19 480.95
  L 445.45 475.57
  A 10.34 2.92 48.6 0 0 436.42 469.74
  L 432.17 473.49
  A 0.70 0.70 0.0 0 0 432.11 474.47
  Z
  M 366.55 492.62
  C 365.46 491.64 364.59 490.23 364.06 488.88
  A 0.97 0.97 0.0 0 0 362.64 488.41
  C 358.53 491.00 356.51 494.77 354.19 498.83
  Q 352.83 501.23 352.29 503.78
  C 351.56 507.22 350.36 510.33 350.49 513.94
  Q 351.37 538.58 374.40 546.28
  Q 386.20 550.22 391.97 551.12
  C 393.54 551.37 395.64 551.30 396.70 549.82
  C 399.90 545.37 391.16 541.91 388.42 541.39
  C 380.13 539.83 371.77 537.52 365.99 531.49
  Q 360.30 525.56 359.39 518.25
  Q 357.55 503.65 366.60 493.93
  Q 367.24 493.25 366.55 492.62
  Z
  M 377.49 504.04
  Q 378.78 499.73 380.19 495.71
  A 0.44 0.44 0.0 0 0 379.78 495.12
  C 377.56 495.09 374.56 494.92 372.98 496.92
  C 368.03 503.18 365.37 508.64 366.59 516.98
  C 367.83 525.41 374.39 529.95 382.21 532.42
  Q 383.11 532.70 382.64 531.88
  C 380.72 528.51 378.36 524.97 377.46 521.27
  C 376.14 515.92 375.87 509.49 377.49 504.04
  Z
  M 390.64 509.38
  Q 390.55 508.51 390.96 507.44
  Q 391.28 506.61 390.42 506.41
  L 384.75 505.08
  Q 384.16 504.94 384.08 505.54
  C 383.27 511.71 382.65 515.65 385.39 521.99
  C 392.47 538.34 409.90 544.15 426.46 545.09
  Q 429.33 545.25 432.09 544.68
  A 1.90 1.90 0.0 0 0 433.60 542.87
  C 433.69 539.95 431.85 538.29 429.17 537.75
  C 425.86 537.10 422.87 535.83 419.49 535.51
  C 403.54 533.97 392.38 525.85 390.64 509.38
  Z
  M 424.48 516.02
  A 0.18 0.18 0.0 0 0 424.30 515.80
  Q 419.82 515.96 414.83 515.26
  C 411.39 514.77 408.18 513.31 404.77 512.44
  C 402.51 511.87 400.54 510.74 398.56 509.59
  Q 397.66 509.07 397.94 510.07
  C 398.73 512.91 399.28 516.36 401.03 518.76
  C 404.46 523.45 409.30 526.12 414.91 526.95
  Q 417.77 527.37 420.44 528.42
  A 0.88 0.87 17.6 0 0 421.61 527.82
  L 424.48 516.02
  Z
  M 439.56 513.54
  A 0.32 0.32 0.0 0 0 439.14 513.17
  L 431.54 515.79
  A 0.32 0.32 0.0 0 0 431.33 516.02
  L 428.08 529.65
  A 0.32 0.32 0.0 0 0 428.33 530.03
  L 435.25 531.41
  A 0.32 0.32 0.0 0 0 435.63 531.16
  L 439.56 513.54
  Z
  M 440.64 536.62
  A 0.40 0.40 0.0 0 0 440.24 537.09
  L 440.79 540.46
  A 0.40 0.40 0.0 0 0 441.18 540.79
  L 479.81 541.06
  A 0.40 0.40 0.0 0 0 480.21 540.59
  L 479.66 537.22
  A 0.40 0.40 0.0 0 0 479.27 536.89
  L 440.64 536.62
  Z
  M 589.73 558.80
  Q 592.80 557.93 594.16 560.69
  Q 603.97 580.63 613.26 599.82
  C 615.36 604.15 617.83 608.43 619.77 612.88
  Q 621.81 617.55 624.26 622.63
  Q 633.12 641.02 641.68 658.79
  Q 641.69 658.82 641.72 658.80
  L 641.95 658.70
  Q 642.18 658.59 642.07 658.36
  Q 629.25 629.54 616.85 599.87
  C 610.68 585.11 603.99 570.61 597.39 556.05
  C 595.90 552.78 594.97 548.41 597.23 545.25
  Q 597.75 544.53 596.88 544.69
  L 586.33 546.57
  Q 585.89 546.65 585.77 547.09
  C 585.46 548.27 585.40 549.38 585.03 550.61
  Q 578.67 571.41 573.39 587.91
  C 572.63 590.30 571.90 592.80 572.87 595.28
  Q 574.04 598.28 574.76 601.30
  A 0.38 0.38 0.0 0 0 575.37 601.50
  Q 575.90 601.07 576.13 600.37
  Q 581.11 584.67 586.62 568.22
  C 587.58 565.35 588.17 562.40 589.02 559.49
  Q 589.18 558.95 589.73 558.80
  Z
  M 552.19 662.23
  C 550.30 657.00 547.22 651.86 543.53 647.48
  Q 538.98 642.10 537.73 640.21
  C 528.39 626.11 519.70 612.10 510.86 598.06
  Q 498.25 578.04 486.16 556.63
  C 484.91 554.41 484.14 552.16 483.21 549.79
  A 1.64 1.63 -10.3 0 0 481.70 548.75
  L 439.99 548.60
  Q 438.56 548.59 439.05 549.93
  C 439.94 552.34 443.33 555.24 445.36 557.33
  Q 467.31 579.95 488.24 601.19
  Q 495.10 608.15 501.60 614.87
  Q 522.76 636.72 544.83 658.96
  C 546.47 660.60 547.80 662.44 549.08 664.35
  A 0.81 0.80 -38.5 0 0 550.29 664.48
  L 552.04 662.85
  A 0.58 0.58 0.0 0 0 552.19 662.23
  Z
  M 557.03 558.06
  Q 563.55 568.81 567.60 580.52
  Q 568.15 582.13 568.61 580.49
  Q 572.98 564.97 577.90 551.11
  A 0.49 0.48 -88.7 0 0 577.30 550.48
  L 556.88 556.65
  A 0.50 0.49 -25.7 0 0 556.61 557.40
  Q 556.83 557.73 557.03 558.06
  Z
  M 416.21 610.19
  Q 417.21 610.51 418.02 611.02
  Q 426.21 616.12 433.53 622.95
  Q 452.39 640.53 457.90 665.94
  Q 458.52 668.81 459.23 671.93
  Q 459.89 674.83 460.49 688.01
  C 460.62 691.00 459.33 693.56 459.11 696.54
  Q 458.89 699.47 458.20 702.63
  C 450.37 738.24 418.98 764.76 382.46 766.07
  Q 353.37 767.12 330.31 750.99
  Q 305.34 733.52 297.15 703.16
  C 296.04 699.06 295.66 694.69 294.80 690.37
  C 294.28 687.75 294.34 681.78 295.12 678.15
  C 295.86 674.70 295.67 671.26 296.43 667.71
  Q 302.72 638.32 325.40 619.16
  Q 340.14 606.69 360.36 602.13
  C 362.73 601.59 365.06 601.56 367.49 600.98
  Q 369.82 600.42 372.65 600.41
  Q 380.09 600.38 387.12 600.78
  Q 387.84 600.82 387.77 600.10
  C 387.29 595.03 388.58 593.07 393.82 593.12
  Q 394.68 593.12 394.81 592.27
  L 395.10 590.30
  Q 395.18 589.75 394.65 589.63
  C 387.51 588.02 377.02 587.59 368.33 588.52
  Q 366.50 588.72 360.79 589.65
  C 341.90 592.74 323.60 602.51 310.06 615.69
  Q 289.67 635.52 283.48 662.48
  Q 283.01 664.54 282.42 666.42
  Q 281.74 668.58 281.73 670.89
  C 281.73 672.51 280.91 673.87 280.84 675.35
  Q 280.50 681.69 280.60 692.12
  Q 280.63 694.08 281.15 695.72
  C 281.95 698.22 281.96 700.57 282.49 703.03
  Q 283.82 709.24 285.90 714.89
  C 296.30 743.17 317.34 763.61 345.91 773.86
  C 348.76 774.88 351.71 775.52 354.55 776.49
  Q 356.08 777.01 357.61 777.15
  C 360.23 777.40 362.52 778.25 365.10 778.36
  Q 376.28 778.82 387.52 778.65
  C 390.51 778.61 393.24 777.89 396.15 777.52
  Q 400.00 777.04 403.61 775.91
  C 438.55 764.97 461.96 738.80 470.57 703.06
  C 471.30 700.02 471.09 696.86 471.75 693.95
  C 472.86 689.00 472.42 683.85 472.36 678.81
  C 472.29 672.61 470.73 665.92 469.32 659.84
  Q 466.35 647.00 458.30 633.41
  Q 445.52 611.83 423.46 599.05
  C 421.59 597.96 420.43 596.10 421.22 593.85
  C 422.76 589.45 423.09 584.89 424.41 580.38
  Q 425.86 575.41 426.94 569.71
  Q 427.35 567.49 428.53 565.59
  A 1.51 1.50 -81.0 0 1 429.43 564.93
  C 432.25 564.16 434.24 565.80 436.08 567.92
  Q 438.66 570.89 441.58 573.87
  Q 487.96 621.10 534.50 668.61
  A 0.91 0.89 -28.0 0 0 535.32 668.85
  L 541.49 667.50
  A 0.51 0.51 0.0 0 0 541.74 666.64
  Q 540.01 664.96 538.39 663.31
  Q 482.05 606.07 432.47 554.87
  Q 431.66 554.03 431.42 552.66
  A 0.55 0.54 -6.0 0 0 430.86 552.21
  L 424.20 552.57
  A 0.54 0.53 73.9 0 0 423.76 553.37
  C 424.86 555.31 423.39 556.48 422.97 558.25
  Q 421.10 566.25 419.11 574.52
  C 418.64 576.48 418.77 578.48 417.94 580.37
  C 416.85 582.85 416.40 585.59 416.11 588.28
  C 415.67 592.41 413.10 595.37 408.50 593.94
  Q 406.05 593.18 403.64 592.57
  A 0.73 0.72 84.5 0 0 402.81 593.58
  Q 404.82 597.93 403.47 602.56
  A 1.34 1.34 0.0 0 0 404.58 604.27
  Q 407.06 604.61 408.59 606.39
  A 1.41 1.38 27.1 0 1 408.93 607.40
  Q 408.83 609.03 408.32 610.76
  Q 397.95 646.28 387.66 679.57
  Q 387.26 680.87 387.35 682.34
  Q 387.39 682.84 388.16 682.77
  A 0.79 0.78 6.3 0 0 388.83 682.24
  Q 398.90 652.73 409.91 621.19
  C 410.97 618.15 412.60 612.45 415.13 610.40
  Q 415.61 610.00 416.21 610.19
  Z
  M 581.83 603.81
  A 0.25 0.24 -11.4 0 0 582.23 604.07
  C 584.95 601.57 587.64 598.98 590.83 596.91
  Q 595.69 593.75 600.49 590.60
  Q 600.86 590.35 600.67 589.94
  Q 597.12 582.26 593.12 574.64
  Q 592.81 574.06 592.32 573.63
  A 0.26 0.25 27.8 0 0 591.91 573.75
  Q 588.19 587.05 581.83 603.81
  Z
  M 409.3964 584.8250
  A 1.01 0.82 -9.4 0 0 408.2661 584.1810
  A 1.01 0.82 -9.4 0 0 407.4036 585.1550
  A 1.01 0.82 -9.4 0 0 408.5339 585.7990
  A 1.01 0.82 -9.4 0 0 409.3964 584.8250
  Z
  M 734.04 677.52
  C 734.78 681.09 734.50 688.88 733.54 693.61
  Q 732.96 696.47 732.46 699.43
  Q 731.61 704.41 730.06 709.03
  C 720.02 739.02 692.98 761.20 661.57 764.44
  Q 654.33 765.19 642.76 764.63
  C 640.22 764.50 638.17 763.81 635.75 763.52
  Q 633.20 763.22 630.73 762.53
  Q 594.23 752.33 576.99 720.61
  A 1.79 1.76 -12.4 0 0 575.51 719.68
  Q 568.49 719.34 561.24 717.35
  A 0.31 0.31 0.0 0 0 560.88 717.78
  C 563.84 724.05 566.77 730.32 570.60 736.15
  Q 585.14 758.30 608.72 769.73
  Q 623.12 776.71 633.92 778.31
  Q 642.58 779.60 662.11 779.15
  Q 664.09 779.11 666.04 778.85
  C 669.12 778.44 671.98 778.35 675.06 777.47
  Q 682.85 775.26 688.46 772.97
  Q 728.24 756.74 743.36 714.62
  C 744.67 710.96 745.31 707.04 746.33 703.22
  C 747.18 700.03 747.09 696.84 747.71 693.64
  Q 748.34 690.37 748.30 686.69
  Q 748.21 678.68 747.78 675.00
  C 743.11 635.60 718.51 604.84 681.46 591.37
  C 677.06 589.77 672.65 589.07 668.25 587.81
  C 666.57 587.34 664.88 587.50 663.16 587.08
  Q 661.38 586.66 659.56 586.50
  Q 639.69 584.82 621.78 591.08
  Q 620.98 591.35 621.33 592.12
  L 626.18 602.91
  A 0.52 0.51 67.4 0 0 626.83 603.18
  Q 629.30 602.25 631.84 601.72
  C 633.80 601.31 635.72 601.48 637.65 600.92
  Q 639.56 600.36 641.81 600.23
  Q 654.91 599.51 658.54 599.99
  Q 697.13 605.06 719.27 636.26
  Q 727.95 648.51 731.95 664.62
  C 732.98 668.77 733.15 673.24 734.04 677.52
  Z
  M 580.53 617.99
  C 582.31 622.26 583.44 627.23 584.10 631.43
  Q 584.18 631.96 584.10 632.49
  Q 584.03 633.02 584.16 633.55
  Q 584.39 634.48 584.95 633.71
  C 591.91 624.20 599.76 616.44 609.95 610.35
  Q 610.42 610.06 610.18 609.57
  L 604.83 598.22
  A 0.51 0.50 64.2 0 0 604.15 597.98
  C 596.17 601.94 588.76 608.46 582.56 614.67
  Q 581.49 615.75 580.62 617.03
  Q 580.32 617.48 580.53 617.99
  Z
  M 652.36 726.19
  Q 652.48 727.50 652.30 728.78
  Q 652.04 730.61 650.19 730.52
  C 646.12 730.32 642.19 729.20 638.19 728.76
  Q 633.79 728.28 629.04 727.68
  C 625.26 727.21 621.79 726.19 617.95 726.30
  Q 615.52 726.37 613.26 725.69
  Q 610.55 724.88 607.41 724.95
  C 604.42 725.01 601.97 723.52 598.93 723.66
  C 595.08 723.85 590.96 722.42 587.19 721.80
  Q 586.38 721.67 586.83 722.36
  C 597.97 739.12 613.49 749.68 632.54 755.09
  C 634.68 755.70 636.76 755.87 638.91 756.41
  Q 641.16 756.98 643.76 757.10
  Q 657.07 757.72 662.81 756.79
  Q 688.80 752.54 706.08 734.42
  Q 719.04 720.83 724.39 701.63
  C 725.12 699.01 725.19 696.32 725.80 693.70
  Q 726.48 690.80 726.59 687.81
  C 727.42 663.86 717.49 641.19 699.38 625.67
  Q 676.76 606.30 646.24 607.47
  Q 637.58 607.80 629.46 610.22
  Q 628.93 610.38 629.15 610.88
  Q 642.75 642.52 656.91 674.65
  Q 657.57 676.13 657.30 677.73
  A 1.83 1.82 -88.3 0 1 655.70 679.24
  L 606.29 684.64
  Q 605.72 684.70 605.88 685.25
  C 606.69 688.01 608.32 690.39 608.63 693.30
  Q 609.80 704.27 600.57 709.20
  Q 597.70 710.74 593.62 711.03
  Q 587.44 711.46 582.86 710.87
  C 579.59 710.45 576.72 711.17 573.45 710.83
  Q 567.05 710.18 559.32 709.79
  A 0.42 0.42 0.0 0 0 558.89 710.27
  L 558.94 710.56
  Q 559.07 711.41 559.93 711.43
  C 564.53 711.53 568.64 712.86 573.23 713.19
  Q 576.39 713.41 579.44 714.29
  C 581.18 714.80 583.07 714.54 584.87 715.05
  C 589.37 716.32 593.79 716.34 598.31 717.10
  Q 602.42 717.80 606.83 718.21
  C 609.45 718.46 611.74 719.48 614.34 719.53
  Q 617.26 719.58 620.01 720.21
  C 623.48 721.01 627.08 720.55 630.58 721.39
  C 634.22 722.27 637.85 722.07 641.50 722.93
  Q 645.90 723.98 650.46 724.33
  Q 652.20 724.46 652.36 726.19
  Z
  M 380.15 680.83
  Q 381.41 676.24 382.76 672.03
  Q 384.27 667.33 385.50 663.30
  Q 391.88 642.42 398.41 620.44
  Q 399.53 616.65 400.50 612.36
  A 0.75 0.74 16.0 0 0 400.02 611.50
  Q 396.70 610.34 393.11 610.21
  C 391.74 610.16 390.78 609.44 389.53 609.18
  C 363.45 603.76 335.79 615.63 319.46 636.10
  Q 304.30 655.11 302.31 680.95
  Q 301.79 687.61 302.91 692.57
  C 303.65 695.87 304.02 699.16 304.92 702.41
  Q 310.27 721.56 323.95 735.45
  Q 347.16 759.01 382.05 758.90
  C 384.64 758.89 387.05 757.89 389.69 757.77
  C 393.71 757.58 397.85 756.01 401.75 754.95
  Q 404.95 754.07 408.07 752.69
  C 432.61 741.83 448.69 719.78 452.11 693.35
  Q 452.67 689.06 452.61 684.26
  Q 452.54 678.04 452.08 675.04
  Q 446.75 640.24 418.73 620.44
  Q 417.76 619.75 417.36 620.87
  Q 405.87 653.05 395.63 683.63
  C 393.12 691.11 384.08 692.49 380.29 685.14
  Q 379.43 683.48 380.15 680.83
  Z
  M 613.05 676.65
  Q 616.66 676.91 620.00 676.02
  C 624.64 674.78 629.32 675.82 634.03 674.56
  Q 637.09 673.75 640.63 674.23
  A 0.69 0.68 79.4 0 0 641.32 673.22
  C 640.51 671.74 639.57 670.49 638.82 668.97
  Q 627.40 645.69 615.98 621.33
  Q 615.05 619.35 613.96 617.30
  A 0.53 0.52 -29.7 0 0 613.21 617.10
  Q 598.05 626.63 588.59 641.56
  C 587.90 642.66 587.27 644.16 587.64 645.49
  Q 588.33 647.94 588.96 650.28
  Q 589.22 651.26 590.09 651.79
  C 599.87 657.85 601.99 666.65 604.34 677.09
  A 0.80 0.80 0.0 0 0 605.21 677.70
  C 607.84 677.39 610.38 676.46 613.05 676.65
  Z
  M 554.49 651.12
  A 0.25 0.25 0.0 0 0 554.39 651.49
  Q 556.48 654.52 557.93 658.20
  Q 558.21 658.90 558.88 658.58
  C 566.74 654.88 573.48 651.77 581.93 651.87
  Q 582.55 651.88 582.33 651.29
  Q 580.47 646.30 579.63 641.32
  A 0.40 0.40 0.0 0 0 579.11 641.01
  Q 566.91 645.32 554.49 651.12
  Z
  M 550.96 701.46
  C 555.96 702.78 561.91 701.69 566.73 702.51
  C 573.53 703.67 580.39 703.70 587.32 703.74
  C 593.08 703.77 600.72 703.62 601.09 696.29
  Q 601.28 692.46 599.96 689.19
  C 596.85 681.44 596.60 673.00 592.84 665.27
  C 588.29 655.90 575.29 658.99 567.52 662.33
  C 563.99 663.85 560.86 666.10 557.61 668.07
  Q 554.22 670.13 549.90 671.79
  Q 536.22 677.05 522.82 680.32
  C 518.39 681.40 513.87 682.55 509.72 684.19
  C 506.00 685.66 499.44 692.04 505.34 695.85
  C 508.50 697.89 512.00 697.89 515.55 698.62
  Q 518.22 699.17 520.77 699.30
  C 525.96 699.56 530.98 700.60 536.27 700.61
  C 541.13 700.63 546.33 700.23 550.96 701.46
  Z"
/>
<path fill="#ffffff" d="
  M 538.13 298.49
  C 543.85 296.98 550.04 289.91 548.44 283.42
  Q 548.29 282.82 548.89 282.92
  Q 554.22 283.82 560.75 283.60
  A 0.59 0.59 0.0 0 1 561.31 284.41
  C 560.61 286.17 559.35 287.46 557.81 288.50
  Q 549.92 293.79 543.21 299.64
  C 542.16 300.55 540.86 301.01 539.81 301.87
  Q 523.14 315.51 505.35 329.46
  Q 503.73 330.73 501.74 330.89
  Q 497.53 331.22 492.86 330.12
  C 486.46 328.62 482.76 323.96 480.10 318.16
  C 477.11 311.66 476.35 305.42 478.42 298.41
  Q 480.86 290.17 482.41 279.55
  Q 482.60 278.23 482.56 276.88
  A 0.45 0.44 -0.6 0 1 483.02 276.42
  Q 488.24 276.63 492.58 278.03
  Q 494.51 278.65 496.56 278.76
  C 498.33 278.87 500.16 278.68 501.84 279.38
  C 505.14 280.78 508.37 280.12 511.74 281.14
  Q 514.82 282.07 518.38 282.17
  C 519.69 282.20 520.69 283.09 521.19 284.25
  C 524.09 290.92 528.79 300.96 538.13 298.49
  Z
  M 496.97 292.29
  A 4.83 4.83 0.0 0 0 492.14 287.46
  A 4.83 4.83 0.0 0 0 487.31 292.29
  A 4.83 4.83 0.0 0 0 492.14 297.12
  A 4.83 4.83 0.0 0 0 496.97 292.29
  Z
  M 492.0460 315.9788
  A 5.44 2.48 2.2 0 0 486.7052 313.2918
  A 5.44 2.48 2.2 0 0 481.1740 315.5612
  A 5.44 2.48 2.2 0 0 486.5148 318.2482
  A 5.44 2.48 2.2 0 0 492.0460 315.9788
  Z"
/>
<path fill="#ffffff" d="
  M 535.04 291.83
  C 531.17 290.11 529.78 285.53 528.41 281.69
  A 0.42 0.41 78.4 0 1 528.77 281.13
  C 532.36 280.90 541.06 281.25 541.35 286.29
  C 541.51 288.97 537.99 293.14 535.04 291.83
  Z"
/>
<path fill="#ffffff" d="
  M 539.02 322.55
  C 530.11 333.27 522.11 344.71 513.59 355.85
  A 0.42 0.42 0.0 0 1 512.90 355.81
  Q 510.84 352.40 508.86 348.82
  C 506.28 344.13 506.61 337.52 511.12 334.11
  Q 521.09 326.58 531.06 318.37
  C 545.59 306.40 559.93 294.78 575.68 285.17
  C 577.07 284.32 578.50 284.11 580.00 284.90
  Q 585.01 287.54 588.04 291.99
  C 590.11 295.04 592.40 298.11 592.68 301.93
  A 0.69 0.69 0.0 0 1 591.79 302.64
  Q 584.61 300.38 575.42 300.82
  Q 568.05 301.18 561.82 304.09
  C 552.79 308.30 545.53 314.73 539.02 322.55
  Z"
/>
<circle fill="#010101" cx="492.14" cy="292.29" r="4.83"/>
<path fill="#ffffff" d="
  M 592.70 359.19
  Q 588.10 356.53 585.79 361.48
  C 584.63 363.98 583.66 366.50 582.21 368.84
  C 569.48 389.29 553.19 406.02 535.43 423.88
  Q 507.55 451.93 484.50 473.44
  C 478.55 479.00 471.41 484.76 463.58 487.11
  A 0.71 0.71 0.0 0 1 462.74 486.75
  C 457.45 476.62 449.85 469.13 440.70 462.14
  Q 440.19 461.75 440.43 461.16
  C 444.20 452.02 449.31 444.59 456.05 436.55
  Q 464.90 425.97 473.29 415.79
  C 476.93 411.37 481.83 406.27 485.70 401.38
  C 488.27 398.13 491.09 395.24 493.73 392.06
  C 498.45 386.37 503.32 380.98 507.90 375.18
  C 519.11 360.98 530.32 346.53 541.58 331.10
  Q 544.51 327.10 552.73 319.25
  Q 562.12 310.28 576.05 308.24
  Q 579.01 307.81 581.74 308.49
  C 584.41 309.15 587.09 309.06 589.82 309.91
  Q 598.56 312.61 606.02 319.50
  C 619.20 331.68 630.24 343.80 641.08 356.87
  Q 664.73 385.41 682.10 418.39
  C 684.57 423.09 686.51 427.79 688.54 432.65
  Q 689.89 435.89 690.90 441.15
  Q 692.93 451.76 684.92 458.24
  Q 683.72 459.21 682.39 459.44
  C 678.93 460.04 675.32 460.84 671.82 460.89
  Q 656.96 461.08 643.00 462.08
  Q 635.49 462.62 627.99 463.26
  Q 617.10 464.17 601.49 467.18
  Q 591.90 469.02 582.62 469.71
  C 572.12 470.50 560.97 469.57 552.96 462.18
  C 544.31 454.22 540.93 444.02 538.28 432.79
  Q 538.16 432.27 538.54 431.88
  C 554.96 415.47 564.83 405.02 575.65 391.89
  Q 585.61 379.83 593.63 365.46
  Q 594.04 364.71 593.90 363.47
  C 593.74 362.10 594.13 360.01 592.70 359.19
  Z
  M 498.45 450.76
  Q 521.70 429.24 539.59 410.10
  Q 549.67 399.33 560.38 385.63
  Q 567.24 376.86 572.08 368.73
  Q 573.50 366.34 571.41 363.64
  Q 571.12 363.26 570.64 363.16
  Q 567.83 362.55 566.63 364.46
  Q 562.73 370.65 558.62 376.23
  Q 545.62 393.88 527.66 412.30
  C 516.11 424.14 504.37 435.78 491.59 447.57
  Q 488.61 450.32 476.92 460.38
  Q 475.59 461.52 476.47 464.24
  Q 476.66 464.81 477.13 465.20
  Q 479.65 467.26 482.17 465.20
  Q 488.20 460.25 498.45 450.76
  Z
  M 672.1764 444.1522
  A 3.13 3.13 0.0 0 0 668.7756 441.3187
  L 660.3704 442.0837
  A 3.13 3.13 0.0 0 0 657.5369 445.4845
  L 658.3436 454.3478
  A 3.13 3.13 0.0 0 0 661.7444 457.1813
  L 670.1496 456.4163
  A 3.13 3.13 0.0 0 0 672.9831 453.0155
  L 672.1764 444.1522
  Z"
/>
<ellipse fill="#010101" cx="0.00" cy="0.00" transform="translate(486.61,315.77) rotate(2.2)" rx="5.44" ry="2.48"/>
<path fill="#ffffff" d="
  M 413.50 450.63
  C 416.13 446.82 418.14 443.15 421.46 439.65
  C 434.79 425.60 447.32 413.31 461.16 400.11
  Q 467.11 394.45 473.23 387.82
  C 478.33 382.29 483.82 376.83 488.64 370.92
  Q 495.79 362.16 502.35 353.37
  A 0.36 0.35 53.1 0 1 502.96 353.46
  Q 504.74 358.05 507.80 361.98
  A 0.78 0.78 0.0 0 1 507.79 362.95
  Q 491.40 383.00 472.24 405.21
  Q 455.89 424.17 445.26 437.78
  C 440.82 443.46 434.64 452.37 434.17 459.72
  C 434.00 462.31 431.86 464.73 430.17 466.47
  A 0.53 0.53 0.0 0 1 429.35 466.41
  Q 426.27 462.07 422.16 458.16
  C 419.58 455.71 416.58 453.86 413.70 451.77
  Q 413.05 451.29 413.50 450.63
  Z"
/>
<path fill="#010101" d="
  M 498.45 450.76
  Q 488.20 460.25 482.17 465.20
  Q 479.65 467.26 477.13 465.20
  Q 476.66 464.81 476.47 464.24
  Q 475.59 461.52 476.92 460.38
  Q 488.61 450.32 491.59 447.57
  C 504.37 435.78 516.11 424.14 527.66 412.30
  Q 545.62 393.88 558.62 376.23
  Q 562.73 370.65 566.63 364.46
  Q 567.83 362.55 570.64 363.16
  Q 571.12 363.26 571.41 363.64
  Q 573.50 366.34 572.08 368.73
  Q 567.24 376.86 560.38 385.63
  Q 549.67 399.33 539.59 410.10
  Q 521.70 429.24 498.45 450.76
  Z"
/>
<path fill="#ffffff" d="
  M 445.06 521.39
  Q 445.76 518.01 446.39 514.47
  C 446.77 512.34 447.47 510.49 447.11 508.29
  Q 446.93 507.16 447.69 506.31
  C 449.20 504.60 450.55 502.78 452.36 501.38
  Q 455.94 498.61 459.17 495.96
  Q 459.91 495.35 460.87 495.20
  C 472.42 493.41 481.30 486.66 489.79 478.73
  C 504.21 465.27 518.21 452.38 531.37 438.78
  A 0.28 0.28 0.0 0 1 531.84 438.93
  C 534.46 453.90 543.54 469.03 558.37 474.67
  Q 560.56 475.51 558.27 476.00
  C 555.85 476.53 553.38 476.79 551.05 477.58
  C 535.64 482.76 520.10 488.19 505.95 495.25
  C 492.20 502.10 480.37 512.63 479.27 528.50
  Q 479.22 529.22 478.50 529.22
  L 443.36 529.21
  A 0.47 0.47 0.0 0 1 442.94 528.53
  Q 444.27 525.89 444.19 522.87
  A 0.84 0.81 68.7 0 1 444.45 522.24
  L 444.73 521.97
  Q 444.99 521.73 445.06 521.39
  Z"
/>
<path fill="#010101" d="
  M 672.9831 453.0155
  A 3.13 3.13 0.0 0 1 670.1496 456.4163
  L 661.7444 457.1813
  A 3.13 3.13 0.0 0 1 658.3436 454.3478
  L 657.5369 445.4845
  A 3.13 3.13 0.0 0 1 660.3704 442.0837
  L 668.7756 441.3187
  A 3.13 3.13 0.0 0 1 672.1764 444.1522
  L 672.9831 453.0155
  Z
  M 668.7071 447.2755
  A 3.85 1.66 4.7 0 0 665.0060 445.3056
  A 3.85 1.66 4.7 0 0 661.0329 446.6445
  A 3.85 1.66 4.7 0 0 664.7340 448.6144
  A 3.85 1.66 4.7 0 0 668.7071 447.2755
  Z
  M 668.7608 451.8084
  A 0.83 0.83 0.0 0 0 667.8804 451.0321
  L 662.1716 451.3913
  A 0.83 0.83 0.0 0 0 661.3954 452.2718
  L 661.3992 452.3316
  A 0.83 0.83 0.0 0 0 662.2796 453.1079
  L 667.9884 452.7487
  A 0.83 0.83 0.0 0 0 668.7646 451.8682
  L 668.7608 451.8084
  Z"
/>
<ellipse fill="#ffffff" cx="0.00" cy="0.00" transform="translate(664.87,446.96) rotate(4.7)" rx="3.85" ry="1.66"/>
<rect fill="#ffffff" x="-3.69" y="-0.86" transform="translate(665.08,452.07) rotate(-3.6)" width="7.38" height="1.72" rx="0.83"/>
<path fill="#ffffff" d="
  M 410.78 459.37
  A 1.08 1.07 -50.9 0 1 412.21 459.22
  Q 418.55 463.80 423.80 470.42
  A 0.78 0.78 0.0 0 1 423.37 471.66
  Q 420.94 472.24 418.60 471.02
  Q 412.21 467.71 406.34 465.54
  A 0.56 0.55 30.7 0 1 406.11 464.65
  L 410.78 459.37
  Z"
/>
<path fill="#ffffff" d="
  M 432.11 474.47
  A 0.70 0.70 0.0 0 1 432.17 473.49
  L 436.42 469.74
  A 10.34 2.92 48.6 0 1 445.45 475.57
  L 450.19 480.95
  A 10.34 2.92 48.6 0 1 454.84 490.64
  L 450.60 494.38
  A 0.70 0.70 0.0 0 1 449.61 494.32
  L 432.11 474.47
  Z"
/>
<path fill="#ffffff" d="
  M 364.06 488.88
  C 364.59 490.23 365.46 491.64 366.55 492.62
  Q 367.24 493.25 366.60 493.93
  Q 357.55 503.65 359.39 518.25
  Q 360.30 525.56 365.99 531.49
  C 371.77 537.52 380.13 539.83 388.42 541.39
  C 391.16 541.91 399.90 545.37 396.70 549.82
  C 395.64 551.30 393.54 551.37 391.97 551.12
  Q 386.20 550.22 374.40 546.28
  Q 351.37 538.58 350.49 513.94
  C 350.36 510.33 351.56 507.22 352.29 503.78
  Q 352.83 501.23 354.19 498.83
  C 356.51 494.77 358.53 491.00 362.64 488.41
  A 0.97 0.97 0.0 0 1 364.06 488.88
  Z"
/>
<path fill="#ffffff" d="
  M 377.49 504.04
  C 375.87 509.49 376.14 515.92 377.46 521.27
  C 378.36 524.97 380.72 528.51 382.64 531.88
  Q 383.11 532.70 382.21 532.42
  C 374.39 529.95 367.83 525.41 366.59 516.98
  C 365.37 508.64 368.03 503.18 372.98 496.92
  C 374.56 494.92 377.56 495.09 379.78 495.12
  A 0.44 0.44 0.0 0 1 380.19 495.71
  Q 378.78 499.73 377.49 504.04
  Z"
/>
<path fill="#ffffff" d="
  M 390.64 509.38
  C 392.38 525.85 403.54 533.97 419.49 535.51
  C 422.87 535.83 425.86 537.10 429.17 537.75
  C 431.85 538.29 433.69 539.95 433.60 542.87
  A 1.90 1.90 0.0 0 1 432.09 544.68
  Q 429.33 545.25 426.46 545.09
  C 409.90 544.15 392.47 538.34 385.39 521.99
  C 382.65 515.65 383.27 511.71 384.08 505.54
  Q 384.16 504.94 384.75 505.08
  L 390.42 506.41
  Q 391.28 506.61 390.96 507.44
  Q 390.55 508.51 390.64 509.38
  Z"
/>
<path fill="#ffffff" d="
  M 424.48 516.02
  L 421.61 527.82
  A 0.88 0.87 17.6 0 1 420.44 528.42
  Q 417.77 527.37 414.91 526.95
  C 409.30 526.12 404.46 523.45 401.03 518.76
  C 399.28 516.36 398.73 512.91 397.94 510.07
  Q 397.66 509.07 398.56 509.59
  C 400.54 510.74 402.51 511.87 404.77 512.44
  C 408.18 513.31 411.39 514.77 414.83 515.26
  Q 419.82 515.96 424.30 515.80
  A 0.18 0.18 0.0 0 1 424.48 516.02
  Z"
/>
<path fill="#ffffff" d="
  M 439.56 513.54
  L 435.63 531.16
  A 0.32 0.32 0.0 0 1 435.25 531.41
  L 428.33 530.03
  A 0.32 0.32 0.0 0 1 428.08 529.65
  L 431.33 516.02
  A 0.32 0.32 0.0 0 1 431.54 515.79
  L 439.14 513.17
  A 0.32 0.32 0.0 0 1 439.56 513.54
  Z"
/>
<path fill="#ffffff" d="
  M 440.64 536.62
  L 479.27 536.89
  A 0.40 0.40 0.0 0 1 479.66 537.22
  L 480.21 540.59
  A 0.40 0.40 0.0 0 1 479.81 541.06
  L 441.18 540.79
  A 0.40 0.40 0.0 0 1 440.79 540.46
  L 440.24 537.09
  A 0.40 0.40 0.0 0 1 440.64 536.62
  Z"
/>
<path fill="#ffffff" d="
  M 589.02 559.49
  C 588.17 562.40 587.58 565.35 586.62 568.22
  Q 581.11 584.67 576.13 600.37
  Q 575.90 601.07 575.37 601.50
  A 0.38 0.38 0.0 0 1 574.76 601.30
  Q 574.04 598.28 572.87 595.28
  C 571.90 592.80 572.63 590.30 573.39 587.91
  Q 578.67 571.41 585.03 550.61
  C 585.40 549.38 585.46 548.27 585.77 547.09
  Q 585.89 546.65 586.33 546.57
  L 596.88 544.69
  Q 597.75 544.53 597.23 545.25
  C 594.97 548.41 595.90 552.78 597.39 556.05
  C 603.99 570.61 610.68 585.11 616.85 599.87
  Q 629.25 629.54 642.07 658.36
  Q 642.18 658.59 641.95 658.70
  L 641.72 658.80
  Q 641.69 658.82 641.68 658.79
  Q 633.12 641.02 624.26 622.63
  Q 621.81 617.55 619.77 612.88
  C 617.83 608.43 615.36 604.15 613.26 599.82
  Q 603.97 580.63 594.16 560.69
  Q 592.80 557.93 589.73 558.80
  Q 589.18 558.95 589.02 559.49
  Z"
/>
<path fill="#ffffff" d="
  M 552.19 662.23
  A 0.58 0.58 0.0 0 1 552.04 662.85
  L 550.29 664.48
  A 0.81 0.80 -38.5 0 1 549.08 664.35
  C 547.80 662.44 546.47 660.60 544.83 658.96
  Q 522.76 636.72 501.60 614.87
  Q 495.10 608.15 488.24 601.19
  Q 467.31 579.95 445.36 557.33
  C 443.33 555.24 439.94 552.34 439.05 549.93
  Q 438.56 548.59 439.99 548.60
  L 481.70 548.75
  A 1.64 1.63 -10.3 0 1 483.21 549.79
  C 484.14 552.16 484.91 554.41 486.16 556.63
  Q 498.25 578.04 510.86 598.06
  C 519.70 612.10 528.39 626.11 537.73 640.21
  Q 538.98 642.10 543.53 647.48
  C 547.22 651.86 550.30 657.00 552.19 662.23
  Z"
/>
<path fill="#ffffff" d="
  M 557.03 558.06
  Q 556.83 557.73 556.61 557.40
  A 0.50 0.49 -25.7 0 1 556.88 556.65
  L 577.30 550.48
  A 0.49 0.48 -88.7 0 1 577.90 551.11
  Q 572.98 564.97 568.61 580.49
  Q 568.15 582.13 567.60 580.52
  Q 563.55 568.81 557.03 558.06
  Z"
/>
<path fill="#ffffff" d="
  M 415.13 610.40
  C 412.60 612.45 410.97 618.15 409.91 621.19
  Q 398.90 652.73 388.83 682.24
  A 0.79 0.78 6.3 0 1 388.16 682.77
  Q 387.39 682.84 387.35 682.34
  Q 387.26 680.87 387.66 679.57
  Q 397.95 646.28 408.32 610.76
  Q 408.83 609.03 408.93 607.40
  A 1.41 1.38 27.1 0 0 408.59 606.39
  Q 407.06 604.61 404.58 604.27
  A 1.34 1.34 0.0 0 1 403.47 602.56
  Q 404.82 597.93 402.81 593.58
  A 0.73 0.72 84.5 0 1 403.64 592.57
  Q 406.05 593.18 408.50 593.94
  C 413.10 595.37 415.67 592.41 416.11 588.28
  C 416.40 585.59 416.85 582.85 417.94 580.37
  C 418.77 578.48 418.64 576.48 419.11 574.52
  Q 421.10 566.25 422.97 558.25
  C 423.39 556.48 424.86 555.31 423.76 553.37
  A 0.54 0.53 73.9 0 1 424.20 552.57
  L 430.86 552.21
  A 0.55 0.54 -6.0 0 1 431.42 552.66
  Q 431.66 554.03 432.47 554.87
  Q 482.05 606.07 538.39 663.31
  Q 540.01 664.96 541.74 666.64
  A 0.51 0.51 0.0 0 1 541.49 667.50
  L 535.32 668.85
  A 0.91 0.89 -28.0 0 1 534.50 668.61
  Q 487.96 621.10 441.58 573.87
  Q 438.66 570.89 436.08 567.92
  C 434.24 565.80 432.25 564.16 429.43 564.93
  A 1.51 1.50 -81.0 0 0 428.53 565.59
  Q 427.35 567.49 426.94 569.71
  Q 425.86 575.41 424.41 580.38
  C 423.09 584.89 422.76 589.45 421.22 593.85
  C 420.43 596.10 421.59 597.96 423.46 599.05
  Q 445.52 611.83 458.30 633.41
  Q 466.35 647.00 469.32 659.84
  C 470.73 665.92 472.29 672.61 472.36 678.81
  C 472.42 683.85 472.86 689.00 471.75 693.95
  C 471.09 696.86 471.30 700.02 470.57 703.06
  C 461.96 738.80 438.55 764.97 403.61 775.91
  Q 400.00 777.04 396.15 777.52
  C 393.24 777.89 390.51 778.61 387.52 778.65
  Q 376.28 778.82 365.10 778.36
  C 362.52 778.25 360.23 777.40 357.61 777.15
  Q 356.08 777.01 354.55 776.49
  C 351.71 775.52 348.76 774.88 345.91 773.86
  C 317.34 763.61 296.30 743.17 285.90 714.89
  Q 283.82 709.24 282.49 703.03
  C 281.96 700.57 281.95 698.22 281.15 695.72
  Q 280.63 694.08 280.60 692.12
  Q 280.50 681.69 280.84 675.35
  C 280.91 673.87 281.73 672.51 281.73 670.89
  Q 281.74 668.58 282.42 666.42
  Q 283.01 664.54 283.48 662.48
  Q 289.67 635.52 310.06 615.69
  C 323.60 602.51 341.90 592.74 360.79 589.65
  Q 366.50 588.72 368.33 588.52
  C 377.02 587.59 387.51 588.02 394.65 589.63
  Q 395.18 589.75 395.10 590.30
  L 394.81 592.27
  Q 394.68 593.12 393.82 593.12
  C 388.58 593.07 387.29 595.03 387.77 600.10
  Q 387.84 600.82 387.12 600.78
  Q 380.09 600.38 372.65 600.41
  Q 369.82 600.42 367.49 600.98
  C 365.06 601.56 362.73 601.59 360.36 602.13
  Q 340.14 606.69 325.40 619.16
  Q 302.72 638.32 296.43 667.71
  C 295.67 671.26 295.86 674.70 295.12 678.15
  C 294.34 681.78 294.28 687.75 294.80 690.37
  C 295.66 694.69 296.04 699.06 297.15 703.16
  Q 305.34 733.52 330.31 750.99
  Q 353.37 767.12 382.46 766.07
  C 418.98 764.76 450.37 738.24 458.20 702.63
  Q 458.89 699.47 459.11 696.54
  C 459.33 693.56 460.62 691.00 460.49 688.01
  Q 459.89 674.83 459.23 671.93
  Q 458.52 668.81 457.90 665.94
  Q 452.39 640.53 433.53 622.95
  Q 426.21 616.12 418.02 611.02
  Q 417.21 610.51 416.21 610.19
  Q 415.61 610.00 415.13 610.40
  Z"
/>
<path fill="#ffffff" d="
  M 581.83 603.81
  Q 588.19 587.05 591.91 573.75
  A 0.26 0.25 27.8 0 1 592.32 573.63
  Q 592.81 574.06 593.12 574.64
  Q 597.12 582.26 600.67 589.94
  Q 600.86 590.35 600.49 590.60
  Q 595.69 593.75 590.83 596.91
  C 587.64 598.98 584.95 601.57 582.23 604.07
  A 0.25 0.24 -11.4 0 1 581.83 603.81
  Z"
/>
<ellipse fill="#ffffff" cx="0.00" cy="0.00" transform="translate(408.40,584.99) rotate(-9.4)" rx="1.01" ry="0.82"/>
<path fill="#ffffff" d="
  M 734.04 677.52
  C 733.15 673.24 732.98 668.77 731.95 664.62
  Q 727.95 648.51 719.27 636.26
  Q 697.13 605.06 658.54 599.99
  Q 654.91 599.51 641.81 600.23
  Q 639.56 600.36 637.65 600.92
  C 635.72 601.48 633.80 601.31 631.84 601.72
  Q 629.30 602.25 626.83 603.18
  A 0.52 0.51 67.4 0 1 626.18 602.91
  L 621.33 592.12
  Q 620.98 591.35 621.78 591.08
  Q 639.69 584.82 659.56 586.50
  Q 661.38 586.66 663.16 587.08
  C 664.88 587.50 666.57 587.34 668.25 587.81
  C 672.65 589.07 677.06 589.77 681.46 591.37
  C 718.51 604.84 743.11 635.60 747.78 675.00
  Q 748.21 678.68 748.30 686.69
  Q 748.34 690.37 747.71 693.64
  C 747.09 696.84 747.18 700.03 746.33 703.22
  C 745.31 707.04 744.67 710.96 743.36 714.62
  Q 728.24 756.74 688.46 772.97
  Q 682.85 775.26 675.06 777.47
  C 671.98 778.35 669.12 778.44 666.04 778.85
  Q 664.09 779.11 662.11 779.15
  Q 642.58 779.60 633.92 778.31
  Q 623.12 776.71 608.72 769.73
  Q 585.14 758.30 570.60 736.15
  C 566.77 730.32 563.84 724.05 560.88 717.78
  A 0.31 0.31 0.0 0 1 561.24 717.35
  Q 568.49 719.34 575.51 719.68
  A 1.79 1.76 -12.4 0 1 576.99 720.61
  Q 594.23 752.33 630.73 762.53
  Q 633.20 763.22 635.75 763.52
  C 638.17 763.81 640.22 764.50 642.76 764.63
  Q 654.33 765.19 661.57 764.44
  C 692.98 761.20 720.02 739.02 730.06 709.03
  Q 731.61 704.41 732.46 699.43
  Q 732.96 696.47 733.54 693.61
  C 734.50 688.88 734.78 681.09 734.04 677.52
  Z"
/>
<path fill="#ffffff" d="
  M 584.10 631.43
  C 583.44 627.23 582.31 622.26 580.53 617.99
  Q 580.32 617.48 580.62 617.03
  Q 581.49 615.75 582.56 614.67
  C 588.76 608.46 596.17 601.94 604.15 597.98
  A 0.51 0.50 64.2 0 1 604.83 598.22
  L 610.18 609.57
  Q 610.42 610.06 609.95 610.35
  C 599.76 616.44 591.91 624.20 584.95 633.71
  Q 584.39 634.48 584.16 633.55
  Q 584.03 633.02 584.10 632.49
  Q 584.18 631.96 584.10 631.43
  Z"
/>
<path fill="#ffffff" d="
  M 652.36 726.19
  Q 652.20 724.46 650.46 724.33
  Q 645.90 723.98 641.50 722.93
  C 637.85 722.07 634.22 722.27 630.58 721.39
  C 627.08 720.55 623.48 721.01 620.01 720.21
  Q 617.26 719.58 614.34 719.53
  C 611.74 719.48 609.45 718.46 606.83 718.21
  Q 602.42 717.80 598.31 717.10
  C 593.79 716.34 589.37 716.32 584.87 715.05
  C 583.07 714.54 581.18 714.80 579.44 714.29
  Q 576.39 713.41 573.23 713.19
  C 568.64 712.86 564.53 711.53 559.93 711.43
  Q 559.07 711.41 558.94 710.56
  L 558.89 710.27
  A 0.42 0.42 0.0 0 1 559.32 709.79
  Q 567.05 710.18 573.45 710.83
  C 576.72 711.17 579.59 710.45 582.86 710.87
  Q 587.44 711.46 593.62 711.03
  Q 597.70 710.74 600.57 709.20
  Q 609.80 704.27 608.63 693.30
  C 608.32 690.39 606.69 688.01 605.88 685.25
  Q 605.72 684.70 606.29 684.64
  L 655.70 679.24
  A 1.83 1.82 -88.3 0 0 657.30 677.73
  Q 657.57 676.13 656.91 674.65
  Q 642.75 642.52 629.15 610.88
  Q 628.93 610.38 629.46 610.22
  Q 637.58 607.80 646.24 607.47
  Q 676.76 606.30 699.38 625.67
  C 717.49 641.19 727.42 663.86 726.59 687.81
  Q 726.48 690.80 725.80 693.70
  C 725.19 696.32 725.12 699.01 724.39 701.63
  Q 719.04 720.83 706.08 734.42
  Q 688.80 752.54 662.81 756.79
  Q 657.07 757.72 643.76 757.10
  Q 641.16 756.98 638.91 756.41
  C 636.76 755.87 634.68 755.70 632.54 755.09
  C 613.49 749.68 597.97 739.12 586.83 722.36
  Q 586.38 721.67 587.19 721.80
  C 590.96 722.42 595.08 723.85 598.93 723.66
  C 601.97 723.52 604.42 725.01 607.41 724.95
  Q 610.55 724.88 613.26 725.69
  Q 615.52 726.37 617.95 726.30
  C 621.79 726.19 625.26 727.21 629.04 727.68
  Q 633.79 728.28 638.19 728.76
  C 642.19 729.20 646.12 730.32 650.19 730.52
  Q 652.04 730.61 652.30 728.78
  Q 652.48 727.50 652.36 726.19
  Z"
/>
<path fill="#ffffff" d="
  M 380.29 685.14
  C 384.08 692.49 393.12 691.11 395.63 683.63
  Q 405.87 653.05 417.36 620.87
  Q 417.76 619.75 418.73 620.44
  Q 446.75 640.24 452.08 675.04
  Q 452.54 678.04 452.61 684.26
  Q 452.67 689.06 452.11 693.35
  C 448.69 719.78 432.61 741.83 408.07 752.69
  Q 404.95 754.07 401.75 754.95
  C 397.85 756.01 393.71 757.58 389.69 757.77
  C 387.05 757.89 384.64 758.89 382.05 758.90
  Q 347.16 759.01 323.95 735.45
  Q 310.27 721.56 304.92 702.41
  C 304.02 699.16 303.65 695.87 302.91 692.57
  Q 301.79 687.61 302.31 680.95
  Q 304.30 655.11 319.46 636.10
  C 335.79 615.63 363.45 603.76 389.53 609.18
  C 390.78 609.44 391.74 610.16 393.11 610.21
  Q 396.70 610.34 400.02 611.50
  A 0.75 0.74 16.0 0 1 400.50 612.36
  Q 399.53 616.65 398.41 620.44
  Q 391.88 642.42 385.50 663.30
  Q 384.27 667.33 382.76 672.03
  Q 381.41 676.24 380.15 680.83
  Q 379.43 683.48 380.29 685.14
  Z"
/>
<path fill="#ffffff" d="
  M 613.05 676.65
  C 610.38 676.46 607.84 677.39 605.21 677.70
  A 0.80 0.80 0.0 0 1 604.34 677.09
  C 601.99 666.65 599.87 657.85 590.09 651.79
  Q 589.22 651.26 588.96 650.28
  Q 588.33 647.94 587.64 645.49
  C 587.27 644.16 587.90 642.66 588.59 641.56
  Q 598.05 626.63 613.21 617.10
  A 0.53 0.52 -29.7 0 1 613.96 617.30
  Q 615.05 619.35 615.98 621.33
  Q 627.40 645.69 638.82 668.97
  C 639.57 670.49 640.51 671.74 641.32 673.22
  A 0.69 0.68 79.4 0 1 640.63 674.23
  Q 637.09 673.75 634.03 674.56
  C 629.32 675.82 624.64 674.78 620.00 676.02
  Q 616.66 676.91 613.05 676.65
  Z"
/>
<path fill="#ffffff" d="
  M 554.49 651.12
  Q 566.91 645.32 579.11 641.01
  A 0.40 0.40 0.0 0 1 579.63 641.32
  Q 580.47 646.30 582.33 651.29
  Q 582.55 651.88 581.93 651.87
  C 573.48 651.77 566.74 654.88 558.88 658.58
  Q 558.21 658.90 557.93 658.20
  Q 556.48 654.52 554.39 651.49
  A 0.25 0.25 0.0 0 1 554.49 651.12
  Z"
/>
<path fill="#ffffff" d="
  M 550.96 701.46
  C 546.33 700.23 541.13 700.63 536.27 700.61
  C 530.98 700.60 525.96 699.56 520.77 699.30
  Q 518.22 699.17 515.55 698.62
  C 512.00 697.89 508.50 697.89 505.34 695.85
  C 499.44 692.04 506.00 685.66 509.72 684.19
  C 513.87 682.55 518.39 681.40 522.82 680.32
  Q 536.22 677.05 549.90 671.79
  Q 554.22 670.13 557.61 668.07
  C 560.86 666.10 563.99 663.85 567.52 662.33
  C 575.29 658.99 588.29 655.90 592.84 665.27
  C 596.60 673.00 596.85 681.44 599.96 689.19
  Q 601.28 692.46 601.09 696.29
  C 600.72 703.62 593.08 703.77 587.32 703.74
  C 580.39 703.70 573.53 703.67 566.73 702.51
  C 561.91 701.69 555.96 702.78 550.96 701.46
  Z"
/>
</svg>
