<?xml version="1.0" encoding="UTF-8" standalone="no"?>
<!DOCTYPE svg PUBLIC "-//W3C//DTD SVG 1.1//EN" "http://www.w3.org/Graphics/SVG/1.1/DTD/svg11.dtd">
<svg xmlns="http://www.w3.org/2000/svg" version="1.1" viewBox="0.00 0.00 1024.00 1024.00">
<g stroke-width="2.00" fill="none" stroke-linecap="butt">
<path stroke="#8e8d8d" vector-effect="non-scaling-stroke" d="
  M 339.03 723.27
  Q 354.73 716.30 365.56 714.32
  C 371.22 713.29 376.96 711.85 382.53 711.25
  Q 386.96 710.78 391.65 710.17
  Q 395.76 709.64 400.84 709.73
  Q 428.40 710.23 452.20 720.15"
/>
<path stroke="#818180" vector-effect="non-scaling-stroke" d="
  M 452.20 720.15
  Q 457.03 721.84 460.53 720.55
  Q 465.90 718.56 471.18 715.55
  C 492.17 703.64 510.65 687.54 521.90 666.59
  Q 529.13 653.11 533.36 637.64
  Q 539.02 616.94 539.62 596.03
  C 539.66 594.64 540.27 592.89 541.03 591.72
  C 548.28 580.57 551.43 567.85 553.63 553.77
  Q 555.20 543.72 554.48 533.75
  Q 553.36 518.24 549.85 507.06
  Q 546.73 497.11 542.82 487.80
  Q 533.97 466.72 514.32 453.63
  Q 513.31 452.96 514.49 452.71
  Q 527.71 449.99 540.34 445.04
  C 552.52 440.27 562.78 433.60 573.23 426.16
  Q 604.17 404.14 624.03 374.90
  Q 650.41 336.08 653.21 289.78
  Q 653.24 289.30 652.85 288.55
  Q 652.61 288.09 652.68 287.57
  Q 653.20 284.10 652.55 280.50
  Q 652.53 280.36 652.66 280.33
  Q 652.72 280.32 652.76 280.35
  Q 652.86 280.41 652.90 280.51
  C 654.41 284.72 656.48 288.55 657.75 292.94
  Q 664.71 316.96 653.52 341.44
  Q 649.30 350.68 645.08 356.90
  Q 644.29 358.06 643.39 359.35
  Q 640.32 363.71 637.30 366.95
  C 636.01 368.34 633.54 370.72 634.36 372.79
  A 0.87 0.87 0.0 0 0 635.50 373.28
  Q 638.83 371.93 640.79 369.56
  Q 652.64 355.20 659.12 338.69
  Q 665.88 321.48 664.18 303.02
  Q 664.03 301.35 663.62 299.74
  Q 663.24 298.19 662.98 296.69
  Q 661.97 290.77 659.36 285.59
  Q 658.78 284.44 659.58 285.45
  C 662.70 289.39 665.41 293.77 667.25 298.53
  C 674.10 316.24 680.87 333.02 689.32 350.19
  Q 698.40 368.63 710.35 386.05
  C 713.26 390.30 717.06 394.96 720.00 398.21
  C 728.25 407.35 737.18 415.70 749.31 416.46
  Q 754.45 416.79 759.91 416.73
  C 763.63 416.70 766.05 420.90 767.06 424.00
  Q 773.25 442.94 774.96 462.04
  Q 776.04 474.10 777.10 486.83
  C 777.46 491.10 777.28 495.29 777.58 499.51
  C 778.21 508.31 778.47 516.99 778.81 525.98
  Q 779.61 547.50 778.97 584.24
  C 778.83 592.38 777.05 601.21 771.53 606.79
  Q 766.86 611.51 760.37 614.34
  Q 748.92 619.35 736.06 623.08
  Q 718.88 628.05 704.55 631.76
  C 695.48 634.11 687.17 636.85 678.50 639.39
  C 663.81 643.68 650.40 650.53 638.28 659.52
  Q 629.41 666.10 623.31 677.83
  Q 614.66 694.47 608.33 711.89
  Q 596.22 745.20 586.69 779.99
  Q 585.37 784.81 583.58 789.36
  A 0.54 0.54 0.0 0 1 582.83 789.64
  C 575.40 785.77 567.74 782.04 560.36 777.91
  C 556.21 775.59 551.81 773.47 547.53 771.20
  Q 517.18 755.07 484.86 738.40
  Q 464.39 727.84 443.10 720.17
  Q 434.73 717.16 425.97 715.58
  Q 417.46 714.04 413.65 713.65
  Q 400.67 712.32 388.53 713.78
  Q 377.45 715.12 365.04 717.83
  C 353.47 720.35 344.09 724.97 333.71 729.07
  Q 324.81 732.59 319.38 735.62
  C 303.90 744.25 290.09 755.09 277.42 767.47
  Q 270.62 774.11 266.30 782.69
  C 264.64 785.98 264.19 789.23 264.66 792.67
  C 265.31 797.50 270.38 800.17 274.89 800.27
  Q 278.34 800.34 286.00 800.32
  Q 316.76 800.24 336.02 799.93
  Q 409.38 798.78 510.76 796.73
  C 531.23 796.31 551.68 795.64 572.16 795.40
  C 575.25 795.36 578.18 795.88 581.25 795.55
  Q 583.71 795.28 586.23 795.20
  C 612.29 794.37 638.36 793.97 663.75 793.25
  Q 674.49 792.94 683.75 792.79
  Q 720.48 792.21 755.99 791.19
  Q 771.51 790.74 786.86 790.53
  A 4.62 4.62 0.0 0 0 791.21 787.27
  C 794.35 777.13 796.43 767.83 795.17 757.40
  Q 794.59 752.62 791.90 745.93
  C 788.92 738.54 787.03 732.08 786.48 724.85
  C 786.05 719.16 785.63 713.28 785.90 707.64
  C 786.30 698.87 785.81 689.64 786.46 680.93
  Q 787.42 668.11 788.68 656.51
  Q 789.10 652.62 789.86 648.68
  C 791.70 639.11 794.19 630.13 798.03 620.35
  Q 803.84 605.56 810.08 590.18
  Q 815.34 577.22 820.86 561.99
  C 824.20 552.78 825.09 546.70 820.53 538.00
  Q 813.77 525.10 806.46 512.51
  C 802.24 505.22 798.01 497.54 791.89 492.59
  Q 791.50 492.28 791.02 492.22
  Q 788.93 491.96 786.84 491.10
  Q 785.51 490.54 785.19 491.96
  Q 784.86 493.37 784.16 492.10
  Q 783.86 491.55 783.81 490.76
  Q 782.90 476.45 781.57 462.49
  Q 779.78 443.73 774.61 425.63
  Q 773.52 421.80 771.62 417.58
  Q 769.30 412.44 763.84 410.65
  C 759.83 409.34 755.90 410.01 751.79 409.64
  Q 741.67 408.72 733.40 402.31
  Q 724.41 395.34 717.83 386.30
  Q 717.50 385.83 717.94 385.48
  C 719.81 383.98 721.95 383.00 723.65 381.39
  Q 732.41 373.08 738.29 364.10
  C 739.30 362.55 739.89 360.90 740.98 359.38
  Q 742.14 357.74 743.12 355.88
  Q 748.09 346.43 751.47 335.78
  C 753.26 330.13 753.99 323.88 754.55 318.06
  Q 754.97 313.65 753.99 307.58
  C 753.77 306.22 754.36 305.09 753.60 303.85
  Q 753.33 303.40 753.29 302.87
  L 753.02 299.07
  Q 752.97 298.34 752.49 297.80
  Q 751.86 297.10 752.02 296.22
  Q 752.15 295.51 752.40 296.19
  C 753.27 298.60 754.33 300.71 755.03 303.22
  Q 759.30 318.39 758.70 333.99
  Q 758.60 336.54 757.93 338.99
  Q 757.18 341.72 757.18 344.59
  Q 757.18 346.17 758.70 345.76
  L 759.01 345.68
  A 3.46 3.45 88.0 0 0 761.50 343.00
  Q 763.56 332.40 762.29 319.48
  Q 760.14 297.54 748.69 281.54
  C 744.85 276.16 742.24 271.06 738.92 265.87
  Q 723.68 242.14 699.63 228.42
  Q 690.91 223.44 684.53 220.97
  Q 647.26 206.57 604.81 209.42
  Q 603.92 209.48 603.15 209.30
  Q 602.65 209.19 602.27 209.49
  Q 601.77 209.90 601.12 209.89
  Q 600.23 209.88 599.48 209.95
  Q 595.70 210.28 591.72 210.80
  Q 591.57 210.82 591.52 210.68
  Q 591.50 210.63 591.50 210.58
  Q 591.52 210.44 591.66 210.42
  Q 594.25 209.89 596.71 209.47
  Q 599.17 209.05 601.74 208.47
  Q 606.05 207.51 610.42 206.99
  Q 611.19 206.89 611.96 206.77
  Q 632.80 203.58 655.71 206.00
  C 671.79 207.70 687.97 211.16 702.57 217.46
  Q 718.06 224.14 732.29 236.00
  C 734.06 237.48 735.23 239.39 737.01 240.95
  C 738.69 242.43 739.71 244.34 741.08 246.08
  Q 742.26 247.58 744.13 247.22
  Q 744.47 247.15 744.77 246.95
  Q 746.04 246.10 745.16 244.86
  C 743.80 242.94 743.14 241.13 741.46 239.26
  Q 735.73 232.88 730.96 229.26
  Q 725.14 224.84 718.68 220.92
  Q 709.55 215.38 697.06 210.74
  C 694.51 209.79 691.87 209.26 689.23 208.30
  Q 686.28 207.23 683.09 206.48
  Q 670.48 203.51 661.86 202.41
  Q 652.05 201.16 642.61 200.84
  Q 627.56 200.33 611.53 202.62
  Q 609.89 202.85 608.35 203.29
  Q 607.83 203.43 607.29 203.34
  Q 606.21 203.16 605.32 203.75
  Q 605.13 203.88 604.90 203.86
  Q 604.73 203.85 604.57 203.79
  Q 604.02 203.56 603.44 203.69
  Q 585.71 207.59 575.62 212.42
  Q 563.03 218.45 550.85 224.57
  Q 549.52 225.24 548.28 226.05
  Q 546.62 227.13 547.52 225.36
  Q 550.08 220.39 552.94 215.52
  C 554.41 213.02 556.80 211.09 558.53 208.65
  Q 560.10 206.43 562.35 204.35
  Q 589.04 179.74 624.68 174.18
  Q 641.46 171.56 656.18 173.08
  Q 662.04 173.68 667.50 174.67
  Q 681.95 177.28 695.52 184.86
  Q 697.81 186.14 700.02 187.23
  Q 700.90 187.66 701.84 187.93
  Q 704.60 188.72 704.57 187.17
  Q 704.54 185.52 703.17 184.60
  Q 688.03 174.45 671.77 170.96
  C 636.66 163.42 599.03 171.26 569.95 192.30
  Q 559.80 199.65 550.78 211.30
  Q 545.76 217.77 543.48 224.88
  Q 542.88 226.74 543.28 228.68
  Q 543.39 229.25 542.92 229.60
  Q 538.69 232.69 535.11 236.43
  Q 534.76 236.79 534.26 236.76
  Q 532.86 236.68 531.48 236.29
  Q 511.45 230.67 492.22 226.56
  C 485.62 225.15 479.06 223.88 472.24 223.09
  Q 471.67 223.02 471.69 222.45
  Q 471.87 218.43 469.97 214.73
  Q 464.66 204.34 454.18 198.60
  C 439.08 190.33 422.21 188.88 405.13 192.89
  Q 390.00 196.45 378.97 206.10
  Q 375.16 209.42 373.14 212.95
  Q 372.27 214.46 373.22 216.13
  Q 373.61 216.83 374.86 216.53
  A 1.79 1.75 -77.0 0 0 375.86 215.89
  Q 386.34 202.54 404.00 197.62
  Q 429.78 190.44 452.65 202.62
  C 455.43 204.10 457.25 206.14 459.70 207.97
  C 464.00 211.19 466.64 217.14 467.98 222.14
  A 0.68 0.68 0.0 0 1 467.21 222.99
  C 464.35 222.52 461.40 220.14 459.17 218.46
  Q 456.86 216.72 453.73 215.41
  Q 449.33 213.57 445.25 212.75
  A 5.11 2.62 21.9 0 0 444.58 212.64
  Q 439.88 212.12 434.83 211.91
  C 422.53 211.42 410.44 215.20 398.82 220.88
  C 385.14 227.57 370.66 239.31 363.75 253.10
  Q 361.55 257.49 360.95 263.47
  C 360.74 265.56 361.61 267.25 362.83 268.82
  Q 363.82 270.08 362.22 269.94
  C 358.22 269.58 354.32 269.26 350.26 269.82
  Q 331.90 272.33 316.39 282.67
  Q 314.31 284.06 310.31 284.46
  Q 305.54 284.93 303.97 285.30
  C 272.38 292.68 244.39 312.29 223.71 337.59
  Q 209.41 355.08 201.28 372.74
  Q 193.65 389.31 191.88 407.73
  Q 190.99 416.97 192.68 427.80
  Q 193.06 430.25 194.11 431.91
  Q 194.77 432.96 195.63 432.97
  Q 196.54 432.97 197.28 432.19
  Q 197.68 431.77 197.66 431.20
  C 197.54 428.18 196.84 425.43 196.55 422.39
  Q 194.11 396.92 205.64 373.36
  C 224.75 334.33 259.29 302.07 301.61 289.83
  Q 303.78 289.20 306.04 289.14
  Q 306.77 289.12 306.21 289.59
  C 304.74 290.84 303.16 291.91 301.72 293.20
  Q 286.28 307.09 274.86 323.08
  C 270.85 328.68 266.57 333.64 262.06 338.65
  C 251.83 350.02 243.21 362.50 236.26 376.20
  Q 221.48 405.33 219.78 438.03
  Q 219.73 439.00 219.55 439.94
  C 219.28 441.38 219.67 442.95 219.64 444.44
  Q 219.44 456.33 220.40 467.62
  C 220.54 469.36 221.43 470.67 221.24 472.44
  Q 221.09 473.77 221.34 475.12
  Q 223.13 484.97 226.63 493.90
  C 227.75 496.78 229.22 499.10 231.18 501.36
  A 0.65 0.65 0.0 0 0 232.24 501.25
  L 233.16 499.52
  Q 233.49 498.92 233.20 498.31
  Q 225.58 481.82 224.33 464.42
  Q 223.80 457.13 223.57 449.32
  C 223.49 446.36 223.85 443.40 223.83 440.48
  Q 223.82 436.77 224.18 433.27
  Q 225.96 416.26 230.62 400.92
  C 236.29 382.27 246.77 364.35 259.02 348.85
  Q 259.84 347.81 259.31 349.02
  Q 256.15 356.17 252.90 363.53
  C 245.37 380.58 240.57 397.64 236.80 417.60
  Q 231.78 444.19 232.29 469.26
  Q 232.76 492.87 239.07 511.27
  C 241.29 517.75 244.20 524.55 247.62 530.33
  Q 254.05 541.20 262.44 550.81
  Q 263.15 551.62 262.31 552.30
  Q 247.18 564.45 236.89 580.87
  Q 225.22 599.51 219.68 620.55
  Q 217.07 630.47 217.15 640.43
  C 217.16 642.34 217.89 644.18 219.19 645.55
  A 0.73 0.73 0.0 0 0 220.32 645.45
  Q 221.44 643.76 221.34 641.77
  Q 220.91 633.14 222.82 624.92
  Q 230.83 590.47 254.42 564.76
  Q 254.50 564.67 254.60 564.73
  Q 254.64 564.75 254.66 564.80
  Q 254.76 564.99 254.66 565.18
  C 252.97 568.48 250.94 571.43 249.77 575.04
  C 248.51 578.89 246.92 582.56 245.93 586.54
  Q 240.37 608.70 243.30 631.92
  Q 243.90 636.69 244.76 641.39
  Q 245.63 646.12 246.92 650.50
  Q 254.24 675.44 273.69 696.20
  Q 279.79 702.71 288.71 708.29
  Q 305.36 718.70 327.50 724.77
  Q 334.16 726.60 339.03 723.27"
/>
<path stroke="#0f0e0e" vector-effect="non-scaling-stroke" d="
  M 452.20 720.15
  Q 464.19 713.69 474.71 707.45
  Q 491.41 697.53 504.35 683.08
  C 513.73 672.61 520.18 660.17 525.26 646.50
  Q 532.77 626.27 534.10 604.79
  Q 534.25 602.41 532.98 604.43
  C 531.92 606.13 530.97 607.86 529.67 609.41
  Q 508.99 634.09 478.59 641.75
  C 473.20 643.11 467.56 643.91 462.05 644.74
  C 430.78 649.49 400.82 639.39 376.50 619.51
  Q 374.81 618.13 373.57 616.29
  Q 373.27 615.86 372.75 615.93
  Q 371.97 616.04 371.21 616.39
  Q 370.83 616.56 370.67 615.44"
/>
<path stroke="#818180" vector-effect="non-scaling-stroke" d="
  M 370.67 615.44
  L 372.81 611.59
  A 0.67 0.66 -64.6 0 0 372.48 610.65
  Q 368.22 608.92 365.84 603.96
  C 362.24 596.45 366.03 590.65 371.44 585.22
  Q 373.15 583.52 374.25 581.56
  Q 374.54 581.04 374.21 580.55
  Q 363.94 565.45 362.85 546.99
  Q 362.44 540.11 362.75 532.73
  Q 362.79 531.71 363.16 530.88
  C 363.81 529.43 363.34 527.71 363.66 526.14
  Q 366.39 512.36 373.22 500.26
  C 387.64 474.73 410.01 460.04 439.97 458.47
  Q 452.32 457.82 463.19 459.81
  Q 484.47 463.72 501.30 478.47
  Q 507.29 483.71 511.30 489.00
  Q 520.22 500.74 525.20 514.55
  Q 529.20 525.66 528.85 539.44
  C 528.75 543.14 528.98 547.31 528.14 550.90
  Q 527.76 552.52 527.55 554.26
  C 525.78 569.40 518.45 582.95 508.34 594.73
  C 502.51 601.55 495.33 605.89 487.32 610.40
  Q 480.47 614.26 475.09 616.11
  C 463.44 620.13 450.90 621.71 438.60 620.39
  Q 431.49 619.63 428.27 619.10
  Q 417.13 617.24 406.14 610.87
  C 404.12 609.70 401.97 608.89 400.10 607.46
  Q 395.76 604.12 391.48 601.11
  A 0.83 0.82 43.6 0 0 390.50 601.13
  Q 387.07 603.77 383.77 607.16
  Q 381.42 609.56 378.48 610.99
  Q 377.20 611.61 378.27 612.56
  C 390.65 623.41 406.25 632.48 422.61 636.55
  C 424.90 637.12 427.05 637.10 429.35 637.72
  Q 431.42 638.27 433.56 638.42
  Q 463.77 640.59 489.94 630.97
  Q 497.22 628.29 504.08 623.44
  Q 524.87 608.73 536.23 584.81
  Q 542.20 572.23 545.66 559.13
  Q 547.12 553.60 547.42 548.46
  Q 549.67 510.45 529.06 479.56
  C 525.39 474.07 521.14 468.83 516.23 464.49
  Q 514.79 463.22 510.11 459.48
  C 501.55 452.63 491.58 448.69 480.80 444.96
  C 478.21 444.06 476.38 442.02 476.21 439.26
  Q 475.55 429.08 475.17 419.61
  Q 474.80 410.65 476.56 392.87
  C 476.71 391.33 476.44 389.84 476.75 388.39
  Q 477.09 386.79 477.21 385.17
  Q 477.54 380.30 478.58 375.68
  C 479.11 373.29 478.81 370.79 479.34 368.44
  C 480.69 362.31 481.51 356.17 482.95 350.03
  Q 486.05 336.89 487.29 332.99
  Q 493.61 313.05 500.14 295.71
  Q 507.32 276.65 517.60 257.77
  C 520.68 252.13 524.36 246.73 528.03 241.49
  A 0.89 0.89 0.0 0 0 527.59 240.14
  Q 521.63 238.05 515.16 236.71
  Q 513.52 236.37 511.99 236.41
  Q 511.43 236.42 511.20 236.93
  Q 510.07 239.54 508.48 241.74
  Q 502.63 249.86 498.54 257.08
  Q 488.73 274.44 480.05 294.26
  C 473.24 309.81 468.82 325.69 464.74 342.68
  Q 462.30 352.85 460.94 362.56
  Q 457.68 385.88 456.53 409.73
  Q 456.39 412.62 455.73 415.62
  C 455.20 418.00 453.45 419.87 450.95 419.89
  Q 440.35 420.00 430.44 420.03
  Q 427.35 420.04 424.01 419.67
  C 419.73 419.20 420.62 411.73 420.57 408.82
  Q 420.50 405.53 420.74 402.25
  Q 420.98 398.95 421.03 395.75
  Q 421.09 392.48 421.63 389.25
  C 421.92 387.51 421.74 385.80 421.93 384.20
  Q 424.01 367.22 427.51 351.05
  Q 427.80 349.68 428.33 348.56
  C 429.26 346.58 429.29 344.35 429.88 342.24
  Q 431.86 335.27 433.65 328.46
  C 434.51 325.18 436.11 322.27 437.00 318.95
  Q 438.58 313.03 441.11 306.20
  Q 446.99 290.38 454.50 275.69
  C 456.90 270.98 459.93 266.59 462.65 261.84
  C 466.89 254.40 471.95 247.05 476.83 239.82
  Q 480.30 234.70 484.49 230.30
  A 0.27 0.27 0.0 0 0 484.36 229.85
  Q 477.62 228.11 471.14 227.42
  A 1.33 1.30 -62.7 0 0 470.09 227.77
  Q 464.66 232.76 459.74 238.98
  Q 443.10 260.03 432.64 282.71
  Q 418.40 313.62 412.08 337.02
  Q 409.60 346.20 405.49 364.78
  C 404.15 370.85 403.35 377.29 402.48 383.51
  Q 401.43 391.00 400.97 397.46
  Q 400.08 410.15 399.39 423.31
  Q 399.25 426.04 398.88 428.90
  C 398.40 432.58 398.87 436.19 398.48 439.94
  Q 398.20 442.71 397.51 445.19
  A 5.70 5.62 78.7 0 1 395.57 448.14
  Q 390.70 452.02 385.64 456.35
  C 374.76 465.65 364.65 477.26 357.59 490.01
  Q 345.16 512.46 345.50 541.50
  Q 345.75 563.01 353.29 578.11
  Q 356.56 584.65 362.15 592.49
  Q 362.43 592.90 362.38 593.39
  L 361.67 599.34"
/>
<path stroke="#0f0e0e" vector-effect="non-scaling-stroke" d="
  M 361.67 599.34
  Q 360.69 600.04 359.71 598.79
  Q 341.76 575.85 339.92 548.10
  Q 337.88 517.20 351.11 490.09
  C 356.86 478.31 365.97 467.60 374.92 458.37
  C 380.17 452.96 386.31 448.17 392.13 443.17
  A 3.21 3.19 70.9 0 0 393.23 440.89
  Q 394.00 421.84 395.33 403.06
  Q 396.50 386.57 398.38 372.88
  C 399.90 361.83 402.56 350.75 405.30 339.76
  C 415.43 298.96 434.19 260.39 461.99 228.29
  Q 462.78 227.37 461.73 226.76
  C 454.34 222.50 447.21 221.16 438.63 221.68
  Q 425.88 222.45 413.53 227.86
  Q 397.01 235.10 384.73 247.48
  Q 377.88 254.39 374.51 259.27
  Q 369.57 266.43 366.80 274.59
  A 1.22 1.21 -75.5 0 1 365.44 275.40
  Q 346.02 272.09 327.63 281.40
  Q 318.73 285.91 310.36 292.46
  C 289.89 308.48 273.76 330.54 262.37 354.48
  Q 256.48 366.88 252.26 379.20
  C 249.28 387.89 246.23 397.25 244.28 406.33
  Q 240.39 424.57 238.22 444.20
  C 238.01 446.04 238.24 447.91 237.95 449.71
  Q 237.59 451.90 237.60 454.05
  Q 237.63 458.50 237.49 462.97
  C 237.08 476.42 238.30 490.46 242.06 503.43
  Q 245.29 514.53 248.80 521.63
  Q 255.38 534.90 266.78 548.82
  C 268.97 551.50 267.30 554.46 265.40 556.60
  Q 262.99 559.29 261.64 561.66
  Q 246.51 588.19 247.63 618.39
  Q 247.99 628.23 248.57 632.66
  Q 249.44 639.31 251.36 647.24
  Q 253.36 655.45 255.98 661.45
  Q 263.99 679.82 278.96 694.06
  Q 285.66 700.44 294.79 705.64
  Q 313.20 716.15 333.47 720.83
  C 334.89 721.16 336.81 721.09 338.15 721.66
  Q 339.37 722.17 339.03 723.27"
/>
<path stroke="#8e8d8d" vector-effect="non-scaling-stroke" d="
  M 361.67 599.34
  Q 362.69 606.00 367.46 611.08
  Q 368.56 612.25 367.96 613.66
  Q 364.38 622.18 361.90 630.96
  Q 358.39 643.41 355.10 655.72
  Q 353.10 663.22 346.91 666.67
  Q 340.79 670.08 335.18 671.21
  Q 334.66 671.32 334.39 670.86
  Q 333.29 669.01 331.30 667.61
  Q 329.25 666.17 327.03 666.37
  C 324.52 666.59 319.69 668.06 319.00 670.87
  Q 318.67 672.26 318.52 673.79
  Q 318.30 675.95 319.47 677.25
  Q 322.02 680.09 325.34 679.82
  Q 325.78 679.79 326.19 679.95
  Q 326.59 680.12 327.02 680.05
  Q 331.26 679.40 333.95 675.58
  Q 334.25 675.16 334.75 675.02
  Q 345.36 671.99 350.50 668.26
  C 355.20 664.85 357.78 659.21 359.35 652.80
  Q 362.44 640.19 366.56 626.51
  C 367.66 622.85 369.30 619.16 370.67 615.44"
/>
<path stroke="#818180" vector-effect="non-scaling-stroke" d="
  M 267.12 220.47
  C 259.59 216.07 247.24 220.57 241.85 225.90
  C 235.91 231.75 232.43 243.05 240.13 248.50
  C 250.27 255.68 264.09 251.22 270.69 241.46
  C 273.78 236.89 274.21 230.90 274.30 225.63
  Q 274.59 209.12 274.50 191.87
  Q 274.48 188.64 271.26 188.49
  Q 271.05 188.48 270.84 188.48
  Q 268.08 188.41 268.06 191.17
  L 267.88 220.04
  Q 267.87 220.91 267.12 220.47"
/>
<path stroke="#818180" vector-effect="non-scaling-stroke" d="
  M 873.87 293.80
  L 880.45 340.06
  A 0.51 0.51 0.0 0 1 879.78 340.61
  Q 865.70 335.71 853.86 344.67
  Q 847.38 349.57 846.11 356.02
  Q 844.69 363.24 848.15 367.76
  C 854.11 375.56 864.21 374.88 872.77 371.71
  Q 886.32 366.69 888.53 353.03
  Q 889.11 349.49 888.14 344.22
  Q 886.85 337.24 885.97 330.25
  Q 885.56 327.02 884.90 323.71
  C 884.15 319.91 884.12 315.98 883.36 312.13
  C 882.59 308.18 882.32 304.18 881.57 300.19
  Q 880.19 292.82 879.24 285.17
  C 878.09 275.92 876.40 267.12 874.78 257.90
  A 2.51 2.51 0.0 0 0 871.64 255.91
  Q 837.05 265.44 803.19 274.38
  Q 801.95 274.71 800.82 275.33
  Q 800.34 275.60 800.25 276.15
  Q 799.87 278.63 800.43 281.40
  Q 803.25 295.52 806.27 309.28
  Q 806.37 309.74 806.80 309.94
  Q 808.92 310.93 811.10 310.29
  Q 842.05 301.22 873.41 293.49
  Q 873.81 293.39 873.87 293.80"
/>
<path stroke="#818180" vector-effect="non-scaling-stroke" d="
  M 182.73 295.11
  A 0.08 0.08 0.0 0 1 182.61 295.18
  Q 176.46 292.36 170.70 294.11
  C 163.75 296.21 157.39 301.28 155.11 308.39
  C 153.80 312.51 154.53 317.05 158.66 319.13
  C 169.00 324.33 181.63 315.67 185.74 306.25
  Q 187.04 303.27 187.06 297.96
  Q 187.12 279.58 187.28 261.58
  A 1.89 1.88 -1.1 0 0 185.30 259.68
  Q 185.08 259.69 184.86 259.71
  Q 183.27 259.88 183.25 261.47
  L 182.73 295.11"
/>
<path stroke="#818180" vector-effect="non-scaling-stroke" d="
  M 897.48 429.36
  Q 897.71 430.64 896.65 429.88
  C 895.69 429.20 894.75 428.60 893.55 428.45
  C 884.01 427.26 874.91 432.29 870.18 440.32
  C 865.85 447.65 868.71 455.52 877.78 455.87
  C 886.15 456.19 894.17 451.60 898.84 444.48
  Q 901.29 440.74 901.38 436.42
  Q 901.77 417.91 901.63 395.51
  A 1.32 1.32 0.0 0 0 900.67 394.25
  L 898.58 393.66
  Q 897.64 393.39 897.64 394.38
  Q 897.61 410.64 897.32 427.33
  Q 897.30 428.39 897.48 429.36"
/>
<path stroke="#818180" vector-effect="non-scaling-stroke" d="
  M 631.96 441.53
  Q 631.08 441.26 630.74 442.15
  A 1.25 1.24 -41.9 0 0 630.70 442.84
  Q 631.36 445.66 634.32 445.93
  C 640.62 446.50 646.93 446.63 653.45 445.65
  Q 660.99 444.53 665.43 443.47
  C 678.12 440.45 690.29 434.04 701.22 426.35
  C 703.94 424.45 708.17 421.30 704.99 417.76
  Q 704.62 417.36 704.09 417.44
  C 702.41 417.67 700.93 417.87 699.44 418.76
  Q 691.60 423.43 683.08 428.34
  Q 671.10 435.23 658.94 438.12
  Q 649.16 440.45 635.98 440.24
  Q 634.12 440.21 632.62 441.41
  A 0.73 0.73 0.0 0 1 631.96 441.53"
/>
<path stroke="#818180" vector-effect="non-scaling-stroke" d="
  M 694.1139 463.6473
  A 4.21 2.34 43.3 0 0 692.6548 459.0570
  A 4.21 2.34 43.3 0 0 687.9861 457.8727
  A 4.21 2.34 43.3 0 0 689.4452 462.4630
  A 4.21 2.34 43.3 0 0 694.1139 463.6473"
/>
<path stroke="#818180" vector-effect="non-scaling-stroke" d="
  M 675.73 474.47
  L 678.46 473.40
  A 1.22 1.22 0.0 0 0 679.15 471.81
  L 678.20 469.38
  A 7.71 2.50 68.6 0 0 673.06 463.12
  L 672.71 463.26
  A 7.71 2.50 68.6 0 0 673.19 471.35
  L 674.15 473.78
  A 1.22 1.22 0.0 0 0 675.73 474.47"
/>
<path stroke="#818180" vector-effect="non-scaling-stroke" d="
  M 651.71 477.78
  A 0.95 0.95 0.0 0 0 652.33 478.80
  C 658.23 480.92 657.85 470.86 657.43 467.46
  C 657.26 466.09 656.12 464.87 654.67 465.27
  Q 654.07 465.44 653.89 466.03
  L 651.40 474.38
  Q 651.24 474.91 651.43 475.43
  Q 651.85 476.60 651.71 477.78"
/>
<path stroke="#818180" vector-effect="non-scaling-stroke" d="
  M 713.76 501.18
  Q 712.86 500.80 712.29 501.59
  C 709.52 505.53 713.30 507.72 716.75 507.79
  Q 731.75 508.08 750.01 507.25
  C 754.71 507.04 760.15 506.82 764.39 504.78
  Q 765.15 504.41 765.42 503.61
  C 766.87 499.34 762.51 498.84 759.68 499.15
  Q 751.89 500.01 749.25 500.01
  Q 733.75 500.01 718.25 499.86
  Q 716.10 499.83 714.69 501.04
  Q 714.27 501.40 713.76 501.18"
/>
<path stroke="#818180" vector-effect="non-scaling-stroke" d="
  M 170.35 626.95
  A 0.27 0.27 0.0 0 1 169.97 627.20
  C 164.75 624.87 157.61 624.25 151.97 626.50
  C 141.89 630.52 136.35 638.32 138.30 649.39
  C 138.55 650.81 139.64 651.66 140.40 652.80
  C 142.64 656.15 148.76 658.32 151.96 658.49
  Q 157.07 658.75 164.17 656.76
  Q 168.44 655.56 171.64 652.07
  C 176.26 647.04 177.10 642.00 177.06 635.05
  Q 176.97 617.85 177.25 601.34
  Q 177.28 599.61 177.45 597.86
  A 0.65 0.65 0.0 0 1 178.13 597.27
  Q 181.44 597.44 183.97 599.27
  Q 193.00 605.79 191.60 616.34
  Q 191.24 619.06 189.69 621.10
  Q 187.92 623.41 186.20 625.80
  A 2.10 2.09 23.4 0 0 187.50 629.08
  Q 190.52 629.67 193.00 627.81
  C 205.06 618.82 203.00 603.70 193.86 593.48
  Q 188.73 587.76 184.95 581.02
  Q 181.92 575.63 183.24 569.37
  C 183.82 566.62 182.57 564.23 179.69 563.75
  A 1.23 1.22 -55.1 0 0 178.88 563.90
  C 173.31 567.08 171.27 577.07 171.30 582.97
  Q 171.37 592.54 171.42 601.92
  C 171.43 603.84 170.69 605.55 170.62 607.44
  Q 170.27 617.30 170.35 626.95"
/>
<path stroke="#818180" vector-effect="non-scaling-stroke" d="
  M 860.15 698.97
  Q 848.99 694.07 837.98 700.08
  C 831.56 703.58 827.31 710.10 827.67 717.62
  C 828.15 727.69 839.05 731.56 847.60 730.26
  Q 854.63 729.18 858.06 727.06
  Q 863.59 723.63 866.25 716.54
  Q 867.58 713.03 867.43 706.01
  Q 867.05 688.00 867.48 669.03
  Q 867.52 667.49 868.93 668.13
  C 870.58 668.88 872.08 668.76 873.62 669.87
  C 880.30 674.67 884.30 682.46 881.50 690.68
  C 880.49 693.64 878.07 695.73 876.41 698.32
  A 1.86 1.85 -54.6 0 0 876.82 700.78
  Q 878.08 701.78 879.90 701.56
  C 884.90 700.97 889.53 694.65 890.91 690.52
  C 893.96 681.36 890.50 671.48 884.17 664.52
  Q 879.00 658.83 875.38 652.45
  Q 872.15 646.74 873.45 640.06
  C 873.98 637.33 872.56 635.11 869.81 634.58
  Q 869.34 634.49 868.93 634.73
  Q 865.80 636.55 864.42 639.91
  C 862.22 645.26 861.24 650.53 861.39 656.35
  Q 861.56 663.13 861.40 669.29
  Q 861.25 674.77 860.68 682.18
  Q 860.02 690.74 860.56 698.68
  A 0.30 0.29 9.3 0 1 860.15 698.97"
/>
<path stroke="#0f0e0e" vector-effect="non-scaling-stroke" d="
  M 647.59 269.95
  Q 650.88 270.40 653.40 272.41
  Q 662.21 279.42 669.11 289.60
  Q 672.63 294.80 675.07 301.40
  C 678.98 312.00 683.01 323.09 687.42 332.94
  Q 697.71 355.95 712.13 378.26
  Q 712.55 378.91 712.95 379.59
  Q 714.23 381.78 716.18 380.29
  C 730.66 369.31 741.12 352.02 746.61 334.73
  C 751.02 320.85 750.09 305.66 746.23 291.80
  Q 745.10 287.75 742.75 282.76
  Q 739.70 276.28 738.27 273.83
  Q 724.25 249.69 703.27 236.34
  Q 682.32 223.02 657.69 217.89
  Q 638.41 213.88 621.89 213.63
  Q 608.36 213.44 596.40 214.77
  Q 580.14 216.58 562.91 223.65
  C 552.23 228.03 542.39 235.26 534.54 243.73
  Q 531.71 246.78 529.74 250.05
  Q 522.74 261.63 517.78 272.49
  Q 504.89 300.71 495.55 330.71
  Q 492.66 340.01 490.46 350.14
  Q 481.28 392.42 483.16 436.00
  C 483.22 437.41 484.02 438.33 485.28 438.82
  Q 494.71 442.46 503.88 446.97
  C 506.18 448.10 508.51 448.08 510.99 447.68
  Q 521.76 445.95 532.52 442.39
  Q 534.25 441.82 535.95 440.91
  C 539.09 439.25 542.44 438.24 545.65 436.60
  Q 558.04 430.30 572.32 420.21
  Q 603.15 398.44 622.90 366.99
  Q 644.35 332.82 648.06 293.76
  C 648.49 289.20 648.10 284.70 648.28 280.14
  C 648.41 276.87 647.43 273.73 647.01 270.52
  A 0.51 0.51 0.0 0 1 647.59 269.95"
/>
<path stroke="#818180" vector-effect="non-scaling-stroke" d="
  M 430.82 217.39
  C 431.53 217.37 432.06 217.74 432.83 217.65
  Q 439.40 216.87 446.31 216.99
  Q 446.52 216.99 446.53 216.78
  L 446.53 216.78
  Q 446.54 216.64 446.41 216.62
  C 440.52 215.79 434.56 215.45 428.42 216.21
  Q 423.40 216.83 419.56 217.74
  C 399.33 222.56 378.16 235.69 367.69 254.43
  Q 365.62 258.12 365.53 262.64
  Q 365.48 264.65 366.50 262.92
  Q 380.22 239.59 403.63 227.26
  Q 411.62 223.05 419.61 220.26
  Q 422.36 219.31 429.20 218.09
  Q 429.50 218.03 429.76 217.87
  Q 429.97 217.74 430.18 217.60
  Q 430.49 217.41 430.82 217.39"
/>
<path stroke="#0f0e0e" vector-effect="non-scaling-stroke" d="
  M 427.42 379.09
  C 427.15 381.22 426.44 383.25 426.28 385.35
  Q 425.32 398.17 425.14 412.73
  A 2.15 2.15 0.0 0 0 427.27 414.91
  L 450.45 415.13
  Q 451.93 415.14 452.00 413.66
  C 452.44 404.75 452.65 395.92 453.55 387.06
  Q 455.03 372.35 455.97 366.33
  Q 459.10 346.43 464.51 325.79
  Q 469.02 308.61 476.59 291.57
  Q 485.76 270.94 495.88 253.34
  Q 500.49 245.33 506.40 237.07
  A 1.35 1.35 0.0 0 0 505.66 234.99
  Q 499.42 233.29 492.60 232.26
  C 490.20 231.90 488.43 230.96 486.72 233.36
  Q 475.27 249.36 465.94 264.62
  Q 454.52 283.33 445.96 304.82
  Q 442.68 313.06 439.94 320.99
  Q 439.53 322.17 439.17 323.50
  Q 437.07 331.24 435.18 339.49
  C 434.68 341.67 433.97 343.73 433.50 345.96
  Q 432.30 351.60 431.03 357.21
  Q 429.09 365.81 427.42 379.09"
/>
<path stroke="#818180" vector-effect="non-scaling-stroke" d="
  M 751.7044 294.4713
  A 1.06 0.12 66.4 0 0 751.3900 293.4520
  A 1.06 0.12 66.4 0 0 750.8556 292.5287
  A 1.06 0.12 66.4 0 0 751.1700 293.5480
  A 1.06 0.12 66.4 0 0 751.7044 294.4713"
/>
<path stroke="#818180" vector-effect="non-scaling-stroke" d="
  M 390.98 595.47
  Q 392.39 595.84 393.55 596.82
  C 403.32 605.10 413.52 610.70 425.53 613.96
  Q 432.47 615.85 436.43 616.23
  Q 457.88 618.35 479.06 610.38
  Q 485.60 607.92 491.56 603.65
  C 499.54 597.94 506.34 591.67 511.50 583.74
  Q 524.65 563.54 524.59 539.71
  Q 524.56 529.07 522.92 519.93
  Q 522.10 515.30 519.83 511.08
  Q 517.36 506.47 514.78 501.97
  C 506.07 486.74 494.17 477.13 478.85 469.23
  C 476.12 467.82 473.20 467.71 470.40 466.52
  Q 467.97 465.50 465.37 465.07
  Q 449.04 462.39 433.10 463.47
  C 415.71 464.65 398.87 474.30 387.70 487.00
  Q 374.84 501.60 368.83 522.96
  Q 366.90 529.82 366.70 538.65
  Q 366.48 547.95 367.64 553.57
  Q 370.56 567.62 378.84 580.13
  A 2.24 2.22 -41.4 0 1 378.66 582.81
  Q 373.71 588.52 369.93 594.08
  C 366.44 599.24 370.95 603.81 374.67 606.97
  A 1.81 1.81 0.0 0 0 377.02 606.96
  Q 382.10 602.59 386.81 598.13
  Q 388.27 596.75 390.04 595.62
  Q 390.48 595.33 390.98 595.47"
/>
<path stroke="#818180" vector-effect="non-scaling-stroke" d="
  M 792.11 547.35
  Q 789.56 552.56 786.79 557.63
  C 786.03 559.02 785.73 560.94 785.78 562.50
  Q 786.18 574.05 786.15 584.25
  C 786.12 596.59 781.15 610.56 770.13 616.87
  Q 759.69 622.86 744.82 627.40
  Q 732.44 631.17 718.55 635.04
  Q 717.10 635.45 715.93 636.35
  Q 699.60 649.03 688.16 664.41
  C 682.16 672.47 677.42 681.62 675.93 691.67
  C 675.53 694.41 675.89 697.06 675.69 699.80
  Q 675.52 702.08 676.10 704.95
  C 677.39 711.26 678.81 716.19 682.77 721.90
  C 684.98 725.09 687.09 728.47 689.71 731.27
  Q 695.86 737.83 703.82 745.10
  Q 711.21 751.84 717.78 761.83
  C 722.00 768.24 723.52 775.57 725.34 782.80
  Q 725.84 784.79 725.82 786.92
  A 0.62 0.62 0.0 0 0 726.46 787.55
  L 784.97 786.07
  Q 785.62 786.05 785.48 785.42
  C 784.95 782.96 786.43 780.93 786.80 778.51
  C 787.90 771.41 789.34 765.33 788.16 757.66
  Q 787.46 753.11 785.00 747.35
  Q 782.00 740.34 780.79 732.71
  C 779.95 727.40 779.36 721.75 779.38 716.33
  Q 779.42 699.10 779.62 681.46
  C 779.65 678.98 780.24 676.62 780.36 674.14
  C 781.02 660.30 783.18 644.93 786.94 631.72
  Q 789.29 623.47 793.78 612.49
  C 801.19 594.33 809.01 576.43 815.15 557.89
  C 816.74 553.09 817.94 547.32 815.50 542.75
  C 808.32 529.31 801.25 516.03 792.62 503.39
  Q 790.64 500.50 787.56 498.70
  A 1.63 1.62 25.0 0 0 785.21 499.55
  Q 784.65 501.07 784.55 502.74
  Q 784.23 507.97 784.74 513.46
  C 785.31 519.68 785.37 525.80 785.58 532.04
  Q 785.68 534.92 786.89 537.36
  Q 789.32 542.28 792.03 546.30
  A 1.04 1.03 -49.5 0 1 792.11 547.35"
/>
<path stroke="#818180" vector-effect="non-scaling-stroke" d="
  M 676.97 668.49
  A 0.32 0.32 0.0 0 0 677.54 668.53
  Q 687.18 652.47 700.91 640.53
  Q 702.02 639.56 700.60 639.95
  Q 687.17 643.63 676.16 647.18
  Q 671.37 648.73 666.56 650.87
  A 0.48 0.47 -32.3 0 0 666.39 651.61
  Q 673.01 659.44 676.97 668.49"
/>
<path stroke="#818180" vector-effect="non-scaling-stroke" d="
  M 669.10 695.70
  Q 669.36 687.74 671.34 680.66
  C 673.45 673.10 665.39 660.81 660.48 655.06
  Q 659.74 654.20 658.73 654.72
  Q 649.38 659.58 641.22 665.93
  C 634.50 671.14 630.26 679.01 626.51 686.77
  Q 617.72 704.93 611.15 724.53
  Q 606.05 739.71 601.09 754.57
  Q 600.76 755.54 601.61 756.11
  C 616.52 766.17 630.59 776.12 644.39 788.39
  A 1.77 1.76 -19.5 0 0 645.30 788.82
  C 648.87 789.33 652.44 789.02 655.99 788.98
  Q 685.98 788.70 718.90 787.62
  Q 719.43 787.60 719.28 787.09
  Q 717.60 781.43 716.11 775.44
  C 714.08 767.20 707.97 759.12 702.14 753.45
  Q 694.92 746.43 688.13 739.81
  Q 682.55 734.37 675.94 723.77
  C 670.42 714.91 668.78 705.48 669.10 695.70"
/>
<path stroke="#818180" vector-effect="non-scaling-stroke" d="
  M 289.02 795.86
  C 333.02 795.61 377.00 794.62 420.99 794.04
  Q 430.34 793.92 441.00 793.63
  C 464.49 792.99 487.85 792.89 511.25 792.25
  Q 538.82 791.49 568.15 791.05
  Q 568.71 791.04 568.27 790.70
  Q 566.28 789.17 564.27 788.11
  Q 525.63 767.65 483.20 745.67
  C 464.31 735.88 446.56 728.03 426.22 722.82
  Q 420.46 721.35 414.51 720.63
  Q 407.23 719.76 402.72 719.80
  Q 395.06 719.88 383.97 721.87
  Q 362.27 725.79 341.97 733.15
  C 323.15 739.96 306.46 750.11 291.11 763.43
  C 283.83 769.76 277.03 776.03 272.20 784.18
  Q 270.41 787.21 270.41 791.94
  A 1.56 1.56 0.0 0 0 270.79 792.96
  C 273.69 796.22 278.76 795.44 282.66 795.68
  Q 285.92 795.88 289.02 795.86"
/>
<path stroke="#818180" vector-effect="non-scaling-stroke" d="
  M 590.61 789.92
  Q 590.37 790.73 591.22 790.71
  L 633.73 789.68
  Q 635.24 789.64 634.12 788.63
  C 623.45 778.98 611.21 770.93 599.37 762.99
  A 0.52 0.52 0.0 0 0 598.58 763.27
  L 590.61 789.92"
/>
<path stroke="#8e8d8d" vector-effect="non-scaling-stroke" d="
  M 622.85 227.57
  C 622.25 227.53 621.92 227.31 621.37 227.24
  Q 610.41 225.90 599.45 228.20
  Q 598.92 228.31 598.65 228.78
  Q 598.03 229.82 598.82 230.83
  Q 599.23 231.36 599.85 231.13
  L 602.01 230.35
  A 1.06 0.96 33.7 0 1 602.41 230.29
  Q 605.48 230.48 608.58 229.80
  C 610.34 229.41 611.80 229.96 613.56 229.28
  A 0.93 0.90 36.6 0 1 614.02 229.22
  L 625.81 230.65
  Q 626.32 230.72 626.76 230.99
  Q 627.75 231.62 628.93 231.59
  Q 629.53 231.57 630.00 231.93
  Q 631.42 232.99 633.26 233.17
  Q 634.12 233.25 634.52 232.58
  A 1.09 1.08 -58.4 0 0 634.18 231.13
  Q 629.42 227.98 622.85 227.57"
/>
<path stroke="#818180" vector-effect="non-scaling-stroke" d="
  M 868.06 277.74
  L 867.48 275.60
  A 0.79 0.79 0.0 0 0 866.51 275.04
  L 817.18 288.26
  A 3.38 1.07 -15.0 0 0 814.20 290.17
  L 814.63 291.77
  A 3.38 1.07 -15.0 0 0 818.17 291.93
  L 867.50 278.71
  A 0.79 0.79 0.0 0 0 868.06 277.74"
/>
<path stroke="#818180" vector-effect="non-scaling-stroke" d="
  M 415.42 503.66
  C 404.56 510.96 398.12 523.95 397.73 536.74
  Q 397.58 541.71 397.97 545.19
  Q 399.67 560.55 410.69 571.30
  C 422.60 582.92 436.98 588.51 453.92 586.28
  Q 460.38 585.43 468.98 580.64
  C 477.53 575.88 485.54 568.45 489.03 559.34
  Q 492.25 550.91 492.89 540.86
  C 493.43 532.31 489.96 521.32 485.35 514.44
  Q 475.92 500.38 459.25 495.24
  C 444.51 490.69 428.31 494.99 415.42 503.66"
/>
<path stroke="#818180" vector-effect="non-scaling-stroke" d="
  M 435.77 580.67
  C 444.34 582.45 455.34 583.28 463.15 579.06
  C 473.40 573.52 482.11 565.21 485.46 554.26
  Q 492.82 530.19 478.51 513.50
  C 469.33 502.81 456.23 496.89 442.37 498.63
  Q 430.97 500.06 422.87 504.13
  Q 411.38 509.91 405.97 522.35
  Q 404.18 526.46 403.56 530.79
  Q 401.99 541.79 404.05 551.68
  C 406.29 562.45 414.50 570.09 423.43 575.63
  Q 429.41 579.34 435.77 580.67"
/>
</g>
<path fill="#ffffff" d="
  M 1024.00 0.00
  L 1024.00 1024.00
  L 0.00 1024.00
  L 0.00 0.00
  L 1024.00 0.00
  Z
  M 339.03 723.27
  Q 354.73 716.30 365.56 714.32
  C 371.22 713.29 376.96 711.85 382.53 711.25
  Q 386.96 710.78 391.65 710.17
  Q 395.76 709.64 400.84 709.73
  Q 428.40 710.23 452.20 720.15
  Q 457.03 721.84 460.53 720.55
  Q 465.90 718.56 471.18 715.55
  C 492.17 703.64 510.65 687.54 521.90 666.59
  Q 529.13 653.11 533.36 637.64
  Q 539.02 616.94 539.62 596.03
  C 539.66 594.64 540.27 592.89 541.03 591.72
  C 548.28 580.57 551.43 567.85 553.63 553.77
  Q 555.20 543.72 554.48 533.75
  Q 553.36 518.24 549.85 507.06
  Q 546.73 497.11 542.82 487.80
  Q 533.97 466.72 514.32 453.63
  Q 513.31 452.96 514.49 452.71
  Q 527.71 449.99 540.34 445.04
  C 552.52 440.27 562.78 433.60 573.23 426.16
  Q 604.17 404.14 624.03 374.90
  Q 650.41 336.08 653.21 289.78
  Q 653.24 289.30 652.85 288.55
  Q 652.61 288.09 652.68 287.57
  Q 653.20 284.10 652.55 280.50
  Q 652.53 280.36 652.66 280.33
  Q 652.72 280.32 652.76 280.35
  Q 652.86 280.41 652.90 280.51
  C 654.41 284.72 656.48 288.55 657.75 292.94
  Q 664.71 316.96 653.52 341.44
  Q 649.30 350.68 645.08 356.90
  Q 644.29 358.06 643.39 359.35
  Q 640.32 363.71 637.30 366.95
  C 636.01 368.34 633.54 370.72 634.36 372.79
  A 0.87 0.87 0.0 0 0 635.50 373.28
  Q 638.83 371.93 640.79 369.56
  Q 652.64 355.20 659.12 338.69
  Q 665.88 321.48 664.18 303.02
  Q 664.03 301.35 663.62 299.74
  Q 663.24 298.19 662.98 296.69
  Q 661.97 290.77 659.36 285.59
  Q 658.78 284.44 659.58 285.45
  C 662.70 289.39 665.41 293.77 667.25 298.53
  C 674.10 316.24 680.87 333.02 689.32 350.19
  Q 698.40 368.63 710.35 386.05
  C 713.26 390.30 717.06 394.96 720.00 398.21
  C 728.25 407.35 737.18 415.70 749.31 416.46
  Q 754.45 416.79 759.91 416.73
  C 763.63 416.70 766.05 420.90 767.06 424.00
  Q 773.25 442.94 774.96 462.04
  Q 776.04 474.10 777.10 486.83
  C 777.46 491.10 777.28 495.29 777.58 499.51
  C 778.21 508.31 778.47 516.99 778.81 525.98
  Q 779.61 547.50 778.97 584.24
  C 778.83 592.38 777.05 601.21 771.53 606.79
  Q 766.86 611.51 760.37 614.34
  Q 748.92 619.35 736.06 623.08
  Q 718.88 628.05 704.55 631.76
  C 695.48 634.11 687.17 636.85 678.50 639.39
  C 663.81 643.68 650.40 650.53 638.28 659.52
  Q 629.41 666.10 623.31 677.83
  Q 614.66 694.47 608.33 711.89
  Q 596.22 745.20 586.69 779.99
  Q 585.37 784.81 583.58 789.36
  A 0.54 0.54 0.0 0 1 582.83 789.64
  C 575.40 785.77 567.74 782.04 560.36 777.91
  C 556.21 775.59 551.81 773.47 547.53 771.20
  Q 517.18 755.07 484.86 738.40
  Q 464.39 727.84 443.10 720.17
  Q 434.73 717.16 425.97 715.58
  Q 417.46 714.04 413.65 713.65
  Q 400.67 712.32 388.53 713.78
  Q 377.45 715.12 365.04 717.83
  C 353.47 720.35 344.09 724.97 333.71 729.07
  Q 324.81 732.59 319.38 735.62
  C 303.90 744.25 290.09 755.09 277.42 767.47
  Q 270.62 774.11 266.30 782.69
  C 264.64 785.98 264.19 789.23 264.66 792.67
  C 265.31 797.50 270.38 800.17 274.89 800.27
  Q 278.34 800.34 286.00 800.32
  Q 316.76 800.24 336.02 799.93
  Q 409.38 798.78 510.76 796.73
  C 531.23 796.31 551.68 795.64 572.16 795.40
  C 575.25 795.36 578.18 795.88 581.25 795.55
  Q 583.71 795.28 586.23 795.20
  C 612.29 794.37 638.36 793.97 663.75 793.25
  Q 674.49 792.94 683.75 792.79
  Q 720.48 792.21 755.99 791.19
  Q 771.51 790.74 786.86 790.53
  A 4.62 4.62 0.0 0 0 791.21 787.27
  C 794.35 777.13 796.43 767.83 795.17 757.40
  Q 794.59 752.62 791.90 745.93
  C 788.92 738.54 787.03 732.08 786.48 724.85
  C 786.05 719.16 785.63 713.28 785.90 707.64
  C 786.30 698.87 785.81 689.64 786.46 680.93
  Q 787.42 668.11 788.68 656.51
  Q 789.10 652.62 789.86 648.68
  C 791.70 639.11 794.19 630.13 798.03 620.35
  Q 803.84 605.56 810.08 590.18
  Q 815.34 577.22 820.86 561.99
  C 824.20 552.78 825.09 546.70 820.53 538.00
  Q 813.77 525.10 806.46 512.51
  C 802.24 505.22 798.01 497.54 791.89 492.59
  Q 791.50 492.28 791.02 492.22
  Q 788.93 491.96 786.84 491.10
  Q 785.51 490.54 785.19 491.96
  Q 784.86 493.37 784.16 492.10
  Q 783.86 491.55 783.81 490.76
  Q 782.90 476.45 781.57 462.49
  Q 779.78 443.73 774.61 425.63
  Q 773.52 421.80 771.62 417.58
  Q 769.30 412.44 763.84 410.65
  C 759.83 409.34 755.90 410.01 751.79 409.64
  Q 741.67 408.72 733.40 402.31
  Q 724.41 395.34 717.83 386.30
  Q 717.50 385.83 717.94 385.48
  C 719.81 383.98 721.95 383.00 723.65 381.39
  Q 732.41 373.08 738.29 364.10
  C 739.30 362.55 739.89 360.90 740.98 359.38
  Q 742.14 357.74 743.12 355.88
  Q 748.09 346.43 751.47 335.78
  C 753.26 330.13 753.99 323.88 754.55 318.06
  Q 754.97 313.65 753.99 307.58
  C 753.77 306.22 754.36 305.09 753.60 303.85
  Q 753.33 303.40 753.29 302.87
  L 753.02 299.07
  Q 752.97 298.34 752.49 297.80
  Q 751.86 297.10 752.02 296.22
  Q 752.15 295.51 752.40 296.19
  C 753.27 298.60 754.33 300.71 755.03 303.22
  Q 759.30 318.39 758.70 333.99
  Q 758.60 336.54 757.93 338.99
  Q 757.18 341.72 757.18 344.59
  Q 757.18 346.17 758.70 345.76
  L 759.01 345.68
  A 3.46 3.45 88.0 0 0 761.50 343.00
  Q 763.56 332.40 762.29 319.48
  Q 760.14 297.54 748.69 281.54
  C 744.85 276.16 742.24 271.06 738.92 265.87
  Q 723.68 242.14 699.63 228.42
  Q 690.91 223.44 684.53 220.97
  Q 647.26 206.57 604.81 209.42
  Q 603.92 209.48 603.15 209.30
  Q 602.65 209.19 602.27 209.49
  Q 601.77 209.90 601.12 209.89
  Q 600.23 209.88 599.48 209.95
  Q 595.70 210.28 591.72 210.80
  Q 591.57 210.82 591.52 210.68
  Q 591.50 210.63 591.50 210.58
  Q 591.52 210.44 591.66 210.42
  Q 594.25 209.89 596.71 209.47
  Q 599.17 209.05 601.74 208.47
  Q 606.05 207.51 610.42 206.99
  Q 611.19 206.89 611.96 206.77
  Q 632.80 203.58 655.71 206.00
  C 671.79 207.70 687.97 211.16 702.57 217.46
  Q 718.06 224.14 732.29 236.00
  C 734.06 237.48 735.23 239.39 737.01 240.95
  C 738.69 242.43 739.71 244.34 741.08 246.08
  Q 742.26 247.58 744.13 247.22
  Q 744.47 247.15 744.77 246.95
  Q 746.04 246.10 745.16 244.86
  C 743.80 242.94 743.14 241.13 741.46 239.26
  Q 735.73 232.88 730.96 229.26
  Q 725.14 224.84 718.68 220.92
  Q 709.55 215.38 697.06 210.74
  C 694.51 209.79 691.87 209.26 689.23 208.30
  Q 686.28 207.23 683.09 206.48
  Q 670.48 203.51 661.86 202.41
  Q 652.05 201.16 642.61 200.84
  Q 627.56 200.33 611.53 202.62
  Q 609.89 202.85 608.35 203.29
  Q 607.83 203.43 607.29 203.34
  Q 606.21 203.16 605.32 203.75
  Q 605.13 203.88 604.90 203.86
  Q 604.73 203.85 604.57 203.79
  Q 604.02 203.56 603.44 203.69
  Q 585.71 207.59 575.62 212.42
  Q 563.03 218.45 550.85 224.57
  Q 549.52 225.24 548.28 226.05
  Q 546.62 227.13 547.52 225.36
  Q 550.08 220.39 552.94 215.52
  C 554.41 213.02 556.80 211.09 558.53 208.65
  Q 560.10 206.43 562.35 204.35
  Q 589.04 179.74 624.68 174.18
  Q 641.46 171.56 656.18 173.08
  Q 662.04 173.68 667.50 174.67
  Q 681.95 177.28 695.52 184.86
  Q 697.81 186.14 700.02 187.23
  Q 700.90 187.66 701.84 187.93
  Q 704.60 188.72 704.57 187.17
  Q 704.54 185.52 703.17 184.60
  Q 688.03 174.45 671.77 170.96
  C 636.66 163.42 599.03 171.26 569.95 192.30
  Q 559.80 199.65 550.78 211.30
  Q 545.76 217.77 543.48 224.88
  Q 542.88 226.74 543.28 228.68
  Q 543.39 229.25 542.92 229.60
  Q 538.69 232.69 535.11 236.43
  Q 534.76 236.79 534.26 236.76
  Q 532.86 236.68 531.48 236.29
  Q 511.45 230.67 492.22 226.56
  C 485.62 225.15 479.06 223.88 472.24 223.09
  Q 471.67 223.02 471.69 222.45
  Q 471.87 218.43 469.97 214.73
  Q 464.66 204.34 454.18 198.60
  C 439.08 190.33 422.21 188.88 405.13 192.89
  Q 390.00 196.45 378.97 206.10
  Q 375.16 209.42 373.14 212.95
  Q 372.27 214.46 373.22 216.13
  Q 373.61 216.83 374.86 216.53
  A 1.79 1.75 -77.0 0 0 375.86 215.89
  Q 386.34 202.54 404.00 197.62
  Q 429.78 190.44 452.65 202.62
  C 455.43 204.10 457.25 206.14 459.70 207.97
  C 464.00 211.19 466.64 217.14 467.98 222.14
  A 0.68 0.68 0.0 0 1 467.21 222.99
  C 464.35 222.52 461.40 220.14 459.17 218.46
  Q 456.86 216.72 453.73 215.41
  Q 449.33 213.57 445.25 212.75
  A 5.11 2.62 21.9 0 0 444.58 212.64
  Q 439.88 212.12 434.83 211.91
  C 422.53 211.42 410.44 215.20 398.82 220.88
  C 385.14 227.57 370.66 239.31 363.75 253.10
  Q 361.55 257.49 360.95 263.47
  C 360.74 265.56 361.61 267.25 362.83 268.82
  Q 363.82 270.08 362.22 269.94
  C 358.22 269.58 354.32 269.26 350.26 269.82
  Q 331.90 272.33 316.39 282.67
  Q 314.31 284.06 310.31 284.46
  Q 305.54 284.93 303.97 285.30
  C 272.38 292.68 244.39 312.29 223.71 337.59
  Q 209.41 355.08 201.28 372.74
  Q 193.65 389.31 191.88 407.73
  Q 190.99 416.97 192.68 427.80
  Q 193.06 430.25 194.11 431.91
  Q 194.77 432.96 195.63 432.97
  Q 196.54 432.97 197.28 432.19
  Q 197.68 431.77 197.66 431.20
  C 197.54 428.18 196.84 425.43 196.55 422.39
  Q 194.11 396.92 205.64 373.36
  C 224.75 334.33 259.29 302.07 301.61 289.83
  Q 303.78 289.20 306.04 289.14
  Q 306.77 289.12 306.21 289.59
  C 304.74 290.84 303.16 291.91 301.72 293.20
  Q 286.28 307.09 274.86 323.08
  C 270.85 328.68 266.57 333.64 262.06 338.65
  C 251.83 350.02 243.21 362.50 236.26 376.20
  Q 221.48 405.33 219.78 438.03
  Q 219.73 439.00 219.55 439.94
  C 219.28 441.38 219.67 442.95 219.64 444.44
  Q 219.44 456.33 220.40 467.62
  C 220.54 469.36 221.43 470.67 221.24 472.44
  Q 221.09 473.77 221.34 475.12
  Q 223.13 484.97 226.63 493.90
  C 227.75 496.78 229.22 499.10 231.18 501.36
  A 0.65 0.65 0.0 0 0 232.24 501.25
  L 233.16 499.52
  Q 233.49 498.92 233.20 498.31
  Q 225.58 481.82 224.33 464.42
  Q 223.80 457.13 223.57 449.32
  C 223.49 446.36 223.85 443.40 223.83 440.48
  Q 223.82 436.77 224.18 433.27
  Q 225.96 416.26 230.62 400.92
  C 236.29 382.27 246.77 364.35 259.02 348.85
  Q 259.84 347.81 259.31 349.02
  Q 256.15 356.17 252.90 363.53
  C 245.37 380.58 240.57 397.64 236.80 417.60
  Q 231.78 444.19 232.29 469.26
  Q 232.76 492.87 239.07 511.27
  C 241.29 517.75 244.20 524.55 247.62 530.33
  Q 254.05 541.20 262.44 550.81
  Q 263.15 551.62 262.31 552.30
  Q 247.18 564.45 236.89 580.87
  Q 225.22 599.51 219.68 620.55
  Q 217.07 630.47 217.15 640.43
  C 217.16 642.34 217.89 644.18 219.19 645.55
  A 0.73 0.73 0.0 0 0 220.32 645.45
  Q 221.44 643.76 221.34 641.77
  Q 220.91 633.14 222.82 624.92
  Q 230.83 590.47 254.42 564.76
  Q 254.50 564.67 254.60 564.73
  Q 254.64 564.75 254.66 564.80
  Q 254.76 564.99 254.66 565.18
  C 252.97 568.48 250.94 571.43 249.77 575.04
  C 248.51 578.89 246.92 582.56 245.93 586.54
  Q 240.37 608.70 243.30 631.92
  Q 243.90 636.69 244.76 641.39
  Q 245.63 646.12 246.92 650.50
  Q 254.24 675.44 273.69 696.20
  Q 279.79 702.71 288.71 708.29
  Q 305.36 718.70 327.50 724.77
  Q 334.16 726.60 339.03 723.27
  Z
  M 267.12 220.47
  C 259.59 216.07 247.24 220.57 241.85 225.90
  C 235.91 231.75 232.43 243.05 240.13 248.50
  C 250.27 255.68 264.09 251.22 270.69 241.46
  C 273.78 236.89 274.21 230.90 274.30 225.63
  Q 274.59 209.12 274.50 191.87
  Q 274.48 188.64 271.26 188.49
  Q 271.05 188.48 270.84 188.48
  Q 268.08 188.41 268.06 191.17
  L 267.88 220.04
  Q 267.87 220.91 267.12 220.47
  Z
  M 873.87 293.80
  L 880.45 340.06
  A 0.51 0.51 0.0 0 1 879.78 340.61
  Q 865.70 335.71 853.86 344.67
  Q 847.38 349.57 846.11 356.02
  Q 844.69 363.24 848.15 367.76
  C 854.11 375.56 864.21 374.88 872.77 371.71
  Q 886.32 366.69 888.53 353.03
  Q 889.11 349.49 888.14 344.22
  Q 886.85 337.24 885.97 330.25
  Q 885.56 327.02 884.90 323.71
  C 884.15 319.91 884.12 315.98 883.36 312.13
  C 882.59 308.18 882.32 304.18 881.57 300.19
  Q 880.19 292.82 879.24 285.17
  C 878.09 275.92 876.40 267.12 874.78 257.90
  A 2.51 2.51 0.0 0 0 871.64 255.91
  Q 837.05 265.44 803.19 274.38
  Q 801.95 274.71 800.82 275.33
  Q 800.34 275.60 800.25 276.15
  Q 799.87 278.63 800.43 281.40
  Q 803.25 295.52 806.27 309.28
  Q 806.37 309.74 806.80 309.94
  Q 808.92 310.93 811.10 310.29
  Q 842.05 301.22 873.41 293.49
  Q 873.81 293.39 873.87 293.80
  Z
  M 182.73 295.11
  A 0.08 0.08 0.0 0 1 182.61 295.18
  Q 176.46 292.36 170.70 294.11
  C 163.75 296.21 157.39 301.28 155.11 308.39
  C 153.80 312.51 154.53 317.05 158.66 319.13
  C 169.00 324.33 181.63 315.67 185.74 306.25
  Q 187.04 303.27 187.06 297.96
  Q 187.12 279.58 187.28 261.58
  A 1.89 1.88 -1.1 0 0 185.30 259.68
  Q 185.08 259.69 184.86 259.71
  Q 183.27 259.88 183.25 261.47
  L 182.73 295.11
  Z
  M 897.48 429.36
  Q 897.71 430.64 896.65 429.88
  C 895.69 429.20 894.75 428.60 893.55 428.45
  C 884.01 427.26 874.91 432.29 870.18 440.32
  C 865.85 447.65 868.71 455.52 877.78 455.87
  C 886.15 456.19 894.17 451.60 898.84 444.48
  Q 901.29 440.74 901.38 436.42
  Q 901.77 417.91 901.63 395.51
  A 1.32 1.32 0.0 0 0 900.67 394.25
  L 898.58 393.66
  Q 897.64 393.39 897.64 394.38
  Q 897.61 410.64 897.32 427.33
  Q 897.30 428.39 897.48 429.36
  Z
  M 631.96 441.53
  Q 631.08 441.26 630.74 442.15
  A 1.25 1.24 -41.9 0 0 630.70 442.84
  Q 631.36 445.66 634.32 445.93
  C 640.62 446.50 646.93 446.63 653.45 445.65
  Q 660.99 444.53 665.43 443.47
  C 678.12 440.45 690.29 434.04 701.22 426.35
  C 703.94 424.45 708.17 421.30 704.99 417.76
  Q 704.62 417.36 704.09 417.44
  C 702.41 417.67 700.93 417.87 699.44 418.76
  Q 691.60 423.43 683.08 428.34
  Q 671.10 435.23 658.94 438.12
  Q 649.16 440.45 635.98 440.24
  Q 634.12 440.21 632.62 441.41
  A 0.73 0.73 0.0 0 1 631.96 441.53
  Z
  M 694.1139 463.6473
  A 4.21 2.34 43.3 0 0 692.6548 459.0570
  A 4.21 2.34 43.3 0 0 687.9861 457.8727
  A 4.21 2.34 43.3 0 0 689.4452 462.4630
  A 4.21 2.34 43.3 0 0 694.1139 463.6473
  Z
  M 675.73 474.47
  L 678.46 473.40
  A 1.22 1.22 0.0 0 0 679.15 471.81
  L 678.20 469.38
  A 7.71 2.50 68.6 0 0 673.06 463.12
  L 672.71 463.26
  A 7.71 2.50 68.6 0 0 673.19 471.35
  L 674.15 473.78
  A 1.22 1.22 0.0 0 0 675.73 474.47
  Z
  M 651.71 477.78
  A 0.95 0.95 0.0 0 0 652.33 478.80
  C 658.23 480.92 657.85 470.86 657.43 467.46
  C 657.26 466.09 656.12 464.87 654.67 465.27
  Q 654.07 465.44 653.89 466.03
  L 651.40 474.38
  Q 651.24 474.91 651.43 475.43
  Q 651.85 476.60 651.71 477.78
  Z
  M 713.76 501.18
  Q 712.86 500.80 712.29 501.59
  C 709.52 505.53 713.30 507.72 716.75 507.79
  Q 731.75 508.08 750.01 507.25
  C 754.71 507.04 760.15 506.82 764.39 504.78
  Q 765.15 504.41 765.42 503.61
  C 766.87 499.34 762.51 498.84 759.68 499.15
  Q 751.89 500.01 749.25 500.01
  Q 733.75 500.01 718.25 499.86
  Q 716.10 499.83 714.69 501.04
  Q 714.27 501.40 713.76 501.18
  Z
  M 170.35 626.95
  A 0.27 0.27 0.0 0 1 169.97 627.20
  C 164.75 624.87 157.61 624.25 151.97 626.50
  C 141.89 630.52 136.35 638.32 138.30 649.39
  C 138.55 650.81 139.64 651.66 140.40 652.80
  C 142.64 656.15 148.76 658.32 151.96 658.49
  Q 157.07 658.75 164.17 656.76
  Q 168.44 655.56 171.64 652.07
  C 176.26 647.04 177.10 642.00 177.06 635.05
  Q 176.97 617.85 177.25 601.34
  Q 177.28 599.61 177.45 597.86
  A 0.65 0.65 0.0 0 1 178.13 597.27
  Q 181.44 597.44 183.97 599.27
  Q 193.00 605.79 191.60 616.34
  Q 191.24 619.06 189.69 621.10
  Q 187.92 623.41 186.20 625.80
  A 2.10 2.09 23.4 0 0 187.50 629.08
  Q 190.52 629.67 193.00 627.81
  C 205.06 618.82 203.00 603.70 193.86 593.48
  Q 188.73 587.76 184.95 581.02
  Q 181.92 575.63 183.24 569.37
  C 183.82 566.62 182.57 564.23 179.69 563.75
  A 1.23 1.22 -55.1 0 0 178.88 563.90
  C 173.31 567.08 171.27 577.07 171.30 582.97
  Q 171.37 592.54 171.42 601.92
  C 171.43 603.84 170.69 605.55 170.62 607.44
  Q 170.27 617.30 170.35 626.95
  Z
  M 860.15 698.97
  Q 848.99 694.07 837.98 700.08
  C 831.56 703.58 827.31 710.10 827.67 717.62
  C 828.15 727.69 839.05 731.56 847.60 730.26
  Q 854.63 729.18 858.06 727.06
  Q 863.59 723.63 866.25 716.54
  Q 867.58 713.03 867.43 706.01
  Q 867.05 688.00 867.48 669.03
  Q 867.52 667.49 868.93 668.13
  C 870.58 668.88 872.08 668.76 873.62 669.87
  C 880.30 674.67 884.30 682.46 881.50 690.68
  C 880.49 693.64 878.07 695.73 876.41 698.32
  A 1.86 1.85 -54.6 0 0 876.82 700.78
  Q 878.08 701.78 879.90 701.56
  C 884.90 700.97 889.53 694.65 890.91 690.52
  C 893.96 681.36 890.50 671.48 884.17 664.52
  Q 879.00 658.83 875.38 652.45
  Q 872.15 646.74 873.45 640.06
  C 873.98 637.33 872.56 635.11 869.81 634.58
  Q 869.34 634.49 868.93 634.73
  Q 865.80 636.55 864.42 639.91
  C 862.22 645.26 861.24 650.53 861.39 656.35
  Q 861.56 663.13 861.40 669.29
  Q 861.25 674.77 860.68 682.18
  Q 860.02 690.74 860.56 698.68
  A 0.30 0.29 9.3 0 1 860.15 698.97
  Z"
/>
<path fill="#020201" d="
  M 452.20 720.15
  Q 464.19 713.69 474.71 707.45
  Q 491.41 697.53 504.35 683.08
  C 513.73 672.61 520.18 660.17 525.26 646.50
  Q 532.77 626.27 534.10 604.79
  Q 534.25 602.41 532.98 604.43
  C 531.92 606.13 530.97 607.86 529.67 609.41
  Q 508.99 634.09 478.59 641.75
  C 473.20 643.11 467.56 643.91 462.05 644.74
  C 430.78 649.49 400.82 639.39 376.50 619.51
  Q 374.81 618.13 373.57 616.29
  Q 373.27 615.86 372.75 615.93
  Q 371.97 616.04 371.21 616.39
  Q 370.83 616.56 370.67 615.44
  L 372.81 611.59
  A 0.67 0.66 -64.6 0 0 372.48 610.65
  Q 368.22 608.92 365.84 603.96
  C 362.24 596.45 366.03 590.65 371.44 585.22
  Q 373.15 583.52 374.25 581.56
  Q 374.54 581.04 374.21 580.55
  Q 363.94 565.45 362.85 546.99
  Q 362.44 540.11 362.75 532.73
  Q 362.79 531.71 363.16 530.88
  C 363.81 529.43 363.34 527.71 363.66 526.14
  Q 366.39 512.36 373.22 500.26
  C 387.64 474.73 410.01 460.04 439.97 458.47
  Q 452.32 457.82 463.19 459.81
  Q 484.47 463.72 501.30 478.47
  Q 507.29 483.71 511.30 489.00
  Q 520.22 500.74 525.20 514.55
  Q 529.20 525.66 528.85 539.44
  C 528.75 543.14 528.98 547.31 528.14 550.90
  Q 527.76 552.52 527.55 554.26
  C 525.78 569.40 518.45 582.95 508.34 594.73
  C 502.51 601.55 495.33 605.89 487.32 610.40
  Q 480.47 614.26 475.09 616.11
  C 463.44 620.13 450.90 621.71 438.60 620.39
  Q 431.49 619.63 428.27 619.10
  Q 417.13 617.24 406.14 610.87
  C 404.12 609.70 401.97 608.89 400.10 607.46
  Q 395.76 604.12 391.48 601.11
  A 0.83 0.82 43.6 0 0 390.50 601.13
  Q 387.07 603.77 383.77 607.16
  Q 381.42 609.56 378.48 610.99
  Q 377.20 611.61 378.27 612.56
  C 390.65 623.41 406.25 632.48 422.61 636.55
  C 424.90 637.12 427.05 637.10 429.35 637.72
  Q 431.42 638.27 433.56 638.42
  Q 463.77 640.59 489.94 630.97
  Q 497.22 628.29 504.08 623.44
  Q 524.87 608.73 536.23 584.81
  Q 542.20 572.23 545.66 559.13
  Q 547.12 553.60 547.42 548.46
  Q 549.67 510.45 529.06 479.56
  C 525.39 474.07 521.14 468.83 516.23 464.49
  Q 514.79 463.22 510.11 459.48
  C 501.55 452.63 491.58 448.69 480.80 444.96
  C 478.21 444.06 476.38 442.02 476.21 439.26
  Q 475.55 429.08 475.17 419.61
  Q 474.80 410.65 476.56 392.87
  C 476.71 391.33 476.44 389.84 476.75 388.39
  Q 477.09 386.79 477.21 385.17
  Q 477.54 380.30 478.58 375.68
  C 479.11 373.29 478.81 370.79 479.34 368.44
  C 480.69 362.31 481.51 356.17 482.95 350.03
  Q 486.05 336.89 487.29 332.99
  Q 493.61 313.05 500.14 295.71
  Q 507.32 276.65 517.60 257.77
  C 520.68 252.13 524.36 246.73 528.03 241.49
  A 0.89 0.89 0.0 0 0 527.59 240.14
  Q 521.63 238.05 515.16 236.71
  Q 513.52 236.37 511.99 236.41
  Q 511.43 236.42 511.20 236.93
  Q 510.07 239.54 508.48 241.74
  Q 502.63 249.86 498.54 257.08
  Q 488.73 274.44 480.05 294.26
  C 473.24 309.81 468.82 325.69 464.74 342.68
  Q 462.30 352.85 460.94 362.56
  Q 457.68 385.88 456.53 409.73
  Q 456.39 412.62 455.73 415.62
  C 455.20 418.00 453.45 419.87 450.95 419.89
  Q 440.35 420.00 430.44 420.03
  Q 427.35 420.04 424.01 419.67
  C 419.73 419.20 420.62 411.73 420.57 408.82
  Q 420.50 405.53 420.74 402.25
  Q 420.98 398.95 421.03 395.75
  Q 421.09 392.48 421.63 389.25
  C 421.92 387.51 421.74 385.80 421.93 384.20
  Q 424.01 367.22 427.51 351.05
  Q 427.80 349.68 428.33 348.56
  C 429.26 346.58 429.29 344.35 429.88 342.24
  Q 431.86 335.27 433.65 328.46
  C 434.51 325.18 436.11 322.27 437.00 318.95
  Q 438.58 313.03 441.11 306.20
  Q 446.99 290.38 454.50 275.69
  C 456.90 270.98 459.93 266.59 462.65 261.84
  C 466.89 254.40 471.95 247.05 476.83 239.82
  Q 480.30 234.70 484.49 230.30
  A 0.27 0.27 0.0 0 0 484.36 229.85
  Q 477.62 228.11 471.14 227.42
  A 1.33 1.30 -62.7 0 0 470.09 227.77
  Q 464.66 232.76 459.74 238.98
  Q 443.10 260.03 432.64 282.71
  Q 418.40 313.62 412.08 337.02
  Q 409.60 346.20 405.49 364.78
  C 404.15 370.85 403.35 377.29 402.48 383.51
  Q 401.43 391.00 400.97 397.46
  Q 400.08 410.15 399.39 423.31
  Q 399.25 426.04 398.88 428.90
  C 398.40 432.58 398.87 436.19 398.48 439.94
  Q 398.20 442.71 397.51 445.19
  A 5.70 5.62 78.7 0 1 395.57 448.14
  Q 390.70 452.02 385.64 456.35
  C 374.76 465.65 364.65 477.26 357.59 490.01
  Q 345.16 512.46 345.50 541.50
  Q 345.75 563.01 353.29 578.11
  Q 356.56 584.65 362.15 592.49
  Q 362.43 592.90 362.38 593.39
  L 361.67 599.34
  Q 360.69 600.04 359.71 598.79
  Q 341.76 575.85 339.92 548.10
  Q 337.88 517.20 351.11 490.09
  C 356.86 478.31 365.97 467.60 374.92 458.37
  C 380.17 452.96 386.31 448.17 392.13 443.17
  A 3.21 3.19 70.9 0 0 393.23 440.89
  Q 394.00 421.84 395.33 403.06
  Q 396.50 386.57 398.38 372.88
  C 399.90 361.83 402.56 350.75 405.30 339.76
  C 415.43 298.96 434.19 260.39 461.99 228.29
  Q 462.78 227.37 461.73 226.76
  C 454.34 222.50 447.21 221.16 438.63 221.68
  Q 425.88 222.45 413.53 227.86
  Q 397.01 235.10 384.73 247.48
  Q 377.88 254.39 374.51 259.27
  Q 369.57 266.43 366.80 274.59
  A 1.22 1.21 -75.5 0 1 365.44 275.40
  Q 346.02 272.09 327.63 281.40
  Q 318.73 285.91 310.36 292.46
  C 289.89 308.48 273.76 330.54 262.37 354.48
  Q 256.48 366.88 252.26 379.20
  C 249.28 387.89 246.23 397.25 244.28 406.33
  Q 240.39 424.57 238.22 444.20
  C 238.01 446.04 238.24 447.91 237.95 449.71
  Q 237.59 451.90 237.60 454.05
  Q 237.63 458.50 237.49 462.97
  C 237.08 476.42 238.30 490.46 242.06 503.43
  Q 245.29 514.53 248.80 521.63
  Q 255.38 534.90 266.78 548.82
  C 268.97 551.50 267.30 554.46 265.40 556.60
  Q 262.99 559.29 261.64 561.66
  Q 246.51 588.19 247.63 618.39
  Q 247.99 628.23 248.57 632.66
  Q 249.44 639.31 251.36 647.24
  Q 253.36 655.45 255.98 661.45
  Q 263.99 679.82 278.96 694.06
  Q 285.66 700.44 294.79 705.64
  Q 313.20 716.15 333.47 720.83
  C 334.89 721.16 336.81 721.09 338.15 721.66
  Q 339.37 722.17 339.03 723.27
  Q 334.16 726.60 327.50 724.77
  Q 305.36 718.70 288.71 708.29
  Q 279.79 702.71 273.69 696.20
  Q 254.24 675.44 246.92 650.50
  Q 245.63 646.12 244.76 641.39
  Q 243.90 636.69 243.30 631.92
  Q 240.37 608.70 245.93 586.54
  C 246.92 582.56 248.51 578.89 249.77 575.04
  C 250.94 571.43 252.97 568.48 254.66 565.18
  Q 254.76 564.99 254.66 564.80
  Q 254.64 564.75 254.60 564.73
  Q 254.50 564.67 254.42 564.76
  Q 230.83 590.47 222.82 624.92
  Q 220.91 633.14 221.34 641.77
  Q 221.44 643.76 220.32 645.45
  A 0.73 0.73 0.0 0 1 219.19 645.55
  C 217.89 644.18 217.16 642.34 217.15 640.43
  Q 217.07 630.47 219.68 620.55
  Q 225.22 599.51 236.89 580.87
  Q 247.18 564.45 262.31 552.30
  Q 263.15 551.62 262.44 550.81
  Q 254.05 541.20 247.62 530.33
  C 244.20 524.55 241.29 517.75 239.07 511.27
  Q 232.76 492.87 232.29 469.26
  Q 231.78 444.19 236.80 417.60
  C 240.57 397.64 245.37 380.58 252.90 363.53
  Q 256.15 356.17 259.31 349.02
  Q 259.84 347.81 259.02 348.85
  C 246.77 364.35 236.29 382.27 230.62 400.92
  Q 225.96 416.26 224.18 433.27
  Q 223.82 436.77 223.83 440.48
  C 223.85 443.40 223.49 446.36 223.57 449.32
  Q 223.80 457.13 224.33 464.42
  Q 225.58 481.82 233.20 498.31
  Q 233.49 498.92 233.16 499.52
  L 232.24 501.25
  A 0.65 0.65 0.0 0 1 231.18 501.36
  C 229.22 499.10 227.75 496.78 226.63 493.90
  Q 223.13 484.97 221.34 475.12
  Q 221.09 473.77 221.24 472.44
  C 221.43 470.67 220.54 469.36 220.40 467.62
  Q 219.44 456.33 219.64 444.44
  C 219.67 442.95 219.28 441.38 219.55 439.94
  Q 219.73 439.00 219.78 438.03
  Q 221.48 405.33 236.26 376.20
  C 243.21 362.50 251.83 350.02 262.06 338.65
  C 266.57 333.64 270.85 328.68 274.86 323.08
  Q 286.28 307.09 301.72 293.20
  C 303.16 291.91 304.74 290.84 306.21 289.59
  Q 306.77 289.12 306.04 289.14
  Q 303.78 289.20 301.61 289.83
  C 259.29 302.07 224.75 334.33 205.64 373.36
  Q 194.11 396.92 196.55 422.39
  C 196.84 425.43 197.54 428.18 197.66 431.20
  Q 197.68 431.77 197.28 432.19
  Q 196.54 432.97 195.63 432.97
  Q 194.77 432.96 194.11 431.91
  Q 193.06 430.25 192.68 427.80
  Q 190.99 416.97 191.88 407.73
  Q 193.65 389.31 201.28 372.74
  Q 209.41 355.08 223.71 337.59
  C 244.39 312.29 272.38 292.68 303.97 285.30
  Q 305.54 284.93 310.31 284.46
  Q 314.31 284.06 316.39 282.67
  Q 331.90 272.33 350.26 269.82
  C 354.32 269.26 358.22 269.58 362.22 269.94
  Q 363.82 270.08 362.83 268.82
  C 361.61 267.25 360.74 265.56 360.95 263.47
  Q 361.55 257.49 363.75 253.10
  C 370.66 239.31 385.14 227.57 398.82 220.88
  C 410.44 215.20 422.53 211.42 434.83 211.91
  Q 439.88 212.12 444.58 212.64
  A 5.11 2.62 21.9 0 1 445.25 212.75
  Q 449.33 213.57 453.73 215.41
  Q 456.86 216.72 459.17 218.46
  C 461.40 220.14 464.35 222.52 467.21 222.99
  A 0.68 0.68 0.0 0 0 467.98 222.14
  C 466.64 217.14 464.00 211.19 459.70 207.97
  C 457.25 206.14 455.43 204.10 452.65 202.62
  Q 429.78 190.44 404.00 197.62
  Q 386.34 202.54 375.86 215.89
  A 1.79 1.75 -77.0 0 1 374.86 216.53
  Q 373.61 216.83 373.22 216.13
  Q 372.27 214.46 373.14 212.95
  Q 375.16 209.42 378.97 206.10
  Q 390.00 196.45 405.13 192.89
  C 422.21 188.88 439.08 190.33 454.18 198.60
  Q 464.66 204.34 469.97 214.73
  Q 471.87 218.43 471.69 222.45
  Q 471.67 223.02 472.24 223.09
  C 479.06 223.88 485.62 225.15 492.22 226.56
  Q 511.45 230.67 531.48 236.29
  Q 532.86 236.68 534.26 236.76
  Q 534.76 236.79 535.11 236.43
  Q 538.69 232.69 542.92 229.60
  Q 543.39 229.25 543.28 228.68
  Q 542.88 226.74 543.48 224.88
  Q 545.76 217.77 550.78 211.30
  Q 559.80 199.65 569.95 192.30
  C 599.03 171.26 636.66 163.42 671.77 170.96
  Q 688.03 174.45 703.17 184.60
  Q 704.54 185.52 704.57 187.17
  Q 704.60 188.72 701.84 187.93
  Q 700.90 187.66 700.02 187.23
  Q 697.81 186.14 695.52 184.86
  Q 681.95 177.28 667.50 174.67
  Q 662.04 173.68 656.18 173.08
  Q 641.46 171.56 624.68 174.18
  Q 589.04 179.74 562.35 204.35
  Q 560.10 206.43 558.53 208.65
  C 556.80 211.09 554.41 213.02 552.94 215.52
  Q 550.08 220.39 547.52 225.36
  Q 546.62 227.13 548.28 226.05
  Q 549.52 225.24 550.85 224.57
  Q 563.03 218.45 575.62 212.42
  Q 585.71 207.59 603.44 203.69
  Q 604.02 203.56 604.57 203.79
  Q 604.73 203.85 604.90 203.86
  Q 605.13 203.88 605.32 203.75
  Q 606.21 203.16 607.29 203.34
  Q 607.83 203.43 608.35 203.29
  Q 609.89 202.85 611.53 202.62
  Q 627.56 200.33 642.61 200.84
  Q 652.05 201.16 661.86 202.41
  Q 670.48 203.51 683.09 206.48
  Q 686.28 207.23 689.23 208.30
  C 691.87 209.26 694.51 209.79 697.06 210.74
  Q 709.55 215.38 718.68 220.92
  Q 725.14 224.84 730.96 229.26
  Q 735.73 232.88 741.46 239.26
  C 743.14 241.13 743.80 242.94 745.16 244.86
  Q 746.04 246.10 744.77 246.95
  Q 744.47 247.15 744.13 247.22
  Q 742.26 247.58 741.08 246.08
  C 739.71 244.34 738.69 242.43 737.01 240.95
  C 735.23 239.39 734.06 237.48 732.29 236.00
  Q 718.06 224.14 702.57 217.46
  C 687.97 211.16 671.79 207.70 655.71 206.00
  Q 632.80 203.58 611.96 206.77
  Q 611.19 206.89 610.42 206.99
  Q 606.05 207.51 601.74 208.47
  Q 599.17 209.05 596.71 209.47
  Q 594.25 209.89 591.66 210.42
  Q 591.52 210.44 591.50 210.58
  Q 591.50 210.63 591.52 210.68
  Q 591.57 210.82 591.72 210.80
  Q 595.70 210.28 599.48 209.95
  Q 600.23 209.88 601.12 209.89
  Q 601.77 209.90 602.27 209.49
  Q 602.65 209.19 603.15 209.30
  Q 603.92 209.48 604.81 209.42
  Q 647.26 206.57 684.53 220.97
  Q 690.91 223.44 699.63 228.42
  Q 723.68 242.14 738.92 265.87
  C 742.24 271.06 744.85 276.16 748.69 281.54
  Q 760.14 297.54 762.29 319.48
  Q 763.56 332.40 761.50 343.00
  A 3.46 3.45 88.0 0 1 759.01 345.68
  L 758.70 345.76
  Q 757.18 346.17 757.18 344.59
  Q 757.18 341.72 757.93 338.99
  Q 758.60 336.54 758.70 333.99
  Q 759.30 318.39 755.03 303.22
  C 754.33 300.71 753.27 298.60 752.40 296.19
  Q 752.15 295.51 752.02 296.22
  Q 751.86 297.10 752.49 297.80
  Q 752.97 298.34 753.02 299.07
  L 753.29 302.87
  Q 753.33 303.40 753.60 303.85
  C 754.36 305.09 753.77 306.22 753.99 307.58
  Q 754.97 313.65 754.55 318.06
  C 753.99 323.88 753.26 330.13 751.47 335.78
  Q 748.09 346.43 743.12 355.88
  Q 742.14 357.74 740.98 359.38
  C 739.89 360.90 739.30 362.55 738.29 364.10
  Q 732.41 373.08 723.65 381.39
  C 721.95 383.00 719.81 383.98 717.94 385.48
  Q 717.50 385.83 717.83 386.30
  Q 724.41 395.34 733.40 402.31
  Q 741.67 408.72 751.79 409.64
  C 755.90 410.01 759.83 409.34 763.84 410.65
  Q 769.30 412.44 771.62 417.58
  Q 773.52 421.80 774.61 425.63
  Q 779.78 443.73 781.57 462.49
  Q 782.90 476.45 783.81 490.76
  Q 783.86 491.55 784.16 492.10
  Q 784.86 493.37 785.19 491.96
  Q 785.51 490.54 786.84 491.10
  Q 788.93 491.96 791.02 492.22
  Q 791.50 492.28 791.89 492.59
  C 798.01 497.54 802.24 505.22 806.46 512.51
  Q 813.77 525.10 820.53 538.00
  C 825.09 546.70 824.20 552.78 820.86 561.99
  Q 815.34 577.22 810.08 590.18
  Q 803.84 605.56 798.03 620.35
  C 794.19 630.13 791.70 639.11 789.86 648.68
  Q 789.10 652.62 788.68 656.51
  Q 787.42 668.11 786.46 680.93
  C 785.81 689.64 786.30 698.87 785.90 707.64
  C 785.63 713.28 786.05 719.16 786.48 724.85
  C 787.03 732.08 788.92 738.54 791.90 745.93
  Q 794.59 752.62 795.17 757.40
  C 796.43 767.83 794.35 777.13 791.21 787.27
  A 4.62 4.62 0.0 0 1 786.86 790.53
  Q 771.51 790.74 755.99 791.19
  Q 720.48 792.21 683.75 792.79
  Q 674.49 792.94 663.75 793.25
  C 638.36 793.97 612.29 794.37 586.23 795.20
  Q 583.71 795.28 581.25 795.55
  C 578.18 795.88 575.25 795.36 572.16 795.40
  C 551.68 795.64 531.23 796.31 510.76 796.73
  Q 409.38 798.78 336.02 799.93
  Q 316.76 800.24 286.00 800.32
  Q 278.34 800.34 274.89 800.27
  C 270.38 800.17 265.31 797.50 264.66 792.67
  C 264.19 789.23 264.64 785.98 266.30 782.69
  Q 270.62 774.11 277.42 767.47
  C 290.09 755.09 303.90 744.25 319.38 735.62
  Q 324.81 732.59 333.71 729.07
  C 344.09 724.97 353.47 720.35 365.04 717.83
  Q 377.45 715.12 388.53 713.78
  Q 400.67 712.32 413.65 713.65
  Q 417.46 714.04 425.97 715.58
  Q 434.73 717.16 443.10 720.17
  Q 464.39 727.84 484.86 738.40
  Q 517.18 755.07 547.53 771.20
  C 551.81 773.47 556.21 775.59 560.36 777.91
  C 567.74 782.04 575.40 785.77 582.83 789.64
  A 0.54 0.54 0.0 0 0 583.58 789.36
  Q 585.37 784.81 586.69 779.99
  Q 596.22 745.20 608.33 711.89
  Q 614.66 694.47 623.31 677.83
  Q 629.41 666.10 638.28 659.52
  C 650.40 650.53 663.81 643.68 678.50 639.39
  C 687.17 636.85 695.48 634.11 704.55 631.76
  Q 718.88 628.05 736.06 623.08
  Q 748.92 619.35 760.37 614.34
  Q 766.86 611.51 771.53 606.79
  C 777.05 601.21 778.83 592.38 778.97 584.24
  Q 779.61 547.50 778.81 525.98
  C 778.47 516.99 778.21 508.31 777.58 499.51
  C 777.28 495.29 777.46 491.10 777.10 486.83
  Q 776.04 474.10 774.96 462.04
  Q 773.25 442.94 767.06 424.00
  C 766.05 420.90 763.63 416.70 759.91 416.73
  Q 754.45 416.79 749.31 416.46
  C 737.18 415.70 728.25 407.35 720.00 398.21
  C 717.06 394.96 713.26 390.30 710.35 386.05
  Q 698.40 368.63 689.32 350.19
  C 680.87 333.02 674.10 316.24 667.25 298.53
  C 665.41 293.77 662.70 289.39 659.58 285.45
  Q 658.78 284.44 659.36 285.59
  Q 661.97 290.77 662.98 296.69
  Q 663.24 298.19 663.62 299.74
  Q 664.03 301.35 664.18 303.02
  Q 665.88 321.48 659.12 338.69
  Q 652.64 355.20 640.79 369.56
  Q 638.83 371.93 635.50 373.28
  A 0.87 0.87 0.0 0 1 634.36 372.79
  C 633.54 370.72 636.01 368.34 637.30 366.95
  Q 640.32 363.71 643.39 359.35
  Q 644.29 358.06 645.08 356.90
  Q 649.30 350.68 653.52 341.44
  Q 664.71 316.96 657.75 292.94
  C 656.48 288.55 654.41 284.72 652.90 280.51
  Q 652.86 280.41 652.76 280.35
  Q 652.72 280.32 652.66 280.33
  Q 652.53 280.36 652.55 280.50
  Q 653.20 284.10 652.68 287.57
  Q 652.61 288.09 652.85 288.55
  Q 653.24 289.30 653.21 289.78
  Q 650.41 336.08 624.03 374.90
  Q 604.17 404.14 573.23 426.16
  C 562.78 433.60 552.52 440.27 540.34 445.04
  Q 527.71 449.99 514.49 452.71
  Q 513.31 452.96 514.32 453.63
  Q 533.97 466.72 542.82 487.80
  Q 546.73 497.11 549.85 507.06
  Q 553.36 518.24 554.48 533.75
  Q 555.20 543.72 553.63 553.77
  C 551.43 567.85 548.28 580.57 541.03 591.72
  C 540.27 592.89 539.66 594.64 539.62 596.03
  Q 539.02 616.94 533.36 637.64
  Q 529.13 653.11 521.90 666.59
  C 510.65 687.54 492.17 703.64 471.18 715.55
  Q 465.90 718.56 460.53 720.55
  Q 457.03 721.84 452.20 720.15
  Z
  M 647.59 269.95
  Q 650.88 270.40 653.40 272.41
  Q 662.21 279.42 669.11 289.60
  Q 672.63 294.80 675.07 301.40
  C 678.98 312.00 683.01 323.09 687.42 332.94
  Q 697.71 355.95 712.13 378.26
  Q 712.55 378.91 712.95 379.59
  Q 714.23 381.78 716.18 380.29
  C 730.66 369.31 741.12 352.02 746.61 334.73
  C 751.02 320.85 750.09 305.66 746.23 291.80
  Q 745.10 287.75 742.75 282.76
  Q 739.70 276.28 738.27 273.83
  Q 724.25 249.69 703.27 236.34
  Q 682.32 223.02 657.69 217.89
  Q 638.41 213.88 621.89 213.63
  Q 608.36 213.44 596.40 214.77
  Q 580.14 216.58 562.91 223.65
  C 552.23 228.03 542.39 235.26 534.54 243.73
  Q 531.71 246.78 529.74 250.05
  Q 522.74 261.63 517.78 272.49
  Q 504.89 300.71 495.55 330.71
  Q 492.66 340.01 490.46 350.14
  Q 481.28 392.42 483.16 436.00
  C 483.22 437.41 484.02 438.33 485.28 438.82
  Q 494.71 442.46 503.88 446.97
  C 506.18 448.10 508.51 448.08 510.99 447.68
  Q 521.76 445.95 532.52 442.39
  Q 534.25 441.82 535.95 440.91
  C 539.09 439.25 542.44 438.24 545.65 436.60
  Q 558.04 430.30 572.32 420.21
  Q 603.15 398.44 622.90 366.99
  Q 644.35 332.82 648.06 293.76
  C 648.49 289.20 648.10 284.70 648.28 280.14
  C 648.41 276.87 647.43 273.73 647.01 270.52
  A 0.51 0.51 0.0 0 1 647.59 269.95
  Z
  M 430.82 217.39
  C 431.53 217.37 432.06 217.74 432.83 217.65
  Q 439.40 216.87 446.31 216.99
  Q 446.52 216.99 446.53 216.78
  L 446.53 216.78
  Q 446.54 216.64 446.41 216.62
  C 440.52 215.79 434.56 215.45 428.42 216.21
  Q 423.40 216.83 419.56 217.74
  C 399.33 222.56 378.16 235.69 367.69 254.43
  Q 365.62 258.12 365.53 262.64
  Q 365.48 264.65 366.50 262.92
  Q 380.22 239.59 403.63 227.26
  Q 411.62 223.05 419.61 220.26
  Q 422.36 219.31 429.20 218.09
  Q 429.50 218.03 429.76 217.87
  Q 429.97 217.74 430.18 217.60
  Q 430.49 217.41 430.82 217.39
  Z
  M 427.42 379.09
  C 427.15 381.22 426.44 383.25 426.28 385.35
  Q 425.32 398.17 425.14 412.73
  A 2.15 2.15 0.0 0 0 427.27 414.91
  L 450.45 415.13
  Q 451.93 415.14 452.00 413.66
  C 452.44 404.75 452.65 395.92 453.55 387.06
  Q 455.03 372.35 455.97 366.33
  Q 459.10 346.43 464.51 325.79
  Q 469.02 308.61 476.59 291.57
  Q 485.76 270.94 495.88 253.34
  Q 500.49 245.33 506.40 237.07
  A 1.35 1.35 0.0 0 0 505.66 234.99
  Q 499.42 233.29 492.60 232.26
  C 490.20 231.90 488.43 230.96 486.72 233.36
  Q 475.27 249.36 465.94 264.62
  Q 454.52 283.33 445.96 304.82
  Q 442.68 313.06 439.94 320.99
  Q 439.53 322.17 439.17 323.50
  Q 437.07 331.24 435.18 339.49
  C 434.68 341.67 433.97 343.73 433.50 345.96
  Q 432.30 351.60 431.03 357.21
  Q 429.09 365.81 427.42 379.09
  Z
  M 751.7044 294.4713
  A 1.06 0.12 66.4 0 0 751.3900 293.4520
  A 1.06 0.12 66.4 0 0 750.8556 292.5287
  A 1.06 0.12 66.4 0 0 751.1700 293.5480
  A 1.06 0.12 66.4 0 0 751.7044 294.4713
  Z
  M 390.98 595.47
  Q 392.39 595.84 393.55 596.82
  C 403.32 605.10 413.52 610.70 425.53 613.96
  Q 432.47 615.85 436.43 616.23
  Q 457.88 618.35 479.06 610.38
  Q 485.60 607.92 491.56 603.65
  C 499.54 597.94 506.34 591.67 511.50 583.74
  Q 524.65 563.54 524.59 539.71
  Q 524.56 529.07 522.92 519.93
  Q 522.10 515.30 519.83 511.08
  Q 517.36 506.47 514.78 501.97
  C 506.07 486.74 494.17 477.13 478.85 469.23
  C 476.12 467.82 473.20 467.71 470.40 466.52
  Q 467.97 465.50 465.37 465.07
  Q 449.04 462.39 433.10 463.47
  C 415.71 464.65 398.87 474.30 387.70 487.00
  Q 374.84 501.60 368.83 522.96
  Q 366.90 529.82 366.70 538.65
  Q 366.48 547.95 367.64 553.57
  Q 370.56 567.62 378.84 580.13
  A 2.24 2.22 -41.4 0 1 378.66 582.81
  Q 373.71 588.52 369.93 594.08
  C 366.44 599.24 370.95 603.81 374.67 606.97
  A 1.81 1.81 0.0 0 0 377.02 606.96
  Q 382.10 602.59 386.81 598.13
  Q 388.27 596.75 390.04 595.62
  Q 390.48 595.33 390.98 595.47
  Z
  M 792.11 547.35
  Q 789.56 552.56 786.79 557.63
  C 786.03 559.02 785.73 560.94 785.78 562.50
  Q 786.18 574.05 786.15 584.25
  C 786.12 596.59 781.15 610.56 770.13 616.87
  Q 759.69 622.86 744.82 627.40
  Q 732.44 631.17 718.55 635.04
  Q 717.10 635.45 715.93 636.35
  Q 699.60 649.03 688.16 664.41
  C 682.16 672.47 677.42 681.62 675.93 691.67
  C 675.53 694.41 675.89 697.06 675.69 699.80
  Q 675.52 702.08 676.10 704.95
  C 677.39 711.26 678.81 716.19 682.77 721.90
  C 684.98 725.09 687.09 728.47 689.71 731.27
  Q 695.86 737.83 703.82 745.10
  Q 711.21 751.84 717.78 761.83
  C 722.00 768.24 723.52 775.57 725.34 782.80
  Q 725.84 784.79 725.82 786.92
  A 0.62 0.62 0.0 0 0 726.46 787.55
  L 784.97 786.07
  Q 785.62 786.05 785.48 785.42
  C 784.95 782.96 786.43 780.93 786.80 778.51
  C 787.90 771.41 789.34 765.33 788.16 757.66
  Q 787.46 753.11 785.00 747.35
  Q 782.00 740.34 780.79 732.71
  C 779.95 727.40 779.36 721.75 779.38 716.33
  Q 779.42 699.10 779.62 681.46
  C 779.65 678.98 780.24 676.62 780.36 674.14
  C 781.02 660.30 783.18 644.93 786.94 631.72
  Q 789.29 623.47 793.78 612.49
  C 801.19 594.33 809.01 576.43 815.15 557.89
  C 816.74 553.09 817.94 547.32 815.50 542.75
  C 808.32 529.31 801.25 516.03 792.62 503.39
  Q 790.64 500.50 787.56 498.70
  A 1.63 1.62 25.0 0 0 785.21 499.55
  Q 784.65 501.07 784.55 502.74
  Q 784.23 507.97 784.74 513.46
  C 785.31 519.68 785.37 525.80 785.58 532.04
  Q 785.68 534.92 786.89 537.36
  Q 789.32 542.28 792.03 546.30
  A 1.04 1.03 -49.5 0 1 792.11 547.35
  Z
  M 676.97 668.49
  A 0.32 0.32 0.0 0 0 677.54 668.53
  Q 687.18 652.47 700.91 640.53
  Q 702.02 639.56 700.60 639.95
  Q 687.17 643.63 676.16 647.18
  Q 671.37 648.73 666.56 650.87
  A 0.48 0.47 -32.3 0 0 666.39 651.61
  Q 673.01 659.44 676.97 668.49
  Z
  M 669.10 695.70
  Q 669.36 687.74 671.34 680.66
  C 673.45 673.10 665.39 660.81 660.48 655.06
  Q 659.74 654.20 658.73 654.72
  Q 649.38 659.58 641.22 665.93
  C 634.50 671.14 630.26 679.01 626.51 686.77
  Q 617.72 704.93 611.15 724.53
  Q 606.05 739.71 601.09 754.57
  Q 600.76 755.54 601.61 756.11
  C 616.52 766.17 630.59 776.12 644.39 788.39
  A 1.77 1.76 -19.5 0 0 645.30 788.82
  C 648.87 789.33 652.44 789.02 655.99 788.98
  Q 685.98 788.70 718.90 787.62
  Q 719.43 787.60 719.28 787.09
  Q 717.60 781.43 716.11 775.44
  C 714.08 767.20 707.97 759.12 702.14 753.45
  Q 694.92 746.43 688.13 739.81
  Q 682.55 734.37 675.94 723.77
  C 670.42 714.91 668.78 705.48 669.10 695.70
  Z
  M 289.02 795.86
  C 333.02 795.61 377.00 794.62 420.99 794.04
  Q 430.34 793.92 441.00 793.63
  C 464.49 792.99 487.85 792.89 511.25 792.25
  Q 538.82 791.49 568.15 791.05
  Q 568.71 791.04 568.27 790.70
  Q 566.28 789.17 564.27 788.11
  Q 525.63 767.65 483.20 745.67
  C 464.31 735.88 446.56 728.03 426.22 722.82
  Q 420.46 721.35 414.51 720.63
  Q 407.23 719.76 402.72 719.80
  Q 395.06 719.88 383.97 721.87
  Q 362.27 725.79 341.97 733.15
  C 323.15 739.96 306.46 750.11 291.11 763.43
  C 283.83 769.76 277.03 776.03 272.20 784.18
  Q 270.41 787.21 270.41 791.94
  A 1.56 1.56 0.0 0 0 270.79 792.96
  C 273.69 796.22 278.76 795.44 282.66 795.68
  Q 285.92 795.88 289.02 795.86
  Z
  M 590.61 789.92
  Q 590.37 790.73 591.22 790.71
  L 633.73 789.68
  Q 635.24 789.64 634.12 788.63
  C 623.45 778.98 611.21 770.93 599.37 762.99
  A 0.52 0.52 0.0 0 0 598.58 763.27
  L 590.61 789.92
  Z"
/>
<path fill="#020201" d="
  M 267.88 220.04
  L 268.06 191.17
  Q 268.08 188.41 270.84 188.48
  Q 271.05 188.48 271.26 188.49
  Q 274.48 188.64 274.50 191.87
  Q 274.59 209.12 274.30 225.63
  C 274.21 230.90 273.78 236.89 270.69 241.46
  C 264.09 251.22 250.27 255.68 240.13 248.50
  C 232.43 243.05 235.91 231.75 241.85 225.90
  C 247.24 220.57 259.59 216.07 267.12 220.47
  Q 267.87 220.91 267.88 220.04
  Z"
/>
<path fill="#1c1a1a" d="
  M 647.59 269.95
  A 0.51 0.51 0.0 0 0 647.01 270.52
  C 647.43 273.73 648.41 276.87 648.28 280.14
  C 648.10 284.70 648.49 289.20 648.06 293.76
  Q 644.35 332.82 622.90 366.99
  Q 603.15 398.44 572.32 420.21
  Q 558.04 430.30 545.65 436.60
  C 542.44 438.24 539.09 439.25 535.95 440.91
  Q 534.25 441.82 532.52 442.39
  Q 521.76 445.95 510.99 447.68
  C 508.51 448.08 506.18 448.10 503.88 446.97
  Q 494.71 442.46 485.28 438.82
  C 484.02 438.33 483.22 437.41 483.16 436.00
  Q 481.28 392.42 490.46 350.14
  Q 492.66 340.01 495.55 330.71
  Q 504.89 300.71 517.78 272.49
  Q 522.74 261.63 529.74 250.05
  Q 531.71 246.78 534.54 243.73
  C 542.39 235.26 552.23 228.03 562.91 223.65
  Q 580.14 216.58 596.40 214.77
  Q 608.36 213.44 621.89 213.63
  Q 638.41 213.88 657.69 217.89
  Q 682.32 223.02 703.27 236.34
  Q 724.25 249.69 738.27 273.83
  Q 739.70 276.28 742.75 282.76
  Q 745.10 287.75 746.23 291.80
  C 750.09 305.66 751.02 320.85 746.61 334.73
  C 741.12 352.02 730.66 369.31 716.18 380.29
  Q 714.23 381.78 712.95 379.59
  Q 712.55 378.91 712.13 378.26
  Q 697.71 355.95 687.42 332.94
  C 683.01 323.09 678.98 312.00 675.07 301.40
  Q 672.63 294.80 669.11 289.60
  Q 662.21 279.42 653.40 272.41
  Q 650.88 270.40 647.59 269.95
  Z
  M 622.85 227.57
  C 622.25 227.53 621.92 227.31 621.37 227.24
  Q 610.41 225.90 599.45 228.20
  Q 598.92 228.31 598.65 228.78
  Q 598.03 229.82 598.82 230.83
  Q 599.23 231.36 599.85 231.13
  L 602.01 230.35
  A 1.06 0.96 33.7 0 1 602.41 230.29
  Q 605.48 230.48 608.58 229.80
  C 610.34 229.41 611.80 229.96 613.56 229.28
  A 0.93 0.90 36.6 0 1 614.02 229.22
  L 625.81 230.65
  Q 626.32 230.72 626.76 230.99
  Q 627.75 231.62 628.93 231.59
  Q 629.53 231.57 630.00 231.93
  Q 631.42 232.99 633.26 233.17
  Q 634.12 233.25 634.52 232.58
  A 1.09 1.08 -58.4 0 0 634.18 231.13
  Q 629.42 227.98 622.85 227.57
  Z"
/>
<path fill="#ffffff" d="
  M 430.18 217.60
  Q 429.97 217.74 429.76 217.87
  Q 429.50 218.03 429.20 218.09
  Q 422.36 219.31 419.61 220.26
  Q 411.62 223.05 403.63 227.26
  Q 380.22 239.59 366.50 262.92
  Q 365.48 264.65 365.53 262.64
  Q 365.62 258.12 367.69 254.43
  C 378.16 235.69 399.33 222.56 419.56 217.74
  Q 423.40 216.83 428.42 216.21
  C 434.56 215.45 440.52 215.79 446.41 216.62
  Q 446.54 216.64 446.53 216.78
  L 446.53 216.78
  Q 446.52 216.99 446.31 216.99
  Q 439.40 216.87 432.83 217.65
  C 432.06 217.74 431.53 217.37 430.82 217.39
  Q 430.49 217.41 430.18 217.60
  Z"
/>
<path fill="#1c1a1a" d="
  M 361.67 599.34
  Q 362.69 606.00 367.46 611.08
  Q 368.56 612.25 367.96 613.66
  Q 364.38 622.18 361.90 630.96
  Q 358.39 643.41 355.10 655.72
  Q 353.10 663.22 346.91 666.67
  Q 340.79 670.08 335.18 671.21
  Q 334.66 671.32 334.39 670.86
  Q 333.29 669.01 331.30 667.61
  Q 329.25 666.17 327.03 666.37
  C 324.52 666.59 319.69 668.06 319.00 670.87
  Q 318.67 672.26 318.52 673.79
  Q 318.30 675.95 319.47 677.25
  Q 322.02 680.09 325.34 679.82
  Q 325.78 679.79 326.19 679.95
  Q 326.59 680.12 327.02 680.05
  Q 331.26 679.40 333.95 675.58
  Q 334.25 675.16 334.75 675.02
  Q 345.36 671.99 350.50 668.26
  C 355.20 664.85 357.78 659.21 359.35 652.80
  Q 362.44 640.19 366.56 626.51
  C 367.66 622.85 369.30 619.16 370.67 615.44
  Q 370.83 616.56 371.21 616.39
  Q 371.97 616.04 372.75 615.93
  Q 373.27 615.86 373.57 616.29
  Q 374.81 618.13 376.50 619.51
  C 400.82 639.39 430.78 649.49 462.05 644.74
  C 467.56 643.91 473.20 643.11 478.59 641.75
  Q 508.99 634.09 529.67 609.41
  C 530.97 607.86 531.92 606.13 532.98 604.43
  Q 534.25 602.41 534.10 604.79
  Q 532.77 626.27 525.26 646.50
  C 520.18 660.17 513.73 672.61 504.35 683.08
  Q 491.41 697.53 474.71 707.45
  Q 464.19 713.69 452.20 720.15
  Q 428.40 710.23 400.84 709.73
  Q 395.76 709.64 391.65 710.17
  Q 386.96 710.78 382.53 711.25
  C 376.96 711.85 371.22 713.29 365.56 714.32
  Q 354.73 716.30 339.03 723.27
  Q 339.37 722.17 338.15 721.66
  C 336.81 721.09 334.89 721.16 333.47 720.83
  Q 313.20 716.15 294.79 705.64
  Q 285.66 700.44 278.96 694.06
  Q 263.99 679.82 255.98 661.45
  Q 253.36 655.45 251.36 647.24
  Q 249.44 639.31 248.57 632.66
  Q 247.99 628.23 247.63 618.39
  Q 246.51 588.19 261.64 561.66
  Q 262.99 559.29 265.40 556.60
  C 267.30 554.46 268.97 551.50 266.78 548.82
  Q 255.38 534.90 248.80 521.63
  Q 245.29 514.53 242.06 503.43
  C 238.30 490.46 237.08 476.42 237.49 462.97
  Q 237.63 458.50 237.60 454.05
  Q 237.59 451.90 237.95 449.71
  C 238.24 447.91 238.01 446.04 238.22 444.20
  Q 240.39 424.57 244.28 406.33
  C 246.23 397.25 249.28 387.89 252.26 379.20
  Q 256.48 366.88 262.37 354.48
  C 273.76 330.54 289.89 308.48 310.36 292.46
  Q 318.73 285.91 327.63 281.40
  Q 346.02 272.09 365.44 275.40
  A 1.22 1.21 -75.5 0 0 366.80 274.59
  Q 369.57 266.43 374.51 259.27
  Q 377.88 254.39 384.73 247.48
  Q 397.01 235.10 413.53 227.86
  Q 425.88 222.45 438.63 221.68
  C 447.21 221.16 454.34 222.50 461.73 226.76
  Q 462.78 227.37 461.99 228.29
  C 434.19 260.39 415.43 298.96 405.30 339.76
  C 402.56 350.75 399.90 361.83 398.38 372.88
  Q 396.50 386.57 395.33 403.06
  Q 394.00 421.84 393.23 440.89
  A 3.21 3.19 70.9 0 1 392.13 443.17
  C 386.31 448.17 380.17 452.96 374.92 458.37
  C 365.97 467.60 356.86 478.31 351.11 490.09
  Q 337.88 517.20 339.92 548.10
  Q 341.76 575.85 359.71 598.79
  Q 360.69 600.04 361.67 599.34
  Z"
/>
<path fill="#ffffff" d="
  M 622.85 227.57
  Q 629.42 227.98 634.18 231.13
  A 1.09 1.08 -58.4 0 1 634.52 232.58
  Q 634.12 233.25 633.26 233.17
  Q 631.42 232.99 630.00 231.93
  Q 629.53 231.57 628.93 231.59
  Q 627.75 231.62 626.76 230.99
  Q 626.32 230.72 625.81 230.65
  L 614.02 229.22
  A 0.93 0.90 36.6 0 0 613.56 229.28
  C 611.80 229.96 610.34 229.41 608.58 229.80
  Q 605.48 230.48 602.41 230.29
  A 1.06 0.96 33.7 0 0 602.01 230.35
  L 599.85 231.13
  Q 599.23 231.36 598.82 230.83
  Q 598.03 229.82 598.65 228.78
  Q 598.92 228.31 599.45 228.20
  Q 610.41 225.90 621.37 227.24
  C 621.92 227.31 622.25 227.53 622.85 227.57
  Z"
/>
<path fill="#ffffff" d="
  M 370.67 615.44
  C 369.30 619.16 367.66 622.85 366.56 626.51
  Q 362.44 640.19 359.35 652.80
  C 357.78 659.21 355.20 664.85 350.50 668.26
  Q 345.36 671.99 334.75 675.02
  Q 334.25 675.16 333.95 675.58
  Q 331.26 679.40 327.02 680.05
  Q 326.59 680.12 326.19 679.95
  Q 325.78 679.79 325.34 679.82
  Q 322.02 680.09 319.47 677.25
  Q 318.30 675.95 318.52 673.79
  Q 318.67 672.26 319.00 670.87
  C 319.69 668.06 324.52 666.59 327.03 666.37
  Q 329.25 666.17 331.30 667.61
  Q 333.29 669.01 334.39 670.86
  Q 334.66 671.32 335.18 671.21
  Q 340.79 670.08 346.91 666.67
  Q 353.10 663.22 355.10 655.72
  Q 358.39 643.41 361.90 630.96
  Q 364.38 622.18 367.96 613.66
  Q 368.56 612.25 367.46 611.08
  Q 362.69 606.00 361.67 599.34
  L 362.38 593.39
  Q 362.43 592.90 362.15 592.49
  Q 356.56 584.65 353.29 578.11
  Q 345.75 563.01 345.50 541.50
  Q 345.16 512.46 357.59 490.01
  C 364.65 477.26 374.76 465.65 385.64 456.35
  Q 390.70 452.02 395.57 448.14
  A 5.70 5.62 78.7 0 0 397.51 445.19
  Q 398.20 442.71 398.48 439.94
  C 398.87 436.19 398.40 432.58 398.88 428.90
  Q 399.25 426.04 399.39 423.31
  Q 400.08 410.15 400.97 397.46
  Q 401.43 391.00 402.48 383.51
  C 403.35 377.29 404.15 370.85 405.49 364.78
  Q 409.60 346.20 412.08 337.02
  Q 418.40 313.62 432.64 282.71
  Q 443.10 260.03 459.74 238.98
  Q 464.66 232.76 470.09 227.77
  A 1.33 1.30 -62.7 0 1 471.14 227.42
  Q 477.62 228.11 484.36 229.85
  A 0.27 0.27 0.0 0 1 484.49 230.30
  Q 480.30 234.70 476.83 239.82
  C 471.95 247.05 466.89 254.40 462.65 261.84
  C 459.93 266.59 456.90 270.98 454.50 275.69
  Q 446.99 290.38 441.11 306.20
  Q 438.58 313.03 437.00 318.95
  C 436.11 322.27 434.51 325.18 433.65 328.46
  Q 431.86 335.27 429.88 342.24
  C 429.29 344.35 429.26 346.58 428.33 348.56
  Q 427.80 349.68 427.51 351.05
  Q 424.01 367.22 421.93 384.20
  C 421.74 385.80 421.92 387.51 421.63 389.25
  Q 421.09 392.48 421.03 395.75
  Q 420.98 398.95 420.74 402.25
  Q 420.50 405.53 420.57 408.82
  C 420.62 411.73 419.73 419.20 424.01 419.67
  Q 427.35 420.04 430.44 420.03
  Q 440.35 420.00 450.95 419.89
  C 453.45 419.87 455.20 418.00 455.73 415.62
  Q 456.39 412.62 456.53 409.73
  Q 457.68 385.88 460.94 362.56
  Q 462.30 352.85 464.74 342.68
  C 468.82 325.69 473.24 309.81 480.05 294.26
  Q 488.73 274.44 498.54 257.08
  Q 502.63 249.86 508.48 241.74
  Q 510.07 239.54 511.20 236.93
  Q 511.43 236.42 511.99 236.41
  Q 513.52 236.37 515.16 236.71
  Q 521.63 238.05 527.59 240.14
  A 0.89 0.89 0.0 0 1 528.03 241.49
  C 524.36 246.73 520.68 252.13 517.60 257.77
  Q 507.32 276.65 500.14 295.71
  Q 493.61 313.05 487.29 332.99
  Q 486.05 336.89 482.95 350.03
  C 481.51 356.17 480.69 362.31 479.34 368.44
  C 478.81 370.79 479.11 373.29 478.58 375.68
  Q 477.54 380.30 477.21 385.17
  Q 477.09 386.79 476.75 388.39
  C 476.44 389.84 476.71 391.33 476.56 392.87
  Q 474.80 410.65 475.17 419.61
  Q 475.55 429.08 476.21 439.26
  C 476.38 442.02 478.21 444.06 480.80 444.96
  C 491.58 448.69 501.55 452.63 510.11 459.48
  Q 514.79 463.22 516.23 464.49
  C 521.14 468.83 525.39 474.07 529.06 479.56
  Q 549.67 510.45 547.42 548.46
  Q 547.12 553.60 545.66 559.13
  Q 542.20 572.23 536.23 584.81
  Q 524.87 608.73 504.08 623.44
  Q 497.22 628.29 489.94 630.97
  Q 463.77 640.59 433.56 638.42
  Q 431.42 638.27 429.35 637.72
  C 427.05 637.10 424.90 637.12 422.61 636.55
  C 406.25 632.48 390.65 623.41 378.27 612.56
  Q 377.20 611.61 378.48 610.99
  Q 381.42 609.56 383.77 607.16
  Q 387.07 603.77 390.50 601.13
  A 0.83 0.82 43.6 0 1 391.48 601.11
  Q 395.76 604.12 400.10 607.46
  C 401.97 608.89 404.12 609.70 406.14 610.87
  Q 417.13 617.24 428.27 619.10
  Q 431.49 619.63 438.60 620.39
  C 450.90 621.71 463.44 620.13 475.09 616.11
  Q 480.47 614.26 487.32 610.40
  C 495.33 605.89 502.51 601.55 508.34 594.73
  C 518.45 582.95 525.78 569.40 527.55 554.26
  Q 527.76 552.52 528.14 550.90
  C 528.98 547.31 528.75 543.14 528.85 539.44
  Q 529.20 525.66 525.20 514.55
  Q 520.22 500.74 511.30 489.00
  Q 507.29 483.71 501.30 478.47
  Q 484.47 463.72 463.19 459.81
  Q 452.32 457.82 439.97 458.47
  C 410.01 460.04 387.64 474.73 373.22 500.26
  Q 366.39 512.36 363.66 526.14
  C 363.34 527.71 363.81 529.43 363.16 530.88
  Q 362.79 531.71 362.75 532.73
  Q 362.44 540.11 362.85 546.99
  Q 363.94 565.45 374.21 580.55
  Q 374.54 581.04 374.25 581.56
  Q 373.15 583.52 371.44 585.22
  C 366.03 590.65 362.24 596.45 365.84 603.96
  Q 368.22 608.92 372.48 610.65
  A 0.67 0.66 -64.6 0 1 372.81 611.59
  L 370.67 615.44
  Z"
/>
<path fill="#1c1a1a" d="
  M 427.42 379.09
  Q 429.09 365.81 431.03 357.21
  Q 432.30 351.60 433.50 345.96
  C 433.97 343.73 434.68 341.67 435.18 339.49
  Q 437.07 331.24 439.17 323.50
  Q 439.53 322.17 439.94 320.99
  Q 442.68 313.06 445.96 304.82
  Q 454.52 283.33 465.94 264.62
  Q 475.27 249.36 486.72 233.36
  C 488.43 230.96 490.20 231.90 492.60 232.26
  Q 499.42 233.29 505.66 234.99
  A 1.35 1.35 0.0 0 1 506.40 237.07
  Q 500.49 245.33 495.88 253.34
  Q 485.76 270.94 476.59 291.57
  Q 469.02 308.61 464.51 325.79
  Q 459.10 346.43 455.97 366.33
  Q 455.03 372.35 453.55 387.06
  C 452.65 395.92 452.44 404.75 452.00 413.66
  Q 451.93 415.14 450.45 415.13
  L 427.27 414.91
  A 2.15 2.15 0.0 0 1 425.14 412.73
  Q 425.32 398.17 426.28 385.35
  C 426.44 383.25 427.15 381.22 427.42 379.09
  Z"
/>
<path fill="#020201" d="
  M 873.87 293.80
  Q 873.81 293.39 873.41 293.49
  Q 842.05 301.22 811.10 310.29
  Q 808.92 310.93 806.80 309.94
  Q 806.37 309.74 806.27 309.28
  Q 803.25 295.52 800.43 281.40
  Q 799.87 278.63 800.25 276.15
  Q 800.34 275.60 800.82 275.33
  Q 801.95 274.71 803.19 274.38
  Q 837.05 265.44 871.64 255.91
  A 2.51 2.51 0.0 0 1 874.78 257.90
  C 876.40 267.12 878.09 275.92 879.24 285.17
  Q 880.19 292.82 881.57 300.19
  C 882.32 304.18 882.59 308.18 883.36 312.13
  C 884.12 315.98 884.15 319.91 884.90 323.71
  Q 885.56 327.02 885.97 330.25
  Q 886.85 337.24 888.14 344.22
  Q 889.11 349.49 888.53 353.03
  Q 886.32 366.69 872.77 371.71
  C 864.21 374.88 854.11 375.56 848.15 367.76
  Q 844.69 363.24 846.11 356.02
  Q 847.38 349.57 853.86 344.67
  Q 865.70 335.71 879.78 340.61
  A 0.51 0.51 0.0 0 0 880.45 340.06
  L 873.87 293.80
  Z
  M 868.06 277.74
  L 867.48 275.60
  A 0.79 0.79 0.0 0 0 866.51 275.04
  L 817.18 288.26
  A 3.38 1.07 -15.0 0 0 814.20 290.17
  L 814.63 291.77
  A 3.38 1.07 -15.0 0 0 818.17 291.93
  L 867.50 278.71
  A 0.79 0.79 0.0 0 0 868.06 277.74
  Z"
/>
<path fill="#020201" d="
  M 182.73 295.11
  L 183.25 261.47
  Q 183.27 259.88 184.86 259.71
  Q 185.08 259.69 185.30 259.68
  A 1.89 1.88 -1.1 0 1 187.28 261.58
  Q 187.12 279.58 187.06 297.96
  Q 187.04 303.27 185.74 306.25
  C 181.63 315.67 169.00 324.33 158.66 319.13
  C 154.53 317.05 153.80 312.51 155.11 308.39
  C 157.39 301.28 163.75 296.21 170.70 294.11
  Q 176.46 292.36 182.61 295.18
  A 0.08 0.08 0.0 0 0 182.73 295.11
  Z"
/>
<path fill="#ffffff" d="
  M 868.06 277.74
  A 0.79 0.79 0.0 0 1 867.50 278.71
  L 818.17 291.93
  A 3.38 1.07 -15.0 0 1 814.63 291.77
  L 814.20 290.17
  A 3.38 1.07 -15.0 0 1 817.18 288.26
  L 866.51 275.04
  A 0.79 0.79 0.0 0 1 867.48 275.60
  L 868.06 277.74
  Z"
/>
<ellipse fill="#ffffff" cx="0.00" cy="0.00" transform="translate(751.28,293.50) rotate(66.4)" rx="1.06" ry="0.12"/>
<path fill="#020201" d="
  M 897.48 429.36
  Q 897.30 428.39 897.32 427.33
  Q 897.61 410.64 897.64 394.38
  Q 897.64 393.39 898.58 393.66
  L 900.67 394.25
  A 1.32 1.32 0.0 0 1 901.63 395.51
  Q 901.77 417.91 901.38 436.42
  Q 901.29 440.74 898.84 444.48
  C 894.17 451.60 886.15 456.19 877.78 455.87
  C 868.71 455.52 865.85 447.65 870.18 440.32
  C 874.91 432.29 884.01 427.26 893.55 428.45
  C 894.75 428.60 895.69 429.20 896.65 429.88
  Q 897.71 430.64 897.48 429.36
  Z"
/>
<path fill="#020201" d="
  M 632.62 441.41
  Q 634.12 440.21 635.98 440.24
  Q 649.16 440.45 658.94 438.12
  Q 671.10 435.23 683.08 428.34
  Q 691.60 423.43 699.44 418.76
  C 700.93 417.87 702.41 417.67 704.09 417.44
  Q 704.62 417.36 704.99 417.76
  C 708.17 421.30 703.94 424.45 701.22 426.35
  C 690.29 434.04 678.12 440.45 665.43 443.47
  Q 660.99 444.53 653.45 445.65
  C 646.93 446.63 640.62 446.50 634.32 445.93
  Q 631.36 445.66 630.70 442.84
  A 1.25 1.24 -41.9 0 1 630.74 442.15
  Q 631.08 441.26 631.96 441.53
  A 0.73 0.73 0.0 0 0 632.62 441.41
  Z"
/>
<ellipse fill="#020201" cx="0.00" cy="0.00" transform="translate(691.05,460.76) rotate(43.3)" rx="4.21" ry="2.34"/>
<path fill="#ffffff" d="
  M 390.04 595.62
  Q 388.27 596.75 386.81 598.13
  Q 382.10 602.59 377.02 606.96
  A 1.81 1.81 0.0 0 1 374.67 606.97
  C 370.95 603.81 366.44 599.24 369.93 594.08
  Q 373.71 588.52 378.66 582.81
  A 2.24 2.22 -41.4 0 0 378.84 580.13
  Q 370.56 567.62 367.64 553.57
  Q 366.48 547.95 366.70 538.65
  Q 366.90 529.82 368.83 522.96
  Q 374.84 501.60 387.70 487.00
  C 398.87 474.30 415.71 464.65 433.10 463.47
  Q 449.04 462.39 465.37 465.07
  Q 467.97 465.50 470.40 466.52
  C 473.20 467.71 476.12 467.82 478.85 469.23
  C 494.17 477.13 506.07 486.74 514.78 501.97
  Q 517.36 506.47 519.83 511.08
  Q 522.10 515.30 522.92 519.93
  Q 524.56 529.07 524.59 539.71
  Q 524.65 563.54 511.50 583.74
  C 506.34 591.67 499.54 597.94 491.56 603.65
  Q 485.60 607.92 479.06 610.38
  Q 457.88 618.35 436.43 616.23
  Q 432.47 615.85 425.53 613.96
  C 413.52 610.70 403.32 605.10 393.55 596.82
  Q 392.39 595.84 390.98 595.47
  Q 390.48 595.33 390.04 595.62
  Z
  M 415.42 503.66
  C 404.56 510.96 398.12 523.95 397.73 536.74
  Q 397.58 541.71 397.97 545.19
  Q 399.67 560.55 410.69 571.30
  C 422.60 582.92 436.98 588.51 453.92 586.28
  Q 460.38 585.43 468.98 580.64
  C 477.53 575.88 485.54 568.45 489.03 559.34
  Q 492.25 550.91 492.89 540.86
  C 493.43 532.31 489.96 521.32 485.35 514.44
  Q 475.92 500.38 459.25 495.24
  C 444.51 490.69 428.31 494.99 415.42 503.66
  Z"
/>
<path fill="#020201" d="
  M 675.73 474.47
  A 1.22 1.22 0.0 0 1 674.15 473.78
  L 673.19 471.35
  A 7.71 2.50 68.6 0 1 672.71 463.26
  L 673.06 463.12
  A 7.71 2.50 68.6 0 1 678.20 469.38
  L 679.15 471.81
  A 1.22 1.22 0.0 0 1 678.46 473.40
  L 675.73 474.47
  Z"
/>
<path fill="#020201" d="
  M 651.71 477.78
  Q 651.85 476.60 651.43 475.43
  Q 651.24 474.91 651.40 474.38
  L 653.89 466.03
  Q 654.07 465.44 654.67 465.27
  C 656.12 464.87 657.26 466.09 657.43 467.46
  C 657.85 470.86 658.23 480.92 652.33 478.80
  A 0.95 0.95 0.0 0 1 651.71 477.78
  Z"
/>
<path fill="#020201" d="
  M 397.73 536.74
  C 398.12 523.95 404.56 510.96 415.42 503.66
  C 428.31 494.99 444.51 490.69 459.25 495.24
  Q 475.92 500.38 485.35 514.44
  C 489.96 521.32 493.43 532.31 492.89 540.86
  Q 492.25 550.91 489.03 559.34
  C 485.54 568.45 477.53 575.88 468.98 580.64
  Q 460.38 585.43 453.92 586.28
  C 436.98 588.51 422.60 582.92 410.69 571.30
  Q 399.67 560.55 397.97 545.19
  Q 397.58 541.71 397.73 536.74
  Z
  M 435.77 580.67
  C 444.34 582.45 455.34 583.28 463.15 579.06
  C 473.40 573.52 482.11 565.21 485.46 554.26
  Q 492.82 530.19 478.51 513.50
  C 469.33 502.81 456.23 496.89 442.37 498.63
  Q 430.97 500.06 422.87 504.13
  Q 411.38 509.91 405.97 522.35
  Q 404.18 526.46 403.56 530.79
  Q 401.99 541.79 404.05 551.68
  C 406.29 562.45 414.50 570.09 423.43 575.63
  Q 429.41 579.34 435.77 580.67
  Z"
/>
<path fill="#ffffff" d="
  M 463.15 579.06
  C 455.34 583.28 444.34 582.45 435.77 580.67
  Q 429.41 579.34 423.43 575.63
  C 414.50 570.09 406.29 562.45 404.05 551.68
  Q 401.99 541.79 403.56 530.79
  Q 404.18 526.46 405.97 522.35
  Q 411.38 509.91 422.87 504.13
  Q 430.97 500.06 442.37 498.63
  C 456.23 496.89 469.33 502.81 478.51 513.50
  Q 492.82 530.19 485.46 554.26
  C 482.11 565.21 473.40 573.52 463.15 579.06
  Z"
/>
<path fill="#ffffff" d="
  M 792.11 547.35
  A 1.04 1.03 -49.5 0 0 792.03 546.30
  Q 789.32 542.28 786.89 537.36
  Q 785.68 534.92 785.58 532.04
  C 785.37 525.80 785.31 519.68 784.74 513.46
  Q 784.23 507.97 784.55 502.74
  Q 784.65 501.07 785.21 499.55
  A 1.63 1.62 25.0 0 1 787.56 498.70
  Q 790.64 500.50 792.62 503.39
  C 801.25 516.03 808.32 529.31 815.50 542.75
  C 817.94 547.32 816.74 553.09 815.15 557.89
  C 809.01 576.43 801.19 594.33 793.78 612.49
  Q 789.29 623.47 786.94 631.72
  C 783.18 644.93 781.02 660.30 780.36 674.14
  C 780.24 676.62 779.65 678.98 779.62 681.46
  Q 779.42 699.10 779.38 716.33
  C 779.36 721.75 779.95 727.40 780.79 732.71
  Q 782.00 740.34 785.00 747.35
  Q 787.46 753.11 788.16 757.66
  C 789.34 765.33 787.90 771.41 786.80 778.51
  C 786.43 780.93 784.95 782.96 785.48 785.42
  Q 785.62 786.05 784.97 786.07
  L 726.46 787.55
  A 0.62 0.62 0.0 0 1 725.82 786.92
  Q 725.84 784.79 725.34 782.80
  C 723.52 775.57 722.00 768.24 717.78 761.83
  Q 711.21 751.84 703.82 745.10
  Q 695.86 737.83 689.71 731.27
  C 687.09 728.47 684.98 725.09 682.77 721.90
  C 678.81 716.19 677.39 711.26 676.10 704.95
  Q 675.52 702.08 675.69 699.80
  C 675.89 697.06 675.53 694.41 675.93 691.67
  C 677.42 681.62 682.16 672.47 688.16 664.41
  Q 699.60 649.03 715.93 636.35
  Q 717.10 635.45 718.55 635.04
  Q 732.44 631.17 744.82 627.40
  Q 759.69 622.86 770.13 616.87
  C 781.15 610.56 786.12 596.59 786.15 584.25
  Q 786.18 574.05 785.78 562.50
  C 785.73 560.94 786.03 559.02 786.79 557.63
  Q 789.56 552.56 792.11 547.35
  Z"
/>
<path fill="#020201" d="
  M 714.69 501.04
  Q 716.10 499.83 718.25 499.86
  Q 733.75 500.01 749.25 500.01
  Q 751.89 500.01 759.68 499.15
  C 762.51 498.84 766.87 499.34 765.42 503.61
  Q 765.15 504.41 764.39 504.78
  C 760.15 506.82 754.71 507.04 750.01 507.25
  Q 731.75 508.08 716.75 507.79
  C 713.30 507.72 709.52 505.53 712.29 501.59
  Q 712.86 500.80 713.76 501.18
  Q 714.27 501.40 714.69 501.04
  Z"
/>
<path fill="#020201" d="
  M 170.35 626.95
  Q 170.27 617.30 170.62 607.44
  C 170.69 605.55 171.43 603.84 171.42 601.92
  Q 171.37 592.54 171.30 582.97
  C 171.27 577.07 173.31 567.08 178.88 563.90
  A 1.23 1.22 -55.1 0 1 179.69 563.75
  C 182.57 564.23 183.82 566.62 183.24 569.37
  Q 181.92 575.63 184.95 581.02
  Q 188.73 587.76 193.86 593.48
  C 203.00 603.70 205.06 618.82 193.00 627.81
  Q 190.52 629.67 187.50 629.08
  A 2.10 2.09 23.4 0 1 186.20 625.80
  Q 187.92 623.41 189.69 621.10
  Q 191.24 619.06 191.60 616.34
  Q 193.00 605.79 183.97 599.27
  Q 181.44 597.44 178.13 597.27
  A 0.65 0.65 0.0 0 0 177.45 597.86
  Q 177.28 599.61 177.25 601.34
  Q 176.97 617.85 177.06 635.05
  C 177.10 642.00 176.26 647.04 171.64 652.07
  Q 168.44 655.56 164.17 656.76
  Q 157.07 658.75 151.96 658.49
  C 148.76 658.32 142.64 656.15 140.40 652.80
  C 139.64 651.66 138.55 650.81 138.30 649.39
  C 136.35 638.32 141.89 630.52 151.97 626.50
  C 157.61 624.25 164.75 624.87 169.97 627.20
  A 0.27 0.27 0.0 0 0 170.35 626.95
  Z"
/>
<path fill="#020201" d="
  M 860.15 698.97
  A 0.30 0.29 9.3 0 0 860.56 698.68
  Q 860.02 690.74 860.68 682.18
  Q 861.25 674.77 861.40 669.29
  Q 861.56 663.13 861.39 656.35
  C 861.24 650.53 862.22 645.26 864.42 639.91
  Q 865.80 636.55 868.93 634.73
  Q 869.34 634.49 869.81 634.58
  C 872.56 635.11 873.98 637.33 873.45 640.06
  Q 872.15 646.74 875.38 652.45
  Q 879.00 658.83 884.17 664.52
  C 890.50 671.48 893.96 681.36 890.91 690.52
  C 889.53 694.65 884.90 700.97 879.90 701.56
  Q 878.08 701.78 876.82 700.78
  A 1.86 1.85 -54.6 0 1 876.41 698.32
  C 878.07 695.73 880.49 693.64 881.50 690.68
  C 884.30 682.46 880.30 674.67 873.62 669.87
  C 872.08 668.76 870.58 668.88 868.93 668.13
  Q 867.52 667.49 867.48 669.03
  Q 867.05 688.00 867.43 706.01
  Q 867.58 713.03 866.25 716.54
  Q 863.59 723.63 858.06 727.06
  Q 854.63 729.18 847.60 730.26
  C 839.05 731.56 828.15 727.69 827.67 717.62
  C 827.31 710.10 831.56 703.58 837.98 700.08
  Q 848.99 694.07 860.15 698.97
  Z"
/>
<path fill="#ffffff" d="
  M 676.97 668.49
  Q 673.01 659.44 666.39 651.61
  A 0.48 0.47 -32.3 0 1 666.56 650.87
  Q 671.37 648.73 676.16 647.18
  Q 687.17 643.63 700.60 639.95
  Q 702.02 639.56 700.91 640.53
  Q 687.18 652.47 677.54 668.53
  A 0.32 0.32 0.0 0 1 676.97 668.49
  Z"
/>
<path fill="#ffffff" d="
  M 669.10 695.70
  C 668.78 705.48 670.42 714.91 675.94 723.77
  Q 682.55 734.37 688.13 739.81
  Q 694.92 746.43 702.14 753.45
  C 707.97 759.12 714.08 767.20 716.11 775.44
  Q 717.60 781.43 719.28 787.09
  Q 719.43 787.60 718.90 787.62
  Q 685.98 788.70 655.99 788.98
  C 652.44 789.02 648.87 789.33 645.30 788.82
  A 1.77 1.76 -19.5 0 1 644.39 788.39
  C 630.59 776.12 616.52 766.17 601.61 756.11
  Q 600.76 755.54 601.09 754.57
  Q 606.05 739.71 611.15 724.53
  Q 617.72 704.93 626.51 686.77
  C 630.26 679.01 634.50 671.14 641.22 665.93
  Q 649.38 659.58 658.73 654.72
  Q 659.74 654.20 660.48 655.06
  C 665.39 660.81 673.45 673.10 671.34 680.66
  Q 669.36 687.74 669.10 695.70
  Z"
/>
<path fill="#ffffff" d="
  M 282.66 795.68
  C 278.76 795.44 273.69 796.22 270.79 792.96
  A 1.56 1.56 0.0 0 1 270.41 791.94
  Q 270.41 787.21 272.20 784.18
  C 277.03 776.03 283.83 769.76 291.11 763.43
  C 306.46 750.11 323.15 739.96 341.97 733.15
  Q 362.27 725.79 383.97 721.87
  Q 395.06 719.88 402.72 719.80
  Q 407.23 719.76 414.51 720.63
  Q 420.46 721.35 426.22 722.82
  C 446.56 728.03 464.31 735.88 483.20 745.67
  Q 525.63 767.65 564.27 788.11
  Q 566.28 789.17 568.27 790.70
  Q 568.71 791.04 568.15 791.05
  Q 538.82 791.49 511.25 792.25
  C 487.85 792.89 464.49 792.99 441.00 793.63
  Q 430.34 793.92 420.99 794.04
  C 377.00 794.62 333.02 795.61 289.02 795.86
  Q 285.92 795.88 282.66 795.68
  Z"
/>
<path fill="#ffffff" d="
  M 590.61 789.92
  L 598.58 763.27
  A 0.52 0.52 0.0 0 1 599.37 762.99
  C 611.21 770.93 623.45 778.98 634.12 788.63
  Q 635.24 789.64 633.73 789.68
  L 591.22 790.71
  Q 590.37 790.73 590.61 789.92
  Z"
/>
</svg>
