<?xml version="1.0" encoding="UTF-8" standalone="no"?>
<!DOCTYPE svg PUBLIC "-//W3C//DTD SVG 1.1//EN" "http://www.w3.org/Graphics/SVG/1.1/DTD/svg11.dtd">
<svg xmlns="http://www.w3.org/2000/svg" version="1.1" viewBox="0.00 0.00 1024.00 1024.00">
<g stroke-width="2.00" fill="none" stroke-linecap="butt">
<path stroke="#838384" vector-effect="non-scaling-stroke" d="
  M 791.29 868.07
  L 724.01 868.06
  Q 723.10 868.06 723.77 867.45
  C 733.68 858.56 738.68 846.40 742.88 833.81
  C 747.15 820.97 750.82 807.83 752.99 794.72
  Q 753.35 792.56 752.54 790.70
  C 749.68 784.14 742.72 779.72 735.82 778.40
  C 731.56 777.59 724.19 777.61 719.84 774.24
  Q 714.61 770.18 708.78 764.23
  Q 708.39 763.83 708.75 763.41
  L 712.19 759.35
  Q 713.21 758.15 712.27 756.91
  Q 694.97 733.93 675.42 711.02
  C 662.48 695.87 648.29 681.15 632.65 668.79
  C 628.80 665.75 624.29 663.30 621.09 659.76
  Q 617.35 655.61 615.64 648.06
  Q 607.20 610.98 595.10 559.73
  A 0.97 0.97 0.0 0 1 595.74 558.58
  Q 608.72 554.14 618.21 547.47
  C 625.47 542.37 627.83 533.83 626.13 525.48
  Q 623.43 512.21 619.48 498.50
  Q 605.04 448.41 582.21 401.48
  Q 581.94 400.91 582.56 400.85
  Q 590.34 400.00 597.79 397.35
  C 604.40 395.01 605.86 384.60 605.01 378.78
  A 1.16 1.15 75.4 0 1 605.73 377.54
  L 606.10 377.40
  Q 607.56 376.83 607.92 378.36
  Q 609.79 386.34 606.71 392.57
  Q 606.64 392.70 606.66 392.85
  Q 606.68 393.10 606.85 393.28
  A 0.68 0.66 -28.9 0 0 607.54 393.47
  Q 614.71 391.22 621.75 386.58
  C 626.77 383.27 629.82 379.08 630.36 373.00
  Q 630.90 366.93 628.81 361.53
  A 1.89 1.82 37.6 0 1 628.69 360.73
  Q 628.80 359.23 629.60 359.03
  Q 631.09 358.66 631.74 360.04
  Q 635.46 367.82 633.69 376.18
  Q 633.41 377.51 634.42 376.60
  Q 644.28 367.85 649.34 357.61
  Q 650.61 355.01 652.57 352.78
  Q 657.86 346.77 660.90 338.95
  C 669.94 315.68 649.86 298.90 631.52 290.34
  Q 618.85 284.42 609.63 278.67
  C 597.81 271.31 589.40 259.91 583.39 247.27
  Q 577.64 235.18 571.64 222.38
  C 560.83 199.35 543.25 181.36 518.10 175.42
  C 499.12 170.93 477.11 174.68 460.90 184.46
  Q 459.26 185.46 457.28 185.60
  Q 443.48 186.58 432.40 195.07
  C 417.91 206.18 411.87 224.64 420.79 241.27
  C 422.14 243.79 424.49 245.65 424.96 248.46
  Q 426.21 255.85 426.51 262.96
  C 426.64 265.99 424.87 270.21 421.71 271.63
  C 416.41 274.02 418.14 280.38 419.39 284.73
  C 426.05 307.90 442.35 325.61 468.48 321.88
  Q 469.65 321.72 468.73 322.46
  C 465.23 325.32 466.76 330.08 468.12 333.62
  A 2.13 2.12 -36.6 0 1 467.81 335.69
  Q 462.33 342.63 459.59 352.65
  Q 456.49 363.98 454.57 374.26
  Q 447.32 413.13 444.79 454.50
  Q 444.61 457.34 443.19 459.65
  Q 427.81 484.53 417.58 501.66
  Q 415.47 505.20 416.67 508.86
  C 417.39 511.02 419.14 512.53 420.66 514.15
  A 0.42 0.42 0.0 0 1 420.56 514.80
  C 413.96 518.43 406.55 522.89 402.76 529.44
  Q 399.24 535.52 395.56 542.73
  C 393.78 546.21 395.40 548.29 398.51 549.79
  Q 399.13 550.09 398.98 550.76
  Q 397.98 555.41 401.23 559.02
  C 402.71 560.66 405.09 561.25 407.11 561.98
  A 2.80 2.79 78.8 0 1 408.27 562.76
  Q 410.39 565.10 413.76 564.69
  A 1.47 1.43 -30.4 0 1 414.74 564.93
  C 426.22 572.88 428.93 558.02 434.56 552.53
  Q 438.88 548.32 441.37 542.93
  A 0.13 0.13 0.0 0 1 441.62 542.99
  L 441.75 553.20
  Q 441.75 553.67 441.43 554.01
  Q 440.79 554.71 440.09 555.36
  Q 389.18 602.87 328.61 646.04
  Q 295.90 669.36 265.86 686.25
  Q 247.26 696.70 226.14 703.82
  A 1.62 1.60 58.3 0 1 224.48 703.42
  Q 212.47 691.36 198.14 679.17
  Q 190.39 672.57 185.35 670.20
  Q 166.22 661.20 145.98 668.94
  C 135.26 673.04 127.16 681.93 125.39 693.38
  Q 124.98 696.03 124.75 698.65
  C 124.47 701.75 121.87 704.02 118.95 704.43
  Q 112.69 705.31 107.13 704.41
  C 101.69 703.54 97.71 705.93 97.43 711.94
  Q 96.79 725.56 103.59 734.54
  Q 104.91 736.29 105.53 738.41
  Q 107.63 745.54 115.59 750.50
  C 121.87 754.41 128.79 755.57 136.13 755.35
  A 1.93 1.93 0.0 0 1 138.12 757.28
  Q 138.12 758.86 137.38 760.09
  C 132.15 768.76 129.76 777.24 132.27 787.42
  Q 134.32 795.75 140.70 797.98
  Q 141.41 798.23 141.53 798.96
  Q 144.73 817.18 160.44 827.11
  A 0.76 0.76 0.0 0 1 160.67 828.16
  L 150.85 843.89
  A 2.70 2.68 8.5 0 1 149.22 845.09
  C 142.80 846.72 136.53 849.34 134.25 855.96
  Q 132.09 862.23 135.54 867.54
  A 0.34 0.34 0.0 0 1 135.26 868.07
  L 111.03 868.12
  A 1.10 1.08 -63.9 0 0 110.35 868.36
  Q 109.58 868.99 109.68 869.80
  Q 109.87 871.38 111.46 871.38
  Q 224.91 871.42 331.54 871.29
  C 337.60 871.28 343.52 871.51 349.51 871.40
  Q 356.19 871.29 362.99 871.29
  Q 524.06 871.28 699.25 871.54
  Q 707.60 871.55 715.75 871.53
  Q 810.45 871.25 907.32 871.43
  Q 908.71 871.43 909.57 870.03
  Q 910.04 869.25 908.35 868.06
  A 0.80 0.77 -26.5 0 0 907.90 867.92
  L 894.46 868.05
  A 0.35 0.34 -73.4 0 1 894.17 867.51
  Q 897.77 862.07 895.46 855.57
  Q 892.99 848.58 888.90 842.26
  A 0.75 0.74 50.9 0 1 888.99 841.34
  C 898.03 831.94 899.43 818.60 896.11 806.24
  Q 895.91 805.49 896.63 805.20
  Q 910.32 799.64 911.09 786.16
  Q 911.13 785.48 911.74 785.18
  C 913.53 784.30 915.78 783.79 917.38 782.83
  Q 933.53 773.18 932.66 754.33
  C 932.26 745.67 927.72 735.06 919.11 731.57
  Q 911.15 728.35 904.66 735.33
  Q 904.34 735.67 903.98 735.38
  C 897.06 729.76 887.03 734.75 882.24 740.96
  C 870.90 755.71 876.72 776.75 894.55 783.18
  A 0.85 0.84 20.1 0 1 895.06 784.27
  Q 893.62 788.22 890.26 790.58
  A 1.11 1.10 52.6 0 1 888.78 790.38
  Q 882.66 783.07 874.32 777.25
  Q 867.79 772.70 864.76 769.59
  Q 856.03 760.62 853.75 747.17
  A 0.81 0.80 -16.4 0 1 854.24 746.29
  C 866.08 741.50 880.22 720.23 870.75 707.95
  C 861.79 696.33 849.71 687.50 836.48 683.00
  C 821.37 677.85 804.41 681.48 798.27 697.42
  C 795.30 705.13 786.79 702.88 780.73 701.49
  Q 773.48 699.83 771.56 707.04
  C 769.90 713.26 769.96 721.58 772.94 727.74
  C 774.61 731.19 775.26 735.12 777.20 738.41
  C 781.68 746.02 791.07 750.02 799.41 752.02
  C 802.04 752.66 805.08 752.76 807.29 753.71
  C 814.22 756.67 806.91 772.13 805.35 776.60
  Q 796.38 802.19 810.69 824.10
  A 1.23 1.20 34.7 0 1 810.86 824.98
  Q 808.61 835.85 804.92 846.52
  A 2.71 2.71 0.0 0 1 802.84 848.30
  C 796.51 849.43 791.09 853.14 790.00 859.80
  Q 789.29 864.17 791.60 867.48
  A 0.38 0.38 0.0 0 1 791.29 868.07"
/>
<path stroke="#838384" vector-effect="non-scaling-stroke" d="
  M 478.33 268.64
  C 476.37 267.24 475.01 263.70 473.84 261.52
  Q 473.56 260.99 472.97 260.85
  Q 460.48 257.90 453.48 255.07
  C 451.29 254.18 448.83 251.12 447.69 249.86
  Q 436.25 237.30 435.18 223.04
  Q 434.85 218.61 433.95 222.96
  C 431.80 233.30 435.80 241.20 442.91 248.59
  C 445.08 250.83 443.16 254.77 440.01 254.05
  Q 435.07 252.92 430.26 250.77
  A 0.38 0.38 0.0 0 0 429.73 251.19
  C 431.38 260.03 433.28 271.02 423.54 276.09
  A 1.62 1.61 73.7 0 0 422.67 277.69
  Q 423.33 284.16 426.37 291.20
  C 427.93 294.80 436.47 292.09 438.98 290.81
  C 441.64 289.46 443.35 287.12 445.57 285.22
  Q 447.33 283.71 449.00 285.32
  L 449.39 285.69
  Q 451.80 288.00 449.43 290.36
  C 444.41 295.36 437.64 297.70 430.41 297.88
  A 0.51 0.51 0.0 0 0 429.98 298.65
  Q 441.46 317.87 462.55 317.83
  C 468.14 317.82 473.47 316.63 478.86 315.66
  A 1.72 1.71 -24.9 0 1 480.49 316.25
  Q 481.83 317.84 483.89 317.24
  Q 491.64 314.98 499.63 313.56
  A 0.64 0.64 0.0 0 0 500.02 312.53
  Q 491.93 302.19 486.95 289.32
  C 486.28 287.60 487.56 285.99 489.29 285.86
  Q 497.01 285.30 500.32 277.98
  Q 503.04 271.97 499.94 266.03
  Q 497.81 261.94 493.60 260.89
  C 486.45 259.11 484.82 264.38 480.80 268.43
  Q 479.65 269.58 478.33 268.64"
/>
<path stroke="#838384" vector-effect="non-scaling-stroke" d="
  M 653.67 327.54
  Q 654.89 331.80 654.76 337.35
  Q 654.74 338.40 655.21 337.46
  C 657.81 332.29 657.11 324.23 655.23 319.49
  C 650.84 308.42 639.47 299.67 628.60 295.21
  Q 625.42 293.90 628.14 296.01
  C 638.98 304.39 649.91 314.46 653.67 327.54"
/>
<path stroke="#838384" vector-effect="non-scaling-stroke" d="
  M 503.71 406.39
  Q 502.22 399.72 505.63 399.96
  A 1.53 1.53 0.0 0 1 507.00 401.11
  Q 511.74 419.97 517.76 438.78
  C 518.47 440.98 518.85 443.22 517.79 445.42
  Q 516.58 447.94 515.08 450.05
  Q 500.50 470.63 483.06 492.69
  C 480.88 495.45 478.86 498.68 476.96 501.65
  C 475.02 504.68 476.93 508.02 478.79 510.42
  Q 490.57 525.59 506.08 537.99
  C 508.47 539.91 511.98 541.95 514.71 539.64
  Q 541.70 516.86 560.88 490.23
  Q 570.28 477.19 575.60 463.51
  C 583.03 444.41 580.19 423.50 573.60 403.89
  Q 564.46 376.65 545.50 354.77
  Q 540.46 348.96 534.56 344.12
  A 2.64 2.62 -27.0 0 0 532.75 343.54
  C 521.77 344.20 514.01 353.12 510.13 362.98
  Q 505.66 374.32 506.48 391.57
  A 1.31 1.30 -16.4 0 1 505.82 392.77
  Q 505.36 393.03 504.85 392.93
  A 2.02 2.00 -86.4 0 1 503.25 391.10
  C 502.00 372.02 507.31 345.37 529.68 340.33
  Q 530.65 340.11 529.83 339.54
  Q 515.76 329.86 504.98 318.36
  A 1.36 1.34 63.7 0 0 503.79 317.95
  C 495.89 319.15 488.32 320.99 480.66 322.98
  Q 476.61 324.02 472.49 325.80
  A 1.76 1.76 0.0 0 0 471.52 327.98
  L 473.47 333.80
  A 3.64 3.59 -37.9 0 1 473.06 336.92
  Q 471.43 339.40 469.53 341.95
  C 466.92 345.46 465.31 349.76 464.19 353.91
  Q 458.02 376.83 454.50 405.57
  Q 450.41 438.96 448.65 467.93
  Q 446.47 504.05 447.10 548.20
  Q 447.11 548.44 447.30 548.29
  L 450.64 545.73
  Q 450.98 545.47 450.91 545.06
  C 449.41 535.74 453.01 529.94 458.67 522.67
  Q 459.08 522.15 459.05 521.48
  Q 456.75 460.72 461.64 403.11
  Q 462.88 388.50 465.86 369.53
  A 2.31 2.24 69.1 0 1 466.32 368.46
  Q 468.09 366.19 469.37 366.87
  Q 471.04 367.75 470.73 369.62
  Q 466.34 396.23 464.90 427.48
  C 463.33 461.43 463.15 490.69 464.05 517.44
  A 0.39 0.39 0.0 0 0 464.67 517.74
  Q 468.90 514.68 473.70 512.87
  A 0.42 0.42 0.0 0 0 473.89 512.24
  C 470.99 508.01 469.95 503.28 473.06 498.73
  Q 481.43 486.48 491.93 473.28
  A 0.69 0.68 41.5 0 0 491.87 472.35
  Q 487.59 468.25 483.15 463.61
  C 478.58 458.84 476.14 453.97 481.64 448.65
  Q 485.67 444.75 490.04 448.59
  Q 496.34 454.13 501.80 459.27
  A 0.45 0.45 0.0 0 0 502.46 459.21
  Q 507.41 452.76 511.87 446.23
  Q 513.96 443.15 512.88 439.71
  Q 508.37 425.41 504.67 410.41
  Q 504.08 408.02 503.71 406.39"
/>
<path stroke="#838384" vector-effect="non-scaling-stroke" d="
  M 580.19 411.56
  Q 583.95 422.76 584.76 435.94
  C 586.23 459.78 574.64 480.55 559.95 499.74
  Q 543.77 520.89 521.25 540.64
  Q 518.04 543.46 515.44 544.86
  C 509.14 548.28 501.89 541.36 497.15 537.05
  A 0.67 0.67 0.0 0 0 496.12 537.21
  Q 492.77 543.00 488.70 548.18
  Q 488.47 548.48 488.61 548.83
  Q 493.32 560.54 496.84 571.97
  A 0.84 0.84 0.0 0 0 497.63 572.56
  Q 501.77 572.59 505.51 572.30
  Q 542.88 569.38 578.75 558.99
  Q 593.85 554.61 607.97 547.76
  C 617.34 543.21 623.18 537.70 621.13 526.11
  Q 618.88 513.38 613.83 496.39
  Q 600.69 452.20 581.45 411.06
  Q 576.41 400.28 580.19 411.56"
/>
<path stroke="#838384" vector-effect="non-scaling-stroke" d="
  M 494.33 469.36
  L 500.31 463.20
  A 0.27 0.27 0.0 0 0 500.30 462.82
  L 490.27 453.07
  A 5.82 3.37 44.2 0 0 483.75 451.43
  L 482.09 453.13
  A 5.82 3.37 44.2 0 0 483.92 459.61
  L 493.95 469.36
  A 0.27 0.27 0.0 0 0 494.33 469.36"
/>
<path stroke="#838384" vector-effect="non-scaling-stroke" d="
  M 441.96 524.57
  C 441.91 506.15 442.63 487.62 443.69 469.08
  A 0.22 0.22 0.0 0 0 443.34 468.90
  C 442.58 469.50 442.28 470.37 441.79 471.16
  Q 431.94 487.30 422.62 502.41
  Q 421.46 504.28 421.14 506.14
  A 2.37 2.35 26.6 0 0 421.85 508.25
  Q 431.01 516.82 441.10 524.98
  A 0.53 0.52 19.2 0 0 441.96 524.57"
/>
<path stroke="#838384" vector-effect="non-scaling-stroke" d="
  M 460.61 538.61
  Q 462.16 540.09 461.25 542.44
  A 0.83 0.83 0.0 0 0 462.07 543.57
  C 463.25 543.52 464.15 544.11 464.66 545.16
  Q 465.83 547.59 467.62 549.54
  Q 467.98 549.92 468.49 549.85
  Q 469.77 549.67 470.90 550.06
  Q 471.64 550.32 471.68 551.10
  C 471.93 556.09 477.09 553.57 479.11 551.81
  C 484.69 546.97 488.88 540.27 492.97 534.00
  A 0.75 0.74 38.2 0 0 492.85 533.05
  Q 484.80 525.60 478.15 517.31
  A 1.21 1.21 0.0 0 0 476.85 516.90
  Q 466.51 519.97 459.71 529.18
  C 457.24 532.52 454.87 536.34 455.08 540.60
  Q 455.22 543.47 456.95 541.17
  Q 458.03 539.74 459.40 538.57
  A 0.91 0.91 0.0 0 1 460.61 538.61"
/>
<path stroke="#838384" vector-effect="non-scaling-stroke" d="
  M 430.17 528.57
  Q 430.48 528.71 430.71 528.95
  Q 431.75 530.04 431.07 531.38
  Q 427.58 538.16 422.10 540.63
  A 0.42 0.42 0.0 0 0 422.10 541.39
  Q 424.25 542.40 426.90 543.67
  Q 428.27 544.34 429.24 545.90
  Q 430.34 547.67 431.28 549.57
  A 0.49 0.48 51.5 0 0 432.09 549.67
  Q 437.97 542.65 440.58 533.57
  Q 440.89 532.47 440.75 531.34
  Q 440.68 530.83 440.27 530.51
  Q 432.22 524.41 425.21 517.87
  A 1.04 1.04 0.0 0 0 423.97 517.74
  C 416.85 521.93 409.71 525.81 405.63 533.33
  Q 403.09 538.02 400.14 542.98
  Q 399.70 543.72 399.78 544.57
  A 1.03 1.03 0.0 0 0 401.17 545.44
  Q 406.05 543.59 410.05 539.99
  C 411.39 538.78 413.20 537.73 415.03 537.78
  Q 423.34 537.99 428.85 528.98
  A 1.05 1.05 0.0 0 1 430.17 528.57"
/>
<path stroke="#838384" vector-effect="non-scaling-stroke" d="
  M 417.55 542.13
  A 0.33 0.32 -68.7 0 0 417.34 541.64
  C 415.75 541.29 413.95 541.49 412.67 542.59
  Q 408.90 545.85 404.88 549.10
  C 400.01 553.02 405.58 560.25 408.52 556.02
  Q 413.06 549.48 417.55 542.13"
/>
<path stroke="#838384" vector-effect="non-scaling-stroke" d="
  M 411.11 559.22
  L 413.67 560.86
  A 1.25 1.25 0.0 0 0 415.40 560.48
  L 421.00 551.72
  A 6.01 1.67 -57.4 0 0 422.83 545.75
  L 420.98 544.57
  A 6.01 1.67 -57.4 0 0 416.34 548.73
  L 410.73 557.49
  A 1.25 1.25 0.0 0 0 411.11 559.22"
/>
<path stroke="#838384" vector-effect="non-scaling-stroke" d="
  M 426.01 548.57
  L 418.07 562.11
  A 0.03 0.03 0.0 0 0 418.08 562.15
  L 418.11 562.16
  A 5.07 4.62 -59.6 0 0 424.66 560.13
  L 427.50 555.28
  A 5.07 4.62 -59.6 0 0 426.08 548.57
  L 426.06 548.55
  A 0.03 0.03 0.0 0 0 426.01 548.57"
/>
<path stroke="#838384" vector-effect="non-scaling-stroke" d="
  M 456.41 549.21
  Q 452.74 553.13 448.32 557.05
  A 0.98 0.98 0.0 0 0 448.35 558.55
  Q 452.55 561.94 457.87 562.51
  A 0.63 0.63 0.0 0 0 458.56 561.86
  Q 458.29 556.54 458.20 551.02
  C 458.19 550.11 457.62 549.07 456.59 549.13
  A 0.31 0.26 16.2 0 0 456.41 549.21"
/>
<path stroke="#838384" vector-effect="non-scaling-stroke" d="
  M 463.22 553.25
  Q 462.98 561.04 464.14 565.18
  Q 466.12 572.25 474.79 572.86
  Q 482.14 573.39 490.19 573.12
  A 0.52 0.52 0.0 0 0 490.66 572.42
  L 483.88 554.22
  Q 483.59 553.44 483.02 554.05
  C 479.87 557.44 474.23 560.10 470.07 557.12
  Q 467.24 555.09 464.18 552.79
  Q 463.26 552.10 463.22 553.25"
/>
<path stroke="#838384" vector-effect="non-scaling-stroke" d="
  M 370.66 807.77
  Q 391.83 749.47 413.78 694.56
  Q 417.30 685.75 420.89 675.87
  Q 436.42 633.11 454.13 590.34
  Q 458.43 579.97 461.20 574.25
  Q 461.47 573.71 461.25 573.14
  L 459.40 568.23
  A 1.15 1.14 79.7 0 0 458.35 567.50
  Q 449.56 567.41 443.82 561.62
  A 0.47 0.46 -47.0 0 0 443.14 561.65
  Q 441.29 563.75 439.29 565.57
  Q 387.15 612.85 329.45 653.67
  C 302.21 672.94 272.22 692.21 241.90 705.38
  Q 236.62 707.67 230.72 709.33
  Q 229.87 709.57 230.45 710.24
  Q 234.54 714.88 234.55 720.89
  A 0.62 0.62 0.0 0 0 235.18 721.51
  Q 249.69 721.35 264.50 721.43
  C 275.24 721.49 285.71 722.48 295.91 726.21
  A 0.69 0.69 0.0 0 0 296.71 725.95
  C 309.62 707.32 335.38 702.59 355.74 708.35
  C 366.29 711.33 378.62 719.75 381.28 731.20
  Q 382.43 736.12 379.65 739.61
  Q 378.08 741.58 375.96 740.40
  Q 373.72 739.16 371.45 738.23
  Q 368.12 736.87 369.57 740.16
  C 371.51 744.58 371.39 749.91 367.92 753.54
  C 365.03 756.55 361.15 755.69 359.59 751.91
  Q 358.13 748.37 353.34 749.16
  Q 348.44 749.96 343.64 751.27
  C 335.53 753.48 326.80 753.17 318.87 750.49
  Q 317.95 750.17 318.52 750.97
  C 325.18 760.27 328.59 772.73 329.34 783.95
  Q 329.57 787.52 329.84 791.17
  Q 329.89 791.80 330.39 792.19
  C 342.44 801.53 351.54 812.16 360.26 824.30
  A 0.96 0.96 0.0 0 0 361.32 824.66
  Q 364.33 823.71 367.45 822.21
  C 371.69 820.17 373.75 816.34 375.87 812.44
  A 0.73 0.72 -61.8 0 0 375.58 811.46
  L 371.14 809.04
  A 1.04 1.03 -66.0 0 1 370.66 807.77"
/>
<path stroke="#838384" vector-effect="non-scaling-stroke" d="
  M 544.54 617.47
  Q 562.14 591.60 573.80 570.79
  Q 574.64 569.27 574.70 567.73
  A 0.79 0.79 0.0 0 0 573.76 566.92
  Q 572.06 567.25 571.13 568.82
  Q 550.19 603.81 525.76 638.11
  A 1.86 1.84 -21.5 0 0 525.46 638.79
  Q 524.62 642.37 527.20 641.50
  A 1.69 1.67 -81.1 0 0 528.00 640.91
  Q 534.97 631.53 544.54 617.47"
/>
<path stroke="#838384" vector-effect="non-scaling-stroke" d="
  M 493.51 578.48
  Q 504.89 611.30 519.02 641.44
  Q 519.28 642.00 519.89 641.84
  C 521.29 641.47 522.23 640.21 521.52 638.70
  C 512.43 619.37 504.51 599.02 497.13 578.64
  A 2.05 2.01 -80.0 0 0 496.56 577.81
  Q 495.34 576.74 494.30 577.01
  A 1.15 1.13 -17.1 0 0 493.51 578.48"
/>
<path stroke="#838384" vector-effect="non-scaling-stroke" d="
  M 412.09 827.68
  Q 410.23 827.11 408.49 825.88
  A 0.71 0.71 0.0 0 0 407.44 826.15
  C 405.03 831.11 402.32 836.40 402.98 842.15
  Q 403.51 846.75 404.11 851.14
  Q 405.26 859.47 401.57 867.57
  A 0.36 0.36 0.0 0 0 401.90 868.08
  Q 539.93 868.05 678.25 868.11
  Q 689.88 868.11 700.65 867.89
  Q 701.28 867.88 700.91 867.37
  C 695.64 860.17 697.57 852.21 700.76 844.53
  Q 701.52 842.70 701.39 840.39
  Q 700.42 823.59 699.28 809.17
  C 698.64 801.14 692.74 795.03 686.68 789.55
  Q 686.23 789.14 685.79 789.56
  L 683.11 792.07
  Q 682.76 792.39 682.30 792.29
  Q 681.15 792.03 680.18 791.40
  Q 611.07 746.68 575.63 722.02
  C 561.93 712.49 551.17 702.30 542.91 687.42
  Q 532.32 668.36 523.44 648.36
  A 0.41 0.41 0.0 0 0 522.72 648.30
  Q 501.17 680.06 480.71 710.70
  C 479.12 713.07 477.58 715.52 476.38 718.08
  Q 457.63 757.97 431.27 799.02
  Q 422.10 813.31 413.23 827.26
  A 1.01 1.01 0.0 0 1 412.09 827.68"
/>
<path stroke="#838384" vector-effect="non-scaling-stroke" d="
  M 140.20 730.53
  Q 140.40 734.01 137.29 735.71
  Q 124.86 742.51 111.17 739.05
  A 0.50 0.50 0.0 0 0 110.62 739.79
  C 115.61 747.90 126.20 750.95 135.33 750.42
  C 143.77 749.94 144.24 758.62 140.74 763.94
  C 137.22 769.29 135.66 774.84 136.14 781.47
  C 136.57 787.48 138.93 795.60 146.63 793.87
  C 151.74 792.72 154.26 789.13 157.03 785.16
  A 2.58 2.57 -71.3 0 1 159.25 784.06
  C 164.36 784.27 167.57 784.36 171.79 781.05
  C 173.73 779.52 174.77 777.03 176.08 774.97
  Q 176.37 774.52 176.83 774.28
  Q 178.30 773.51 179.97 773.19
  C 185.07 772.21 187.98 767.86 189.57 763.26
  A 3.48 3.45 -89.9 0 1 191.71 761.11
  C 194.26 760.21 197.21 759.17 199.19 757.44
  Q 206.84 750.77 204.38 740.14
  Q 203.70 737.21 201.76 734.71
  Q 201.29 734.12 201.42 733.38
  Q 202.03 729.91 205.49 730.75
  C 214.93 733.02 228.37 732.91 229.48 719.88
  C 229.75 716.79 227.81 714.05 225.82 711.94
  Q 211.55 696.74 191.96 680.26
  Q 183.92 673.51 174.39 671.37
  C 157.25 667.52 136.96 672.70 130.85 690.45
  C 129.98 692.98 129.63 695.75 129.40 698.41
  C 128.92 704.13 125.44 708.23 119.63 708.98
  Q 116.23 709.41 112.91 709.35
  A 0.99 0.98 -79.6 0 0 111.97 710.00
  C 110.42 714.18 106.30 716.86 102.95 719.62
  A 1.16 1.14 65.7 0 0 102.55 720.70
  C 103.37 725.76 105.96 732.69 111.35 734.31
  Q 119.70 736.81 128.12 733.45
  C 130.77 732.39 132.53 730.06 134.85 728.44
  C 136.87 727.03 140.05 727.70 140.20 730.53"
/>
<path stroke="#838384" vector-effect="non-scaling-stroke" d="
  M 833.53 703.16
  A 2.52 2.47 25.0 0 1 833.86 704.04
  C 835.64 715.33 837.35 726.91 840.16 737.88
  C 841.28 742.26 844.06 744.05 848.56 743.12
  Q 856.78 741.43 862.34 734.10
  C 866.58 728.52 871.87 718.66 867.81 712.01
  Q 865.88 708.85 862.81 705.70
  C 851.41 694.03 830.33 679.51 813.51 687.08
  Q 805.96 690.48 802.75 697.88
  C 799.18 706.14 795.48 707.88 786.21 707.25
  Q 785.70 707.21 785.38 707.62
  Q 782.04 711.87 776.44 714.65
  Q 774.99 715.37 775.02 716.95
  C 775.10 720.96 775.93 727.12 779.93 729.18
  Q 787.49 733.07 797.20 730.55
  C 800.06 729.80 802.59 727.95 805.21 726.55
  C 807.46 725.34 810.92 727.67 809.94 730.09
  C 808.76 733.02 804.20 734.72 801.21 735.50
  Q 790.53 738.29 780.22 734.20
  Q 779.32 733.85 779.72 734.72
  C 782.85 741.62 793.20 746.05 800.15 747.34
  Q 803.98 748.05 807.38 748.76
  C 815.87 750.54 815.93 761.50 813.43 767.98
  Q 811.36 773.36 809.46 778.64
  Q 801.81 799.82 813.11 819.01
  C 818.85 828.75 829.55 836.54 841.25 837.24
  Q 842.92 837.34 841.71 836.17
  Q 832.44 827.28 827.31 815.53
  Q 825.88 812.26 825.35 809.08
  A 2.01 2.01 0.0 0 1 827.25 806.74
  Q 828.65 806.68 829.13 808.06
  C 833.56 820.85 842.91 832.90 853.96 840.84
  Q 858.17 843.85 862.48 846.89
  Q 865.66 849.12 867.19 852.56
  Q 869.35 857.38 872.05 861.84
  Q 874.96 866.65 880.43 866.74
  C 883.04 866.78 887.84 867.57 889.73 865.51
  C 893.15 861.77 891.40 856.87 889.39 852.92
  Q 882.28 838.93 873.88 825.60
  A 1.86 1.84 -40.9 0 1 874.05 823.39
  Q 874.19 823.22 874.39 823.12
  Q 875.82 822.34 876.75 823.67
  Q 881.24 830.11 885.07 836.79
  A 0.81 0.80 49.5 0 0 886.39 836.90
  C 894.19 827.29 893.89 815.63 890.65 803.78
  A 2.16 2.15 75.1 0 1 892.18 801.13
  C 897.27 799.81 901.73 796.69 904.25 792.44
  C 906.02 789.46 906.17 786.06 906.44 782.70
  A 1.96 1.95 84.7 0 1 907.87 780.97
  Q 929.13 775.23 927.68 753.05
  C 927.23 746.08 922.22 734.86 913.49 735.58
  C 910.32 735.84 909.03 737.95 907.64 740.41
  C 906.68 742.12 904.68 742.30 903.30 740.98
  C 901.48 739.24 899.51 737.41 896.76 737.75
  C 889.22 738.66 883.42 745.20 881.81 752.35
  C 878.84 765.49 887.08 775.84 899.01 780.09
  A 2.54 2.53 12.5 0 1 900.69 782.72
  C 900.07 789.06 895.60 793.22 890.21 796.21
  C 888.62 797.09 887.01 796.37 886.05 794.98
  Q 881.70 788.73 876.17 784.27
  C 871.24 780.28 865.72 777.05 861.30 772.69
  Q 851.85 763.35 848.98 748.61
  A 0.69 0.69 0.0 0 0 848.25 748.06
  Q 837.75 748.95 835.40 738.46
  Q 831.86 722.66 830.28 703.78
  Q 830.15 702.24 831.37 701.47
  Q 832.16 700.97 833.53 703.16"
/>
<path stroke="#838384" vector-effect="non-scaling-stroke" d="
  M 176.37 806.36
  Q 177.96 807.36 177.05 809.00
  Q 165.76 829.23 155.29 845.84
  Q 153.45 848.77 151.01 849.64
  C 145.84 851.47 140.67 852.08 138.67 858.03
  C 137.39 861.85 138.72 866.76 143.68 866.86
  Q 152.83 867.06 161.59 866.72
  C 162.70 866.67 163.52 866.19 164.42 865.59
  Q 183.90 852.60 201.16 835.44
  Q 210.46 826.18 217.70 814.81
  Q 218.82 813.06 220.74 813.85
  Q 221.04 813.98 221.18 814.25
  Q 222.12 816.14 220.69 818.30
  Q 217.09 823.76 212.70 829.61
  A 0.46 0.45 -72.1 0 0 213.07 830.34
  Q 245.72 829.64 276.44 815.11
  C 277.88 814.43 279.23 814.88 280.36 815.86
  C 292.37 826.28 305.02 830.48 320.12 828.86
  C 325.88 828.25 331.17 829.05 336.63 830.79
  Q 339.37 831.67 342.36 830.80
  Q 349.06 828.87 355.11 827.15
  Q 355.76 826.97 355.38 826.42
  Q 342.59 807.69 326.22 795.38
  C 325.31 794.70 324.72 793.69 324.71 792.52
  C 324.62 772.45 319.18 754.21 304.35 740.77
  A 1.11 1.10 -65.1 0 1 304.00 739.80
  Q 304.09 739.09 304.56 738.77
  Q 305.84 737.87 307.08 738.83
  C 317.63 747.01 329.52 749.91 342.28 746.72
  C 349.61 744.89 358.82 741.30 363.82 749.12
  Q 364.78 750.62 365.33 748.92
  Q 365.89 747.20 365.90 745.48
  Q 365.92 743.02 364.25 741.22
  L 361.87 738.65
  Q 361.37 738.11 361.46 737.37
  Q 361.75 734.95 364.03 734.46
  Q 369.75 733.24 375.87 734.48
  A 0.64 0.64 0.0 0 0 376.63 733.75
  C 374.92 723.01 363.94 715.63 354.05 712.83
  C 336.23 707.78 316.53 711.47 303.44 725.19
  C 301.79 726.91 300.76 728.99 299.46 730.97
  A 1.45 1.41 8.8 0 1 298.62 731.57
  Q 297.23 731.95 295.83 731.42
  C 284.59 727.14 274.16 726.12 261.37 726.21
  Q 247.48 726.29 233.64 726.26
  Q 232.91 726.26 232.59 726.91
  C 228.22 735.55 217.96 737.89 208.82 736.02
  A 0.46 0.46 0.0 0 0 208.29 736.61
  C 212.35 748.70 207.64 760.71 195.12 764.80
  Q 193.72 765.26 193.16 766.62
  Q 190.44 773.22 184.49 776.19
  C 183.06 776.91 181.54 777.22 180.05 777.75
  Q 179.47 777.96 179.14 778.48
  Q 178.29 779.81 177.42 781.21
  C 174.02 786.70 167.26 789.10 160.89 788.54
  A 1.08 1.07 -68.4 0 0 159.95 788.95
  C 156.31 793.59 153.70 796.73 147.70 798.20
  A 1.01 1.00 81.2 0 0 146.94 799.25
  Q 147.14 802.01 148.16 804.82
  Q 152.49 816.75 163.45 823.17
  Q 163.94 823.45 164.23 822.97
  L 174.11 806.67
  A 1.37 1.36 -69.0 0 1 175.52 806.04
  Q 175.98 806.13 176.37 806.36"
/>
<path stroke="#838384" vector-effect="non-scaling-stroke" d="
  M 729.59 796.47
  A 1.37 1.36 -48.9 0 1 729.63 797.08
  Q 726.97 812.90 722.64 831.34
  Q 721.25 837.26 719.22 842.39
  C 718.43 844.37 716.50 845.78 714.32 845.68
  Q 711.00 845.54 707.68 845.73
  Q 706.32 845.81 705.58 846.99
  C 702.12 852.54 700.17 864.43 709.20 866.08
  C 711.10 866.43 713.46 866.79 715.23 865.80
  C 723.62 861.12 729.40 850.91 732.86 842.31
  Q 741.96 819.71 746.80 794.12
  C 747.11 792.46 746.90 791.09 745.79 789.75
  C 740.54 783.36 732.16 782.94 724.65 781.69
  C 717.81 780.56 710.49 773.15 705.72 768.18
  A 0.81 0.81 0.0 0 0 704.52 768.21
  L 689.97 784.99
  Q 689.67 785.34 689.98 785.67
  C 697.44 793.49 703.97 798.92 704.31 810.42
  A 0.38 0.38 0.0 0 0 704.90 810.73
  Q 713.89 804.88 723.84 807.93
  A 0.40 0.39 -77.2 0 0 724.34 807.61
  Q 725.13 802.19 726.22 796.97
  Q 726.60 795.16 728.34 794.75
  Q 729.07 794.58 729.59 796.47"
/>
<path stroke="#838384" vector-effect="non-scaling-stroke" d="
  M 705.03 815.21
  A 0.88 0.86 68.8 0 0 704.72 815.94
  L 705.33 824.51
  A 0.76 0.75 76.2 0 0 706.38 825.15
  Q 713.06 822.28 719.67 824.54
  A 0.75 0.74 15.7 0 0 720.64 824.00
  L 723.15 812.82
  A 1.15 1.14 -72.8 0 0 722.46 811.50
  C 716.66 809.18 709.80 811.39 705.03 815.21"
/>
<path stroke="#838384" vector-effect="non-scaling-stroke" d="
  M 386.90 849.32
  A 1.30 1.29 22.5 0 1 385.88 849.74
  Q 369.37 849.16 352.86 848.04
  Q 346.12 847.59 342.04 846.16
  C 338.35 844.88 336.40 840.42 334.77 837.08
  C 333.45 834.40 328.46 834.98 326.00 835.26
  Q 320.01 835.93 318.24 842.00
  Q 316.96 846.41 320.96 848.16
  C 328.19 851.31 335.47 854.37 342.87 856.67
  Q 351.81 859.44 360.93 862.14
  C 372.19 865.48 384.25 866.28 395.61 866.22
  A 1.73 1.72 -78.9 0 0 397.21 865.14
  C 399.99 858.41 399.45 851.86 398.18 844.85
  C 396.89 837.75 399.59 830.65 402.95 824.48
  Q 403.28 823.87 402.65 823.60
  L 381.69 814.48
  A 0.55 0.55 0.0 0 0 381.03 814.66
  C 378.73 817.80 376.69 821.41 373.64 823.94
  Q 369.41 827.46 363.82 828.70
  A 0.45 0.44 57.2 0 0 363.65 829.49
  Q 370.18 834.39 371.42 845.04
  A 0.79 0.79 0.0 0 0 372.18 845.74
  L 384.93 846.16
  Q 386.63 846.22 387.30 847.79
  Q 387.61 848.54 386.90 849.32"
/>
<path stroke="#838384" vector-effect="non-scaling-stroke" d="
  M 283.97 849.50
  C 280.47 853.35 274.53 856.48 277.74 862.69
  C 280.18 867.42 286.42 867.44 290.64 865.77
  C 304.61 860.28 307.70 848.59 305.42 834.33
  A 0.75 0.75 0.0 0 0 304.82 833.71
  Q 290.64 831.00 279.37 821.54
  Q 277.59 820.05 278.36 822.24
  Q 282.00 832.53 284.68 841.70
  C 285.40 844.20 285.91 847.38 283.97 849.50"
/>
<path stroke="#838384" vector-effect="non-scaling-stroke" d="
  M 273.98 823.28
  A 1.02 1.01 -19.6 0 0 272.62 822.64
  C 252.86 830.73 230.71 835.99 209.58 835.08
  C 207.31 834.98 205.12 836.58 206.35 839.07
  C 210.04 846.54 216.79 860.62 209.28 867.51
  Q 208.72 868.03 209.48 868.03
  L 274.80 868.02
  Q 275.66 868.02 275.12 867.34
  C 270.79 861.96 271.11 855.00 276.30 850.34
  Q 278.04 848.78 279.75 847.11
  Q 280.10 846.77 280.16 846.29
  Q 280.37 844.57 279.85 842.81
  Q 276.95 833.03 273.98 823.28"
/>
<path stroke="#838384" vector-effect="non-scaling-stroke" d="
  M 718.46 827.77
  Q 712.16 826.18 706.22 829.05
  A 0.92 0.92 0.0 0 0 705.71 829.96
  L 706.71 841.76
  Q 706.75 842.27 707.26 842.24
  L 714.22 841.83
  A 1.85 1.85 0.0 0 0 715.84 840.65
  Q 718.24 834.57 719.45 828.88
  A 0.84 0.83 18.5 0 0 718.98 827.95
  Q 718.73 827.84 718.46 827.77"
/>
<path stroke="#838384" vector-effect="non-scaling-stroke" d="
  M 809.28 848.64
  C 808.23 851.67 805.37 853.03 802.33 853.50
  C 797.52 854.24 794.30 857.96 794.68 862.99
  C 794.98 866.86 797.55 866.99 800.71 867.02
  Q 810.05 867.12 819.19 866.88
  C 821.44 866.83 823.11 864.20 824.07 862.45
  Q 829.08 853.36 834.10 841.70
  Q 834.38 841.05 833.70 840.85
  Q 822.09 837.43 815.13 829.43
  A 0.25 0.25 0.0 0 0 814.69 829.54
  Q 812.71 838.73 809.28 848.64"
/>
<path stroke="#838384" vector-effect="non-scaling-stroke" d="
  M 349.16 833.97
  C 352.24 836.45 354.14 840.10 354.81 843.99
  A 1.02 1.02 0.0 0 0 355.77 844.85
  L 366.97 845.49
  A 0.70 0.69 -1.7 0 0 367.70 844.72
  Q 366.87 836.38 360.15 831.31
  Q 359.71 830.98 359.16 831.05
  Q 354.22 831.70 349.27 833.34
  Q 348.63 833.55 349.16 833.97"
/>
<path stroke="#838384" vector-effect="non-scaling-stroke" d="
  M 313.04 847.79
  Q 312.57 843.05 314.69 837.68
  C 315.21 836.37 316.20 835.49 317.13 834.50
  Q 317.66 833.94 316.89 833.97
  L 311.19 834.19
  A 0.71 0.70 85.2 0 0 310.52 834.99
  C 312.26 847.90 310.14 859.86 298.94 866.86
  Q 297.19 867.96 299.26 867.96
  L 337.41 867.97
  A 0.24 0.24 0.0 0 0 337.59 867.57
  Q 335.14 864.82 334.58 861.27
  A 1.13 1.12 5.9 0 0 333.86 860.39
  Q 325.01 857.15 317.48 853.43
  Q 313.39 851.41 313.04 847.79"
/>
<path stroke="#838384" vector-effect="non-scaling-stroke" d="
  M 338.57 836.00
  A 0.43 0.43 0.0 0 0 338.19 836.58
  Q 339.19 839.19 340.87 841.32
  C 342.94 843.92 347.63 844.24 350.69 844.28
  Q 351.35 844.29 351.13 843.66
  Q 349.66 839.41 346.74 836.12
  A 1.60 1.59 67.0 0 0 345.45 835.59
  L 338.57 836.00"
/>
<path stroke="#838384" vector-effect="non-scaling-stroke" d="
  M 186.82 854.79
  A 0.61 0.60 52.7 0 0 186.71 855.62
  C 190.19 860.56 199.89 871.83 206.35 863.87
  C 210.43 858.84 204.52 846.77 202.15 841.69
  A 0.41 0.41 0.0 0 0 201.48 841.58
  Q 194.56 848.54 186.82 854.79"
/>
<path stroke="#838384" vector-effect="non-scaling-stroke" d="
  M 858.90 850.99
  A 0.39 0.39 0.0 0 0 858.94 850.32
  L 848.86 843.08
  A 1.22 1.13 63.1 0 0 848.32 842.88
  L 839.12 842.13
  Q 838.56 842.09 838.35 842.61
  Q 833.10 855.98 825.95 867.49
  Q 825.65 867.97 826.22 867.97
  L 852.05 868.00
  A 0.41 0.40 73.8 0 0 852.39 867.37
  C 849.72 863.26 850.69 857.53 854.34 854.19
  Q 856.36 852.34 858.90 850.99"
/>
<path stroke="#838384" vector-effect="non-scaling-stroke" d="
  M 870.56 867.25
  C 867.41 864.17 865.16 859.45 863.43 855.22
  A 0.90 0.89 -23.3 0 0 862.22 854.74
  C 857.95 856.71 853.27 860.53 857.19 865.68
  Q 858.58 867.51 860.73 867.69
  Q 865.14 868.06 870.28 867.96
  Q 871.25 867.94 870.56 867.25"
/>
<path stroke="#838384" vector-effect="non-scaling-stroke" d="
  M 182.96 858.76
  A 0.52 0.51 54.8 0 0 182.24 858.63
  L 169.88 867.50
  Q 169.09 868.07 170.07 868.07
  L 191.02 868.12
  A 0.30 0.30 0.0 0 0 191.21 867.58
  Q 186.41 863.72 182.96 858.76"
/>
<path stroke="#838384" vector-effect="non-scaling-stroke" d="
  M 349.25 864.82
  L 339.98 861.95
  A 0.10 0.10 0.0 0 0 339.86 862.02
  L 339.85 862.04
  A 4.82 2.75 17.2 0 0 343.64 866.10
  L 343.89 866.17
  A 4.82 2.75 17.2 0 0 349.31 864.97
  L 349.31 864.94
  A 0.10 0.10 0.0 0 0 349.25 864.82"
/>
<path stroke="#838384" vector-effect="non-scaling-stroke" d="
  M 359.8284 867.8707
  A 1.92 0.51 6.3 0 0 357.9760 867.1531
  A 1.92 0.51 6.3 0 0 356.0116 867.4493
  A 1.92 0.51 6.3 0 0 357.8640 868.1669
  A 1.92 0.51 6.3 0 0 359.8284 867.8707"
/>
<path stroke="#838384" vector-effect="non-scaling-stroke" d="
  M 445.6179 272.6053
  A 5.68 4.69 80.7 0 0 449.3284 266.2421
  A 5.68 4.69 80.7 0 0 443.7821 261.3947
  A 5.68 4.69 80.7 0 0 440.0716 267.7579
  A 5.68 4.69 80.7 0 0 445.6179 272.6053"
/>
<path stroke="#838384" vector-effect="non-scaling-stroke" d="
  M 475.5189 349.6118
  A 2.22 2.22 0.0 0 0 474.0353 346.8449
  L 473.6141 346.7177
  A 2.22 2.22 0.0 0 0 470.8472 348.2013
  L 468.3211 356.5682
  A 2.22 2.22 0.0 0 0 469.8047 359.3351
  L 470.2259 359.4623
  A 2.22 2.22 0.0 0 0 472.9928 357.9787
  L 475.5189 349.6118"
/>
<path stroke="#838384" vector-effect="non-scaling-stroke" d="
  M 143.0026 710.4597
  A 5.24 4.48 81.3 0 0 146.6385 704.6024
  A 5.24 4.48 81.3 0 0 141.4174 700.1003
  A 5.24 4.48 81.3 0 0 137.7815 705.9576
  A 5.24 4.48 81.3 0 0 143.0026 710.4597"
/>
<path stroke="#838384" vector-effect="non-scaling-stroke" d="
  M 813.46 708.38
  A 4.31 4.31 0.0 0 0 809.15 704.07
  A 4.31 4.31 0.0 0 0 804.84 708.38
  A 4.31 4.31 0.0 0 0 809.15 712.69
  A 4.31 4.31 0.0 0 0 813.46 708.38"
/>
</g>
<path fill="#feffff" d="
  M 1024.00 0.00
  L 1024.00 1024.00
  L 0.00 1024.00
  L 0.00 0.00
  L 1024.00 0.00
  Z
  M 791.29 868.07
  L 724.01 868.06
  Q 723.10 868.06 723.77 867.45
  C 733.68 858.56 738.68 846.40 742.88 833.81
  C 747.15 820.97 750.82 807.83 752.99 794.72
  Q 753.35 792.56 752.54 790.70
  C 749.68 784.14 742.72 779.72 735.82 778.40
  C 731.56 777.59 724.19 777.61 719.84 774.24
  Q 714.61 770.18 708.78 764.23
  Q 708.39 763.83 708.75 763.41
  L 712.19 759.35
  Q 713.21 758.15 712.27 756.91
  Q 694.97 733.93 675.42 711.02
  C 662.48 695.87 648.29 681.15 632.65 668.79
  C 628.80 665.75 624.29 663.30 621.09 659.76
  Q 617.35 655.61 615.64 648.06
  Q 607.20 610.98 595.10 559.73
  A 0.97 0.97 0.0 0 1 595.74 558.58
  Q 608.72 554.14 618.21 547.47
  C 625.47 542.37 627.83 533.83 626.13 525.48
  Q 623.43 512.21 619.48 498.50
  Q 605.04 448.41 582.21 401.48
  Q 581.94 400.91 582.56 400.85
  Q 590.34 400.00 597.79 397.35
  C 604.40 395.01 605.86 384.60 605.01 378.78
  A 1.16 1.15 75.4 0 1 605.73 377.54
  L 606.10 377.40
  Q 607.56 376.83 607.92 378.36
  Q 609.79 386.34 606.71 392.57
  Q 606.64 392.70 606.66 392.85
  Q 606.68 393.10 606.85 393.28
  A 0.68 0.66 -28.9 0 0 607.54 393.47
  Q 614.71 391.22 621.75 386.58
  C 626.77 383.27 629.82 379.08 630.36 373.00
  Q 630.90 366.93 628.81 361.53
  A 1.89 1.82 37.6 0 1 628.69 360.73
  Q 628.80 359.23 629.60 359.03
  Q 631.09 358.66 631.74 360.04
  Q 635.46 367.82 633.69 376.18
  Q 633.41 377.51 634.42 376.60
  Q 644.28 367.85 649.34 357.61
  Q 650.61 355.01 652.57 352.78
  Q 657.86 346.77 660.90 338.95
  C 669.94 315.68 649.86 298.90 631.52 290.34
  Q 618.85 284.42 609.63 278.67
  C 597.81 271.31 589.40 259.91 583.39 247.27
  Q 577.64 235.18 571.64 222.38
  C 560.83 199.35 543.25 181.36 518.10 175.42
  C 499.12 170.93 477.11 174.68 460.90 184.46
  Q 459.26 185.46 457.28 185.60
  Q 443.48 186.58 432.40 195.07
  C 417.91 206.18 411.87 224.64 420.79 241.27
  C 422.14 243.79 424.49 245.65 424.96 248.46
  Q 426.21 255.85 426.51 262.96
  C 426.64 265.99 424.87 270.21 421.71 271.63
  C 416.41 274.02 418.14 280.38 419.39 284.73
  C 426.05 307.90 442.35 325.61 468.48 321.88
  Q 469.65 321.72 468.73 322.46
  C 465.23 325.32 466.76 330.08 468.12 333.62
  A 2.13 2.12 -36.6 0 1 467.81 335.69
  Q 462.33 342.63 459.59 352.65
  Q 456.49 363.98 454.57 374.26
  Q 447.32 413.13 444.79 454.50
  Q 444.61 457.34 443.19 459.65
  Q 427.81 484.53 417.58 501.66
  Q 415.47 505.20 416.67 508.86
  C 417.39 511.02 419.14 512.53 420.66 514.15
  A 0.42 0.42 0.0 0 1 420.56 514.80
  C 413.96 518.43 406.55 522.89 402.76 529.44
  Q 399.24 535.52 395.56 542.73
  C 393.78 546.21 395.40 548.29 398.51 549.79
  Q 399.13 550.09 398.98 550.76
  Q 397.98 555.41 401.23 559.02
  C 402.71 560.66 405.09 561.25 407.11 561.98
  A 2.80 2.79 78.8 0 1 408.27 562.76
  Q 410.39 565.10 413.76 564.69
  A 1.47 1.43 -30.4 0 1 414.74 564.93
  C 426.22 572.88 428.93 558.02 434.56 552.53
  Q 438.88 548.32 441.37 542.93
  A 0.13 0.13 0.0 0 1 441.62 542.99
  L 441.75 553.20
  Q 441.75 553.67 441.43 554.01
  Q 440.79 554.71 440.09 555.36
  Q 389.18 602.87 328.61 646.04
  Q 295.90 669.36 265.86 686.25
  Q 247.26 696.70 226.14 703.82
  A 1.62 1.60 58.3 0 1 224.48 703.42
  Q 212.47 691.36 198.14 679.17
  Q 190.39 672.57 185.35 670.20
  Q 166.22 661.20 145.98 668.94
  C 135.26 673.04 127.16 681.93 125.39 693.38
  Q 124.98 696.03 124.75 698.65
  C 124.47 701.75 121.87 704.02 118.95 704.43
  Q 112.69 705.31 107.13 704.41
  C 101.69 703.54 97.71 705.93 97.43 711.94
  Q 96.79 725.56 103.59 734.54
  Q 104.91 736.29 105.53 738.41
  Q 107.63 745.54 115.59 750.50
  C 121.87 754.41 128.79 755.57 136.13 755.35
  A 1.93 1.93 0.0 0 1 138.12 757.28
  Q 138.12 758.86 137.38 760.09
  C 132.15 768.76 129.76 777.24 132.27 787.42
  Q 134.32 795.75 140.70 797.98
  Q 141.41 798.23 141.53 798.96
  Q 144.73 817.18 160.44 827.11
  A 0.76 0.76 0.0 0 1 160.67 828.16
  L 150.85 843.89
  A 2.70 2.68 8.5 0 1 149.22 845.09
  C 142.80 846.72 136.53 849.34 134.25 855.96
  Q 132.09 862.23 135.54 867.54
  A 0.34 0.34 0.0 0 1 135.26 868.07
  L 111.03 868.12
  A 1.10 1.08 -63.9 0 0 110.35 868.36
  Q 109.58 868.99 109.68 869.80
  Q 109.87 871.38 111.46 871.38
  Q 224.91 871.42 331.54 871.29
  C 337.60 871.28 343.52 871.51 349.51 871.40
  Q 356.19 871.29 362.99 871.29
  Q 524.06 871.28 699.25 871.54
  Q 707.60 871.55 715.75 871.53
  Q 810.45 871.25 907.32 871.43
  Q 908.71 871.43 909.57 870.03
  Q 910.04 869.25 908.35 868.06
  A 0.80 0.77 -26.5 0 0 907.90 867.92
  L 894.46 868.05
  A 0.35 0.34 -73.4 0 1 894.17 867.51
  Q 897.77 862.07 895.46 855.57
  Q 892.99 848.58 888.90 842.26
  A 0.75 0.74 50.9 0 1 888.99 841.34
  C 898.03 831.94 899.43 818.60 896.11 806.24
  Q 895.91 805.49 896.63 805.20
  Q 910.32 799.64 911.09 786.16
  Q 911.13 785.48 911.74 785.18
  C 913.53 784.30 915.78 783.79 917.38 782.83
  Q 933.53 773.18 932.66 754.33
  C 932.26 745.67 927.72 735.06 919.11 731.57
  Q 911.15 728.35 904.66 735.33
  Q 904.34 735.67 903.98 735.38
  C 897.06 729.76 887.03 734.75 882.24 740.96
  C 870.90 755.71 876.72 776.75 894.55 783.18
  A 0.85 0.84 20.1 0 1 895.06 784.27
  Q 893.62 788.22 890.26 790.58
  A 1.11 1.10 52.6 0 1 888.78 790.38
  Q 882.66 783.07 874.32 777.25
  Q 867.79 772.70 864.76 769.59
  Q 856.03 760.62 853.75 747.17
  A 0.81 0.80 -16.4 0 1 854.24 746.29
  C 866.08 741.50 880.22 720.23 870.75 707.95
  C 861.79 696.33 849.71 687.50 836.48 683.00
  C 821.37 677.85 804.41 681.48 798.27 697.42
  C 795.30 705.13 786.79 702.88 780.73 701.49
  Q 773.48 699.83 771.56 707.04
  C 769.90 713.26 769.96 721.58 772.94 727.74
  C 774.61 731.19 775.26 735.12 777.20 738.41
  C 781.68 746.02 791.07 750.02 799.41 752.02
  C 802.04 752.66 805.08 752.76 807.29 753.71
  C 814.22 756.67 806.91 772.13 805.35 776.60
  Q 796.38 802.19 810.69 824.10
  A 1.23 1.20 34.7 0 1 810.86 824.98
  Q 808.61 835.85 804.92 846.52
  A 2.71 2.71 0.0 0 1 802.84 848.30
  C 796.51 849.43 791.09 853.14 790.00 859.80
  Q 789.29 864.17 791.60 867.48
  A 0.38 0.38 0.0 0 1 791.29 868.07
  Z"
/>
<path fill="#080709" d="
  M 791.29 868.07
  A 0.38 0.38 0.0 0 0 791.60 867.48
  Q 789.29 864.17 790.00 859.80
  C 791.09 853.14 796.51 849.43 802.84 848.30
  A 2.71 2.71 0.0 0 0 804.92 846.52
  Q 808.61 835.85 810.86 824.98
  A 1.23 1.20 34.7 0 0 810.69 824.10
  Q 796.38 802.19 805.35 776.60
  C 806.91 772.13 814.22 756.67 807.29 753.71
  C 805.08 752.76 802.04 752.66 799.41 752.02
  C 791.07 750.02 781.68 746.02 777.20 738.41
  C 775.26 735.12 774.61 731.19 772.94 727.74
  C 769.96 721.58 769.90 713.26 771.56 707.04
  Q 773.48 699.83 780.73 701.49
  C 786.79 702.88 795.30 705.13 798.27 697.42
  C 804.41 681.48 821.37 677.85 836.48 683.00
  C 849.71 687.50 861.79 696.33 870.75 707.95
  C 880.22 720.23 866.08 741.50 854.24 746.29
  A 0.81 0.80 -16.4 0 0 853.75 747.17
  Q 856.03 760.62 864.76 769.59
  Q 867.79 772.70 874.32 777.25
  Q 882.66 783.07 888.78 790.38
  A 1.11 1.10 52.6 0 0 890.26 790.58
  Q 893.62 788.22 895.06 784.27
  A 0.85 0.84 20.1 0 0 894.55 783.18
  C 876.72 776.75 870.90 755.71 882.24 740.96
  C 887.03 734.75 897.06 729.76 903.98 735.38
  Q 904.34 735.67 904.66 735.33
  Q 911.15 728.35 919.11 731.57
  C 927.72 735.06 932.26 745.67 932.66 754.33
  Q 933.53 773.18 917.38 782.83
  C 915.78 783.79 913.53 784.30 911.74 785.18
  Q 911.13 785.48 911.09 786.16
  Q 910.32 799.64 896.63 805.20
  Q 895.91 805.49 896.11 806.24
  C 899.43 818.60 898.03 831.94 888.99 841.34
  A 0.75 0.74 50.9 0 0 888.90 842.26
  Q 892.99 848.58 895.46 855.57
  Q 897.77 862.07 894.17 867.51
  A 0.35 0.34 -73.4 0 0 894.46 868.05
  L 907.90 867.92
  A 0.80 0.77 -26.5 0 1 908.35 868.06
  Q 910.04 869.25 909.57 870.03
  Q 908.71 871.43 907.32 871.43
  Q 810.45 871.25 715.75 871.53
  Q 707.60 871.55 699.25 871.54
  Q 524.06 871.28 362.99 871.29
  Q 356.19 871.29 349.51 871.40
  C 343.52 871.51 337.60 871.28 331.54 871.29
  Q 224.91 871.42 111.46 871.38
  Q 109.87 871.38 109.68 869.80
  Q 109.58 868.99 110.35 868.36
  A 1.10 1.08 -63.9 0 1 111.03 868.12
  L 135.26 868.07
  A 0.34 0.34 0.0 0 0 135.54 867.54
  Q 132.09 862.23 134.25 855.96
  C 136.53 849.34 142.80 846.72 149.22 845.09
  A 2.70 2.68 8.5 0 0 150.85 843.89
  L 160.67 828.16
  A 0.76 0.76 0.0 0 0 160.44 827.11
  Q 144.73 817.18 141.53 798.96
  Q 141.41 798.23 140.70 797.98
  Q 134.32 795.75 132.27 787.42
  C 129.76 777.24 132.15 768.76 137.38 760.09
  Q 138.12 758.86 138.12 757.28
  A 1.93 1.93 0.0 0 0 136.13 755.35
  C 128.79 755.57 121.87 754.41 115.59 750.50
  Q 107.63 745.54 105.53 738.41
  Q 104.91 736.29 103.59 734.54
  Q 96.79 725.56 97.43 711.94
  C 97.71 705.93 101.69 703.54 107.13 704.41
  Q 112.69 705.31 118.95 704.43
  C 121.87 704.02 124.47 701.75 124.75 698.65
  Q 124.98 696.03 125.39 693.38
  C 127.16 681.93 135.26 673.04 145.98 668.94
  Q 166.22 661.20 185.35 670.20
  Q 190.39 672.57 198.14 679.17
  Q 212.47 691.36 224.48 703.42
  A 1.62 1.60 58.3 0 0 226.14 703.82
  Q 247.26 696.70 265.86 686.25
  Q 295.90 669.36 328.61 646.04
  Q 389.18 602.87 440.09 555.36
  Q 440.79 554.71 441.43 554.01
  Q 441.75 553.67 441.75 553.20
  L 441.62 542.99
  A 0.13 0.13 0.0 0 0 441.37 542.93
  Q 438.88 548.32 434.56 552.53
  C 428.93 558.02 426.22 572.88 414.74 564.93
  A 1.47 1.43 -30.4 0 0 413.76 564.69
  Q 410.39 565.10 408.27 562.76
  A 2.80 2.79 78.8 0 0 407.11 561.98
  C 405.09 561.25 402.71 560.66 401.23 559.02
  Q 397.98 555.41 398.98 550.76
  Q 399.13 550.09 398.51 549.79
  C 395.40 548.29 393.78 546.21 395.56 542.73
  Q 399.24 535.52 402.76 529.44
  C 406.55 522.89 413.96 518.43 420.56 514.80
  A 0.42 0.42 0.0 0 0 420.66 514.15
  C 419.14 512.53 417.39 511.02 416.67 508.86
  Q 415.47 505.20 417.58 501.66
  Q 427.81 484.53 443.19 459.65
  Q 444.61 457.34 444.79 454.50
  Q 447.32 413.13 454.57 374.26
  Q 456.49 363.98 459.59 352.65
  Q 462.33 342.63 467.81 335.69
  A 2.13 2.12 -36.6 0 0 468.12 333.62
  C 466.76 330.08 465.23 325.32 468.73 322.46
  Q 469.65 321.72 468.48 321.88
  C 442.35 325.61 426.05 307.90 419.39 284.73
  C 418.14 280.38 416.41 274.02 421.71 271.63
  C 424.87 270.21 426.64 265.99 426.51 262.96
  Q 426.21 255.85 424.96 248.46
  C 424.49 245.65 422.14 243.79 420.79 241.27
  C 411.87 224.64 417.91 206.18 432.40 195.07
  Q 443.48 186.58 457.28 185.60
  Q 459.26 185.46 460.90 184.46
  C 477.11 174.68 499.12 170.93 518.10 175.42
  C 543.25 181.36 560.83 199.35 571.64 222.38
  Q 577.64 235.18 583.39 247.27
  C 589.40 259.91 597.81 271.31 609.63 278.67
  Q 618.85 284.42 631.52 290.34
  C 649.86 298.90 669.94 315.68 660.90 338.95
  Q 657.86 346.77 652.57 352.78
  Q 650.61 355.01 649.34 357.61
  Q 644.28 367.85 634.42 376.60
  Q 633.41 377.51 633.69 376.18
  Q 635.46 367.82 631.74 360.04
  Q 631.09 358.66 629.60 359.03
  Q 628.80 359.23 628.69 360.73
  A 1.89 1.82 37.6 0 0 628.81 361.53
  Q 630.90 366.93 630.36 373.00
  C 629.82 379.08 626.77 383.27 621.75 386.58
  Q 614.71 391.22 607.54 393.47
  A 0.68 0.66 -28.9 0 1 606.85 393.28
  Q 606.68 393.10 606.66 392.85
  Q 606.64 392.70 606.71 392.57
  Q 609.79 386.34 607.92 378.36
  Q 607.56 376.83 606.10 377.40
  L 605.73 377.54
  A 1.16 1.15 75.4 0 0 605.01 378.78
  C 605.86 384.60 604.40 395.01 597.79 397.35
  Q 590.34 400.00 582.56 400.85
  Q 581.94 400.91 582.21 401.48
  Q 605.04 448.41 619.48 498.50
  Q 623.43 512.21 626.13 525.48
  C 627.83 533.83 625.47 542.37 618.21 547.47
  Q 608.72 554.14 595.74 558.58
  A 0.97 0.97 0.0 0 0 595.10 559.73
  Q 607.20 610.98 615.64 648.06
  Q 617.35 655.61 621.09 659.76
  C 624.29 663.30 628.80 665.75 632.65 668.79
  C 648.29 681.15 662.48 695.87 675.42 711.02
  Q 694.97 733.93 712.27 756.91
  Q 713.21 758.15 712.19 759.35
  L 708.75 763.41
  Q 708.39 763.83 708.78 764.23
  Q 714.61 770.18 719.84 774.24
  C 724.19 777.61 731.56 777.59 735.82 778.40
  C 742.72 779.72 749.68 784.14 752.54 790.70
  Q 753.35 792.56 752.99 794.72
  C 750.82 807.83 747.15 820.97 742.88 833.81
  C 738.68 846.40 733.68 858.56 723.77 867.45
  Q 723.10 868.06 724.01 868.06
  L 791.29 868.07
  Z
  M 478.33 268.64
  C 476.37 267.24 475.01 263.70 473.84 261.52
  Q 473.56 260.99 472.97 260.85
  Q 460.48 257.90 453.48 255.07
  C 451.29 254.18 448.83 251.12 447.69 249.86
  Q 436.25 237.30 435.18 223.04
  Q 434.85 218.61 433.95 222.96
  C 431.80 233.30 435.80 241.20 442.91 248.59
  C 445.08 250.83 443.16 254.77 440.01 254.05
  Q 435.07 252.92 430.26 250.77
  A 0.38 0.38 0.0 0 0 429.73 251.19
  C 431.38 260.03 433.28 271.02 423.54 276.09
  A 1.62 1.61 73.7 0 0 422.67 277.69
  Q 423.33 284.16 426.37 291.20
  C 427.93 294.80 436.47 292.09 438.98 290.81
  C 441.64 289.46 443.35 287.12 445.57 285.22
  Q 447.33 283.71 449.00 285.32
  L 449.39 285.69
  Q 451.80 288.00 449.43 290.36
  C 444.41 295.36 437.64 297.70 430.41 297.88
  A 0.51 0.51 0.0 0 0 429.98 298.65
  Q 441.46 317.87 462.55 317.83
  C 468.14 317.82 473.47 316.63 478.86 315.66
  A 1.72 1.71 -24.9 0 1 480.49 316.25
  Q 481.83 317.84 483.89 317.24
  Q 491.64 314.98 499.63 313.56
  A 0.64 0.64 0.0 0 0 500.02 312.53
  Q 491.93 302.19 486.95 289.32
  C 486.28 287.60 487.56 285.99 489.29 285.86
  Q 497.01 285.30 500.32 277.98
  Q 503.04 271.97 499.94 266.03
  Q 497.81 261.94 493.60 260.89
  C 486.45 259.11 484.82 264.38 480.80 268.43
  Q 479.65 269.58 478.33 268.64
  Z
  M 653.67 327.54
  Q 654.89 331.80 654.76 337.35
  Q 654.74 338.40 655.21 337.46
  C 657.81 332.29 657.11 324.23 655.23 319.49
  C 650.84 308.42 639.47 299.67 628.60 295.21
  Q 625.42 293.90 628.14 296.01
  C 638.98 304.39 649.91 314.46 653.67 327.54
  Z
  M 503.71 406.39
  Q 502.22 399.72 505.63 399.96
  A 1.53 1.53 0.0 0 1 507.00 401.11
  Q 511.74 419.97 517.76 438.78
  C 518.47 440.98 518.85 443.22 517.79 445.42
  Q 516.58 447.94 515.08 450.05
  Q 500.50 470.63 483.06 492.69
  C 480.88 495.45 478.86 498.68 476.96 501.65
  C 475.02 504.68 476.93 508.02 478.79 510.42
  Q 490.57 525.59 506.08 537.99
  C 508.47 539.91 511.98 541.95 514.71 539.64
  Q 541.70 516.86 560.88 490.23
  Q 570.28 477.19 575.60 463.51
  C 583.03 444.41 580.19 423.50 573.60 403.89
  Q 564.46 376.65 545.50 354.77
  Q 540.46 348.96 534.56 344.12
  A 2.64 2.62 -27.0 0 0 532.75 343.54
  C 521.77 344.20 514.01 353.12 510.13 362.98
  Q 505.66 374.32 506.48 391.57
  A 1.31 1.30 -16.4 0 1 505.82 392.77
  Q 505.36 393.03 504.85 392.93
  A 2.02 2.00 -86.4 0 1 503.25 391.10
  C 502.00 372.02 507.31 345.37 529.68 340.33
  Q 530.65 340.11 529.83 339.54
  Q 515.76 329.86 504.98 318.36
  A 1.36 1.34 63.7 0 0 503.79 317.95
  C 495.89 319.15 488.32 320.99 480.66 322.98
  Q 476.61 324.02 472.49 325.80
  A 1.76 1.76 0.0 0 0 471.52 327.98
  L 473.47 333.80
  A 3.64 3.59 -37.9 0 1 473.06 336.92
  Q 471.43 339.40 469.53 341.95
  C 466.92 345.46 465.31 349.76 464.19 353.91
  Q 458.02 376.83 454.50 405.57
  Q 450.41 438.96 448.65 467.93
  Q 446.47 504.05 447.10 548.20
  Q 447.11 548.44 447.30 548.29
  L 450.64 545.73
  Q 450.98 545.47 450.91 545.06
  C 449.41 535.74 453.01 529.94 458.67 522.67
  Q 459.08 522.15 459.05 521.48
  Q 456.75 460.72 461.64 403.11
  Q 462.88 388.50 465.86 369.53
  A 2.31 2.24 69.1 0 1 466.32 368.46
  Q 468.09 366.19 469.37 366.87
  Q 471.04 367.75 470.73 369.62
  Q 466.34 396.23 464.90 427.48
  C 463.33 461.43 463.15 490.69 464.05 517.44
  A 0.39 0.39 0.0 0 0 464.67 517.74
  Q 468.90 514.68 473.70 512.87
  A 0.42 0.42 0.0 0 0 473.89 512.24
  C 470.99 508.01 469.95 503.28 473.06 498.73
  Q 481.43 486.48 491.93 473.28
  A 0.69 0.68 41.5 0 0 491.87 472.35
  Q 487.59 468.25 483.15 463.61
  C 478.58 458.84 476.14 453.97 481.64 448.65
  Q 485.67 444.75 490.04 448.59
  Q 496.34 454.13 501.80 459.27
  A 0.45 0.45 0.0 0 0 502.46 459.21
  Q 507.41 452.76 511.87 446.23
  Q 513.96 443.15 512.88 439.71
  Q 508.37 425.41 504.67 410.41
  Q 504.08 408.02 503.71 406.39
  Z
  M 580.19 411.56
  Q 583.95 422.76 584.76 435.94
  C 586.23 459.78 574.64 480.55 559.95 499.74
  Q 543.77 520.89 521.25 540.64
  Q 518.04 543.46 515.44 544.86
  C 509.14 548.28 501.89 541.36 497.15 537.05
  A 0.67 0.67 0.0 0 0 496.12 537.21
  Q 492.77 543.00 488.70 548.18
  Q 488.47 548.48 488.61 548.83
  Q 493.32 560.54 496.84 571.97
  A 0.84 0.84 0.0 0 0 497.63 572.56
  Q 501.77 572.59 505.51 572.30
  Q 542.88 569.38 578.75 558.99
  Q 593.85 554.61 607.97 547.76
  C 617.34 543.21 623.18 537.70 621.13 526.11
  Q 618.88 513.38 613.83 496.39
  Q 600.69 452.20 581.45 411.06
  Q 576.41 400.28 580.19 411.56
  Z
  M 494.33 469.36
  L 500.31 463.20
  A 0.27 0.27 0.0 0 0 500.30 462.82
  L 490.27 453.07
  A 5.82 3.37 44.2 0 0 483.75 451.43
  L 482.09 453.13
  A 5.82 3.37 44.2 0 0 483.92 459.61
  L 493.95 469.36
  A 0.27 0.27 0.0 0 0 494.33 469.36
  Z
  M 441.96 524.57
  C 441.91 506.15 442.63 487.62 443.69 469.08
  A 0.22 0.22 0.0 0 0 443.34 468.90
  C 442.58 469.50 442.28 470.37 441.79 471.16
  Q 431.94 487.30 422.62 502.41
  Q 421.46 504.28 421.14 506.14
  A 2.37 2.35 26.6 0 0 421.85 508.25
  Q 431.01 516.82 441.10 524.98
  A 0.53 0.52 19.2 0 0 441.96 524.57
  Z
  M 460.61 538.61
  Q 462.16 540.09 461.25 542.44
  A 0.83 0.83 0.0 0 0 462.07 543.57
  C 463.25 543.52 464.15 544.11 464.66 545.16
  Q 465.83 547.59 467.62 549.54
  Q 467.98 549.92 468.49 549.85
  Q 469.77 549.67 470.90 550.06
  Q 471.64 550.32 471.68 551.10
  C 471.93 556.09 477.09 553.57 479.11 551.81
  C 484.69 546.97 488.88 540.27 492.97 534.00
  A 0.75 0.74 38.2 0 0 492.85 533.05
  Q 484.80 525.60 478.15 517.31
  A 1.21 1.21 0.0 0 0 476.85 516.90
  Q 466.51 519.97 459.71 529.18
  C 457.24 532.52 454.87 536.34 455.08 540.60
  Q 455.22 543.47 456.95 541.17
  Q 458.03 539.74 459.40 538.57
  A 0.91 0.91 0.0 0 1 460.61 538.61
  Z
  M 430.17 528.57
  Q 430.48 528.71 430.71 528.95
  Q 431.75 530.04 431.07 531.38
  Q 427.58 538.16 422.10 540.63
  A 0.42 0.42 0.0 0 0 422.10 541.39
  Q 424.25 542.40 426.90 543.67
  Q 428.27 544.34 429.24 545.90
  Q 430.34 547.67 431.28 549.57
  A 0.49 0.48 51.5 0 0 432.09 549.67
  Q 437.97 542.65 440.58 533.57
  Q 440.89 532.47 440.75 531.34
  Q 440.68 530.83 440.27 530.51
  Q 432.22 524.41 425.21 517.87
  A 1.04 1.04 0.0 0 0 423.97 517.74
  C 416.85 521.93 409.71 525.81 405.63 533.33
  Q 403.09 538.02 400.14 542.98
  Q 399.70 543.72 399.78 544.57
  A 1.03 1.03 0.0 0 0 401.17 545.44
  Q 406.05 543.59 410.05 539.99
  C 411.39 538.78 413.20 537.73 415.03 537.78
  Q 423.34 537.99 428.85 528.98
  A 1.05 1.05 0.0 0 1 430.17 528.57
  Z
  M 417.55 542.13
  A 0.33 0.32 -68.7 0 0 417.34 541.64
  C 415.75 541.29 413.95 541.49 412.67 542.59
  Q 408.90 545.85 404.88 549.10
  C 400.01 553.02 405.58 560.25 408.52 556.02
  Q 413.06 549.48 417.55 542.13
  Z
  M 411.11 559.22
  L 413.67 560.86
  A 1.25 1.25 0.0 0 0 415.40 560.48
  L 421.00 551.72
  A 6.01 1.67 -57.4 0 0 422.83 545.75
  L 420.98 544.57
  A 6.01 1.67 -57.4 0 0 416.34 548.73
  L 410.73 557.49
  A 1.25 1.25 0.0 0 0 411.11 559.22
  Z
  M 426.01 548.57
  L 418.07 562.11
  A 0.03 0.03 0.0 0 0 418.08 562.15
  L 418.11 562.16
  A 5.07 4.62 -59.6 0 0 424.66 560.13
  L 427.50 555.28
  A 5.07 4.62 -59.6 0 0 426.08 548.57
  L 426.06 548.55
  A 0.03 0.03 0.0 0 0 426.01 548.57
  Z
  M 456.41 549.21
  Q 452.74 553.13 448.32 557.05
  A 0.98 0.98 0.0 0 0 448.35 558.55
  Q 452.55 561.94 457.87 562.51
  A 0.63 0.63 0.0 0 0 458.56 561.86
  Q 458.29 556.54 458.20 551.02
  C 458.19 550.11 457.62 549.07 456.59 549.13
  A 0.31 0.26 16.2 0 0 456.41 549.21
  Z
  M 463.22 553.25
  Q 462.98 561.04 464.14 565.18
  Q 466.12 572.25 474.79 572.86
  Q 482.14 573.39 490.19 573.12
  A 0.52 0.52 0.0 0 0 490.66 572.42
  L 483.88 554.22
  Q 483.59 553.44 483.02 554.05
  C 479.87 557.44 474.23 560.10 470.07 557.12
  Q 467.24 555.09 464.18 552.79
  Q 463.26 552.10 463.22 553.25
  Z
  M 370.66 807.77
  Q 391.83 749.47 413.78 694.56
  Q 417.30 685.75 420.89 675.87
  Q 436.42 633.11 454.13 590.34
  Q 458.43 579.97 461.20 574.25
  Q 461.47 573.71 461.25 573.14
  L 459.40 568.23
  A 1.15 1.14 79.7 0 0 458.35 567.50
  Q 449.56 567.41 443.82 561.62
  A 0.47 0.46 -47.0 0 0 443.14 561.65
  Q 441.29 563.75 439.29 565.57
  Q 387.15 612.85 329.45 653.67
  C 302.21 672.94 272.22 692.21 241.90 705.38
  Q 236.62 707.67 230.72 709.33
  Q 229.87 709.57 230.45 710.24
  Q 234.54 714.88 234.55 720.89
  A 0.62 0.62 0.0 0 0 235.18 721.51
  Q 249.69 721.35 264.50 721.43
  C 275.24 721.49 285.71 722.48 295.91 726.21
  A 0.69 0.69 0.0 0 0 296.71 725.95
  C 309.62 707.32 335.38 702.59 355.74 708.35
  C 366.29 711.33 378.62 719.75 381.28 731.20
  Q 382.43 736.12 379.65 739.61
  Q 378.08 741.58 375.96 740.40
  Q 373.72 739.16 371.45 738.23
  Q 368.12 736.87 369.57 740.16
  C 371.51 744.58 371.39 749.91 367.92 753.54
  C 365.03 756.55 361.15 755.69 359.59 751.91
  Q 358.13 748.37 353.34 749.16
  Q 348.44 749.96 343.64 751.27
  C 335.53 753.48 326.80 753.17 318.87 750.49
  Q 317.95 750.17 318.52 750.97
  C 325.18 760.27 328.59 772.73 329.34 783.95
  Q 329.57 787.52 329.84 791.17
  Q 329.89 791.80 330.39 792.19
  C 342.44 801.53 351.54 812.16 360.26 824.30
  A 0.96 0.96 0.0 0 0 361.32 824.66
  Q 364.33 823.71 367.45 822.21
  C 371.69 820.17 373.75 816.34 375.87 812.44
  A 0.73 0.72 -61.8 0 0 375.58 811.46
  L 371.14 809.04
  A 1.04 1.03 -66.0 0 1 370.66 807.77
  Z
  M 544.54 617.47
  Q 562.14 591.60 573.80 570.79
  Q 574.64 569.27 574.70 567.73
  A 0.79 0.79 0.0 0 0 573.76 566.92
  Q 572.06 567.25 571.13 568.82
  Q 550.19 603.81 525.76 638.11
  A 1.86 1.84 -21.5 0 0 525.46 638.79
  Q 524.62 642.37 527.20 641.50
  A 1.69 1.67 -81.1 0 0 528.00 640.91
  Q 534.97 631.53 544.54 617.47
  Z
  M 493.51 578.48
  Q 504.89 611.30 519.02 641.44
  Q 519.28 642.00 519.89 641.84
  C 521.29 641.47 522.23 640.21 521.52 638.70
  C 512.43 619.37 504.51 599.02 497.13 578.64
  A 2.05 2.01 -80.0 0 0 496.56 577.81
  Q 495.34 576.74 494.30 577.01
  A 1.15 1.13 -17.1 0 0 493.51 578.48
  Z
  M 412.09 827.68
  Q 410.23 827.11 408.49 825.88
  A 0.71 0.71 0.0 0 0 407.44 826.15
  C 405.03 831.11 402.32 836.40 402.98 842.15
  Q 403.51 846.75 404.11 851.14
  Q 405.26 859.47 401.57 867.57
  A 0.36 0.36 0.0 0 0 401.90 868.08
  Q 539.93 868.05 678.25 868.11
  Q 689.88 868.11 700.65 867.89
  Q 701.28 867.88 700.91 867.37
  C 695.64 860.17 697.57 852.21 700.76 844.53
  Q 701.52 842.70 701.39 840.39
  Q 700.42 823.59 699.28 809.17
  C 698.64 801.14 692.74 795.03 686.68 789.55
  Q 686.23 789.14 685.79 789.56
  L 683.11 792.07
  Q 682.76 792.39 682.30 792.29
  Q 681.15 792.03 680.18 791.40
  Q 611.07 746.68 575.63 722.02
  C 561.93 712.49 551.17 702.30 542.91 687.42
  Q 532.32 668.36 523.44 648.36
  A 0.41 0.41 0.0 0 0 522.72 648.30
  Q 501.17 680.06 480.71 710.70
  C 479.12 713.07 477.58 715.52 476.38 718.08
  Q 457.63 757.97 431.27 799.02
  Q 422.10 813.31 413.23 827.26
  A 1.01 1.01 0.0 0 1 412.09 827.68
  Z
  M 140.20 730.53
  Q 140.40 734.01 137.29 735.71
  Q 124.86 742.51 111.17 739.05
  A 0.50 0.50 0.0 0 0 110.62 739.79
  C 115.61 747.90 126.20 750.95 135.33 750.42
  C 143.77 749.94 144.24 758.62 140.74 763.94
  C 137.22 769.29 135.66 774.84 136.14 781.47
  C 136.57 787.48 138.93 795.60 146.63 793.87
  C 151.74 792.72 154.26 789.13 157.03 785.16
  A 2.58 2.57 -71.3 0 1 159.25 784.06
  C 164.36 784.27 167.57 784.36 171.79 781.05
  C 173.73 779.52 174.77 777.03 176.08 774.97
  Q 176.37 774.52 176.83 774.28
  Q 178.30 773.51 179.97 773.19
  C 185.07 772.21 187.98 767.86 189.57 763.26
  A 3.48 3.45 -89.9 0 1 191.71 761.11
  C 194.26 760.21 197.21 759.17 199.19 757.44
  Q 206.84 750.77 204.38 740.14
  Q 203.70 737.21 201.76 734.71
  Q 201.29 734.12 201.42 733.38
  Q 202.03 729.91 205.49 730.75
  C 214.93 733.02 228.37 732.91 229.48 719.88
  C 229.75 716.79 227.81 714.05 225.82 711.94
  Q 211.55 696.74 191.96 680.26
  Q 183.92 673.51 174.39 671.37
  C 157.25 667.52 136.96 672.70 130.85 690.45
  C 129.98 692.98 129.63 695.75 129.40 698.41
  C 128.92 704.13 125.44 708.23 119.63 708.98
  Q 116.23 709.41 112.91 709.35
  A 0.99 0.98 -79.6 0 0 111.97 710.00
  C 110.42 714.18 106.30 716.86 102.95 719.62
  A 1.16 1.14 65.7 0 0 102.55 720.70
  C 103.37 725.76 105.96 732.69 111.35 734.31
  Q 119.70 736.81 128.12 733.45
  C 130.77 732.39 132.53 730.06 134.85 728.44
  C 136.87 727.03 140.05 727.70 140.20 730.53
  Z
  M 833.53 703.16
  A 2.52 2.47 25.0 0 1 833.86 704.04
  C 835.64 715.33 837.35 726.91 840.16 737.88
  C 841.28 742.26 844.06 744.05 848.56 743.12
  Q 856.78 741.43 862.34 734.10
  C 866.58 728.52 871.87 718.66 867.81 712.01
  Q 865.88 708.85 862.81 705.70
  C 851.41 694.03 830.33 679.51 813.51 687.08
  Q 805.96 690.48 802.75 697.88
  C 799.18 706.14 795.48 707.88 786.21 707.25
  Q 785.70 707.21 785.38 707.62
  Q 782.04 711.87 776.44 714.65
  Q 774.99 715.37 775.02 716.95
  C 775.10 720.96 775.93 727.12 779.93 729.18
  Q 787.49 733.07 797.20 730.55
  C 800.06 729.80 802.59 727.95 805.21 726.55
  C 807.46 725.34 810.92 727.67 809.94 730.09
  C 808.76 733.02 804.20 734.72 801.21 735.50
  Q 790.53 738.29 780.22 734.20
  Q 779.32 733.85 779.72 734.72
  C 782.85 741.62 793.20 746.05 800.15 747.34
  Q 803.98 748.05 807.38 748.76
  C 815.87 750.54 815.93 761.50 813.43 767.98
  Q 811.36 773.36 809.46 778.64
  Q 801.81 799.82 813.11 819.01
  C 818.85 828.75 829.55 836.54 841.25 837.24
  Q 842.92 837.34 841.71 836.17
  Q 832.44 827.28 827.31 815.53
  Q 825.88 812.26 825.35 809.08
  A 2.01 2.01 0.0 0 1 827.25 806.74
  Q 828.65 806.68 829.13 808.06
  C 833.56 820.85 842.91 832.90 853.96 840.84
  Q 858.17 843.85 862.48 846.89
  Q 865.66 849.12 867.19 852.56
  Q 869.35 857.38 872.05 861.84
  Q 874.96 866.65 880.43 866.74
  C 883.04 866.78 887.84 867.57 889.73 865.51
  C 893.15 861.77 891.40 856.87 889.39 852.92
  Q 882.28 838.93 873.88 825.60
  A 1.86 1.84 -40.9 0 1 874.05 823.39
  Q 874.19 823.22 874.39 823.12
  Q 875.82 822.34 876.75 823.67
  Q 881.24 830.11 885.07 836.79
  A 0.81 0.80 49.5 0 0 886.39 836.90
  C 894.19 827.29 893.89 815.63 890.65 803.78
  A 2.16 2.15 75.1 0 1 892.18 801.13
  C 897.27 799.81 901.73 796.69 904.25 792.44
  C 906.02 789.46 906.17 786.06 906.44 782.70
  A 1.96 1.95 84.7 0 1 907.87 780.97
  Q 929.13 775.23 927.68 753.05
  C 927.23 746.08 922.22 734.86 913.49 735.58
  C 910.32 735.84 909.03 737.95 907.64 740.41
  C 906.68 742.12 904.68 742.30 903.30 740.98
  C 901.48 739.24 899.51 737.41 896.76 737.75
  C 889.22 738.66 883.42 745.20 881.81 752.35
  C 878.84 765.49 887.08 775.84 899.01 780.09
  A 2.54 2.53 12.5 0 1 900.69 782.72
  C 900.07 789.06 895.60 793.22 890.21 796.21
  C 888.62 797.09 887.01 796.37 886.05 794.98
  Q 881.70 788.73 876.17 784.27
  C 871.24 780.28 865.72 777.05 861.30 772.69
  Q 851.85 763.35 848.98 748.61
  A 0.69 0.69 0.0 0 0 848.25 748.06
  Q 837.75 748.95 835.40 738.46
  Q 831.86 722.66 830.28 703.78
  Q 830.15 702.24 831.37 701.47
  Q 832.16 700.97 833.53 703.16
  Z
  M 176.37 806.36
  Q 177.96 807.36 177.05 809.00
  Q 165.76 829.23 155.29 845.84
  Q 153.45 848.77 151.01 849.64
  C 145.84 851.47 140.67 852.08 138.67 858.03
  C 137.39 861.85 138.72 866.76 143.68 866.86
  Q 152.83 867.06 161.59 866.72
  C 162.70 866.67 163.52 866.19 164.42 865.59
  Q 183.90 852.60 201.16 835.44
  Q 210.46 826.18 217.70 814.81
  Q 218.82 813.06 220.74 813.85
  Q 221.04 813.98 221.18 814.25
  Q 222.12 816.14 220.69 818.30
  Q 217.09 823.76 212.70 829.61
  A 0.46 0.45 -72.1 0 0 213.07 830.34
  Q 245.72 829.64 276.44 815.11
  C 277.88 814.43 279.23 814.88 280.36 815.86
  C 292.37 826.28 305.02 830.48 320.12 828.86
  C 325.88 828.25 331.17 829.05 336.63 830.79
  Q 339.37 831.67 342.36 830.80
  Q 349.06 828.87 355.11 827.15
  Q 355.76 826.97 355.38 826.42
  Q 342.59 807.69 326.22 795.38
  C 325.31 794.70 324.72 793.69 324.71 792.52
  C 324.62 772.45 319.18 754.21 304.35 740.77
  A 1.11 1.10 -65.1 0 1 304.00 739.80
  Q 304.09 739.09 304.56 738.77
  Q 305.84 737.87 307.08 738.83
  C 317.63 747.01 329.52 749.91 342.28 746.72
  C 349.61 744.89 358.82 741.30 363.82 749.12
  Q 364.78 750.62 365.33 748.92
  Q 365.89 747.20 365.90 745.48
  Q 365.92 743.02 364.25 741.22
  L 361.87 738.65
  Q 361.37 738.11 361.46 737.37
  Q 361.75 734.95 364.03 734.46
  Q 369.75 733.24 375.87 734.48
  A 0.64 0.64 0.0 0 0 376.63 733.75
  C 374.92 723.01 363.94 715.63 354.05 712.83
  C 336.23 707.78 316.53 711.47 303.44 725.19
  C 301.79 726.91 300.76 728.99 299.46 730.97
  A 1.45 1.41 8.8 0 1 298.62 731.57
  Q 297.23 731.95 295.83 731.42
  C 284.59 727.14 274.16 726.12 261.37 726.21
  Q 247.48 726.29 233.64 726.26
  Q 232.91 726.26 232.59 726.91
  C 228.22 735.55 217.96 737.89 208.82 736.02
  A 0.46 0.46 0.0 0 0 208.29 736.61
  C 212.35 748.70 207.64 760.71 195.12 764.80
  Q 193.72 765.26 193.16 766.62
  Q 190.44 773.22 184.49 776.19
  C 183.06 776.91 181.54 777.22 180.05 777.75
  Q 179.47 777.96 179.14 778.48
  Q 178.29 779.81 177.42 781.21
  C 174.02 786.70 167.26 789.10 160.89 788.54
  A 1.08 1.07 -68.4 0 0 159.95 788.95
  C 156.31 793.59 153.70 796.73 147.70 798.20
  A 1.01 1.00 81.2 0 0 146.94 799.25
  Q 147.14 802.01 148.16 804.82
  Q 152.49 816.75 163.45 823.17
  Q 163.94 823.45 164.23 822.97
  L 174.11 806.67
  A 1.37 1.36 -69.0 0 1 175.52 806.04
  Q 175.98 806.13 176.37 806.36
  Z
  M 729.59 796.47
  A 1.37 1.36 -48.9 0 1 729.63 797.08
  Q 726.97 812.90 722.64 831.34
  Q 721.25 837.26 719.22 842.39
  C 718.43 844.37 716.50 845.78 714.32 845.68
  Q 711.00 845.54 707.68 845.73
  Q 706.32 845.81 705.58 846.99
  C 702.12 852.54 700.17 864.43 709.20 866.08
  C 711.10 866.43 713.46 866.79 715.23 865.80
  C 723.62 861.12 729.40 850.91 732.86 842.31
  Q 741.96 819.71 746.80 794.12
  C 747.11 792.46 746.90 791.09 745.79 789.75
  C 740.54 783.36 732.16 782.94 724.65 781.69
  C 717.81 780.56 710.49 773.15 705.72 768.18
  A 0.81 0.81 0.0 0 0 704.52 768.21
  L 689.97 784.99
  Q 689.67 785.34 689.98 785.67
  C 697.44 793.49 703.97 798.92 704.31 810.42
  A 0.38 0.38 0.0 0 0 704.90 810.73
  Q 713.89 804.88 723.84 807.93
  A 0.40 0.39 -77.2 0 0 724.34 807.61
  Q 725.13 802.19 726.22 796.97
  Q 726.60 795.16 728.34 794.75
  Q 729.07 794.58 729.59 796.47
  Z
  M 705.03 815.21
  A 0.88 0.86 68.8 0 0 704.72 815.94
  L 705.33 824.51
  A 0.76 0.75 76.2 0 0 706.38 825.15
  Q 713.06 822.28 719.67 824.54
  A 0.75 0.74 15.7 0 0 720.64 824.00
  L 723.15 812.82
  A 1.15 1.14 -72.8 0 0 722.46 811.50
  C 716.66 809.18 709.80 811.39 705.03 815.21
  Z
  M 386.90 849.32
  A 1.30 1.29 22.5 0 1 385.88 849.74
  Q 369.37 849.16 352.86 848.04
  Q 346.12 847.59 342.04 846.16
  C 338.35 844.88 336.40 840.42 334.77 837.08
  C 333.45 834.40 328.46 834.98 326.00 835.26
  Q 320.01 835.93 318.24 842.00
  Q 316.96 846.41 320.96 848.16
  C 328.19 851.31 335.47 854.37 342.87 856.67
  Q 351.81 859.44 360.93 862.14
  C 372.19 865.48 384.25 866.28 395.61 866.22
  A 1.73 1.72 -78.9 0 0 397.21 865.14
  C 399.99 858.41 399.45 851.86 398.18 844.85
  C 396.89 837.75 399.59 830.65 402.95 824.48
  Q 403.28 823.87 402.65 823.60
  L 381.69 814.48
  A 0.55 0.55 0.0 0 0 381.03 814.66
  C 378.73 817.80 376.69 821.41 373.64 823.94
  Q 369.41 827.46 363.82 828.70
  A 0.45 0.44 57.2 0 0 363.65 829.49
  Q 370.18 834.39 371.42 845.04
  A 0.79 0.79 0.0 0 0 372.18 845.74
  L 384.93 846.16
  Q 386.63 846.22 387.30 847.79
  Q 387.61 848.54 386.90 849.32
  Z
  M 283.97 849.50
  C 280.47 853.35 274.53 856.48 277.74 862.69
  C 280.18 867.42 286.42 867.44 290.64 865.77
  C 304.61 860.28 307.70 848.59 305.42 834.33
  A 0.75 0.75 0.0 0 0 304.82 833.71
  Q 290.64 831.00 279.37 821.54
  Q 277.59 820.05 278.36 822.24
  Q 282.00 832.53 284.68 841.70
  C 285.40 844.20 285.91 847.38 283.97 849.50
  Z
  M 273.98 823.28
  A 1.02 1.01 -19.6 0 0 272.62 822.64
  C 252.86 830.73 230.71 835.99 209.58 835.08
  C 207.31 834.98 205.12 836.58 206.35 839.07
  C 210.04 846.54 216.79 860.62 209.28 867.51
  Q 208.72 868.03 209.48 868.03
  L 274.80 868.02
  Q 275.66 868.02 275.12 867.34
  C 270.79 861.96 271.11 855.00 276.30 850.34
  Q 278.04 848.78 279.75 847.11
  Q 280.10 846.77 280.16 846.29
  Q 280.37 844.57 279.85 842.81
  Q 276.95 833.03 273.98 823.28
  Z
  M 718.46 827.77
  Q 712.16 826.18 706.22 829.05
  A 0.92 0.92 0.0 0 0 705.71 829.96
  L 706.71 841.76
  Q 706.75 842.27 707.26 842.24
  L 714.22 841.83
  A 1.85 1.85 0.0 0 0 715.84 840.65
  Q 718.24 834.57 719.45 828.88
  A 0.84 0.83 18.5 0 0 718.98 827.95
  Q 718.73 827.84 718.46 827.77
  Z
  M 809.28 848.64
  C 808.23 851.67 805.37 853.03 802.33 853.50
  C 797.52 854.24 794.30 857.96 794.68 862.99
  C 794.98 866.86 797.55 866.99 800.71 867.02
  Q 810.05 867.12 819.19 866.88
  C 821.44 866.83 823.11 864.20 824.07 862.45
  Q 829.08 853.36 834.10 841.70
  Q 834.38 841.05 833.70 840.85
  Q 822.09 837.43 815.13 829.43
  A 0.25 0.25 0.0 0 0 814.69 829.54
  Q 812.71 838.73 809.28 848.64
  Z
  M 349.16 833.97
  C 352.24 836.45 354.14 840.10 354.81 843.99
  A 1.02 1.02 0.0 0 0 355.77 844.85
  L 366.97 845.49
  A 0.70 0.69 -1.7 0 0 367.70 844.72
  Q 366.87 836.38 360.15 831.31
  Q 359.71 830.98 359.16 831.05
  Q 354.22 831.70 349.27 833.34
  Q 348.63 833.55 349.16 833.97
  Z
  M 313.04 847.79
  Q 312.57 843.05 314.69 837.68
  C 315.21 836.37 316.20 835.49 317.13 834.50
  Q 317.66 833.94 316.89 833.97
  L 311.19 834.19
  A 0.71 0.70 85.2 0 0 310.52 834.99
  C 312.26 847.90 310.14 859.86 298.94 866.86
  Q 297.19 867.96 299.26 867.96
  L 337.41 867.97
  A 0.24 0.24 0.0 0 0 337.59 867.57
  Q 335.14 864.82 334.58 861.27
  A 1.13 1.12 5.9 0 0 333.86 860.39
  Q 325.01 857.15 317.48 853.43
  Q 313.39 851.41 313.04 847.79
  Z
  M 338.57 836.00
  A 0.43 0.43 0.0 0 0 338.19 836.58
  Q 339.19 839.19 340.87 841.32
  C 342.94 843.92 347.63 844.24 350.69 844.28
  Q 351.35 844.29 351.13 843.66
  Q 349.66 839.41 346.74 836.12
  A 1.60 1.59 67.0 0 0 345.45 835.59
  L 338.57 836.00
  Z
  M 186.82 854.79
  A 0.61 0.60 52.7 0 0 186.71 855.62
  C 190.19 860.56 199.89 871.83 206.35 863.87
  C 210.43 858.84 204.52 846.77 202.15 841.69
  A 0.41 0.41 0.0 0 0 201.48 841.58
  Q 194.56 848.54 186.82 854.79
  Z
  M 858.90 850.99
  A 0.39 0.39 0.0 0 0 858.94 850.32
  L 848.86 843.08
  A 1.22 1.13 63.1 0 0 848.32 842.88
  L 839.12 842.13
  Q 838.56 842.09 838.35 842.61
  Q 833.10 855.98 825.95 867.49
  Q 825.65 867.97 826.22 867.97
  L 852.05 868.00
  A 0.41 0.40 73.8 0 0 852.39 867.37
  C 849.72 863.26 850.69 857.53 854.34 854.19
  Q 856.36 852.34 858.90 850.99
  Z
  M 870.56 867.25
  C 867.41 864.17 865.16 859.45 863.43 855.22
  A 0.90 0.89 -23.3 0 0 862.22 854.74
  C 857.95 856.71 853.27 860.53 857.19 865.68
  Q 858.58 867.51 860.73 867.69
  Q 865.14 868.06 870.28 867.96
  Q 871.25 867.94 870.56 867.25
  Z
  M 182.96 858.76
  A 0.52 0.51 54.8 0 0 182.24 858.63
  L 169.88 867.50
  Q 169.09 868.07 170.07 868.07
  L 191.02 868.12
  A 0.30 0.30 0.0 0 0 191.21 867.58
  Q 186.41 863.72 182.96 858.76
  Z
  M 349.25 864.82
  L 339.98 861.95
  A 0.10 0.10 0.0 0 0 339.86 862.02
  L 339.85 862.04
  A 4.82 2.75 17.2 0 0 343.64 866.10
  L 343.89 866.17
  A 4.82 2.75 17.2 0 0 349.31 864.97
  L 349.31 864.94
  A 0.10 0.10 0.0 0 0 349.25 864.82
  Z
  M 359.8284 867.8707
  A 1.92 0.51 6.3 0 0 357.9760 867.1531
  A 1.92 0.51 6.3 0 0 356.0116 867.4493
  A 1.92 0.51 6.3 0 0 357.8640 868.1669
  A 1.92 0.51 6.3 0 0 359.8284 867.8707
  Z"
/>
<path fill="#feffff" d="
  M 478.33 268.64
  Q 479.65 269.58 480.80 268.43
  C 484.82 264.38 486.45 259.11 493.60 260.89
  Q 497.81 261.94 499.94 266.03
  Q 503.04 271.97 500.32 277.98
  Q 497.01 285.30 489.29 285.86
  C 487.56 285.99 486.28 287.60 486.95 289.32
  Q 491.93 302.19 500.02 312.53
  A 0.64 0.64 0.0 0 1 499.63 313.56
  Q 491.64 314.98 483.89 317.24
  Q 481.83 317.84 480.49 316.25
  A 1.72 1.71 -24.9 0 0 478.86 315.66
  C 473.47 316.63 468.14 317.82 462.55 317.83
  Q 441.46 317.87 429.98 298.65
  A 0.51 0.51 0.0 0 1 430.41 297.88
  C 437.64 297.70 444.41 295.36 449.43 290.36
  Q 451.80 288.00 449.39 285.69
  L 449.00 285.32
  Q 447.33 283.71 445.57 285.22
  C 443.35 287.12 441.64 289.46 438.98 290.81
  C 436.47 292.09 427.93 294.80 426.37 291.20
  Q 423.33 284.16 422.67 277.69
  A 1.62 1.61 73.7 0 1 423.54 276.09
  C 433.28 271.02 431.38 260.03 429.73 251.19
  A 0.38 0.38 0.0 0 1 430.26 250.77
  Q 435.07 252.92 440.01 254.05
  C 443.16 254.77 445.08 250.83 442.91 248.59
  C 435.80 241.20 431.80 233.30 433.95 222.96
  Q 434.85 218.61 435.18 223.04
  Q 436.25 237.30 447.69 249.86
  C 448.83 251.12 451.29 254.18 453.48 255.07
  Q 460.48 257.90 472.97 260.85
  Q 473.56 260.99 473.84 261.52
  C 475.01 263.70 476.37 267.24 478.33 268.64
  Z
  M 445.6179 272.6053
  A 5.68 4.69 80.7 0 0 449.3284 266.2421
  A 5.68 4.69 80.7 0 0 443.7821 261.3947
  A 5.68 4.69 80.7 0 0 440.0716 267.7579
  A 5.68 4.69 80.7 0 0 445.6179 272.6053
  Z"
/>
<ellipse fill="#080709" cx="0.00" cy="0.00" transform="translate(444.70,267.00) rotate(80.7)" rx="5.68" ry="4.69"/>
<path fill="#feffff" d="
  M 653.67 327.54
  C 649.91 314.46 638.98 304.39 628.14 296.01
  Q 625.42 293.90 628.60 295.21
  C 639.47 299.67 650.84 308.42 655.23 319.49
  C 657.11 324.23 657.81 332.29 655.21 337.46
  Q 654.74 338.40 654.76 337.35
  Q 654.89 331.80 653.67 327.54
  Z"
/>
<path fill="#feffff" d="
  M 503.71 406.39
  Q 504.08 408.02 504.67 410.41
  Q 508.37 425.41 512.88 439.71
  Q 513.96 443.15 511.87 446.23
  Q 507.41 452.76 502.46 459.21
  A 0.45 0.45 0.0 0 1 501.80 459.27
  Q 496.34 454.13 490.04 448.59
  Q 485.67 444.75 481.64 448.65
  C 476.14 453.97 478.58 458.84 483.15 463.61
  Q 487.59 468.25 491.87 472.35
  A 0.69 0.68 41.5 0 1 491.93 473.28
  Q 481.43 486.48 473.06 498.73
  C 469.95 503.28 470.99 508.01 473.89 512.24
  A 0.42 0.42 0.0 0 1 473.70 512.87
  Q 468.90 514.68 464.67 517.74
  A 0.39 0.39 0.0 0 1 464.05 517.44
  C 463.15 490.69 463.33 461.43 464.90 427.48
  Q 466.34 396.23 470.73 369.62
  Q 471.04 367.75 469.37 366.87
  Q 468.09 366.19 466.32 368.46
  A 2.31 2.24 69.1 0 0 465.86 369.53
  Q 462.88 388.50 461.64 403.11
  Q 456.75 460.72 459.05 521.48
  Q 459.08 522.15 458.67 522.67
  C 453.01 529.94 449.41 535.74 450.91 545.06
  Q 450.98 545.47 450.64 545.73
  L 447.30 548.29
  Q 447.11 548.44 447.10 548.20
  Q 446.47 504.05 448.65 467.93
  Q 450.41 438.96 454.50 405.57
  Q 458.02 376.83 464.19 353.91
  C 465.31 349.76 466.92 345.46 469.53 341.95
  Q 471.43 339.40 473.06 336.92
  A 3.64 3.59 -37.9 0 0 473.47 333.80
  L 471.52 327.98
  A 1.76 1.76 0.0 0 1 472.49 325.80
  Q 476.61 324.02 480.66 322.98
  C 488.32 320.99 495.89 319.15 503.79 317.95
  A 1.36 1.34 63.7 0 1 504.98 318.36
  Q 515.76 329.86 529.83 339.54
  Q 530.65 340.11 529.68 340.33
  C 507.31 345.37 502.00 372.02 503.25 391.10
  A 2.02 2.00 -86.4 0 0 504.85 392.93
  Q 505.36 393.03 505.82 392.77
  A 1.31 1.30 -16.4 0 0 506.48 391.57
  Q 505.66 374.32 510.13 362.98
  C 514.01 353.12 521.77 344.20 532.75 343.54
  A 2.64 2.62 -27.0 0 1 534.56 344.12
  Q 540.46 348.96 545.50 354.77
  Q 564.46 376.65 573.60 403.89
  C 580.19 423.50 583.03 444.41 575.60 463.51
  Q 570.28 477.19 560.88 490.23
  Q 541.70 516.86 514.71 539.64
  C 511.98 541.95 508.47 539.91 506.08 537.99
  Q 490.57 525.59 478.79 510.42
  C 476.93 508.02 475.02 504.68 476.96 501.65
  C 478.86 498.68 480.88 495.45 483.06 492.69
  Q 500.50 470.63 515.08 450.05
  Q 516.58 447.94 517.79 445.42
  C 518.85 443.22 518.47 440.98 517.76 438.78
  Q 511.74 419.97 507.00 401.11
  A 1.53 1.53 0.0 0 0 505.63 399.96
  Q 502.22 399.72 503.71 406.39
  Z
  M 475.5189 349.6118
  A 2.22 2.22 0.0 0 0 474.0353 346.8449
  L 473.6141 346.7177
  A 2.22 2.22 0.0 0 0 470.8472 348.2013
  L 468.3211 356.5682
  A 2.22 2.22 0.0 0 0 469.8047 359.3351
  L 470.2259 359.4623
  A 2.22 2.22 0.0 0 0 472.9928 357.9787
  L 475.5189 349.6118
  Z"
/>
<rect fill="#080709" x="-2.44" y="-6.59" transform="translate(471.92,353.09) rotate(16.8)" width="4.88" height="13.18" rx="2.22"/>
<path fill="#feffff" d="
  M 580.19 411.56
  Q 576.41 400.28 581.45 411.06
  Q 600.69 452.20 613.83 496.39
  Q 618.88 513.38 621.13 526.11
  C 623.18 537.70 617.34 543.21 607.97 547.76
  Q 593.85 554.61 578.75 558.99
  Q 542.88 569.38 505.51 572.30
  Q 501.77 572.59 497.63 572.56
  A 0.84 0.84 0.0 0 1 496.84 571.97
  Q 493.32 560.54 488.61 548.83
  Q 488.47 548.48 488.70 548.18
  Q 492.77 543.00 496.12 537.21
  A 0.67 0.67 0.0 0 1 497.15 537.05
  C 501.89 541.36 509.14 548.28 515.44 544.86
  Q 518.04 543.46 521.25 540.64
  Q 543.77 520.89 559.95 499.74
  C 574.64 480.55 586.23 459.78 584.76 435.94
  Q 583.95 422.76 580.19 411.56
  Z"
/>
<path fill="#feffff" d="
  M 494.33 469.36
  A 0.27 0.27 0.0 0 1 493.95 469.36
  L 483.92 459.61
  A 5.82 3.37 44.2 0 1 482.09 453.13
  L 483.75 451.43
  A 5.82 3.37 44.2 0 1 490.27 453.07
  L 500.30 462.82
  A 0.27 0.27 0.0 0 1 500.31 463.20
  L 494.33 469.36
  Z"
/>
<path fill="#feffff" d="
  M 443.69 469.08
  C 442.63 487.62 441.91 506.15 441.96 524.57
  A 0.53 0.52 19.2 0 1 441.10 524.98
  Q 431.01 516.82 421.85 508.25
  A 2.37 2.35 26.6 0 1 421.14 506.14
  Q 421.46 504.28 422.62 502.41
  Q 431.94 487.30 441.79 471.16
  C 442.28 470.37 442.58 469.50 443.34 468.90
  A 0.22 0.22 0.0 0 1 443.69 469.08
  Z"
/>
<path fill="#feffff" d="
  M 460.61 538.61
  A 0.91 0.91 0.0 0 0 459.40 538.57
  Q 458.03 539.74 456.95 541.17
  Q 455.22 543.47 455.08 540.60
  C 454.87 536.34 457.24 532.52 459.71 529.18
  Q 466.51 519.97 476.85 516.90
  A 1.21 1.21 0.0 0 1 478.15 517.31
  Q 484.80 525.60 492.85 533.05
  A 0.75 0.74 38.2 0 1 492.97 534.00
  C 488.88 540.27 484.69 546.97 479.11 551.81
  C 477.09 553.57 471.93 556.09 471.68 551.10
  Q 471.64 550.32 470.90 550.06
  Q 469.77 549.67 468.49 549.85
  Q 467.98 549.92 467.62 549.54
  Q 465.83 547.59 464.66 545.16
  C 464.15 544.11 463.25 543.52 462.07 543.57
  A 0.83 0.83 0.0 0 1 461.25 542.44
  Q 462.16 540.09 460.61 538.61
  Z"
/>
<path fill="#feffff" d="
  M 430.17 528.57
  A 1.05 1.05 0.0 0 0 428.85 528.98
  Q 423.34 537.99 415.03 537.78
  C 413.20 537.73 411.39 538.78 410.05 539.99
  Q 406.05 543.59 401.17 545.44
  A 1.03 1.03 0.0 0 1 399.78 544.57
  Q 399.70 543.72 400.14 542.98
  Q 403.09 538.02 405.63 533.33
  C 409.71 525.81 416.85 521.93 423.97 517.74
  A 1.04 1.04 0.0 0 1 425.21 517.87
  Q 432.22 524.41 440.27 530.51
  Q 440.68 530.83 440.75 531.34
  Q 440.89 532.47 440.58 533.57
  Q 437.97 542.65 432.09 549.67
  A 0.49 0.48 51.5 0 1 431.28 549.57
  Q 430.34 547.67 429.24 545.90
  Q 428.27 544.34 426.90 543.67
  Q 424.25 542.40 422.10 541.39
  A 0.42 0.42 0.0 0 1 422.10 540.63
  Q 427.58 538.16 431.07 531.38
  Q 431.75 530.04 430.71 528.95
  Q 430.48 528.71 430.17 528.57
  Z"
/>
<path fill="#feffff" d="
  M 417.55 542.13
  Q 413.06 549.48 408.52 556.02
  C 405.58 560.25 400.01 553.02 404.88 549.10
  Q 408.90 545.85 412.67 542.59
  C 413.95 541.49 415.75 541.29 417.34 541.64
  A 0.33 0.32 -68.7 0 1 417.55 542.13
  Z"
/>
<path fill="#feffff" d="
  M 411.11 559.22
  A 1.25 1.25 0.0 0 1 410.73 557.49
  L 416.34 548.73
  A 6.01 1.67 -57.4 0 1 420.98 544.57
  L 422.83 545.75
  A 6.01 1.67 -57.4 0 1 421.00 551.72
  L 415.40 560.48
  A 1.25 1.25 0.0 0 1 413.67 560.86
  L 411.11 559.22
  Z"
/>
<path fill="#feffff" d="
  M 426.01 548.57
  A 0.03 0.03 0.0 0 1 426.06 548.55
  L 426.08 548.57
  A 5.07 4.62 -59.6 0 1 427.50 555.28
  L 424.66 560.13
  A 5.07 4.62 -59.6 0 1 418.11 562.16
  L 418.08 562.15
  A 0.03 0.03 0.0 0 1 418.07 562.11
  L 426.01 548.57
  Z"
/>
<path fill="#feffff" d="
  M 456.41 549.21
  A 0.31 0.26 16.2 0 1 456.59 549.13
  C 457.62 549.07 458.19 550.11 458.20 551.02
  Q 458.29 556.54 458.56 561.86
  A 0.63 0.63 0.0 0 1 457.87 562.51
  Q 452.55 561.94 448.35 558.55
  A 0.98 0.98 0.0 0 1 448.32 557.05
  Q 452.74 553.13 456.41 549.21
  Z"
/>
<path fill="#feffff" d="
  M 464.18 552.79
  Q 467.24 555.09 470.07 557.12
  C 474.23 560.10 479.87 557.44 483.02 554.05
  Q 483.59 553.44 483.88 554.22
  L 490.66 572.42
  A 0.52 0.52 0.0 0 1 490.19 573.12
  Q 482.14 573.39 474.79 572.86
  Q 466.12 572.25 464.14 565.18
  Q 462.98 561.04 463.22 553.25
  Q 463.26 552.10 464.18 552.79
  Z"
/>
<path fill="#feffff" d="
  M 370.66 807.77
  A 1.04 1.03 -66.0 0 0 371.14 809.04
  L 375.58 811.46
  A 0.73 0.72 -61.8 0 1 375.87 812.44
  C 373.75 816.34 371.69 820.17 367.45 822.21
  Q 364.33 823.71 361.32 824.66
  A 0.96 0.96 0.0 0 1 360.26 824.30
  C 351.54 812.16 342.44 801.53 330.39 792.19
  Q 329.89 791.80 329.84 791.17
  Q 329.57 787.52 329.34 783.95
  C 328.59 772.73 325.18 760.27 318.52 750.97
  Q 317.95 750.17 318.87 750.49
  C 326.80 753.17 335.53 753.48 343.64 751.27
  Q 348.44 749.96 353.34 749.16
  Q 358.13 748.37 359.59 751.91
  C 361.15 755.69 365.03 756.55 367.92 753.54
  C 371.39 749.91 371.51 744.58 369.57 740.16
  Q 368.12 736.87 371.45 738.23
  Q 373.72 739.16 375.96 740.40
  Q 378.08 741.58 379.65 739.61
  Q 382.43 736.12 381.28 731.20
  C 378.62 719.75 366.29 711.33 355.74 708.35
  C 335.38 702.59 309.62 707.32 296.71 725.95
  A 0.69 0.69 0.0 0 1 295.91 726.21
  C 285.71 722.48 275.24 721.49 264.50 721.43
  Q 249.69 721.35 235.18 721.51
  A 0.62 0.62 0.0 0 1 234.55 720.89
  Q 234.54 714.88 230.45 710.24
  Q 229.87 709.57 230.72 709.33
  Q 236.62 707.67 241.90 705.38
  C 272.22 692.21 302.21 672.94 329.45 653.67
  Q 387.15 612.85 439.29 565.57
  Q 441.29 563.75 443.14 561.65
  A 0.47 0.46 -47.0 0 1 443.82 561.62
  Q 449.56 567.41 458.35 567.50
  A 1.15 1.14 79.7 0 1 459.40 568.23
  L 461.25 573.14
  Q 461.47 573.71 461.20 574.25
  Q 458.43 579.97 454.13 590.34
  Q 436.42 633.11 420.89 675.87
  Q 417.30 685.75 413.78 694.56
  Q 391.83 749.47 370.66 807.77
  Z"
/>
<path fill="#feffff" d="
  M 544.54 617.47
  Q 534.97 631.53 528.00 640.91
  A 1.69 1.67 -81.1 0 1 527.20 641.50
  Q 524.62 642.37 525.46 638.79
  A 1.86 1.84 -21.5 0 1 525.76 638.11
  Q 550.19 603.81 571.13 568.82
  Q 572.06 567.25 573.76 566.92
  A 0.79 0.79 0.0 0 1 574.70 567.73
  Q 574.64 569.27 573.80 570.79
  Q 562.14 591.60 544.54 617.47
  Z"
/>
<path fill="#feffff" d="
  M 493.51 578.48
  A 1.15 1.13 -17.1 0 1 494.30 577.01
  Q 495.34 576.74 496.56 577.81
  A 2.05 2.01 -80.0 0 1 497.13 578.64
  C 504.51 599.02 512.43 619.37 521.52 638.70
  C 522.23 640.21 521.29 641.47 519.89 641.84
  Q 519.28 642.00 519.02 641.44
  Q 504.89 611.30 493.51 578.48
  Z"
/>
<path fill="#feffff" d="
  M 412.09 827.68
  A 1.01 1.01 0.0 0 0 413.23 827.26
  Q 422.10 813.31 431.27 799.02
  Q 457.63 757.97 476.38 718.08
  C 477.58 715.52 479.12 713.07 480.71 710.70
  Q 501.17 680.06 522.72 648.30
  A 0.41 0.41 0.0 0 1 523.44 648.36
  Q 532.32 668.36 542.91 687.42
  C 551.17 702.30 561.93 712.49 575.63 722.02
  Q 611.07 746.68 680.18 791.40
  Q 681.15 792.03 682.30 792.29
  Q 682.76 792.39 683.11 792.07
  L 685.79 789.56
  Q 686.23 789.14 686.68 789.55
  C 692.74 795.03 698.64 801.14 699.28 809.17
  Q 700.42 823.59 701.39 840.39
  Q 701.52 842.70 700.76 844.53
  C 697.57 852.21 695.64 860.17 700.91 867.37
  Q 701.28 867.88 700.65 867.89
  Q 689.88 868.11 678.25 868.11
  Q 539.93 868.05 401.90 868.08
  A 0.36 0.36 0.0 0 1 401.57 867.57
  Q 405.26 859.47 404.11 851.14
  Q 403.51 846.75 402.98 842.15
  C 402.32 836.40 405.03 831.11 407.44 826.15
  A 0.71 0.71 0.0 0 1 408.49 825.88
  Q 410.23 827.11 412.09 827.68
  Z"
/>
<path fill="#feffff" d="
  M 140.20 730.53
  C 140.05 727.70 136.87 727.03 134.85 728.44
  C 132.53 730.06 130.77 732.39 128.12 733.45
  Q 119.70 736.81 111.35 734.31
  C 105.96 732.69 103.37 725.76 102.55 720.70
  A 1.16 1.14 65.7 0 1 102.95 719.62
  C 106.30 716.86 110.42 714.18 111.97 710.00
  A 0.99 0.98 -79.6 0 1 112.91 709.35
  Q 116.23 709.41 119.63 708.98
  C 125.44 708.23 128.92 704.13 129.40 698.41
  C 129.63 695.75 129.98 692.98 130.85 690.45
  C 136.96 672.70 157.25 667.52 174.39 671.37
  Q 183.92 673.51 191.96 680.26
  Q 211.55 696.74 225.82 711.94
  C 227.81 714.05 229.75 716.79 229.48 719.88
  C 228.37 732.91 214.93 733.02 205.49 730.75
  Q 202.03 729.91 201.42 733.38
  Q 201.29 734.12 201.76 734.71
  Q 203.70 737.21 204.38 740.14
  Q 206.84 750.77 199.19 757.44
  C 197.21 759.17 194.26 760.21 191.71 761.11
  A 3.48 3.45 -89.9 0 0 189.57 763.26
  C 187.98 767.86 185.07 772.21 179.97 773.19
  Q 178.30 773.51 176.83 774.28
  Q 176.37 774.52 176.08 774.97
  C 174.77 777.03 173.73 779.52 171.79 781.05
  C 167.57 784.36 164.36 784.27 159.25 784.06
  A 2.58 2.57 -71.3 0 0 157.03 785.16
  C 154.26 789.13 151.74 792.72 146.63 793.87
  C 138.93 795.60 136.57 787.48 136.14 781.47
  C 135.66 774.84 137.22 769.29 140.74 763.94
  C 144.24 758.62 143.77 749.94 135.33 750.42
  C 126.20 750.95 115.61 747.90 110.62 739.79
  A 0.50 0.50 0.0 0 1 111.17 739.05
  Q 124.86 742.51 137.29 735.71
  Q 140.40 734.01 140.20 730.53
  Z
  M 143.0026 710.4597
  A 5.24 4.48 81.3 0 0 146.6385 704.6024
  A 5.24 4.48 81.3 0 0 141.4174 700.1003
  A 5.24 4.48 81.3 0 0 137.7815 705.9576
  A 5.24 4.48 81.3 0 0 143.0026 710.4597
  Z"
/>
<path fill="#feffff" d="
  M 833.53 703.16
  Q 832.16 700.97 831.37 701.47
  Q 830.15 702.24 830.28 703.78
  Q 831.86 722.66 835.40 738.46
  Q 837.75 748.95 848.25 748.06
  A 0.69 0.69 0.0 0 1 848.98 748.61
  Q 851.85 763.35 861.30 772.69
  C 865.72 777.05 871.24 780.28 876.17 784.27
  Q 881.70 788.73 886.05 794.98
  C 887.01 796.37 888.62 797.09 890.21 796.21
  C 895.60 793.22 900.07 789.06 900.69 782.72
  A 2.54 2.53 12.5 0 0 899.01 780.09
  C 887.08 775.84 878.84 765.49 881.81 752.35
  C 883.42 745.20 889.22 738.66 896.76 737.75
  C 899.51 737.41 901.48 739.24 903.30 740.98
  C 904.68 742.30 906.68 742.12 907.64 740.41
  C 909.03 737.95 910.32 735.84 913.49 735.58
  C 922.22 734.86 927.23 746.08 927.68 753.05
  Q 929.13 775.23 907.87 780.97
  A 1.96 1.95 84.7 0 0 906.44 782.70
  C 906.17 786.06 906.02 789.46 904.25 792.44
  C 901.73 796.69 897.27 799.81 892.18 801.13
  A 2.16 2.15 75.1 0 0 890.65 803.78
  C 893.89 815.63 894.19 827.29 886.39 836.90
  A 0.81 0.80 49.5 0 1 885.07 836.79
  Q 881.24 830.11 876.75 823.67
  Q 875.82 822.34 874.39 823.12
  Q 874.19 823.22 874.05 823.39
  A 1.86 1.84 -40.9 0 0 873.88 825.60
  Q 882.28 838.93 889.39 852.92
  C 891.40 856.87 893.15 861.77 889.73 865.51
  C 887.84 867.57 883.04 866.78 880.43 866.74
  Q 874.96 866.65 872.05 861.84
  Q 869.35 857.38 867.19 852.56
  Q 865.66 849.12 862.48 846.89
  Q 858.17 843.85 853.96 840.84
  C 842.91 832.90 833.56 820.85 829.13 808.06
  Q 828.65 806.68 827.25 806.74
  A 2.01 2.01 0.0 0 0 825.35 809.08
  Q 825.88 812.26 827.31 815.53
  Q 832.44 827.28 841.71 836.17
  Q 842.92 837.34 841.25 837.24
  C 829.55 836.54 818.85 828.75 813.11 819.01
  Q 801.81 799.82 809.46 778.64
  Q 811.36 773.36 813.43 767.98
  C 815.93 761.50 815.87 750.54 807.38 748.76
  Q 803.98 748.05 800.15 747.34
  C 793.20 746.05 782.85 741.62 779.72 734.72
  Q 779.32 733.85 780.22 734.20
  Q 790.53 738.29 801.21 735.50
  C 804.20 734.72 808.76 733.02 809.94 730.09
  C 810.92 727.67 807.46 725.34 805.21 726.55
  C 802.59 727.95 800.06 729.80 797.20 730.55
  Q 787.49 733.07 779.93 729.18
  C 775.93 727.12 775.10 720.96 775.02 716.95
  Q 774.99 715.37 776.44 714.65
  Q 782.04 711.87 785.38 707.62
  Q 785.70 707.21 786.21 707.25
  C 795.48 707.88 799.18 706.14 802.75 697.88
  Q 805.96 690.48 813.51 687.08
  C 830.33 679.51 851.41 694.03 862.81 705.70
  Q 865.88 708.85 867.81 712.01
  C 871.87 718.66 866.58 728.52 862.34 734.10
  Q 856.78 741.43 848.56 743.12
  C 844.06 744.05 841.28 742.26 840.16 737.88
  C 837.35 726.91 835.64 715.33 833.86 704.04
  A 2.52 2.47 25.0 0 0 833.53 703.16
  Z
  M 813.46 708.38
  A 4.31 4.31 0.0 0 0 809.15 704.07
  A 4.31 4.31 0.0 0 0 804.84 708.38
  A 4.31 4.31 0.0 0 0 809.15 712.69
  A 4.31 4.31 0.0 0 0 813.46 708.38
  Z"
/>
<ellipse fill="#080709" cx="0.00" cy="0.00" transform="translate(142.21,705.28) rotate(81.3)" rx="5.24" ry="4.48"/>
<circle fill="#080709" cx="809.15" cy="708.38" r="4.31"/>
<path fill="#feffff" d="
  M 176.37 806.36
  Q 175.98 806.13 175.52 806.04
  A 1.37 1.36 -69.0 0 0 174.11 806.67
  L 164.23 822.97
  Q 163.94 823.45 163.45 823.17
  Q 152.49 816.75 148.16 804.82
  Q 147.14 802.01 146.94 799.25
  A 1.01 1.00 81.2 0 1 147.70 798.20
  C 153.70 796.73 156.31 793.59 159.95 788.95
  A 1.08 1.07 -68.4 0 1 160.89 788.54
  C 167.26 789.10 174.02 786.70 177.42 781.21
  Q 178.29 779.81 179.14 778.48
  Q 179.47 777.96 180.05 777.75
  C 181.54 777.22 183.06 776.91 184.49 776.19
  Q 190.44 773.22 193.16 766.62
  Q 193.72 765.26 195.12 764.80
  C 207.64 760.71 212.35 748.70 208.29 736.61
  A 0.46 0.46 0.0 0 1 208.82 736.02
  C 217.96 737.89 228.22 735.55 232.59 726.91
  Q 232.91 726.26 233.64 726.26
  Q 247.48 726.29 261.37 726.21
  C 274.16 726.12 284.59 727.14 295.83 731.42
  Q 297.23 731.95 298.62 731.57
  A 1.45 1.41 8.8 0 0 299.46 730.97
  C 300.76 728.99 301.79 726.91 303.44 725.19
  C 316.53 711.47 336.23 707.78 354.05 712.83
  C 363.94 715.63 374.92 723.01 376.63 733.75
  A 0.64 0.64 0.0 0 1 375.87 734.48
  Q 369.75 733.24 364.03 734.46
  Q 361.75 734.95 361.46 737.37
  Q 361.37 738.11 361.87 738.65
  L 364.25 741.22
  Q 365.92 743.02 365.90 745.48
  Q 365.89 747.20 365.33 748.92
  Q 364.78 750.62 363.82 749.12
  C 358.82 741.30 349.61 744.89 342.28 746.72
  C 329.52 749.91 317.63 747.01 307.08 738.83
  Q 305.84 737.87 304.56 738.77
  Q 304.09 739.09 304.00 739.80
  A 1.11 1.10 -65.1 0 0 304.35 740.77
  C 319.18 754.21 324.62 772.45 324.71 792.52
  C 324.72 793.69 325.31 794.70 326.22 795.38
  Q 342.59 807.69 355.38 826.42
  Q 355.76 826.97 355.11 827.15
  Q 349.06 828.87 342.36 830.80
  Q 339.37 831.67 336.63 830.79
  C 331.17 829.05 325.88 828.25 320.12 828.86
  C 305.02 830.48 292.37 826.28 280.36 815.86
  C 279.23 814.88 277.88 814.43 276.44 815.11
  Q 245.72 829.64 213.07 830.34
  A 0.46 0.45 -72.1 0 1 212.70 829.61
  Q 217.09 823.76 220.69 818.30
  Q 222.12 816.14 221.18 814.25
  Q 221.04 813.98 220.74 813.85
  Q 218.82 813.06 217.70 814.81
  Q 210.46 826.18 201.16 835.44
  Q 183.90 852.60 164.42 865.59
  C 163.52 866.19 162.70 866.67 161.59 866.72
  Q 152.83 867.06 143.68 866.86
  C 138.72 866.76 137.39 861.85 138.67 858.03
  C 140.67 852.08 145.84 851.47 151.01 849.64
  Q 153.45 848.77 155.29 845.84
  Q 165.76 829.23 177.05 809.00
  Q 177.96 807.36 176.37 806.36
  Z"
/>
<path fill="#feffff" d="
  M 729.59 796.47
  Q 729.07 794.58 728.34 794.75
  Q 726.60 795.16 726.22 796.97
  Q 725.13 802.19 724.34 807.61
  A 0.40 0.39 -77.2 0 1 723.84 807.93
  Q 713.89 804.88 704.90 810.73
  A 0.38 0.38 0.0 0 1 704.31 810.42
  C 703.97 798.92 697.44 793.49 689.98 785.67
  Q 689.67 785.34 689.97 784.99
  L 704.52 768.21
  A 0.81 0.81 0.0 0 1 705.72 768.18
  C 710.49 773.15 717.81 780.56 724.65 781.69
  C 732.16 782.94 740.54 783.36 745.79 789.75
  C 746.90 791.09 747.11 792.46 746.80 794.12
  Q 741.96 819.71 732.86 842.31
  C 729.40 850.91 723.62 861.12 715.23 865.80
  C 713.46 866.79 711.10 866.43 709.20 866.08
  C 700.17 864.43 702.12 852.54 705.58 846.99
  Q 706.32 845.81 707.68 845.73
  Q 711.00 845.54 714.32 845.68
  C 716.50 845.78 718.43 844.37 719.22 842.39
  Q 721.25 837.26 722.64 831.34
  Q 726.97 812.90 729.63 797.08
  A 1.37 1.36 -48.9 0 0 729.59 796.47
  Z"
/>
<path fill="#feffff" d="
  M 705.03 815.21
  C 709.80 811.39 716.66 809.18 722.46 811.50
  A 1.15 1.14 -72.8 0 1 723.15 812.82
  L 720.64 824.00
  A 0.75 0.74 15.7 0 1 719.67 824.54
  Q 713.06 822.28 706.38 825.15
  A 0.76 0.75 76.2 0 1 705.33 824.51
  L 704.72 815.94
  A 0.88 0.86 68.8 0 1 705.03 815.21
  Z"
/>
<path fill="#feffff" d="
  M 386.90 849.32
  Q 387.61 848.54 387.30 847.79
  Q 386.63 846.22 384.93 846.16
  L 372.18 845.74
  A 0.79 0.79 0.0 0 1 371.42 845.04
  Q 370.18 834.39 363.65 829.49
  A 0.45 0.44 57.2 0 1 363.82 828.70
  Q 369.41 827.46 373.64 823.94
  C 376.69 821.41 378.73 817.80 381.03 814.66
  A 0.55 0.55 0.0 0 1 381.69 814.48
  L 402.65 823.60
  Q 403.28 823.87 402.95 824.48
  C 399.59 830.65 396.89 837.75 398.18 844.85
  C 399.45 851.86 399.99 858.41 397.21 865.14
  A 1.73 1.72 -78.9 0 1 395.61 866.22
  C 384.25 866.28 372.19 865.48 360.93 862.14
  Q 351.81 859.44 342.87 856.67
  C 335.47 854.37 328.19 851.31 320.96 848.16
  Q 316.96 846.41 318.24 842.00
  Q 320.01 835.93 326.00 835.26
  C 328.46 834.98 333.45 834.40 334.77 837.08
  C 336.40 840.42 338.35 844.88 342.04 846.16
  Q 346.12 847.59 352.86 848.04
  Q 369.37 849.16 385.88 849.74
  A 1.30 1.29 22.5 0 0 386.90 849.32
  Z"
/>
<path fill="#feffff" d="
  M 283.97 849.50
  C 285.91 847.38 285.40 844.20 284.68 841.70
  Q 282.00 832.53 278.36 822.24
  Q 277.59 820.05 279.37 821.54
  Q 290.64 831.00 304.82 833.71
  A 0.75 0.75 0.0 0 1 305.42 834.33
  C 307.70 848.59 304.61 860.28 290.64 865.77
  C 286.42 867.44 280.18 867.42 277.74 862.69
  C 274.53 856.48 280.47 853.35 283.97 849.50
  Z"
/>
<path fill="#feffff" d="
  M 273.98 823.28
  Q 276.95 833.03 279.85 842.81
  Q 280.37 844.57 280.16 846.29
  Q 280.10 846.77 279.75 847.11
  Q 278.04 848.78 276.30 850.34
  C 271.11 855.00 270.79 861.96 275.12 867.34
  Q 275.66 868.02 274.80 868.02
  L 209.48 868.03
  Q 208.72 868.03 209.28 867.51
  C 216.79 860.62 210.04 846.54 206.35 839.07
  C 205.12 836.58 207.31 834.98 209.58 835.08
  C 230.71 835.99 252.86 830.73 272.62 822.64
  A 1.02 1.01 -19.6 0 1 273.98 823.28
  Z"
/>
<path fill="#feffff" d="
  M 718.46 827.77
  Q 718.73 827.84 718.98 827.95
  A 0.84 0.83 18.5 0 1 719.45 828.88
  Q 718.24 834.57 715.84 840.65
  A 1.85 1.85 0.0 0 1 714.22 841.83
  L 707.26 842.24
  Q 706.75 842.27 706.71 841.76
  L 705.71 829.96
  A 0.92 0.92 0.0 0 1 706.22 829.05
  Q 712.16 826.18 718.46 827.77
  Z"
/>
<path fill="#feffff" d="
  M 802.33 853.50
  C 805.37 853.03 808.23 851.67 809.28 848.64
  Q 812.71 838.73 814.69 829.54
  A 0.25 0.25 0.0 0 1 815.13 829.43
  Q 822.09 837.43 833.70 840.85
  Q 834.38 841.05 834.10 841.70
  Q 829.08 853.36 824.07 862.45
  C 823.11 864.20 821.44 866.83 819.19 866.88
  Q 810.05 867.12 800.71 867.02
  C 797.55 866.99 794.98 866.86 794.68 862.99
  C 794.30 857.96 797.52 854.24 802.33 853.50
  Z"
/>
<path fill="#feffff" d="
  M 354.81 843.99
  C 354.14 840.10 352.24 836.45 349.16 833.97
  Q 348.63 833.55 349.27 833.34
  Q 354.22 831.70 359.16 831.05
  Q 359.71 830.98 360.15 831.31
  Q 366.87 836.38 367.70 844.72
  A 0.70 0.69 -1.7 0 1 366.97 845.49
  L 355.77 844.85
  A 1.02 1.02 0.0 0 1 354.81 843.99
  Z"
/>
<path fill="#feffff" d="
  M 313.04 847.79
  Q 313.39 851.41 317.48 853.43
  Q 325.01 857.15 333.86 860.39
  A 1.13 1.12 5.9 0 1 334.58 861.27
  Q 335.14 864.82 337.59 867.57
  A 0.24 0.24 0.0 0 1 337.41 867.97
  L 299.26 867.96
  Q 297.19 867.96 298.94 866.86
  C 310.14 859.86 312.26 847.90 310.52 834.99
  A 0.71 0.70 85.2 0 1 311.19 834.19
  L 316.89 833.97
  Q 317.66 833.94 317.13 834.50
  C 316.20 835.49 315.21 836.37 314.69 837.68
  Q 312.57 843.05 313.04 847.79
  Z"
/>
<path fill="#feffff" d="
  M 338.57 836.00
  L 345.45 835.59
  A 1.60 1.59 67.0 0 1 346.74 836.12
  Q 349.66 839.41 351.13 843.66
  Q 351.35 844.29 350.69 844.28
  C 347.63 844.24 342.94 843.92 340.87 841.32
  Q 339.19 839.19 338.19 836.58
  A 0.43 0.43 0.0 0 1 338.57 836.00
  Z"
/>
<path fill="#feffff" d="
  M 186.82 854.79
  Q 194.56 848.54 201.48 841.58
  A 0.41 0.41 0.0 0 1 202.15 841.69
  C 204.52 846.77 210.43 858.84 206.35 863.87
  C 199.89 871.83 190.19 860.56 186.71 855.62
  A 0.61 0.60 52.7 0 1 186.82 854.79
  Z"
/>
<path fill="#feffff" d="
  M 858.90 850.99
  Q 856.36 852.34 854.34 854.19
  C 850.69 857.53 849.72 863.26 852.39 867.37
  A 0.41 0.40 73.8 0 1 852.05 868.00
  L 826.22 867.97
  Q 825.65 867.97 825.95 867.49
  Q 833.10 855.98 838.35 842.61
  Q 838.56 842.09 839.12 842.13
  L 848.32 842.88
  A 1.22 1.13 63.1 0 1 848.86 843.08
  L 858.94 850.32
  A 0.39 0.39 0.0 0 1 858.90 850.99
  Z"
/>
<path fill="#feffff" d="
  M 863.43 855.22
  C 865.16 859.45 867.41 864.17 870.56 867.25
  Q 871.25 867.94 870.28 867.96
  Q 865.14 868.06 860.73 867.69
  Q 858.58 867.51 857.19 865.68
  C 853.27 860.53 857.95 856.71 862.22 854.74
  A 0.90 0.89 -23.3 0 1 863.43 855.22
  Z"
/>
<path fill="#feffff" d="
  M 182.96 858.76
  Q 186.41 863.72 191.21 867.58
  A 0.30 0.30 0.0 0 1 191.02 868.12
  L 170.07 868.07
  Q 169.09 868.07 169.88 867.50
  L 182.24 858.63
  A 0.52 0.51 54.8 0 1 182.96 858.76
  Z"
/>
<path fill="#feffff" d="
  M 349.25 864.82
  A 0.10 0.10 0.0 0 1 349.31 864.94
  L 349.31 864.97
  A 4.82 2.75 17.2 0 1 343.89 866.17
  L 343.64 866.10
  A 4.82 2.75 17.2 0 1 339.85 862.04
  L 339.86 862.02
  A 0.10 0.10 0.0 0 1 339.98 861.95
  L 349.25 864.82
  Z"
/>
<ellipse fill="#feffff" cx="0.00" cy="0.00" transform="translate(357.92,867.66) rotate(6.3)" rx="1.92" ry="0.51"/>
</svg>
