<?xml version="1.0" encoding="UTF-8" standalone="no"?>
<!DOCTYPE svg PUBLIC "-//W3C//DTD SVG 1.1//EN" "http://www.w3.org/Graphics/SVG/1.1/DTD/svg11.dtd">
<svg xmlns="http://www.w3.org/2000/svg" version="1.1" viewBox="0.00 0.00 1024.00 1024.00">
<g stroke-width="2.00" fill="none" stroke-linecap="butt">
<path stroke="#7f8080" vector-effect="non-scaling-stroke" d="
  M 538.08 388.61
  Q 538.47 388.68 538.51 389.08
  C 538.96 394.04 542.26 401.19 546.84 404.33
  Q 548.57 405.52 550.11 404.09
  L 550.36 403.86
  Q 551.86 402.45 550.25 401.17
  Q 544.92 396.91 543.28 389.04
  Q 543.22 388.76 543.51 388.75
  L 552.72 388.56
  Q 553.00 388.56 553.09 388.83
  Q 555.21 395.66 560.52 400.69
  A 2.68 2.67 45.5 0 0 564.16 400.73
  Q 564.28 400.63 564.39 400.52
  Q 565.98 399.00 564.33 397.54
  Q 559.94 393.65 557.68 388.38
  A 0.48 0.48 0.0 0 1 558.04 387.71
  Q 562.70 386.96 567.16 385.13
  Q 567.73 384.89 568.07 385.41
  C 570.20 388.73 572.22 392.19 575.52 394.18
  Q 577.03 395.10 578.37 393.96
  Q 578.72 393.66 578.95 393.27
  Q 580.13 391.30 578.18 390.08
  Q 574.70 387.91 572.19 383.86
  A 0.66 0.65 63.1 0 1 572.50 382.90
  Q 576.40 381.34 580.09 378.53
  A 0.56 0.55 -36.0 0 1 580.89 378.65
  Q 582.98 381.59 585.74 383.82
  A 2.26 2.25 -44.5 0 0 588.56 383.84
  C 591.71 381.34 586.17 377.34 584.36 376.34
  A 0.52 0.52 0.0 0 1 584.24 375.53
  L 591.10 368.51
  A 0.51 0.51 0.0 0 1 591.90 368.59
  Q 593.36 370.85 595.42 372.95
  Q 596.94 374.50 598.39 372.88
  L 598.65 372.58
  Q 599.74 371.37 598.84 370.01
  Q 596.78 366.92 593.92 364.95
  Q 593.47 364.64 593.74 364.16
  Q 596.56 359.15 598.48 352.73
  A 0.81 0.81 0.0 0 1 599.28 352.16
  Q 609.19 352.56 615.27 344.71
  Q 622.50 335.36 618.25 323.19
  A 1.57 1.57 0.0 0 1 618.25 322.13
  C 622.45 309.99 627.15 295.50 626.30 282.56
  C 625.65 272.78 621.46 264.34 614.95 257.19
  Q 599.56 240.29 578.98 229.20
  Q 562.23 220.17 544.02 221.08
  C 523.13 222.12 504.36 233.37 498.17 253.69
  Q 498.00 254.24 497.44 254.38
  C 484.55 257.55 473.79 268.46 468.64 280.46
  C 462.99 293.62 467.24 303.18 476.53 312.43
  C 477.64 313.54 477.90 314.77 478.34 316.19
  Q 479.83 320.94 483.62 323.43
  Q 484.09 323.74 484.04 324.30
  C 482.11 344.85 487.31 364.26 504.33 376.73
  A 0.34 0.34 0.0 0 1 504.34 377.27
  C 502.37 378.79 500.31 380.15 498.49 381.88
  Q 485.20 394.47 473.79 409.53
  Q 454.02 435.65 437.15 463.86
  A 0.64 0.63 -53.5 0 1 436.18 464.01
  Q 408.37 439.49 376.54 415.91
  Q 372.90 413.21 368.59 410.56
  C 365.51 408.67 362.52 410.42 362.75 413.92
  C 362.92 416.60 363.67 419.25 364.25 421.82
  Q 364.67 423.66 363.31 422.35
  Q 353.39 412.86 342.77 403.05
  Q 341.49 401.87 339.91 402.47
  C 336.73 403.69 338.11 407.41 338.95 409.77
  Q 349.38 439.38 359.02 465.64
  Q 362.55 475.26 365.42 484.21
  Q 367.83 491.74 369.85 505.95
  Q 369.93 506.52 369.51 506.93
  Q 361.76 514.41 362.89 526.05
  C 363.57 532.99 368.06 539.42 372.48 544.52
  Q 372.98 545.10 372.81 545.85
  Q 370.03 558.34 381.90 566.31
  A 1.01 1.00 28.3 0 1 382.27 567.52
  Q 355.96 631.28 329.17 690.55
  C 328.23 692.62 329.99 694.07 331.90 694.23
  C 333.72 694.38 335.65 694.73 337.37 695.31
  C 359.25 702.63 381.78 709.45 402.88 717.61
  Q 410.69 720.62 420.18 725.47
  Q 422.41 726.61 424.70 726.85
  Q 427.51 727.15 428.67 723.29
  C 436.81 696.23 448.70 670.10 459.77 643.57
  A 0.27 0.26 42.1 0 1 460.25 643.55
  Q 471.33 663.22 487.00 678.37
  A 0.80 0.80 0.0 0 1 486.94 679.58
  Q 474.67 689.14 462.30 698.79
  C 458.81 701.52 457.15 704.07 461.62 707.31
  C 480.25 720.83 498.15 735.55 512.80 753.14
  Q 521.27 763.30 529.88 774.79
  C 532.20 777.88 534.29 779.64 537.86 776.89
  C 545.06 771.36 552.20 765.42 559.53 759.87
  Q 581.04 743.58 603.64 726.14
  C 627.69 707.57 650.70 687.43 670.75 664.92
  Q 674.22 661.02 677.65 656.69
  A 1.43 1.42 -48.2 0 1 679.78 656.57
  L 680.20 656.99
  Q 681.34 658.14 680.38 659.45
  Q 676.83 664.25 672.35 669.13
  C 649.24 694.35 624.08 716.11 597.18 736.11
  A 0.58 0.58 0.0 0 0 597.26 737.09
  C 607.73 742.48 618.43 747.36 629.34 751.21
  Q 635.09 753.25 642.77 754.09
  C 658.58 755.82 673.23 755.67 687.73 752.21
  Q 698.27 749.69 706.35 744.43
  Q 721.28 734.70 727.20 717.58
  C 730.02 709.43 730.84 699.04 730.83 690.10
  Q 730.78 663.26 729.44 636.25
  A 1.86 1.85 -24.2 0 1 729.97 634.86
  C 742.33 622.42 752.39 606.68 754.56 589.18
  C 756.70 571.92 748.88 557.74 733.87 549.43
  A 0.64 0.63 29.7 0 1 733.62 548.55
  Q 740.04 537.61 734.96 524.60
  Q 730.38 512.87 728.76 505.08
  Q 724.96 486.79 721.24 469.42
  C 715.90 444.51 706.78 420.36 689.04 401.65
  Q 680.31 392.44 671.69 385.73
  C 656.03 373.56 638.67 362.97 618.57 351.58
  Q 616.29 350.29 615.25 352.69
  L 615.03 353.21
  Q 614.25 355.00 615.94 355.98
  Q 629.35 363.81 647.40 375.33
  Q 661.51 384.34 673.15 394.01
  C 690.86 408.72 703.40 427.58 710.44 449.76
  C 716.51 468.91 719.71 487.81 723.98 507.48
  Q 726.05 517.00 729.56 525.46
  C 732.34 532.18 733.09 538.50 729.44 544.73
  C 727.69 547.73 727.54 551.63 730.77 553.68
  C 742.33 561.02 750.08 570.07 749.59 584.73
  C 749.06 600.99 740.22 615.59 729.52 627.77
  Q 728.92 628.45 728.87 627.54
  Q 728.10 611.79 727.07 596.05
  C 725.84 577.21 722.96 550.18 705.94 538.63
  C 693.18 529.97 678.39 533.34 665.74 540.52
  Q 655.51 546.33 645.29 553.88
  Q 644.74 554.29 644.52 553.64
  Q 630.72 512.92 622.39 490.40
  Q 617.33 476.74 611.55 462.87
  A 2.77 2.76 71.5 0 0 608.32 461.25
  L 594.84 464.64
  Q 594.30 464.78 594.14 464.24
  Q 592.81 459.75 591.09 455.62
  C 590.12 453.30 588.14 452.25 585.65 452.91
  C 583.56 453.45 581.43 453.71 579.34 454.30
  Q 548.27 463.05 516.42 470.85
  Q 505.77 473.45 488.03 477.32
  Q 471.82 480.85 459.77 480.37
  Q 452.41 480.08 448.36 476.61
  Q 444.68 473.46 440.92 468.74
  Q 440.59 468.33 440.87 467.90
  Q 444.34 462.49 448.01 456.50
  Q 464.02 430.37 482.61 407.04
  C 490.28 397.42 498.84 388.08 508.70 380.37
  Q 509.14 380.03 509.64 380.28
  Q 516.46 383.68 523.93 385.89
  A 1.04 1.02 0.2 0 1 524.62 386.57
  Q 527.27 395.36 531.49 401.54
  A 2.29 2.26 -0.4 0 0 532.14 402.17
  Q 533.99 403.35 535.06 402.37
  Q 536.54 401.00 535.43 399.31
  Q 531.68 393.59 529.43 387.39
  Q 529.34 387.14 529.60 387.18
  L 538.08 388.61"
/>
<path stroke="#7f8080" vector-effect="non-scaling-stroke" d="
  M 662.14 430.61
  C 665.29 425.37 669.52 420.10 674.40 415.95
  Q 675.78 414.78 674.40 413.62
  L 673.93 413.22
  Q 672.70 412.19 671.37 413.10
  Q 668.15 415.30 665.78 418.11
  Q 659.07 426.10 653.73 436.57
  Q 639.43 464.63 636.02 496.57
  A 2.13 2.12 -69.2 0 0 636.89 498.52
  Q 637.90 499.24 638.66 499.08
  Q 640.17 498.76 640.33 497.23
  Q 644.17 460.53 662.14 430.61"
/>
<path stroke="#7f8080" vector-effect="non-scaling-stroke" d="
  M 476.21 440.77
  C 480.72 448.20 482.80 456.19 485.06 464.77
  Q 485.49 466.42 487.19 466.39
  Q 487.56 466.38 487.82 466.16
  Q 489.27 464.88 488.87 462.77
  Q 487.26 454.19 483.82 445.62
  Q 482.57 442.52 480.95 440.17
  Q 479.71 438.36 477.54 438.54
  Q 476.75 438.61 476.23 439.43
  A 1.27 1.26 46.1 0 0 476.21 440.77"
/>
<path stroke="#7f8080" vector-effect="non-scaling-stroke" d="
  M 255.85 777.97
  C 254.13 774.12 257.94 769.15 260.88 766.72
  C 267.20 761.49 274.76 757.19 282.21 753.10
  Q 308.32 738.75 331.20 719.28
  Q 334.32 716.63 335.65 714.09
  Q 338.46 708.75 340.82 703.17
  Q 341.48 701.61 339.96 700.88
  L 338.61 700.23
  Q 336.90 699.41 335.98 701.08
  Q 333.44 705.67 331.31 710.79
  Q 330.71 712.22 329.61 713.21
  Q 310.85 730.10 288.92 742.75
  Q 277.90 749.11 267.60 755.27
  C 261.86 758.70 255.52 762.87 251.99 768.81
  C 248.63 774.46 249.37 782.92 256.74 784.67
  C 266.29 786.94 276.23 788.26 285.86 789.79
  Q 310.35 793.68 331.65 795.41
  Q 341.52 796.22 350.18 795.50
  C 358.19 794.84 362.73 788.84 367.17 782.61
  Q 367.91 781.57 366.88 780.81
  L 365.14 779.51
  Q 363.72 778.46 362.63 779.84
  C 359.72 783.51 355.95 789.29 350.88 789.95
  C 341.77 791.12 332.04 790.17 322.99 789.18
  Q 295.84 786.22 262.98 780.43
  Q 259.54 779.82 256.59 778.68
  A 1.38 1.34 88.0 0 1 255.85 777.97"
/>
<path stroke="#7f8080" vector-effect="non-scaling-stroke" d="
  M 370.91 770.35
  C 365.92 765.58 377.78 760.09 380.67 758.91
  Q 422.14 742.03 462.11 719.45
  A 2.11 2.10 78.9 0 0 463.17 717.87
  Q 463.41 715.95 462.36 715.34
  Q 460.53 714.28 458.69 715.31
  Q 438.38 726.68 414.84 737.96
  Q 403.31 743.49 392.61 747.94
  Q 384.24 751.43 375.48 755.29
  Q 370.99 757.27 367.83 760.20
  C 364.06 763.69 362.46 770.41 366.85 774.19
  Q 370.94 777.70 376.12 780.68
  Q 400.00 794.43 423.27 808.18
  C 426.74 810.23 430.36 812.14 434.50 812.82
  C 444.16 814.41 452.00 810.58 460.27 805.25
  Q 485.96 788.70 512.49 767.62
  A 3.23 3.22 -35.6 0 0 513.20 763.34
  L 513.02 763.05
  Q 511.85 761.25 510.04 762.41
  C 507.61 763.97 505.60 766.26 503.25 768.06
  Q 485.83 781.35 469.07 792.89
  Q 461.98 797.78 454.38 802.40
  C 446.98 806.90 438.21 809.96 430.16 805.46
  Q 428.26 804.40 426.36 803.31
  Q 401.84 789.29 377.39 775.12
  Q 373.61 772.93 370.91 770.35"
/>
<path stroke="#7f8080" vector-effect="non-scaling-stroke" d="
  M 394.47 742.36
  C 396.87 740.73 398.86 741.68 400.65 738.54
  Q 403.75 733.09 406.12 728.26
  Q 407.08 726.30 405.12 725.33
  L 404.41 724.98
  Q 402.02 723.80 400.94 726.25
  Q 398.38 732.06 394.93 737.99
  Q 393.95 739.66 393.42 741.61
  A 0.69 0.69 0.0 0 0 394.47 742.36"
/>
<path stroke="#7f8080" vector-effect="non-scaling-stroke" d="
  M 596.87 347.13
  Q 598.77 347.03 600.93 346.91
  C 610.00 346.40 615.90 337.36 614.39 328.76
  Q 613.48 323.55 609.43 321.20
  C 602.47 317.16 595.86 321.90 594.41 328.90
  C 593.70 332.34 593.38 337.66 588.19 336.35
  C 582.40 334.91 580.87 330.26 579.26 325.16
  C 578.41 322.49 576.01 320.42 573.20 320.40
  C 553.45 320.26 532.84 320.35 515.56 309.65
  Q 506.40 303.97 501.12 294.71
  A 0.69 0.68 -38.2 0 0 500.02 294.58
  Q 495.27 299.77 491.02 305.46
  Q 488.60 308.70 488.45 313.61
  Q 488.32 317.87 488.61 321.22
  Q 488.92 324.85 488.81 328.41
  C 488.58 335.69 489.21 343.32 491.52 350.26
  Q 493.06 354.92 494.38 357.40
  C 501.78 371.32 514.78 378.67 530.15 381.69
  C 541.37 383.89 552.84 384.20 563.45 380.72
  C 577.77 376.03 588.55 366.67 593.45 351.95
  Q 594.28 349.45 595.84 347.63
  Q 596.25 347.16 596.87 347.13"
/>
<path stroke="#7f8080" vector-effect="non-scaling-stroke" d="
  M 441.17 490.11
  Q 439.99 491.81 438.32 490.59
  C 425.39 481.09 412.31 471.58 400.16 461.59
  Q 372.41 438.80 346.72 413.77
  Q 345.25 412.34 345.95 414.27
  C 351.66 430.08 357.57 446.85 363.55 462.87
  Q 367.00 472.12 370.08 481.50
  C 372.56 489.04 373.76 496.97 375.35 504.74
  A 0.97 0.96 82.1 0 0 376.36 505.51
  C 379.19 505.32 382.04 506.53 384.41 507.95
  Q 394.10 513.76 402.62 522.65
  C 405.94 526.12 409.59 528.78 413.41 531.69
  A 7.57 7.56 6.2 0 1 415.70 534.54
  C 417.28 537.97 419.18 541.33 420.71 544.69
  Q 436.29 578.84 442.25 591.41
  Q 449.52 606.76 456.62 619.41
  Q 458.74 623.18 459.55 624.22
  Q 478.12 648.20 501.31 666.87
  A 1.47 1.46 46.0 0 0 503.11 666.91
  Q 537.37 641.29 567.85 617.59
  C 585.59 603.79 602.96 589.30 619.52 574.64
  Q 620.11 574.12 619.34 573.98
  C 613.84 573.03 609.16 575.24 604.24 577.32
  C 598.68 579.67 594.28 584.49 592.06 590.03
  Q 591.51 591.41 590.19 591.67
  A 1.64 1.63 85.6 0 1 588.23 589.98
  C 588.56 583.79 594.18 578.09 599.30 574.87
  C 605.68 570.86 615.93 567.67 623.43 570.37
  Q 623.92 570.54 624.32 570.22
  L 639.47 558.03
  A 1.15 1.13 -28.6 0 0 639.85 556.78
  Q 628.52 522.23 616.15 488.69
  C 613.51 481.53 610.42 474.57 607.91 467.40
  A 0.51 0.51 0.0 0 0 607.30 467.07
  Q 583.72 473.29 560.50 479.79
  Q 546.06 483.83 511.11 491.28
  C 491.50 495.46 470.07 498.75 449.78 496.31
  A 2.53 2.47 66.8 0 1 448.52 495.79
  Q 445.77 493.65 447.58 491.74
  A 1.72 1.69 24.8 0 1 449.04 491.22
  C 471.09 494.00 494.40 489.50 516.78 484.70
  Q 554.31 476.67 589.43 466.16
  Q 589.55 466.13 589.51 466.01
  Q 588.13 461.91 586.28 458.07
  Q 586.23 457.96 586.11 457.99
  Q 553.84 466.82 520.15 475.41
  Q 500.58 480.40 480.98 483.98
  Q 473.74 485.31 464.04 485.57
  C 455.16 485.81 448.32 484.75 442.22 478.01
  Q 434.33 469.28 425.39 461.69
  Q 397.81 438.25 369.28 417.15
  Q 367.99 416.19 368.39 417.74
  Q 369.18 420.78 369.19 423.49
  Q 369.20 424.10 368.89 424.62
  L 368.19 425.85
  Q 367.95 426.28 368.31 426.62
  C 390.93 447.97 415.36 467.42 440.83 485.83
  Q 443.04 487.43 441.48 489.68
  L 441.17 490.11"
/>
<path stroke="#7f8080" vector-effect="non-scaling-stroke" d="
  M 376.57 541.03
  C 378.81 543.55 378.08 546.42 377.56 550.02
  C 376.95 554.21 380.82 558.85 383.72 561.89
  A 0.64 0.64 0.0 0 0 384.77 561.70
  Q 391.40 546.45 398.44 530.19
  Q 399.02 528.84 399.17 526.99
  Q 399.21 526.48 398.83 526.12
  Q 391.98 519.61 384.67 514.48
  C 380.32 511.42 373.51 507.96 370.03 514.76
  C 365.19 524.22 369.87 533.50 376.57 541.03"
/>
<path stroke="#7f8080" vector-effect="non-scaling-stroke" d="
  M 512.4429 329.4206
  A 2.28 2.28 0.0 0 0 510.1156 327.1889
  L 509.8957 327.1935
  A 2.28 2.28 0.0 0 0 507.6639 329.5207
  L 507.7971 335.8794
  A 2.28 2.28 0.0 0 0 510.1244 338.1111
  L 510.3443 338.1065
  A 2.28 2.28 0.0 0 0 512.5761 335.7793
  L 512.4429 329.4206"
/>
<path stroke="#7f8080" vector-effect="non-scaling-stroke" d="
  M 542.8566 329.5087
  A 2.14 2.14 0.0 0 0 540.6396 327.4485
  L 540.3798 327.4581
  A 2.14 2.14 0.0 0 0 538.3197 329.6750
  L 538.5234 335.2313
  A 2.14 2.14 0.0 0 0 540.7404 337.2915
  L 541.0002 337.2819
  A 2.14 2.14 0.0 0 0 543.0603 335.0650
  L 542.8566 329.5087"
/>
<path stroke="#7f8080" vector-effect="non-scaling-stroke" d="
  M 397.56 483.66
  Q 399.38 494.26 402.09 504.39
  A 2.48 2.46 -72.5 0 0 402.58 505.34
  Q 404.18 507.25 405.38 506.83
  Q 407.03 506.24 406.65 504.53
  L 401.62 482.24
  Q 401.29 480.79 400.14 479.85
  Q 388.23 470.19 374.98 461.03
  A 1.49 1.48 -40.6 0 0 373.49 460.92
  Q 372.88 461.21 372.58 461.71
  Q 371.47 463.54 373.17 464.83
  L 397.28 483.19
  A 0.76 0.76 0.0 0 1 397.56 483.66"
/>
<path stroke="#7f8080" vector-effect="non-scaling-stroke" d="
  M 551.25 502.33
  Q 577.95 497.73 605.70 491.25
  Q 607.96 490.72 608.29 488.60
  Q 608.34 488.23 608.07 487.91
  Q 606.80 486.45 604.91 486.88
  Q 578.26 492.91 551.03 497.90
  Q 548.43 498.37 546.11 499.48
  Q 545.65 499.70 545.49 500.19
  Q 545.05 501.50 545.48 502.96
  Q 555.05 535.39 564.27 567.49
  Q 565.01 570.07 566.93 569.65
  C 568.93 569.22 571.56 569.68 573.75 569.35
  Q 595.42 566.11 615.35 560.83
  Q 617.51 560.26 619.01 558.56
  A 1.48 1.48 0.0 0 0 618.83 556.43
  Q 617.84 555.63 616.70 555.93
  Q 598.88 560.71 578.47 564.16
  Q 573.88 564.94 569.14 565.36
  A 1.21 1.21 0.0 0 1 567.87 564.48
  Q 559.92 535.54 550.17 504.11
  Q 549.70 502.60 551.25 502.33"
/>
<path stroke="#7f8080" vector-effect="non-scaling-stroke" d="
  M 484.04 599.50
  Q 489.43 626.05 493.49 649.62
  A 2.61 2.60 -8.7 0 0 496.41 651.76
  L 496.81 651.71
  Q 498.34 651.50 498.29 649.97
  Q 498.19 646.96 497.65 643.79
  Q 493.18 617.72 488.76 597.45
  C 487.98 593.89 487.11 590.39 485.57 587.11
  C 471.66 557.57 458.84 530.50 446.25 501.32
  Q 445.42 499.40 443.02 499.84
  Q 442.58 499.93 442.23 500.36
  Q 441.18 501.65 441.78 503.21
  Q 445.83 513.57 449.90 522.60
  Q 465.01 556.08 481.19 590.05
  C 482.56 592.94 483.40 596.31 484.04 599.50"
/>
<path stroke="#7f8080" vector-effect="non-scaling-stroke" d="
  M 521.56 526.00
  C 521.52 520.64 517.16 514.99 513.01 511.71
  C 504.04 504.60 490.57 502.60 480.02 507.74
  Q 472.39 511.47 469.97 519.59
  Q 468.89 523.21 471.68 524.47
  A 1.68 1.68 0.0 0 0 474.04 523.05
  C 474.15 521.57 473.90 520.10 474.68 518.74
  Q 478.24 512.52 484.04 510.82
  Q 499.15 506.38 510.81 515.61
  Q 517.44 520.86 517.43 529.04
  A 1.57 1.56 6.8 0 0 518.63 530.56
  C 521.35 531.20 524.68 530.90 526.90 532.68
  C 530.05 535.20 529.64 537.65 529.15 541.22
  A 1.83 1.82 10.3 0 0 530.56 543.25
  Q 531.83 543.53 532.58 542.35
  C 533.78 540.48 534.63 538.61 534.10 536.31
  Q 532.04 527.18 522.18 526.65
  Q 521.57 526.62 521.56 526.00"
/>
<path stroke="#7f8080" vector-effect="non-scaling-stroke" d="
  M 607.64 505.88
  C 595.82 508.06 584.54 510.51 573.14 513.02
  Q 572.17 513.24 571.67 514.11
  Q 571.27 514.83 571.62 515.38
  Q 572.58 516.92 574.37 516.86
  Q 577.40 516.76 580.37 516.08
  Q 594.75 512.80 609.40 509.95
  A 1.80 1.79 14.4 0 0 610.44 509.34
  Q 611.72 507.84 610.94 507.14
  Q 609.22 505.59 607.64 505.88"
/>
<path stroke="#7f8080" vector-effect="non-scaling-stroke" d="
  M 438.27 531.88
  Q 444.17 558.91 449.43 582.11
  A 3.02 3.00 -1.3 0 0 451.84 584.40
  Q 452.03 584.43 452.19 584.33
  A 3.20 3.16 68.6 0 0 453.64 580.96
  Q 448.11 554.73 441.85 528.74
  Q 441.58 527.63 440.68 526.94
  Q 427.76 517.06 413.62 507.09
  A 2.86 2.56 -44.7 0 0 410.44 507.25
  Q 410.32 507.34 410.26 507.47
  A 2.79 2.57 31.5 0 0 411.21 510.82
  Q 424.95 520.68 436.82 529.61
  A 3.92 3.92 0.0 0 1 438.27 531.88"
/>
<path stroke="#7f8080" vector-effect="non-scaling-stroke" d="
  M 608.25 523.68
  Q 610.65 523.11 612.60 522.06
  A 1.70 1.69 53.8 0 0 613.01 519.39
  C 611.31 517.63 606.97 519.48 604.93 519.91
  Q 590.49 522.98 576.98 525.39
  Q 575.08 525.73 574.30 527.50
  Q 574.13 527.89 574.37 528.23
  Q 575.64 530.04 578.06 529.65
  Q 593.56 527.15 608.25 523.68"
/>
<path stroke="#7f8080" vector-effect="non-scaling-stroke" d="
  M 617.3005 533.5185
  A 2.17 2.17 0.0 0 0 614.7355 531.8337
  L 586.6122 537.6577
  A 2.17 2.17 0.0 0 0 584.9274 540.2227
  L 584.9395 540.2815
  A 2.17 2.17 0.0 0 0 587.5045 541.9663
  L 615.6278 536.1423
  A 2.17 2.17 0.0 0 0 617.3126 533.5773
  L 617.3005 533.5185"
/>
<path stroke="#7f8080" vector-effect="non-scaling-stroke" d="
  M 494.81 563.28
  A 0.50 0.49 74.4 0 1 495.16 562.64
  Q 513.55 558.22 528.93 555.37
  Q 536.51 553.97 543.93 553.34
  A 1.27 1.26 -9.8 0 1 545.26 554.27
  Q 552.85 583.10 559.72 612.74
  A 2.04 1.97 21.3 0 0 560.02 613.39
  Q 561.50 615.39 562.51 614.76
  Q 564.40 613.58 564.02 611.90
  Q 557.13 581.75 549.32 553.02
  C 548.54 550.15 547.44 548.03 544.01 548.51
  Q 519.30 551.95 494.84 558.14
  C 493.32 558.53 491.92 558.71 491.45 560.51
  Q 490.51 564.11 491.07 565.70
  C 497.84 585.15 503.42 605.07 509.28 624.95
  Q 510.64 629.56 515.10 630.21
  Q 518.98 630.78 523.39 630.38
  Q 533.73 629.43 543.72 626.42
  Q 546.10 625.70 547.89 624.03
  A 1.79 1.78 -39.3 0 0 548.13 621.69
  Q 547.44 620.71 546.25 621.08
  Q 534.90 624.56 523.45 625.95
  C 520.60 626.29 517.83 625.97 515.00 625.63
  A 1.64 1.63 -4.2 0 1 513.61 624.44
  Q 504.88 593.05 494.81 563.28"
/>
<path stroke="#7f8080" vector-effect="non-scaling-stroke" d="
  M 538.6208 572.9867
  A 2.11 2.11 0.0 0 0 536.1616 571.2966
  L 513.0748 575.5754
  A 2.11 2.11 0.0 0 0 511.3846 578.0346
  L 511.3992 578.1133
  A 2.11 2.11 0.0 0 0 513.8584 579.8034
  L 536.9452 575.5246
  A 2.11 2.11 0.0 0 0 538.6354 573.0654
  L 538.6208 572.9867"
/>
<path stroke="#7f8080" vector-effect="non-scaling-stroke" d="
  M 518.80 593.09
  C 526.07 592.26 533.80 590.84 540.98 588.98
  A 1.47 1.46 3.2 0 0 541.97 588.10
  Q 542.33 587.19 541.98 586.57
  Q 540.95 584.80 538.93 585.16
  L 515.98 589.35
  A 1.32 1.32 0.0 0 0 514.98 590.17
  Q 514.10 592.35 518.08 593.07
  A 2.65 2.58 45.8 0 0 518.80 593.09"
/>
<path stroke="#7f8080" vector-effect="non-scaling-stroke" d="
  M 477.0960 605.2821
  A 2.16 2.16 0.0 0 0 476.5184 602.2825
  L 460.2884 591.2940
  A 2.16 2.16 0.0 0 0 457.2888 591.8716
  L 457.2440 591.9379
  A 2.16 2.16 0.0 0 0 457.8216 594.9375
  L 474.0516 605.9260
  A 2.16 2.16 0.0 0 0 477.0512 605.3484
  L 477.0960 605.2821"
/>
<path stroke="#7f8080" vector-effect="non-scaling-stroke" d="
  M 544.6763 600.0888
  A 2.15 2.15 0.0 0 0 542.1555 598.3886
  L 521.1487 602.4719
  A 2.15 2.15 0.0 0 0 519.4485 604.9926
  L 519.4637 605.0712
  A 2.15 2.15 0.0 0 0 521.9845 606.7714
  L 542.9913 602.6881
  A 2.15 2.15 0.0 0 0 544.6915 600.1674
  L 544.6763 600.0888"
/>
<path stroke="#7f8080" vector-effect="non-scaling-stroke" d="
  M 478.8247 617.9530
  A 2.16 2.16 0.0 0 0 478.3785 614.9311
  L 461.9368 602.7204
  A 2.16 2.16 0.0 0 0 458.9149 603.1667
  L 458.8553 603.2470
  A 2.16 2.16 0.0 0 0 459.3015 606.2689
  L 475.7432 618.4796
  A 2.16 2.16 0.0 0 0 478.7651 618.0333
  L 478.8247 617.9530"
/>
</g>
<path fill="#feffff" d="
  M 1024.00 0.00
  L 1024.00 1024.00
  L 0.00 1024.00
  L 0.00 0.00
  L 1024.00 0.00
  Z
  M 538.08 388.61
  Q 538.47 388.68 538.51 389.08
  C 538.96 394.04 542.26 401.19 546.84 404.33
  Q 548.57 405.52 550.11 404.09
  L 550.36 403.86
  Q 551.86 402.45 550.25 401.17
  Q 544.92 396.91 543.28 389.04
  Q 543.22 388.76 543.51 388.75
  L 552.72 388.56
  Q 553.00 388.56 553.09 388.83
  Q 555.21 395.66 560.52 400.69
  A 2.68 2.67 45.5 0 0 564.16 400.73
  Q 564.28 400.63 564.39 400.52
  Q 565.98 399.00 564.33 397.54
  Q 559.94 393.65 557.68 388.38
  A 0.48 0.48 0.0 0 1 558.04 387.71
  Q 562.70 386.96 567.16 385.13
  Q 567.73 384.89 568.07 385.41
  C 570.20 388.73 572.22 392.19 575.52 394.18
  Q 577.03 395.10 578.37 393.96
  Q 578.72 393.66 578.95 393.27
  Q 580.13 391.30 578.18 390.08
  Q 574.70 387.91 572.19 383.86
  A 0.66 0.65 63.1 0 1 572.50 382.90
  Q 576.40 381.34 580.09 378.53
  A 0.56 0.55 -36.0 0 1 580.89 378.65
  Q 582.98 381.59 585.74 383.82
  A 2.26 2.25 -44.5 0 0 588.56 383.84
  C 591.71 381.34 586.17 377.34 584.36 376.34
  A 0.52 0.52 0.0 0 1 584.24 375.53
  L 591.10 368.51
  A 0.51 0.51 0.0 0 1 591.90 368.59
  Q 593.36 370.85 595.42 372.95
  Q 596.94 374.50 598.39 372.88
  L 598.65 372.58
  Q 599.74 371.37 598.84 370.01
  Q 596.78 366.92 593.92 364.95
  Q 593.47 364.64 593.74 364.16
  Q 596.56 359.15 598.48 352.73
  A 0.81 0.81 0.0 0 1 599.28 352.16
  Q 609.19 352.56 615.27 344.71
  Q 622.50 335.36 618.25 323.19
  A 1.57 1.57 0.0 0 1 618.25 322.13
  C 622.45 309.99 627.15 295.50 626.30 282.56
  C 625.65 272.78 621.46 264.34 614.95 257.19
  Q 599.56 240.29 578.98 229.20
  Q 562.23 220.17 544.02 221.08
  C 523.13 222.12 504.36 233.37 498.17 253.69
  Q 498.00 254.24 497.44 254.38
  C 484.55 257.55 473.79 268.46 468.64 280.46
  C 462.99 293.62 467.24 303.18 476.53 312.43
  C 477.64 313.54 477.90 314.77 478.34 316.19
  Q 479.83 320.94 483.62 323.43
  Q 484.09 323.74 484.04 324.30
  C 482.11 344.85 487.31 364.26 504.33 376.73
  A 0.34 0.34 0.0 0 1 504.34 377.27
  C 502.37 378.79 500.31 380.15 498.49 381.88
  Q 485.20 394.47 473.79 409.53
  Q 454.02 435.65 437.15 463.86
  A 0.64 0.63 -53.5 0 1 436.18 464.01
  Q 408.37 439.49 376.54 415.91
  Q 372.90 413.21 368.59 410.56
  C 365.51 408.67 362.52 410.42 362.75 413.92
  C 362.92 416.60 363.67 419.25 364.25 421.82
  Q 364.67 423.66 363.31 422.35
  Q 353.39 412.86 342.77 403.05
  Q 341.49 401.87 339.91 402.47
  C 336.73 403.69 338.11 407.41 338.95 409.77
  Q 349.38 439.38 359.02 465.64
  Q 362.55 475.26 365.42 484.21
  Q 367.83 491.74 369.85 505.95
  Q 369.93 506.52 369.51 506.93
  Q 361.76 514.41 362.89 526.05
  C 363.57 532.99 368.06 539.42 372.48 544.52
  Q 372.98 545.10 372.81 545.85
  Q 370.03 558.34 381.90 566.31
  A 1.01 1.00 28.3 0 1 382.27 567.52
  Q 355.96 631.28 329.17 690.55
  C 328.23 692.62 329.99 694.07 331.90 694.23
  C 333.72 694.38 335.65 694.73 337.37 695.31
  C 359.25 702.63 381.78 709.45 402.88 717.61
  Q 410.69 720.62 420.18 725.47
  Q 422.41 726.61 424.70 726.85
  Q 427.51 727.15 428.67 723.29
  C 436.81 696.23 448.70 670.10 459.77 643.57
  A 0.27 0.26 42.1 0 1 460.25 643.55
  Q 471.33 663.22 487.00 678.37
  A 0.80 0.80 0.0 0 1 486.94 679.58
  Q 474.67 689.14 462.30 698.79
  C 458.81 701.52 457.15 704.07 461.62 707.31
  C 480.25 720.83 498.15 735.55 512.80 753.14
  Q 521.27 763.30 529.88 774.79
  C 532.20 777.88 534.29 779.64 537.86 776.89
  C 545.06 771.36 552.20 765.42 559.53 759.87
  Q 581.04 743.58 603.64 726.14
  C 627.69 707.57 650.70 687.43 670.75 664.92
  Q 674.22 661.02 677.65 656.69
  A 1.43 1.42 -48.2 0 1 679.78 656.57
  L 680.20 656.99
  Q 681.34 658.14 680.38 659.45
  Q 676.83 664.25 672.35 669.13
  C 649.24 694.35 624.08 716.11 597.18 736.11
  A 0.58 0.58 0.0 0 0 597.26 737.09
  C 607.73 742.48 618.43 747.36 629.34 751.21
  Q 635.09 753.25 642.77 754.09
  C 658.58 755.82 673.23 755.67 687.73 752.21
  Q 698.27 749.69 706.35 744.43
  Q 721.28 734.70 727.20 717.58
  C 730.02 709.43 730.84 699.04 730.83 690.10
  Q 730.78 663.26 729.44 636.25
  A 1.86 1.85 -24.2 0 1 729.97 634.86
  C 742.33 622.42 752.39 606.68 754.56 589.18
  C 756.70 571.92 748.88 557.74 733.87 549.43
  A 0.64 0.63 29.7 0 1 733.62 548.55
  Q 740.04 537.61 734.96 524.60
  Q 730.38 512.87 728.76 505.08
  Q 724.96 486.79 721.24 469.42
  C 715.90 444.51 706.78 420.36 689.04 401.65
  Q 680.31 392.44 671.69 385.73
  C 656.03 373.56 638.67 362.97 618.57 351.58
  Q 616.29 350.29 615.25 352.69
  L 615.03 353.21
  Q 614.25 355.00 615.94 355.98
  Q 629.35 363.81 647.40 375.33
  Q 661.51 384.34 673.15 394.01
  C 690.86 408.72 703.40 427.58 710.44 449.76
  C 716.51 468.91 719.71 487.81 723.98 507.48
  Q 726.05 517.00 729.56 525.46
  C 732.34 532.18 733.09 538.50 729.44 544.73
  C 727.69 547.73 727.54 551.63 730.77 553.68
  C 742.33 561.02 750.08 570.07 749.59 584.73
  C 749.06 600.99 740.22 615.59 729.52 627.77
  Q 728.92 628.45 728.87 627.54
  Q 728.10 611.79 727.07 596.05
  C 725.84 577.21 722.96 550.18 705.94 538.63
  C 693.18 529.97 678.39 533.34 665.74 540.52
  Q 655.51 546.33 645.29 553.88
  Q 644.74 554.29 644.52 553.64
  Q 630.72 512.92 622.39 490.40
  Q 617.33 476.74 611.55 462.87
  A 2.77 2.76 71.5 0 0 608.32 461.25
  L 594.84 464.64
  Q 594.30 464.78 594.14 464.24
  Q 592.81 459.75 591.09 455.62
  C 590.12 453.30 588.14 452.25 585.65 452.91
  C 583.56 453.45 581.43 453.71 579.34 454.30
  Q 548.27 463.05 516.42 470.85
  Q 505.77 473.45 488.03 477.32
  Q 471.82 480.85 459.77 480.37
  Q 452.41 480.08 448.36 476.61
  Q 444.68 473.46 440.92 468.74
  Q 440.59 468.33 440.87 467.90
  Q 444.34 462.49 448.01 456.50
  Q 464.02 430.37 482.61 407.04
  C 490.28 397.42 498.84 388.08 508.70 380.37
  Q 509.14 380.03 509.64 380.28
  Q 516.46 383.68 523.93 385.89
  A 1.04 1.02 0.2 0 1 524.62 386.57
  Q 527.27 395.36 531.49 401.54
  A 2.29 2.26 -0.4 0 0 532.14 402.17
  Q 533.99 403.35 535.06 402.37
  Q 536.54 401.00 535.43 399.31
  Q 531.68 393.59 529.43 387.39
  Q 529.34 387.14 529.60 387.18
  L 538.08 388.61
  Z
  M 662.14 430.61
  C 665.29 425.37 669.52 420.10 674.40 415.95
  Q 675.78 414.78 674.40 413.62
  L 673.93 413.22
  Q 672.70 412.19 671.37 413.10
  Q 668.15 415.30 665.78 418.11
  Q 659.07 426.10 653.73 436.57
  Q 639.43 464.63 636.02 496.57
  A 2.13 2.12 -69.2 0 0 636.89 498.52
  Q 637.90 499.24 638.66 499.08
  Q 640.17 498.76 640.33 497.23
  Q 644.17 460.53 662.14 430.61
  Z
  M 476.21 440.77
  C 480.72 448.20 482.80 456.19 485.06 464.77
  Q 485.49 466.42 487.19 466.39
  Q 487.56 466.38 487.82 466.16
  Q 489.27 464.88 488.87 462.77
  Q 487.26 454.19 483.82 445.62
  Q 482.57 442.52 480.95 440.17
  Q 479.71 438.36 477.54 438.54
  Q 476.75 438.61 476.23 439.43
  A 1.27 1.26 46.1 0 0 476.21 440.77
  Z
  M 255.85 777.97
  C 254.13 774.12 257.94 769.15 260.88 766.72
  C 267.20 761.49 274.76 757.19 282.21 753.10
  Q 308.32 738.75 331.20 719.28
  Q 334.32 716.63 335.65 714.09
  Q 338.46 708.75 340.82 703.17
  Q 341.48 701.61 339.96 700.88
  L 338.61 700.23
  Q 336.90 699.41 335.98 701.08
  Q 333.44 705.67 331.31 710.79
  Q 330.71 712.22 329.61 713.21
  Q 310.85 730.10 288.92 742.75
  Q 277.90 749.11 267.60 755.27
  C 261.86 758.70 255.52 762.87 251.99 768.81
  C 248.63 774.46 249.37 782.92 256.74 784.67
  C 266.29 786.94 276.23 788.26 285.86 789.79
  Q 310.35 793.68 331.65 795.41
  Q 341.52 796.22 350.18 795.50
  C 358.19 794.84 362.73 788.84 367.17 782.61
  Q 367.91 781.57 366.88 780.81
  L 365.14 779.51
  Q 363.72 778.46 362.63 779.84
  C 359.72 783.51 355.95 789.29 350.88 789.95
  C 341.77 791.12 332.04 790.17 322.99 789.18
  Q 295.84 786.22 262.98 780.43
  Q 259.54 779.82 256.59 778.68
  A 1.38 1.34 88.0 0 1 255.85 777.97
  Z
  M 370.91 770.35
  C 365.92 765.58 377.78 760.09 380.67 758.91
  Q 422.14 742.03 462.11 719.45
  A 2.11 2.10 78.9 0 0 463.17 717.87
  Q 463.41 715.95 462.36 715.34
  Q 460.53 714.28 458.69 715.31
  Q 438.38 726.68 414.84 737.96
  Q 403.31 743.49 392.61 747.94
  Q 384.24 751.43 375.48 755.29
  Q 370.99 757.27 367.83 760.20
  C 364.06 763.69 362.46 770.41 366.85 774.19
  Q 370.94 777.70 376.12 780.68
  Q 400.00 794.43 423.27 808.18
  C 426.74 810.23 430.36 812.14 434.50 812.82
  C 444.16 814.41 452.00 810.58 460.27 805.25
  Q 485.96 788.70 512.49 767.62
  A 3.23 3.22 -35.6 0 0 513.20 763.34
  L 513.02 763.05
  Q 511.85 761.25 510.04 762.41
  C 507.61 763.97 505.60 766.26 503.25 768.06
  Q 485.83 781.35 469.07 792.89
  Q 461.98 797.78 454.38 802.40
  C 446.98 806.90 438.21 809.96 430.16 805.46
  Q 428.26 804.40 426.36 803.31
  Q 401.84 789.29 377.39 775.12
  Q 373.61 772.93 370.91 770.35
  Z
  M 394.47 742.36
  C 396.87 740.73 398.86 741.68 400.65 738.54
  Q 403.75 733.09 406.12 728.26
  Q 407.08 726.30 405.12 725.33
  L 404.41 724.98
  Q 402.02 723.80 400.94 726.25
  Q 398.38 732.06 394.93 737.99
  Q 393.95 739.66 393.42 741.61
  A 0.69 0.69 0.0 0 0 394.47 742.36
  Z"
/>
<path fill="#000000" d="
  M 529.43 387.39
  Q 531.68 393.59 535.43 399.31
  Q 536.54 401.00 535.06 402.37
  Q 533.99 403.35 532.14 402.17
  A 2.29 2.26 -0.4 0 1 531.49 401.54
  Q 527.27 395.36 524.62 386.57
  A 1.04 1.02 0.2 0 0 523.93 385.89
  Q 516.46 383.68 509.64 380.28
  Q 509.14 380.03 508.70 380.37
  C 498.84 388.08 490.28 397.42 482.61 407.04
  Q 464.02 430.37 448.01 456.50
  Q 444.34 462.49 440.87 467.90
  Q 440.59 468.33 440.92 468.74
  Q 444.68 473.46 448.36 476.61
  Q 452.41 480.08 459.77 480.37
  Q 471.82 480.85 488.03 477.32
  Q 505.77 473.45 516.42 470.85
  Q 548.27 463.05 579.34 454.30
  C 581.43 453.71 583.56 453.45 585.65 452.91
  C 588.14 452.25 590.12 453.30 591.09 455.62
  Q 592.81 459.75 594.14 464.24
  Q 594.30 464.78 594.84 464.64
  L 608.32 461.25
  A 2.77 2.76 71.5 0 1 611.55 462.87
  Q 617.33 476.74 622.39 490.40
  Q 630.72 512.92 644.52 553.64
  Q 644.74 554.29 645.29 553.88
  Q 655.51 546.33 665.74 540.52
  C 678.39 533.34 693.18 529.97 705.94 538.63
  C 722.96 550.18 725.84 577.21 727.07 596.05
  Q 728.10 611.79 728.87 627.54
  Q 728.92 628.45 729.52 627.77
  C 740.22 615.59 749.06 600.99 749.59 584.73
  C 750.08 570.07 742.33 561.02 730.77 553.68
  C 727.54 551.63 727.69 547.73 729.44 544.73
  C 733.09 538.50 732.34 532.18 729.56 525.46
  Q 726.05 517.00 723.98 507.48
  C 719.71 487.81 716.51 468.91 710.44 449.76
  C 703.40 427.58 690.86 408.72 673.15 394.01
  Q 661.51 384.34 647.40 375.33
  Q 629.35 363.81 615.94 355.98
  Q 614.25 355.00 615.03 353.21
  L 615.25 352.69
  Q 616.29 350.29 618.57 351.58
  C 638.67 362.97 656.03 373.56 671.69 385.73
  Q 680.31 392.44 689.04 401.65
  C 706.78 420.36 715.90 444.51 721.24 469.42
  Q 724.96 486.79 728.76 505.08
  Q 730.38 512.87 734.96 524.60
  Q 740.04 537.61 733.62 548.55
  A 0.64 0.63 29.7 0 0 733.87 549.43
  C 748.88 557.74 756.70 571.92 754.56 589.18
  C 752.39 606.68 742.33 622.42 729.97 634.86
  A 1.86 1.85 -24.2 0 0 729.44 636.25
  Q 730.78 663.26 730.83 690.10
  C 730.84 699.04 730.02 709.43 727.20 717.58
  Q 721.28 734.70 706.35 744.43
  Q 698.27 749.69 687.73 752.21
  C 673.23 755.67 658.58 755.82 642.77 754.09
  Q 635.09 753.25 629.34 751.21
  C 618.43 747.36 607.73 742.48 597.26 737.09
  A 0.58 0.58 0.0 0 1 597.18 736.11
  C 624.08 716.11 649.24 694.35 672.35 669.13
  Q 676.83 664.25 680.38 659.45
  Q 681.34 658.14 680.20 656.99
  L 679.78 656.57
  A 1.43 1.42 -48.2 0 0 677.65 656.69
  Q 674.22 661.02 670.75 664.92
  C 650.70 687.43 627.69 707.57 603.64 726.14
  Q 581.04 743.58 559.53 759.87
  C 552.20 765.42 545.06 771.36 537.86 776.89
  C 534.29 779.64 532.20 777.88 529.88 774.79
  Q 521.27 763.30 512.80 753.14
  C 498.15 735.55 480.25 720.83 461.62 707.31
  C 457.15 704.07 458.81 701.52 462.30 698.79
  Q 474.67 689.14 486.94 679.58
  A 0.80 0.80 0.0 0 0 487.00 678.37
  Q 471.33 663.22 460.25 643.55
  A 0.27 0.26 42.1 0 0 459.77 643.57
  C 448.70 670.10 436.81 696.23 428.67 723.29
  Q 427.51 727.15 424.70 726.85
  Q 422.41 726.61 420.18 725.47
  Q 410.69 720.62 402.88 717.61
  C 381.78 709.45 359.25 702.63 337.37 695.31
  C 335.65 694.73 333.72 694.38 331.90 694.23
  C 329.99 694.07 328.23 692.62 329.17 690.55
  Q 355.96 631.28 382.27 567.52
  A 1.01 1.00 28.3 0 0 381.90 566.31
  Q 370.03 558.34 372.81 545.85
  Q 372.98 545.10 372.48 544.52
  C 368.06 539.42 363.57 532.99 362.89 526.05
  Q 361.76 514.41 369.51 506.93
  Q 369.93 506.52 369.85 505.95
  Q 367.83 491.74 365.42 484.21
  Q 362.55 475.26 359.02 465.64
  Q 349.38 439.38 338.95 409.77
  C 338.11 407.41 336.73 403.69 339.91 402.47
  Q 341.49 401.87 342.77 403.05
  Q 353.39 412.86 363.31 422.35
  Q 364.67 423.66 364.25 421.82
  C 363.67 419.25 362.92 416.60 362.75 413.92
  C 362.52 410.42 365.51 408.67 368.59 410.56
  Q 372.90 413.21 376.54 415.91
  Q 408.37 439.49 436.18 464.01
  A 0.64 0.63 -53.5 0 0 437.15 463.86
  Q 454.02 435.65 473.79 409.53
  Q 485.20 394.47 498.49 381.88
  C 500.31 380.15 502.37 378.79 504.34 377.27
  A 0.34 0.34 0.0 0 0 504.33 376.73
  C 487.31 364.26 482.11 344.85 484.04 324.30
  Q 484.09 323.74 483.62 323.43
  Q 479.83 320.94 478.34 316.19
  C 477.90 314.77 477.64 313.54 476.53 312.43
  C 467.24 303.18 462.99 293.62 468.64 280.46
  C 473.79 268.46 484.55 257.55 497.44 254.38
  Q 498.00 254.24 498.17 253.69
  C 504.36 233.37 523.13 222.12 544.02 221.08
  Q 562.23 220.17 578.98 229.20
  Q 599.56 240.29 614.95 257.19
  C 621.46 264.34 625.65 272.78 626.30 282.56
  C 627.15 295.50 622.45 309.99 618.25 322.13
  A 1.57 1.57 0.0 0 0 618.25 323.19
  Q 622.50 335.36 615.27 344.71
  Q 609.19 352.56 599.28 352.16
  A 0.81 0.81 0.0 0 0 598.48 352.73
  Q 596.56 359.15 593.74 364.16
  Q 593.47 364.64 593.92 364.95
  Q 596.78 366.92 598.84 370.01
  Q 599.74 371.37 598.65 372.58
  L 598.39 372.88
  Q 596.94 374.50 595.42 372.95
  Q 593.36 370.85 591.90 368.59
  A 0.51 0.51 0.0 0 0 591.10 368.51
  L 584.24 375.53
  A 0.52 0.52 0.0 0 0 584.36 376.34
  C 586.17 377.34 591.71 381.34 588.56 383.84
  A 2.26 2.25 -44.5 0 1 585.74 383.82
  Q 582.98 381.59 580.89 378.65
  A 0.56 0.55 -36.0 0 0 580.09 378.53
  Q 576.40 381.34 572.50 382.90
  A 0.66 0.65 63.1 0 0 572.19 383.86
  Q 574.70 387.91 578.18 390.08
  Q 580.13 391.30 578.95 393.27
  Q 578.72 393.66 578.37 393.96
  Q 577.03 395.10 575.52 394.18
  C 572.22 392.19 570.20 388.73 568.07 385.41
  Q 567.73 384.89 567.16 385.13
  Q 562.70 386.96 558.04 387.71
  A 0.48 0.48 0.0 0 0 557.68 388.38
  Q 559.94 393.65 564.33 397.54
  Q 565.98 399.00 564.39 400.52
  Q 564.28 400.63 564.16 400.73
  A 2.68 2.67 45.5 0 1 560.52 400.69
  Q 555.21 395.66 553.09 388.83
  Q 553.00 388.56 552.72 388.56
  L 543.51 388.75
  Q 543.22 388.76 543.28 389.04
  Q 544.92 396.91 550.25 401.17
  Q 551.86 402.45 550.36 403.86
  L 550.11 404.09
  Q 548.57 405.52 546.84 404.33
  C 542.26 401.19 538.96 394.04 538.51 389.08
  Q 538.47 388.68 538.08 388.61
  L 529.60 387.18
  Q 529.34 387.14 529.43 387.39
  Z
  M 596.87 347.13
  Q 598.77 347.03 600.93 346.91
  C 610.00 346.40 615.90 337.36 614.39 328.76
  Q 613.48 323.55 609.43 321.20
  C 602.47 317.16 595.86 321.90 594.41 328.90
  C 593.70 332.34 593.38 337.66 588.19 336.35
  C 582.40 334.91 580.87 330.26 579.26 325.16
  C 578.41 322.49 576.01 320.42 573.20 320.40
  C 553.45 320.26 532.84 320.35 515.56 309.65
  Q 506.40 303.97 501.12 294.71
  A 0.69 0.68 -38.2 0 0 500.02 294.58
  Q 495.27 299.77 491.02 305.46
  Q 488.60 308.70 488.45 313.61
  Q 488.32 317.87 488.61 321.22
  Q 488.92 324.85 488.81 328.41
  C 488.58 335.69 489.21 343.32 491.52 350.26
  Q 493.06 354.92 494.38 357.40
  C 501.78 371.32 514.78 378.67 530.15 381.69
  C 541.37 383.89 552.84 384.20 563.45 380.72
  C 577.77 376.03 588.55 366.67 593.45 351.95
  Q 594.28 349.45 595.84 347.63
  Q 596.25 347.16 596.87 347.13
  Z
  M 441.17 490.11
  Q 439.99 491.81 438.32 490.59
  C 425.39 481.09 412.31 471.58 400.16 461.59
  Q 372.41 438.80 346.72 413.77
  Q 345.25 412.34 345.95 414.27
  C 351.66 430.08 357.57 446.85 363.55 462.87
  Q 367.00 472.12 370.08 481.50
  C 372.56 489.04 373.76 496.97 375.35 504.74
  A 0.97 0.96 82.1 0 0 376.36 505.51
  C 379.19 505.32 382.04 506.53 384.41 507.95
  Q 394.10 513.76 402.62 522.65
  C 405.94 526.12 409.59 528.78 413.41 531.69
  A 7.57 7.56 6.2 0 1 415.70 534.54
  C 417.28 537.97 419.18 541.33 420.71 544.69
  Q 436.29 578.84 442.25 591.41
  Q 449.52 606.76 456.62 619.41
  Q 458.74 623.18 459.55 624.22
  Q 478.12 648.20 501.31 666.87
  A 1.47 1.46 46.0 0 0 503.11 666.91
  Q 537.37 641.29 567.85 617.59
  C 585.59 603.79 602.96 589.30 619.52 574.64
  Q 620.11 574.12 619.34 573.98
  C 613.84 573.03 609.16 575.24 604.24 577.32
  C 598.68 579.67 594.28 584.49 592.06 590.03
  Q 591.51 591.41 590.19 591.67
  A 1.64 1.63 85.6 0 1 588.23 589.98
  C 588.56 583.79 594.18 578.09 599.30 574.87
  C 605.68 570.86 615.93 567.67 623.43 570.37
  Q 623.92 570.54 624.32 570.22
  L 639.47 558.03
  A 1.15 1.13 -28.6 0 0 639.85 556.78
  Q 628.52 522.23 616.15 488.69
  C 613.51 481.53 610.42 474.57 607.91 467.40
  A 0.51 0.51 0.0 0 0 607.30 467.07
  Q 583.72 473.29 560.50 479.79
  Q 546.06 483.83 511.11 491.28
  C 491.50 495.46 470.07 498.75 449.78 496.31
  A 2.53 2.47 66.8 0 1 448.52 495.79
  Q 445.77 493.65 447.58 491.74
  A 1.72 1.69 24.8 0 1 449.04 491.22
  C 471.09 494.00 494.40 489.50 516.78 484.70
  Q 554.31 476.67 589.43 466.16
  Q 589.55 466.13 589.51 466.01
  Q 588.13 461.91 586.28 458.07
  Q 586.23 457.96 586.11 457.99
  Q 553.84 466.82 520.15 475.41
  Q 500.58 480.40 480.98 483.98
  Q 473.74 485.31 464.04 485.57
  C 455.16 485.81 448.32 484.75 442.22 478.01
  Q 434.33 469.28 425.39 461.69
  Q 397.81 438.25 369.28 417.15
  Q 367.99 416.19 368.39 417.74
  Q 369.18 420.78 369.19 423.49
  Q 369.20 424.10 368.89 424.62
  L 368.19 425.85
  Q 367.95 426.28 368.31 426.62
  C 390.93 447.97 415.36 467.42 440.83 485.83
  Q 443.04 487.43 441.48 489.68
  L 441.17 490.11
  Z
  M 376.57 541.03
  C 378.81 543.55 378.08 546.42 377.56 550.02
  C 376.95 554.21 380.82 558.85 383.72 561.89
  A 0.64 0.64 0.0 0 0 384.77 561.70
  Q 391.40 546.45 398.44 530.19
  Q 399.02 528.84 399.17 526.99
  Q 399.21 526.48 398.83 526.12
  Q 391.98 519.61 384.67 514.48
  C 380.32 511.42 373.51 507.96 370.03 514.76
  C 365.19 524.22 369.87 533.50 376.57 541.03
  Z"
/>
<path fill="#feffff" d="
  M 595.84 347.63
  Q 594.28 349.45 593.45 351.95
  C 588.55 366.67 577.77 376.03 563.45 380.72
  C 552.84 384.20 541.37 383.89 530.15 381.69
  C 514.78 378.67 501.78 371.32 494.38 357.40
  Q 493.06 354.92 491.52 350.26
  C 489.21 343.32 488.58 335.69 488.81 328.41
  Q 488.92 324.85 488.61 321.22
  Q 488.32 317.87 488.45 313.61
  Q 488.60 308.70 491.02 305.46
  Q 495.27 299.77 500.02 294.58
  A 0.69 0.68 -38.2 0 1 501.12 294.71
  Q 506.40 303.97 515.56 309.65
  C 532.84 320.35 553.45 320.26 573.20 320.40
  C 576.01 320.42 578.41 322.49 579.26 325.16
  C 580.87 330.26 582.40 334.91 588.19 336.35
  C 593.38 337.66 593.70 332.34 594.41 328.90
  C 595.86 321.90 602.47 317.16 609.43 321.20
  Q 613.48 323.55 614.39 328.76
  C 615.90 337.36 610.00 346.40 600.93 346.91
  Q 598.77 347.03 596.87 347.13
  Q 596.25 347.16 595.84 347.63
  Z
  M 512.4429 329.4206
  A 2.28 2.28 0.0 0 0 510.1156 327.1889
  L 509.8957 327.1935
  A 2.28 2.28 0.0 0 0 507.6639 329.5207
  L 507.7971 335.8794
  A 2.28 2.28 0.0 0 0 510.1244 338.1111
  L 510.3443 338.1065
  A 2.28 2.28 0.0 0 0 512.5761 335.7793
  L 512.4429 329.4206
  Z
  M 542.8566 329.5087
  A 2.14 2.14 0.0 0 0 540.6396 327.4485
  L 540.3798 327.4581
  A 2.14 2.14 0.0 0 0 538.3197 329.6750
  L 538.5234 335.2313
  A 2.14 2.14 0.0 0 0 540.7404 337.2915
  L 541.0002 337.2819
  A 2.14 2.14 0.0 0 0 543.0603 335.0650
  L 542.8566 329.5087
  Z"
/>
<rect fill="#000000" x="-2.39" y="-5.46" transform="translate(510.12,332.65) rotate(-1.2)" width="4.78" height="10.92" rx="2.28"/>
<rect fill="#000000" x="-2.27" y="-4.92" transform="translate(540.69,332.37) rotate(-2.1)" width="4.54" height="9.84" rx="2.14"/>
<path fill="#000000" d="
  M 674.40 415.95
  C 669.52 420.10 665.29 425.37 662.14 430.61
  Q 644.17 460.53 640.33 497.23
  Q 640.17 498.76 638.66 499.08
  Q 637.90 499.24 636.89 498.52
  A 2.13 2.12 -69.2 0 1 636.02 496.57
  Q 639.43 464.63 653.73 436.57
  Q 659.07 426.10 665.78 418.11
  Q 668.15 415.30 671.37 413.10
  Q 672.70 412.19 673.93 413.22
  L 674.40 413.62
  Q 675.78 414.78 674.40 415.95
  Z"
/>
<path fill="#feffff" d="
  M 441.17 490.11
  L 441.48 489.68
  Q 443.04 487.43 440.83 485.83
  C 415.36 467.42 390.93 447.97 368.31 426.62
  Q 367.95 426.28 368.19 425.85
  L 368.89 424.62
  Q 369.20 424.10 369.19 423.49
  Q 369.18 420.78 368.39 417.74
  Q 367.99 416.19 369.28 417.15
  Q 397.81 438.25 425.39 461.69
  Q 434.33 469.28 442.22 478.01
  C 448.32 484.75 455.16 485.81 464.04 485.57
  Q 473.74 485.31 480.98 483.98
  Q 500.58 480.40 520.15 475.41
  Q 553.84 466.82 586.11 457.99
  Q 586.23 457.96 586.28 458.07
  Q 588.13 461.91 589.51 466.01
  Q 589.55 466.13 589.43 466.16
  Q 554.31 476.67 516.78 484.70
  C 494.40 489.50 471.09 494.00 449.04 491.22
  A 1.72 1.69 24.8 0 0 447.58 491.74
  Q 445.77 493.65 448.52 495.79
  A 2.53 2.47 66.8 0 0 449.78 496.31
  C 470.07 498.75 491.50 495.46 511.11 491.28
  Q 546.06 483.83 560.50 479.79
  Q 583.72 473.29 607.30 467.07
  A 0.51 0.51 0.0 0 1 607.91 467.40
  C 610.42 474.57 613.51 481.53 616.15 488.69
  Q 628.52 522.23 639.85 556.78
  A 1.15 1.13 -28.6 0 1 639.47 558.03
  L 624.32 570.22
  Q 623.92 570.54 623.43 570.37
  C 615.93 567.67 605.68 570.86 599.30 574.87
  C 594.18 578.09 588.56 583.79 588.23 589.98
  A 1.64 1.63 85.6 0 0 590.19 591.67
  Q 591.51 591.41 592.06 590.03
  C 594.28 584.49 598.68 579.67 604.24 577.32
  C 609.16 575.24 613.84 573.03 619.34 573.98
  Q 620.11 574.12 619.52 574.64
  C 602.96 589.30 585.59 603.79 567.85 617.59
  Q 537.37 641.29 503.11 666.91
  A 1.47 1.46 46.0 0 1 501.31 666.87
  Q 478.12 648.20 459.55 624.22
  Q 458.74 623.18 456.62 619.41
  Q 449.52 606.76 442.25 591.41
  Q 436.29 578.84 420.71 544.69
  C 419.18 541.33 417.28 537.97 415.70 534.54
  A 7.57 7.56 6.2 0 0 413.41 531.69
  C 409.59 528.78 405.94 526.12 402.62 522.65
  Q 394.10 513.76 384.41 507.95
  C 382.04 506.53 379.19 505.32 376.36 505.51
  A 0.97 0.96 82.1 0 1 375.35 504.74
  C 373.76 496.97 372.56 489.04 370.08 481.50
  Q 367.00 472.12 363.55 462.87
  C 357.57 446.85 351.66 430.08 345.95 414.27
  Q 345.25 412.34 346.72 413.77
  Q 372.41 438.80 400.16 461.59
  C 412.31 471.58 425.39 481.09 438.32 490.59
  Q 439.99 491.81 441.17 490.11
  Z
  M 397.56 483.66
  Q 399.38 494.26 402.09 504.39
  A 2.48 2.46 -72.5 0 0 402.58 505.34
  Q 404.18 507.25 405.38 506.83
  Q 407.03 506.24 406.65 504.53
  L 401.62 482.24
  Q 401.29 480.79 400.14 479.85
  Q 388.23 470.19 374.98 461.03
  A 1.49 1.48 -40.6 0 0 373.49 460.92
  Q 372.88 461.21 372.58 461.71
  Q 371.47 463.54 373.17 464.83
  L 397.28 483.19
  A 0.76 0.76 0.0 0 1 397.56 483.66
  Z
  M 551.25 502.33
  Q 577.95 497.73 605.70 491.25
  Q 607.96 490.72 608.29 488.60
  Q 608.34 488.23 608.07 487.91
  Q 606.80 486.45 604.91 486.88
  Q 578.26 492.91 551.03 497.90
  Q 548.43 498.37 546.11 499.48
  Q 545.65 499.70 545.49 500.19
  Q 545.05 501.50 545.48 502.96
  Q 555.05 535.39 564.27 567.49
  Q 565.01 570.07 566.93 569.65
  C 568.93 569.22 571.56 569.68 573.75 569.35
  Q 595.42 566.11 615.35 560.83
  Q 617.51 560.26 619.01 558.56
  A 1.48 1.48 0.0 0 0 618.83 556.43
  Q 617.84 555.63 616.70 555.93
  Q 598.88 560.71 578.47 564.16
  Q 573.88 564.94 569.14 565.36
  A 1.21 1.21 0.0 0 1 567.87 564.48
  Q 559.92 535.54 550.17 504.11
  Q 549.70 502.60 551.25 502.33
  Z
  M 484.04 599.50
  Q 489.43 626.05 493.49 649.62
  A 2.61 2.60 -8.7 0 0 496.41 651.76
  L 496.81 651.71
  Q 498.34 651.50 498.29 649.97
  Q 498.19 646.96 497.65 643.79
  Q 493.18 617.72 488.76 597.45
  C 487.98 593.89 487.11 590.39 485.57 587.11
  C 471.66 557.57 458.84 530.50 446.25 501.32
  Q 445.42 499.40 443.02 499.84
  Q 442.58 499.93 442.23 500.36
  Q 441.18 501.65 441.78 503.21
  Q 445.83 513.57 449.90 522.60
  Q 465.01 556.08 481.19 590.05
  C 482.56 592.94 483.40 596.31 484.04 599.50
  Z
  M 521.56 526.00
  C 521.52 520.64 517.16 514.99 513.01 511.71
  C 504.04 504.60 490.57 502.60 480.02 507.74
  Q 472.39 511.47 469.97 519.59
  Q 468.89 523.21 471.68 524.47
  A 1.68 1.68 0.0 0 0 474.04 523.05
  C 474.15 521.57 473.90 520.10 474.68 518.74
  Q 478.24 512.52 484.04 510.82
  Q 499.15 506.38 510.81 515.61
  Q 517.44 520.86 517.43 529.04
  A 1.57 1.56 6.8 0 0 518.63 530.56
  C 521.35 531.20 524.68 530.90 526.90 532.68
  C 530.05 535.20 529.64 537.65 529.15 541.22
  A 1.83 1.82 10.3 0 0 530.56 543.25
  Q 531.83 543.53 532.58 542.35
  C 533.78 540.48 534.63 538.61 534.10 536.31
  Q 532.04 527.18 522.18 526.65
  Q 521.57 526.62 521.56 526.00
  Z
  M 607.64 505.88
  C 595.82 508.06 584.54 510.51 573.14 513.02
  Q 572.17 513.24 571.67 514.11
  Q 571.27 514.83 571.62 515.38
  Q 572.58 516.92 574.37 516.86
  Q 577.40 516.76 580.37 516.08
  Q 594.75 512.80 609.40 509.95
  A 1.80 1.79 14.4 0 0 610.44 509.34
  Q 611.72 507.84 610.94 507.14
  Q 609.22 505.59 607.64 505.88
  Z
  M 438.27 531.88
  Q 444.17 558.91 449.43 582.11
  A 3.02 3.00 -1.3 0 0 451.84 584.40
  Q 452.03 584.43 452.19 584.33
  A 3.20 3.16 68.6 0 0 453.64 580.96
  Q 448.11 554.73 441.85 528.74
  Q 441.58 527.63 440.68 526.94
  Q 427.76 517.06 413.62 507.09
  A 2.86 2.56 -44.7 0 0 410.44 507.25
  Q 410.32 507.34 410.26 507.47
  A 2.79 2.57 31.5 0 0 411.21 510.82
  Q 424.95 520.68 436.82 529.61
  A 3.92 3.92 0.0 0 1 438.27 531.88
  Z
  M 608.25 523.68
  Q 610.65 523.11 612.60 522.06
  A 1.70 1.69 53.8 0 0 613.01 519.39
  C 611.31 517.63 606.97 519.48 604.93 519.91
  Q 590.49 522.98 576.98 525.39
  Q 575.08 525.73 574.30 527.50
  Q 574.13 527.89 574.37 528.23
  Q 575.64 530.04 578.06 529.65
  Q 593.56 527.15 608.25 523.68
  Z
  M 617.3005 533.5185
  A 2.17 2.17 0.0 0 0 614.7355 531.8337
  L 586.6122 537.6577
  A 2.17 2.17 0.0 0 0 584.9274 540.2227
  L 584.9395 540.2815
  A 2.17 2.17 0.0 0 0 587.5045 541.9663
  L 615.6278 536.1423
  A 2.17 2.17 0.0 0 0 617.3126 533.5773
  L 617.3005 533.5185
  Z
  M 494.81 563.28
  A 0.50 0.49 74.4 0 1 495.16 562.64
  Q 513.55 558.22 528.93 555.37
  Q 536.51 553.97 543.93 553.34
  A 1.27 1.26 -9.8 0 1 545.26 554.27
  Q 552.85 583.10 559.72 612.74
  A 2.04 1.97 21.3 0 0 560.02 613.39
  Q 561.50 615.39 562.51 614.76
  Q 564.40 613.58 564.02 611.90
  Q 557.13 581.75 549.32 553.02
  C 548.54 550.15 547.44 548.03 544.01 548.51
  Q 519.30 551.95 494.84 558.14
  C 493.32 558.53 491.92 558.71 491.45 560.51
  Q 490.51 564.11 491.07 565.70
  C 497.84 585.15 503.42 605.07 509.28 624.95
  Q 510.64 629.56 515.10 630.21
  Q 518.98 630.78 523.39 630.38
  Q 533.73 629.43 543.72 626.42
  Q 546.10 625.70 547.89 624.03
  A 1.79 1.78 -39.3 0 0 548.13 621.69
  Q 547.44 620.71 546.25 621.08
  Q 534.90 624.56 523.45 625.95
  C 520.60 626.29 517.83 625.97 515.00 625.63
  A 1.64 1.63 -4.2 0 1 513.61 624.44
  Q 504.88 593.05 494.81 563.28
  Z
  M 538.6208 572.9867
  A 2.11 2.11 0.0 0 0 536.1616 571.2966
  L 513.0748 575.5754
  A 2.11 2.11 0.0 0 0 511.3846 578.0346
  L 511.3992 578.1133
  A 2.11 2.11 0.0 0 0 513.8584 579.8034
  L 536.9452 575.5246
  A 2.11 2.11 0.0 0 0 538.6354 573.0654
  L 538.6208 572.9867
  Z
  M 518.80 593.09
  C 526.07 592.26 533.80 590.84 540.98 588.98
  A 1.47 1.46 3.2 0 0 541.97 588.10
  Q 542.33 587.19 541.98 586.57
  Q 540.95 584.80 538.93 585.16
  L 515.98 589.35
  A 1.32 1.32 0.0 0 0 514.98 590.17
  Q 514.10 592.35 518.08 593.07
  A 2.65 2.58 45.8 0 0 518.80 593.09
  Z
  M 477.0960 605.2821
  A 2.16 2.16 0.0 0 0 476.5184 602.2825
  L 460.2884 591.2940
  A 2.16 2.16 0.0 0 0 457.2888 591.8716
  L 457.2440 591.9379
  A 2.16 2.16 0.0 0 0 457.8216 594.9375
  L 474.0516 605.9260
  A 2.16 2.16 0.0 0 0 477.0512 605.3484
  L 477.0960 605.2821
  Z
  M 544.6763 600.0888
  A 2.15 2.15 0.0 0 0 542.1555 598.3886
  L 521.1487 602.4719
  A 2.15 2.15 0.0 0 0 519.4485 604.9926
  L 519.4637 605.0712
  A 2.15 2.15 0.0 0 0 521.9845 606.7714
  L 542.9913 602.6881
  A 2.15 2.15 0.0 0 0 544.6915 600.1674
  L 544.6763 600.0888
  Z
  M 478.8247 617.9530
  A 2.16 2.16 0.0 0 0 478.3785 614.9311
  L 461.9368 602.7204
  A 2.16 2.16 0.0 0 0 458.9149 603.1667
  L 458.8553 603.2470
  A 2.16 2.16 0.0 0 0 459.3015 606.2689
  L 475.7432 618.4796
  A 2.16 2.16 0.0 0 0 478.7651 618.0333
  L 478.8247 617.9530
  Z"
/>
<path fill="#000000" d="
  M 485.06 464.77
  C 482.80 456.19 480.72 448.20 476.21 440.77
  A 1.27 1.26 46.1 0 1 476.23 439.43
  Q 476.75 438.61 477.54 438.54
  Q 479.71 438.36 480.95 440.17
  Q 482.57 442.52 483.82 445.62
  Q 487.26 454.19 488.87 462.77
  Q 489.27 464.88 487.82 466.16
  Q 487.56 466.38 487.19 466.39
  Q 485.49 466.42 485.06 464.77
  Z"
/>
<path fill="#000000" d="
  M 397.56 483.66
  A 0.76 0.76 0.0 0 0 397.28 483.19
  L 373.17 464.83
  Q 371.47 463.54 372.58 461.71
  Q 372.88 461.21 373.49 460.92
  A 1.49 1.48 -40.6 0 1 374.98 461.03
  Q 388.23 470.19 400.14 479.85
  Q 401.29 480.79 401.62 482.24
  L 406.65 504.53
  Q 407.03 506.24 405.38 506.83
  Q 404.18 507.25 402.58 505.34
  A 2.48 2.46 -72.5 0 1 402.09 504.39
  Q 399.38 494.26 397.56 483.66
  Z"
/>
<path fill="#000000" d="
  M 551.25 502.33
  Q 549.70 502.60 550.17 504.11
  Q 559.92 535.54 567.87 564.48
  A 1.21 1.21 0.0 0 0 569.14 565.36
  Q 573.88 564.94 578.47 564.16
  Q 598.88 560.71 616.70 555.93
  Q 617.84 555.63 618.83 556.43
  A 1.48 1.48 0.0 0 1 619.01 558.56
  Q 617.51 560.26 615.35 560.83
  Q 595.42 566.11 573.75 569.35
  C 571.56 569.68 568.93 569.22 566.93 569.65
  Q 565.01 570.07 564.27 567.49
  Q 555.05 535.39 545.48 502.96
  Q 545.05 501.50 545.49 500.19
  Q 545.65 499.70 546.11 499.48
  Q 548.43 498.37 551.03 497.90
  Q 578.26 492.91 604.91 486.88
  Q 606.80 486.45 608.07 487.91
  Q 608.34 488.23 608.29 488.60
  Q 607.96 490.72 605.70 491.25
  Q 577.95 497.73 551.25 502.33
  Z"
/>
<path fill="#000000" d="
  M 484.04 599.50
  C 483.40 596.31 482.56 592.94 481.19 590.05
  Q 465.01 556.08 449.90 522.60
  Q 445.83 513.57 441.78 503.21
  Q 441.18 501.65 442.23 500.36
  Q 442.58 499.93 443.02 499.84
  Q 445.42 499.40 446.25 501.32
  C 458.84 530.50 471.66 557.57 485.57 587.11
  C 487.11 590.39 487.98 593.89 488.76 597.45
  Q 493.18 617.72 497.65 643.79
  Q 498.19 646.96 498.29 649.97
  Q 498.34 651.50 496.81 651.71
  L 496.41 651.76
  A 2.61 2.60 -8.7 0 1 493.49 649.62
  Q 489.43 626.05 484.04 599.50
  Z"
/>
<path fill="#000000" d="
  M 522.18 526.65
  Q 532.04 527.18 534.10 536.31
  C 534.63 538.61 533.78 540.48 532.58 542.35
  Q 531.83 543.53 530.56 543.25
  A 1.83 1.82 10.3 0 1 529.15 541.22
  C 529.64 537.65 530.05 535.20 526.90 532.68
  C 524.68 530.90 521.35 531.20 518.63 530.56
  A 1.57 1.56 6.8 0 1 517.43 529.04
  Q 517.44 520.86 510.81 515.61
  Q 499.15 506.38 484.04 510.82
  Q 478.24 512.52 474.68 518.74
  C 473.90 520.10 474.15 521.57 474.04 523.05
  A 1.68 1.68 0.0 0 1 471.68 524.47
  Q 468.89 523.21 469.97 519.59
  Q 472.39 511.47 480.02 507.74
  C 490.57 502.60 504.04 504.60 513.01 511.71
  C 517.16 514.99 521.52 520.64 521.56 526.00
  Q 521.57 526.62 522.18 526.65
  Z"
/>
<path fill="#000000" d="
  M 573.14 513.02
  C 584.54 510.51 595.82 508.06 607.64 505.88
  Q 609.22 505.59 610.94 507.14
  Q 611.72 507.84 610.44 509.34
  A 1.80 1.79 14.4 0 1 609.40 509.95
  Q 594.75 512.80 580.37 516.08
  Q 577.40 516.76 574.37 516.86
  Q 572.58 516.92 571.62 515.38
  Q 571.27 514.83 571.67 514.11
  Q 572.17 513.24 573.14 513.02
  Z"
/>
<path fill="#000000" d="
  M 438.27 531.88
  A 3.92 3.92 0.0 0 0 436.82 529.61
  Q 424.95 520.68 411.21 510.82
  A 2.79 2.57 31.5 0 1 410.26 507.47
  Q 410.32 507.34 410.44 507.25
  A 2.86 2.56 -44.7 0 1 413.62 507.09
  Q 427.76 517.06 440.68 526.94
  Q 441.58 527.63 441.85 528.74
  Q 448.11 554.73 453.64 580.96
  A 3.20 3.16 68.6 0 1 452.19 584.33
  Q 452.03 584.43 451.84 584.40
  A 3.02 3.00 -1.3 0 1 449.43 582.11
  Q 444.17 558.91 438.27 531.88
  Z"
/>
<path fill="#feffff" d="
  M 377.56 550.02
  C 378.08 546.42 378.81 543.55 376.57 541.03
  C 369.87 533.50 365.19 524.22 370.03 514.76
  C 373.51 507.96 380.32 511.42 384.67 514.48
  Q 391.98 519.61 398.83 526.12
  Q 399.21 526.48 399.17 526.99
  Q 399.02 528.84 398.44 530.19
  Q 391.40 546.45 384.77 561.70
  A 0.64 0.64 0.0 0 1 383.72 561.89
  C 380.82 558.85 376.95 554.21 377.56 550.02
  Z"
/>
<path fill="#000000" d="
  M 608.25 523.68
  Q 593.56 527.15 578.06 529.65
  Q 575.64 530.04 574.37 528.23
  Q 574.13 527.89 574.30 527.50
  Q 575.08 525.73 576.98 525.39
  Q 590.49 522.98 604.93 519.91
  C 606.97 519.48 611.31 517.63 613.01 519.39
  A 1.70 1.69 53.8 0 1 612.60 522.06
  Q 610.65 523.11 608.25 523.68
  Z"
/>
<rect fill="#000000" x="-16.53" y="-2.20" transform="translate(601.12,536.90) rotate(-11.7)" width="33.06" height="4.40" rx="2.17"/>
<path fill="#000000" d="
  M 494.81 563.28
  Q 504.88 593.05 513.61 624.44
  A 1.64 1.63 -4.2 0 0 515.00 625.63
  C 517.83 625.97 520.60 626.29 523.45 625.95
  Q 534.90 624.56 546.25 621.08
  Q 547.44 620.71 548.13 621.69
  A 1.79 1.78 -39.3 0 1 547.89 624.03
  Q 546.10 625.70 543.72 626.42
  Q 533.73 629.43 523.39 630.38
  Q 518.98 630.78 515.10 630.21
  Q 510.64 629.56 509.28 624.95
  C 503.42 605.07 497.84 585.15 491.07 565.70
  Q 490.51 564.11 491.45 560.51
  C 491.92 558.71 493.32 558.53 494.84 558.14
  Q 519.30 551.95 544.01 548.51
  C 547.44 548.03 548.54 550.15 549.32 553.02
  Q 557.13 581.75 564.02 611.90
  Q 564.40 613.58 562.51 614.76
  Q 561.50 615.39 560.02 613.39
  A 2.04 1.97 21.3 0 1 559.72 612.74
  Q 552.85 583.10 545.26 554.27
  A 1.27 1.26 -9.8 0 0 543.93 553.34
  Q 536.51 553.97 528.93 555.37
  Q 513.55 558.22 495.16 562.64
  A 0.50 0.49 74.4 0 0 494.81 563.28
  Z"
/>
<rect fill="#000000" x="-13.85" y="-2.15" transform="translate(525.01,575.55) rotate(-10.5)" width="27.70" height="4.30" rx="2.11"/>
<path fill="#000000" d="
  M 540.98 588.98
  C 533.80 590.84 526.07 592.26 518.80 593.09
  A 2.65 2.58 45.8 0 1 518.08 593.07
  Q 514.10 592.35 514.98 590.17
  A 1.32 1.32 0.0 0 1 515.98 589.35
  L 538.93 585.16
  Q 540.95 584.80 541.98 586.57
  Q 542.33 587.19 541.97 588.10
  A 1.47 1.46 3.2 0 1 540.98 588.98
  Z"
/>
<rect fill="#000000" x="-11.96" y="-2.20" transform="translate(467.17,598.61) rotate(34.1)" width="23.92" height="4.40" rx="2.16"/>
<rect fill="#000000" x="-12.85" y="-2.19" transform="translate(532.07,602.58) rotate(-11.0)" width="25.70" height="4.38" rx="2.15"/>
<rect fill="#000000" x="-12.40" y="-2.21" transform="translate(468.84,610.60) rotate(36.6)" width="24.80" height="4.42" rx="2.16"/>
<path fill="#000000" d="
  M 256.59 778.68
  Q 259.54 779.82 262.98 780.43
  Q 295.84 786.22 322.99 789.18
  C 332.04 790.17 341.77 791.12 350.88 789.95
  C 355.95 789.29 359.72 783.51 362.63 779.84
  Q 363.72 778.46 365.14 779.51
  L 366.88 780.81
  Q 367.91 781.57 367.17 782.61
  C 362.73 788.84 358.19 794.84 350.18 795.50
  Q 341.52 796.22 331.65 795.41
  Q 310.35 793.68 285.86 789.79
  C 276.23 788.26 266.29 786.94 256.74 784.67
  C 249.37 782.92 248.63 774.46 251.99 768.81
  C 255.52 762.87 261.86 758.70 267.60 755.27
  Q 277.90 749.11 288.92 742.75
  Q 310.85 730.10 329.61 713.21
  Q 330.71 712.22 331.31 710.79
  Q 333.44 705.67 335.98 701.08
  Q 336.90 699.41 338.61 700.23
  L 339.96 700.88
  Q 341.48 701.61 340.82 703.17
  Q 338.46 708.75 335.65 714.09
  Q 334.32 716.63 331.20 719.28
  Q 308.32 738.75 282.21 753.10
  C 274.76 757.19 267.20 761.49 260.88 766.72
  C 257.94 769.15 254.13 774.12 255.85 777.97
  A 1.38 1.34 88.0 0 0 256.59 778.68
  Z"
/>
<path fill="#000000" d="
  M 380.67 758.91
  C 377.78 760.09 365.92 765.58 370.91 770.35
  Q 373.61 772.93 377.39 775.12
  Q 401.84 789.29 426.36 803.31
  Q 428.26 804.40 430.16 805.46
  C 438.21 809.96 446.98 806.90 454.38 802.40
  Q 461.98 797.78 469.07 792.89
  Q 485.83 781.35 503.25 768.06
  C 505.60 766.26 507.61 763.97 510.04 762.41
  Q 511.85 761.25 513.02 763.05
  L 513.20 763.34
  A 3.23 3.22 -35.6 0 1 512.49 767.62
  Q 485.96 788.70 460.27 805.25
  C 452.00 810.58 444.16 814.41 434.50 812.82
  C 430.36 812.14 426.74 810.23 423.27 808.18
  Q 400.00 794.43 376.12 780.68
  Q 370.94 777.70 366.85 774.19
  C 362.46 770.41 364.06 763.69 367.83 760.20
  Q 370.99 757.27 375.48 755.29
  Q 384.24 751.43 392.61 747.94
  Q 403.31 743.49 414.84 737.96
  Q 438.38 726.68 458.69 715.31
  Q 460.53 714.28 462.36 715.34
  Q 463.41 715.95 463.17 717.87
  A 2.11 2.10 78.9 0 1 462.11 719.45
  Q 422.14 742.03 380.67 758.91
  Z"
/>
<path fill="#000000" d="
  M 400.65 738.54
  C 398.86 741.68 396.87 740.73 394.47 742.36
  A 0.69 0.69 0.0 0 1 393.42 741.61
  Q 393.95 739.66 394.93 737.99
  Q 398.38 732.06 400.94 726.25
  Q 402.02 723.80 404.41 724.98
  L 405.12 725.33
  Q 407.08 726.30 406.12 728.26
  Q 403.75 733.09 400.65 738.54
  Z"
/>
</svg>
