<?xml version="1.0" encoding="UTF-8" standalone="no"?>
<!DOCTYPE svg PUBLIC "-//W3C//DTD SVG 1.1//EN" "http://www.w3.org/Graphics/SVG/1.1/DTD/svg11.dtd">
<svg xmlns="http://www.w3.org/2000/svg" version="1.1" viewBox="0.00 0.00 1024.00 1024.00">
<g stroke-width="2.00" fill="none" stroke-linecap="butt">
<path stroke="#818181" vector-effect="non-scaling-stroke" d="
  M 691.38 845.13
  Q 712.43 837.48 733.00 829.20
  C 757.28 819.43 785.45 804.73 794.59 778.41
  C 802.16 756.61 794.44 734.28 776.13 720.13
  C 763.82 710.61 748.59 705.07 733.27 701.21
  Q 720.50 698.00 709.28 695.98
  Q 682.14 691.07 648.23 685.66
  Q 631.26 682.94 613.91 679.80
  A 0.51 0.51 0.0 0 1 613.56 679.53
  Q 605.87 663.68 599.91 647.65
  Q 595.15 634.84 595.69 621.56
  A 0.27 0.27 0.0 0 1 596.10 621.34
  Q 612.86 631.58 632.04 640.11
  C 653.35 649.59 676.26 656.01 698.91 653.75
  C 709.64 652.68 721.45 648.86 729.43 641.33
  C 741.48 629.97 741.22 613.07 734.06 599.37
  Q 728.55 588.82 718.82 577.94
  Q 708.42 566.32 698.86 555.15
  C 680.66 533.89 665.19 510.13 652.50 484.98
  Q 644.31 468.73 637.26 455.73
  C 626.67 436.17 612.43 419.92 593.22 408.69
  Q 579.68 400.79 566.12 396.84
  C 555.42 393.73 546.92 389.93 544.11 378.36
  Q 542.94 373.51 543.76 365.74
  Q 545.36 350.62 546.13 336.24
  Q 546.16 335.53 545.77 334.88
  Q 545.45 334.37 546.04 334.24
  C 546.62 334.11 547.08 334.14 547.64 333.86
  C 572.94 321.03 584.92 293.80 582.67 265.87
  Q 580.54 239.48 562.57 217.08
  Q 562.30 216.73 562.61 216.42
  Q 576.08 203.01 573.30 184.50
  C 571.33 171.38 562.08 159.82 549.25 155.38
  C 525.00 147.00 501.87 163.91 502.40 189.52
  Q 502.41 190.09 501.84 190.15
  Q 467.46 193.55 443.77 219.32
  Q 436.92 226.77 433.75 233.37
  Q 423.87 253.87 424.70 278.95
  C 424.91 285.35 426.81 292.77 428.43 299.25
  Q 428.99 301.50 427.94 303.46
  Q 423.94 310.96 419.77 318.50
  A 2.98 2.98 0.0 0 0 422.30 322.92
  L 436.02 323.26
  Q 436.52 323.27 436.53 323.77
  C 436.99 341.52 448.64 353.38 465.69 355.65
  C 474.68 356.85 483.39 355.13 491.73 351.71
  Q 492.38 351.44 492.19 352.12
  Q 487.86 368.00 480.65 381.78
  C 476.70 389.33 471.56 394.89 462.94 396.92
  Q 429.76 404.74 411.21 433.10
  Q 405.14 442.37 400.21 452.52
  Q 393.08 467.20 385.42 481.06
  Q 373.58 502.47 356.18 522.41
  Q 346.52 533.49 332.95 546.17
  Q 316.99 561.09 307.69 575.73
  C 294.14 597.05 294.32 625.49 319.86 637.87
  C 338.00 646.66 360.07 644.11 379.96 638.93
  Q 403.10 632.89 427.22 621.85
  A 0.35 0.35 0.0 0 1 427.71 622.13
  C 429.75 638.41 430.59 658.80 418.72 671.99
  Q 415.68 675.37 410.92 678.91
  Q 410.51 679.20 410.01 679.20
  Q 387.02 678.92 365.64 679.17
  C 344.09 679.43 321.96 681.31 300.94 687.35
  Q 286.30 691.55 275.23 698.97
  C 252.50 714.22 240.72 742.69 252.30 768.74
  C 256.87 779.00 266.22 788.39 275.38 794.59
  Q 289.63 804.26 309.26 812.85
  C 329.92 821.91 350.62 829.43 371.63 837.05
  A 0.77 0.77 0.0 0 1 371.71 838.46
  Q 368.64 839.98 365.84 841.63
  C 358.38 846.01 349.74 847.72 341.18 846.96
  Q 326.54 845.66 313.85 848.19
  C 306.34 849.69 297.52 852.28 295.50 860.50
  Q 294.98 862.64 296.41 866.11
  A 0.89 0.88 -31.2 0 1 296.15 867.13
  L 295.55 867.62
  Q 295.06 868.03 294.94 868.66
  Q 294.47 871.11 294.57 873.62
  A 1.68 1.62 20.2 0 0 295.13 874.78
  Q 296.83 876.27 297.06 878.28
  C 297.42 881.41 301.39 883.06 304.03 883.15
  C 319.81 883.72 336.19 885.14 352.28 885.33
  Q 523.01 887.35 665.37 888.57
  C 673.28 888.64 681.33 888.56 689.07 886.76
  Q 710.95 881.69 722.36 878.43
  Q 727.91 876.84 728.61 870.53
  Q 728.67 870.01 729.03 869.65
  Q 733.21 865.40 730.87 859.65
  C 729.54 856.37 726.28 854.70 723.22 853.28
  Q 707.43 845.91 691.47 845.71
  Q 689.85 845.69 691.38 845.13"
/>
<path stroke="#818181" vector-effect="non-scaling-stroke" d="
  M 815.8931 835.7468
  A 15.78 7.08 124.1 0 0 830.6027 826.6493
  A 15.78 7.08 124.1 0 0 833.5869 809.6132
  A 15.78 7.08 124.1 0 0 818.8773 818.7107
  A 15.78 7.08 124.1 0 0 815.8931 835.7468"
/>
<path stroke="#818181" vector-effect="non-scaling-stroke" d="
  M 233.4252 829.9795
  A 17.00 6.50 29.3 0 0 221.7810 815.9915
  A 17.00 6.50 29.3 0 0 203.7748 813.3405
  A 17.00 6.50 29.3 0 0 215.4190 827.3285
  A 17.00 6.50 29.3 0 0 233.4252 829.9795"
/>
<path stroke="#818181" vector-effect="non-scaling-stroke" d="
  M 273.3596 829.6496
  A 13.38 5.91 32.3 0 0 265.2080 817.5045
  A 13.38 5.91 32.3 0 0 250.7404 815.3504
  A 13.38 5.91 32.3 0 0 258.8920 827.4955
  A 13.38 5.91 32.3 0 0 273.3596 829.6496"
/>
<path stroke="#818181" vector-effect="non-scaling-stroke" d="
  M 771.54 845.09
  C 778.71 843.52 787.85 839.15 791.06 832.39
  C 793.93 826.36 788.04 824.94 783.85 826.53
  Q 773.73 830.37 767.59 840.79
  C 765.60 844.18 768.56 845.74 771.54 845.09"
/>
<path stroke="#818181" vector-effect="non-scaling-stroke" d="
  M 517.37 300.79
  Q 522.31 298.97 525.38 294.37
  C 529.59 288.05 528.65 277.20 520.03 275.11
  Q 511.39 273.02 507.05 280.70
  A 0.27 0.27 0.0 0 1 506.72 280.82
  C 480.51 271.72 455.44 257.36 436.53 237.43
  A 0.27 0.27 0.0 0 0 436.09 237.52
  Q 429.87 252.48 428.73 269.06
  Q 427.71 283.99 432.75 298.57
  C 434.09 302.43 426.81 314.57 424.70 317.89
  A 0.46 0.45 -72.4 0 0 425.06 318.59
  L 439.11 319.19
  A 1.35 1.34 0.5 0 1 440.39 320.49
  C 440.52 324.55 440.62 328.62 441.92 332.48
  Q 446.25 345.34 458.98 349.80
  C 472.20 354.42 485.94 350.64 497.47 344.21
  A 0.69 0.69 0.0 0 1 498.48 344.98
  Q 494.90 359.34 489.35 373.09
  C 484.57 384.94 478.45 397.44 464.85 400.48
  A 0.31 0.31 0.0 0 0 464.70 401.00
  Q 467.57 403.71 470.48 406.12
  C 482.89 416.40 499.21 422.17 515.49 421.14
  C 532.80 420.05 548.94 413.39 559.72 399.87
  A 0.49 0.49 0.0 0 0 559.48 399.09
  C 545.28 394.68 538.37 383.66 539.55 369.00
  Q 540.68 354.90 542.12 338.92
  Q 542.32 336.74 542.12 334.45
  Q 542.08 333.95 541.65 333.69
  C 538.71 331.91 535.73 330.29 533.19 327.94
  Q 521.48 317.11 517.10 301.32
  A 0.44 0.44 0.0 0 1 517.37 300.79"
/>
<path stroke="#818181" vector-effect="non-scaling-stroke" d="
  M 522.32 437.27
  Q 525.54 436.17 528.70 435.26
  Q 529.25 435.10 529.57 434.63
  C 532.57 430.09 538.24 429.41 541.37 434.01
  Q 542.42 435.57 542.34 439.67
  Q 542.14 449.59 542.07 458.17
  Q 542.07 458.83 542.72 458.86
  C 547.30 459.06 550.45 462.27 550.43 466.73
  Q 550.32 484.03 550.65 502.14
  C 550.81 511.17 549.19 519.27 547.50 527.93
  C 545.03 540.61 556.21 547.78 565.43 553.09
  Q 579.39 561.12 595.42 566.85
  A 0.58 0.57 17.3 0 0 596.17 566.46
  C 600.46 549.54 600.71 528.20 591.82 512.95
  C 589.20 508.46 585.18 504.79 583.00 499.86
  C 577.26 486.86 580.69 473.20 584.72 460.00
  Q 591.01 439.35 599.11 418.42
  A 1.01 1.01 0.0 0 0 598.74 417.23
  Q 583.54 406.73 565.17 400.93
  A 1.11 1.10 -61.7 0 0 563.96 401.30
  Q 549.73 419.66 525.85 424.01
  C 501.85 428.39 477.60 421.04 460.71 402.78
  A 1.44 1.44 0.0 0 0 459.23 402.37
  Q 446.51 406.12 435.97 413.26
  Q 435.57 413.53 435.60 414.01
  Q 437.39 445.56 440.66 478.34
  Q 441.55 487.33 441.28 496.04
  C 441.19 499.02 440.40 501.78 439.85 504.67
  C 438.76 510.44 436.00 516.26 432.50 520.84
  C 422.95 533.32 421.37 548.55 425.01 563.82
  A 0.80 0.78 -13.4 0 0 425.97 564.40
  Q 449.75 558.60 471.40 549.54
  Q 478.78 546.45 483.43 543.28
  C 488.00 540.16 490.53 535.18 489.73 529.36
  Q 488.68 521.63 487.57 513.96
  Q 486.71 508.04 486.98 500.40
  Q 487.63 482.76 488.14 466.33
  Q 488.34 459.90 495.19 459.35
  C 495.82 459.30 496.41 459.59 497.03 459.60
  Q 497.58 459.61 497.59 459.06
  Q 497.79 449.53 497.94 439.95
  C 497.98 436.78 497.77 432.79 501.66 431.81
  Q 509.01 429.97 511.45 436.49
  Q 511.62 436.94 512.09 437.04
  Q 512.74 437.18 513.42 437.10
  C 515.39 436.86 517.88 438.23 519.31 439.43
  Q 519.83 439.87 520.13 439.25
  C 520.60 438.30 521.29 437.62 522.32 437.27"
/>
<path stroke="#818181" vector-effect="non-scaling-stroke" d="
  M 508.55 505.66
  Q 507.72 506.03 506.91 505.67
  A 0.99 0.98 11.9 0 1 506.33 504.79
  Q 506.21 498.50 506.39 492.25
  Q 507.13 466.81 507.90 448.46
  C 508.04 445.22 507.81 441.90 507.58 438.59
  Q 507.41 436.11 505.00 435.49
  Q 504.67 435.41 504.33 435.39
  Q 502.34 435.29 502.27 437.29
  L 500.02 504.74
  Q 500.00 505.51 499.22 505.47
  L 497.86 505.41
  A 0.88 0.87 -88.0 0 1 497.03 504.51
  L 498.06 464.70
  Q 498.09 463.34 496.74 463.45
  Q 495.30 463.57 493.86 463.70
  A 1.72 1.71 88.7 0 0 492.28 465.36
  Q 491.66 484.48 491.09 502.74
  C 490.84 510.63 492.31 518.27 493.55 526.04
  C 494.75 533.63 493.79 539.90 487.74 545.22
  Q 484.10 548.42 479.78 550.39
  Q 459.34 559.71 435.35 566.34
  Q 401.94 575.57 367.94 579.87
  Q 351.92 581.90 336.20 584.00
  Q 334.30 584.26 332.44 584.70
  Q 330.62 585.15 330.35 583.28
  Q 330.32 583.08 330.29 582.88
  Q 329.95 581.11 331.69 580.64
  Q 335.34 579.67 339.01 579.27
  C 366.98 576.21 393.56 572.44 420.64 565.87
  Q 421.43 565.68 421.22 564.89
  C 417.25 549.85 418.77 534.77 426.73 521.97
  Q 428.14 519.70 430.14 516.97
  Q 435.61 509.49 436.68 499.56
  Q 437.57 491.17 437.02 484.49
  Q 435.43 465.25 433.67 446.00
  Q 432.39 431.96 431.96 416.85
  A 0.22 0.22 0.0 0 0 431.61 416.68
  Q 427.23 419.91 423.81 423.70
  C 410.67 438.25 402.87 456.39 393.89 474.04
  Q 378.01 505.27 353.67 531.60
  Q 350.49 535.04 339.40 545.74
  C 328.15 556.59 316.95 567.81 309.33 581.32
  C 293.53 609.33 307.21 635.21 338.00 638.85
  Q 349.62 640.22 361.84 638.36
  Q 382.10 635.27 403.83 627.00
  Q 445.57 611.11 480.31 586.77
  Q 498.44 574.06 509.40 559.90
  C 511.84 556.75 515.86 550.24 516.11 545.84
  C 516.27 543.07 516.57 540.29 516.59 537.52
  Q 516.88 495.63 517.88 453.75
  Q 517.98 449.89 517.62 444.20
  A 3.66 3.65 3.7 0 0 514.67 440.85
  L 513.85 440.69
  Q 511.49 440.23 511.38 442.63
  Q 509.82 474.87 509.26 504.58
  A 1.23 1.20 78.9 0 1 508.55 505.66"
/>
<path stroke="#818181" vector-effect="non-scaling-stroke" d="
  M 529.30 505.06
  Q 528.18 504.99 528.19 503.87
  C 528.31 492.57 528.94 480.89 528.95 469.57
  Q 528.96 455.60 528.74 441.24
  Q 528.72 439.66 527.21 440.15
  L 524.50 441.03
  A 2.98 2.98 0.0 0 0 522.43 443.65
  Q 522.05 448.69 521.93 454.00
  C 521.27 482.71 520.70 511.44 520.68 540.15
  Q 520.68 544.23 521.93 547.42
  C 526.76 559.71 535.18 569.31 544.73 578.18
  Q 565.77 597.72 591.13 613.41
  C 618.93 630.60 649.43 646.68 682.25 649.80
  Q 690.46 650.58 699.09 649.54
  C 716.04 647.49 735.20 638.56 734.91 618.50
  C 734.77 608.36 730.06 599.22 724.07 591.22
  C 718.07 583.20 713.00 577.50 704.75 568.40
  Q 673.63 534.06 652.59 494.01
  Q 644.75 479.10 637.39 464.61
  C 628.86 447.80 618.01 432.14 602.95 420.33
  A 0.35 0.34 -61.5 0 0 602.42 420.49
  Q 595.92 438.78 590.06 456.55
  Q 585.48 470.41 584.27 480.29
  Q 583.15 489.45 586.60 497.77
  C 588.20 501.64 591.24 504.74 593.64 508.14
  C 604.95 524.15 604.91 548.98 599.99 567.80
  Q 599.81 568.49 600.49 568.71
  Q 624.99 576.57 650.64 580.37
  C 666.36 582.70 682.24 584.09 697.96 585.78
  Q 699.57 585.96 705.18 587.32
  Q 707.23 587.82 706.46 589.78
  L 706.26 590.28
  Q 705.73 591.64 704.31 591.25
  Q 700.99 590.34 697.75 589.93
  Q 688.32 588.71 678.89 587.91
  Q 642.02 584.80 610.66 576.15
  Q 587.19 569.69 566.09 558.28
  C 560.97 555.51 555.95 552.13 551.45 548.38
  Q 545.01 543.03 543.55 535.63
  Q 542.62 530.99 544.01 524.31
  C 545.19 518.67 546.70 512.18 546.66 506.55
  Q 546.53 485.71 546.39 466.10
  Q 546.38 464.43 544.82 463.83
  L 542.85 463.09
  Q 541.33 462.51 541.26 464.14
  Q 540.42 484.06 540.36 503.99
  A 1.25 1.25 0.0 0 1 539.13 505.24
  L 538.33 505.26
  A 0.95 0.95 0.0 0 1 537.37 504.32
  C 537.23 482.81 538.26 460.40 538.11 437.54
  Q 538.10 435.62 536.22 435.24
  Q 535.70 435.13 535.20 435.26
  Q 532.55 435.91 532.50 438.64
  L 531.29 504.20
  Q 531.27 505.16 530.30 505.11
  L 529.30 505.06"
/>
<path stroke="#818181" vector-effect="non-scaling-stroke" d="
  M 517.58 554.99
  Q 511.40 565.71 502.22 574.24
  C 499.16 577.08 496.04 580.13 492.74 582.71
  Q 465.39 604.07 432.26 619.45
  A 0.96 0.96 0.0 0 0 431.71 620.39
  Q 432.21 626.31 432.76 632.93
  Q 434.11 649.39 429.02 663.24
  Q 426.61 669.80 419.62 677.23
  C 418.91 677.99 418.06 678.66 417.16 679.17
  Q 416.31 679.66 417.28 679.80
  Q 431.06 681.81 442.21 685.99
  C 458.38 692.04 474.11 698.83 491.61 702.68
  C 512.01 707.16 533.21 705.94 553.60 700.56
  Q 573.95 695.18 594.41 686.33
  Q 601.36 683.33 608.44 680.28
  A 0.72 0.72 0.0 0 0 608.81 679.32
  C 602.75 666.19 596.69 652.84 593.18 638.92
  C 591.55 632.45 591.34 626.15 591.86 619.60
  A 1.20 1.18 -71.8 0 0 591.32 618.51
  Q 582.70 613.06 573.66 606.86
  Q 554.31 593.59 537.17 576.64
  Q 525.89 565.49 519.21 552.54
  A 0.38 0.38 0.0 0 0 518.54 552.54
  C 518.13 553.36 518.06 554.17 517.58 554.99"
/>
<path stroke="#818181" vector-effect="non-scaling-stroke" d="
  M 332.36 871.45
  Q 332.48 872.81 331.71 873.66
  Q 331.36 874.03 330.86 873.99
  Q 319.51 872.90 308.66 875.63
  C 306.15 876.26 303.68 876.59 301.14 876.80
  A 0.47 0.47 0.0 0 0 300.75 877.44
  L 300.87 877.75
  A 0.90 0.88 -17.2 0 0 301.90 878.28
  Q 314.55 875.35 327.81 876.46
  A 0.76 0.75 7.3 0 1 328.49 877.34
  Q 328.39 877.88 327.81 878.05
  Q 325.74 878.66 323.91 878.61
  Q 317.82 878.44 311.42 879.03
  Q 309.94 879.17 311.40 879.43
  C 313.44 879.80 315.20 879.27 317.14 879.60
  C 320.27 880.13 322.69 879.07 325.83 879.50
  Q 334.66 880.72 346.00 880.82
  C 373.22 881.07 400.11 880.97 427.00 881.48
  Q 465.25 882.20 502.50 882.32
  Q 512.99 882.35 522.48 882.49
  Q 602.49 883.67 678.49 884.18
  Q 681.57 884.20 684.76 883.51
  Q 694.48 881.43 705.44 878.89
  Q 705.50 878.88 705.48 878.82
  L 705.48 878.82
  Q 705.46 878.69 705.33 878.71
  Q 697.17 879.91 689.12 880.76
  A 2.07 2.07 0.0 0 1 687.08 879.66
  Q 686.92 879.37 687.00 878.99
  Q 687.21 878.04 688.17 877.91
  Q 698.78 876.42 707.63 876.37
  Q 711.75 876.34 714.78 875.92
  Q 715.13 875.88 715.49 875.92
  Q 715.97 875.99 716.34 875.80
  Q 717.11 875.42 716.29 875.16
  C 707.23 872.28 696.56 872.22 687.18 873.62
  Q 685.67 873.84 685.61 872.32
  L 685.59 871.95
  A 1.15 1.15 0.0 0 1 686.56 870.77
  C 698.47 868.79 710.11 868.91 721.12 873.82
  A 2.11 2.10 -55.9 0 0 723.50 873.36
  L 723.85 872.99
  Q 725.18 871.60 723.41 870.84
  C 710.33 865.18 698.72 863.63 685.31 865.29
  A 1.80 1.79 -13.1 0 1 683.40 864.11
  L 683.25 863.69
  Q 682.84 862.53 684.05 862.31
  C 698.69 859.75 711.36 862.11 724.77 867.47
  Q 725.62 867.81 726.23 867.13
  C 730.37 862.48 726.03 859.08 722.07 857.28
  Q 702.58 848.40 680.80 849.54
  Q 679.67 849.60 678.48 850.07
  Q 662.71 856.29 647.94 861.75
  Q 615.76 873.66 582.99 880.82
  Q 581.79 881.09 581.02 880.83
  C 578.38 879.95 574.10 872.51 572.51 869.66
  Q 564.38 855.09 559.39 837.73
  Q 553.21 816.27 550.47 793.57
  Q 549.76 787.66 549.72 781.51
  A 1.76 1.75 -13.5 0 1 550.70 779.92
  Q 554.63 777.96 559.14 776.67
  C 567.24 774.34 575.21 772.04 583.33 770.10
  Q 639.47 756.70 695.32 742.91
  Q 696.15 742.71 695.99 741.87
  Q 695.81 740.87 695.65 740.02
  Q 695.50 739.20 694.68 739.39
  Q 638.33 752.92 582.15 766.59
  Q 570.55 769.42 557.12 773.34
  Q 552.15 774.78 548.18 777.04
  Q 546.08 778.24 545.99 780.91
  Q 545.74 788.02 547.16 797.29
  A 0.59 0.59 0.0 0 1 546.23 797.86
  Q 544.82 796.84 543.27 795.97
  C 518.70 782.24 492.48 771.08 465.79 761.03
  Q 416.05 742.29 361.22 722.25
  Q 360.64 722.03 360.41 722.61
  L 359.53 724.77
  Q 359.25 725.46 359.94 725.72
  Q 406.90 743.03 454.70 760.78
  Q 471.93 767.18 489.41 774.41
  Q 517.39 786.00 546.60 802.13
  Q 547.11 802.41 547.25 802.98
  L 548.21 806.86
  Q 548.37 807.48 547.82 807.82
  Q 546.01 808.96 543.81 809.81
  Q 490.13 830.44 449.69 843.59
  Q 437.27 847.63 424.10 850.57
  C 417.06 852.14 409.08 852.85 404.49 846.07
  C 400.33 839.93 393.70 836.54 386.26 837.36
  C 378.55 838.22 372.46 842.50 366.00 846.14
  C 357.97 850.68 347.60 851.95 338.56 850.93
  Q 324.66 849.37 309.97 853.44
  C 306.45 854.41 298.27 857.64 299.61 862.58
  Q 299.98 863.95 300.17 865.33
  A 1.28 1.28 0.0 0 0 301.72 866.41
  Q 318.90 862.54 337.30 864.30
  Q 338.73 864.43 339.15 865.81
  Q 339.25 866.13 339.21 866.47
  Q 339.12 867.39 338.20 867.31
  Q 320.86 865.82 304.56 869.12
  C 302.33 869.57 300.68 870.57 298.35 869.74
  A 0.49 0.49 0.0 0 0 297.73 870.37
  L 299.01 873.77
  A 1.13 1.11 71.5 0 0 300.36 874.45
  Q 315.68 869.99 331.83 870.93
  A 0.57 0.57 0.0 0 1 332.36 871.45"
/>
<path stroke="#818181" vector-effect="non-scaling-stroke" d="
  M 818.5789 831.7010
  A 10.85 2.91 124.6 0 0 827.1353 824.4224
  A 10.85 2.91 124.6 0 0 830.9011 813.8390
  A 10.85 2.91 124.6 0 0 822.3447 821.1176
  A 10.85 2.91 124.6 0 0 818.5789 831.7010"
/>
<path stroke="#818181" vector-effect="non-scaling-stroke" d="
  M 228.7248 827.4394
  A 11.61 2.33 29.4 0 0 219.7538 819.7101
  A 11.61 2.33 29.4 0 0 208.4952 816.0406
  A 11.61 2.33 29.4 0 0 217.4662 823.7699
  A 11.61 2.33 29.4 0 0 228.7248 827.4394"
/>
<path stroke="#818181" vector-effect="non-scaling-stroke" d="
  M 268.9411 826.8220
  A 8.23 1.84 32.5 0 0 262.9886 820.8482
  A 8.23 1.84 32.5 0 0 255.0589 817.9780
  A 8.23 1.84 32.5 0 0 261.0114 823.9518
  A 8.23 1.84 32.5 0 0 268.9411 826.8220"
/>
<path stroke="#818181" vector-effect="non-scaling-stroke" d="
  M 777.42 838.73
  Q 783.34 836.50 787.23 831.20
  Q 787.49 830.85 787.61 830.45
  A 0.45 0.45 0.0 0 0 787.08 829.90
  C 781.97 831.05 776.57 835.74 773.37 839.50
  Q 772.45 840.59 773.85 840.33
  C 775.15 840.08 776.22 839.19 777.42 838.73"
/>
</g>
<path fill="#feffff" d="
  M 1024.00 0.00
  L 1024.00 1024.00
  L 0.00 1024.00
  L 0.00 0.00
  L 1024.00 0.00
  Z
  M 691.38 845.13
  Q 712.43 837.48 733.00 829.20
  C 757.28 819.43 785.45 804.73 794.59 778.41
  C 802.16 756.61 794.44 734.28 776.13 720.13
  C 763.82 710.61 748.59 705.07 733.27 701.21
  Q 720.50 698.00 709.28 695.98
  Q 682.14 691.07 648.23 685.66
  Q 631.26 682.94 613.91 679.80
  A 0.51 0.51 0.0 0 1 613.56 679.53
  Q 605.87 663.68 599.91 647.65
  Q 595.15 634.84 595.69 621.56
  A 0.27 0.27 0.0 0 1 596.10 621.34
  Q 612.86 631.58 632.04 640.11
  C 653.35 649.59 676.26 656.01 698.91 653.75
  C 709.64 652.68 721.45 648.86 729.43 641.33
  C 741.48 629.97 741.22 613.07 734.06 599.37
  Q 728.55 588.82 718.82 577.94
  Q 708.42 566.32 698.86 555.15
  C 680.66 533.89 665.19 510.13 652.50 484.98
  Q 644.31 468.73 637.26 455.73
  C 626.67 436.17 612.43 419.92 593.22 408.69
  Q 579.68 400.79 566.12 396.84
  C 555.42 393.73 546.92 389.93 544.11 378.36
  Q 542.94 373.51 543.76 365.74
  Q 545.36 350.62 546.13 336.24
  Q 546.16 335.53 545.77 334.88
  Q 545.45 334.37 546.04 334.24
  C 546.62 334.11 547.08 334.14 547.64 333.86
  C 572.94 321.03 584.92 293.80 582.67 265.87
  Q 580.54 239.48 562.57 217.08
  Q 562.30 216.73 562.61 216.42
  Q 576.08 203.01 573.30 184.50
  C 571.33 171.38 562.08 159.82 549.25 155.38
  C 525.00 147.00 501.87 163.91 502.40 189.52
  Q 502.41 190.09 501.84 190.15
  Q 467.46 193.55 443.77 219.32
  Q 436.92 226.77 433.75 233.37
  Q 423.87 253.87 424.70 278.95
  C 424.91 285.35 426.81 292.77 428.43 299.25
  Q 428.99 301.50 427.94 303.46
  Q 423.94 310.96 419.77 318.50
  A 2.98 2.98 0.0 0 0 422.30 322.92
  L 436.02 323.26
  Q 436.52 323.27 436.53 323.77
  C 436.99 341.52 448.64 353.38 465.69 355.65
  C 474.68 356.85 483.39 355.13 491.73 351.71
  Q 492.38 351.44 492.19 352.12
  Q 487.86 368.00 480.65 381.78
  C 476.70 389.33 471.56 394.89 462.94 396.92
  Q 429.76 404.74 411.21 433.10
  Q 405.14 442.37 400.21 452.52
  Q 393.08 467.20 385.42 481.06
  Q 373.58 502.47 356.18 522.41
  Q 346.52 533.49 332.95 546.17
  Q 316.99 561.09 307.69 575.73
  C 294.14 597.05 294.32 625.49 319.86 637.87
  C 338.00 646.66 360.07 644.11 379.96 638.93
  Q 403.10 632.89 427.22 621.85
  A 0.35 0.35 0.0 0 1 427.71 622.13
  C 429.75 638.41 430.59 658.80 418.72 671.99
  Q 415.68 675.37 410.92 678.91
  Q 410.51 679.20 410.01 679.20
  Q 387.02 678.92 365.64 679.17
  C 344.09 679.43 321.96 681.31 300.94 687.35
  Q 286.30 691.55 275.23 698.97
  C 252.50 714.22 240.72 742.69 252.30 768.74
  C 256.87 779.00 266.22 788.39 275.38 794.59
  Q 289.63 804.26 309.26 812.85
  C 329.92 821.91 350.62 829.43 371.63 837.05
  A 0.77 0.77 0.0 0 1 371.71 838.46
  Q 368.64 839.98 365.84 841.63
  C 358.38 846.01 349.74 847.72 341.18 846.96
  Q 326.54 845.66 313.85 848.19
  C 306.34 849.69 297.52 852.28 295.50 860.50
  Q 294.98 862.64 296.41 866.11
  A 0.89 0.88 -31.2 0 1 296.15 867.13
  L 295.55 867.62
  Q 295.06 868.03 294.94 868.66
  Q 294.47 871.11 294.57 873.62
  A 1.68 1.62 20.2 0 0 295.13 874.78
  Q 296.83 876.27 297.06 878.28
  C 297.42 881.41 301.39 883.06 304.03 883.15
  C 319.81 883.72 336.19 885.14 352.28 885.33
  Q 523.01 887.35 665.37 888.57
  C 673.28 888.64 681.33 888.56 689.07 886.76
  Q 710.95 881.69 722.36 878.43
  Q 727.91 876.84 728.61 870.53
  Q 728.67 870.01 729.03 869.65
  Q 733.21 865.40 730.87 859.65
  C 729.54 856.37 726.28 854.70 723.22 853.28
  Q 707.43 845.91 691.47 845.71
  Q 689.85 845.69 691.38 845.13
  Z
  M 815.8931 835.7468
  A 15.78 7.08 124.1 0 0 830.6027 826.6493
  A 15.78 7.08 124.1 0 0 833.5869 809.6132
  A 15.78 7.08 124.1 0 0 818.8773 818.7107
  A 15.78 7.08 124.1 0 0 815.8931 835.7468
  Z
  M 233.4252 829.9795
  A 17.00 6.50 29.3 0 0 221.7810 815.9915
  A 17.00 6.50 29.3 0 0 203.7748 813.3405
  A 17.00 6.50 29.3 0 0 215.4190 827.3285
  A 17.00 6.50 29.3 0 0 233.4252 829.9795
  Z
  M 273.3596 829.6496
  A 13.38 5.91 32.3 0 0 265.2080 817.5045
  A 13.38 5.91 32.3 0 0 250.7404 815.3504
  A 13.38 5.91 32.3 0 0 258.8920 827.4955
  A 13.38 5.91 32.3 0 0 273.3596 829.6496
  Z
  M 771.54 845.09
  C 778.71 843.52 787.85 839.15 791.06 832.39
  C 793.93 826.36 788.04 824.94 783.85 826.53
  Q 773.73 830.37 767.59 840.79
  C 765.60 844.18 768.56 845.74 771.54 845.09
  Z"
/>
<path fill="#030302" d="
  M 691.38 845.13
  Q 689.85 845.69 691.47 845.71
  Q 707.43 845.91 723.22 853.28
  C 726.28 854.70 729.54 856.37 730.87 859.65
  Q 733.21 865.40 729.03 869.65
  Q 728.67 870.01 728.61 870.53
  Q 727.91 876.84 722.36 878.43
  Q 710.95 881.69 689.07 886.76
  C 681.33 888.56 673.28 888.64 665.37 888.57
  Q 523.01 887.35 352.28 885.33
  C 336.19 885.14 319.81 883.72 304.03 883.15
  C 301.39 883.06 297.42 881.41 297.06 878.28
  Q 296.83 876.27 295.13 874.78
  A 1.68 1.62 20.2 0 1 294.57 873.62
  Q 294.47 871.11 294.94 868.66
  Q 295.06 868.03 295.55 867.62
  L 296.15 867.13
  A 0.89 0.88 -31.2 0 0 296.41 866.11
  Q 294.98 862.64 295.50 860.50
  C 297.52 852.28 306.34 849.69 313.85 848.19
  Q 326.54 845.66 341.18 846.96
  C 349.74 847.72 358.38 846.01 365.84 841.63
  Q 368.64 839.98 371.71 838.46
  A 0.77 0.77 0.0 0 0 371.63 837.05
  C 350.62 829.43 329.92 821.91 309.26 812.85
  Q 289.63 804.26 275.38 794.59
  C 266.22 788.39 256.87 779.00 252.30 768.74
  C 240.72 742.69 252.50 714.22 275.23 698.97
  Q 286.30 691.55 300.94 687.35
  C 321.96 681.31 344.09 679.43 365.64 679.17
  Q 387.02 678.92 410.01 679.20
  Q 410.51 679.20 410.92 678.91
  Q 415.68 675.37 418.72 671.99
  C 430.59 658.80 429.75 638.41 427.71 622.13
  A 0.35 0.35 0.0 0 0 427.22 621.85
  Q 403.10 632.89 379.96 638.93
  C 360.07 644.11 338.00 646.66 319.86 637.87
  C 294.32 625.49 294.14 597.05 307.69 575.73
  Q 316.99 561.09 332.95 546.17
  Q 346.52 533.49 356.18 522.41
  Q 373.58 502.47 385.42 481.06
  Q 393.08 467.20 400.21 452.52
  Q 405.14 442.37 411.21 433.10
  Q 429.76 404.74 462.94 396.92
  C 471.56 394.89 476.70 389.33 480.65 381.78
  Q 487.86 368.00 492.19 352.12
  Q 492.38 351.44 491.73 351.71
  C 483.39 355.13 474.68 356.85 465.69 355.65
  C 448.64 353.38 436.99 341.52 436.53 323.77
  Q 436.52 323.27 436.02 323.26
  L 422.30 322.92
  A 2.98 2.98 0.0 0 1 419.77 318.50
  Q 423.94 310.96 427.94 303.46
  Q 428.99 301.50 428.43 299.25
  C 426.81 292.77 424.91 285.35 424.70 278.95
  Q 423.87 253.87 433.75 233.37
  Q 436.92 226.77 443.77 219.32
  Q 467.46 193.55 501.84 190.15
  Q 502.41 190.09 502.40 189.52
  C 501.87 163.91 525.00 147.00 549.25 155.38
  C 562.08 159.82 571.33 171.38 573.30 184.50
  Q 576.08 203.01 562.61 216.42
  Q 562.30 216.73 562.57 217.08
  Q 580.54 239.48 582.67 265.87
  C 584.92 293.80 572.94 321.03 547.64 333.86
  C 547.08 334.14 546.62 334.11 546.04 334.24
  Q 545.45 334.37 545.77 334.88
  Q 546.16 335.53 546.13 336.24
  Q 545.36 350.62 543.76 365.74
  Q 542.94 373.51 544.11 378.36
  C 546.92 389.93 555.42 393.73 566.12 396.84
  Q 579.68 400.79 593.22 408.69
  C 612.43 419.92 626.67 436.17 637.26 455.73
  Q 644.31 468.73 652.50 484.98
  C 665.19 510.13 680.66 533.89 698.86 555.15
  Q 708.42 566.32 718.82 577.94
  Q 728.55 588.82 734.06 599.37
  C 741.22 613.07 741.48 629.97 729.43 641.33
  C 721.45 648.86 709.64 652.68 698.91 653.75
  C 676.26 656.01 653.35 649.59 632.04 640.11
  Q 612.86 631.58 596.10 621.34
  A 0.27 0.27 0.0 0 0 595.69 621.56
  Q 595.15 634.84 599.91 647.65
  Q 605.87 663.68 613.56 679.53
  A 0.51 0.51 0.0 0 0 613.91 679.80
  Q 631.26 682.94 648.23 685.66
  Q 682.14 691.07 709.28 695.98
  Q 720.50 698.00 733.27 701.21
  C 748.59 705.07 763.82 710.61 776.13 720.13
  C 794.44 734.28 802.16 756.61 794.59 778.41
  C 785.45 804.73 757.28 819.43 733.00 829.20
  Q 712.43 837.48 691.38 845.13
  Z
  M 517.37 300.79
  Q 522.31 298.97 525.38 294.37
  C 529.59 288.05 528.65 277.20 520.03 275.11
  Q 511.39 273.02 507.05 280.70
  A 0.27 0.27 0.0 0 1 506.72 280.82
  C 480.51 271.72 455.44 257.36 436.53 237.43
  A 0.27 0.27 0.0 0 0 436.09 237.52
  Q 429.87 252.48 428.73 269.06
  Q 427.71 283.99 432.75 298.57
  C 434.09 302.43 426.81 314.57 424.70 317.89
  A 0.46 0.45 -72.4 0 0 425.06 318.59
  L 439.11 319.19
  A 1.35 1.34 0.5 0 1 440.39 320.49
  C 440.52 324.55 440.62 328.62 441.92 332.48
  Q 446.25 345.34 458.98 349.80
  C 472.20 354.42 485.94 350.64 497.47 344.21
  A 0.69 0.69 0.0 0 1 498.48 344.98
  Q 494.90 359.34 489.35 373.09
  C 484.57 384.94 478.45 397.44 464.85 400.48
  A 0.31 0.31 0.0 0 0 464.70 401.00
  Q 467.57 403.71 470.48 406.12
  C 482.89 416.40 499.21 422.17 515.49 421.14
  C 532.80 420.05 548.94 413.39 559.72 399.87
  A 0.49 0.49 0.0 0 0 559.48 399.09
  C 545.28 394.68 538.37 383.66 539.55 369.00
  Q 540.68 354.90 542.12 338.92
  Q 542.32 336.74 542.12 334.45
  Q 542.08 333.95 541.65 333.69
  C 538.71 331.91 535.73 330.29 533.19 327.94
  Q 521.48 317.11 517.10 301.32
  A 0.44 0.44 0.0 0 1 517.37 300.79
  Z
  M 522.32 437.27
  Q 525.54 436.17 528.70 435.26
  Q 529.25 435.10 529.57 434.63
  C 532.57 430.09 538.24 429.41 541.37 434.01
  Q 542.42 435.57 542.34 439.67
  Q 542.14 449.59 542.07 458.17
  Q 542.07 458.83 542.72 458.86
  C 547.30 459.06 550.45 462.27 550.43 466.73
  Q 550.32 484.03 550.65 502.14
  C 550.81 511.17 549.19 519.27 547.50 527.93
  C 545.03 540.61 556.21 547.78 565.43 553.09
  Q 579.39 561.12 595.42 566.85
  A 0.58 0.57 17.3 0 0 596.17 566.46
  C 600.46 549.54 600.71 528.20 591.82 512.95
  C 589.20 508.46 585.18 504.79 583.00 499.86
  C 577.26 486.86 580.69 473.20 584.72 460.00
  Q 591.01 439.35 599.11 418.42
  A 1.01 1.01 0.0 0 0 598.74 417.23
  Q 583.54 406.73 565.17 400.93
  A 1.11 1.10 -61.7 0 0 563.96 401.30
  Q 549.73 419.66 525.85 424.01
  C 501.85 428.39 477.60 421.04 460.71 402.78
  A 1.44 1.44 0.0 0 0 459.23 402.37
  Q 446.51 406.12 435.97 413.26
  Q 435.57 413.53 435.60 414.01
  Q 437.39 445.56 440.66 478.34
  Q 441.55 487.33 441.28 496.04
  C 441.19 499.02 440.40 501.78 439.85 504.67
  C 438.76 510.44 436.00 516.26 432.50 520.84
  C 422.95 533.32 421.37 548.55 425.01 563.82
  A 0.80 0.78 -13.4 0 0 425.97 564.40
  Q 449.75 558.60 471.40 549.54
  Q 478.78 546.45 483.43 543.28
  C 488.00 540.16 490.53 535.18 489.73 529.36
  Q 488.68 521.63 487.57 513.96
  Q 486.71 508.04 486.98 500.40
  Q 487.63 482.76 488.14 466.33
  Q 488.34 459.90 495.19 459.35
  C 495.82 459.30 496.41 459.59 497.03 459.60
  Q 497.58 459.61 497.59 459.06
  Q 497.79 449.53 497.94 439.95
  C 497.98 436.78 497.77 432.79 501.66 431.81
  Q 509.01 429.97 511.45 436.49
  Q 511.62 436.94 512.09 437.04
  Q 512.74 437.18 513.42 437.10
  C 515.39 436.86 517.88 438.23 519.31 439.43
  Q 519.83 439.87 520.13 439.25
  C 520.60 438.30 521.29 437.62 522.32 437.27
  Z
  M 508.55 505.66
  Q 507.72 506.03 506.91 505.67
  A 0.99 0.98 11.9 0 1 506.33 504.79
  Q 506.21 498.50 506.39 492.25
  Q 507.13 466.81 507.90 448.46
  C 508.04 445.22 507.81 441.90 507.58 438.59
  Q 507.41 436.11 505.00 435.49
  Q 504.67 435.41 504.33 435.39
  Q 502.34 435.29 502.27 437.29
  L 500.02 504.74
  Q 500.00 505.51 499.22 505.47
  L 497.86 505.41
  A 0.88 0.87 -88.0 0 1 497.03 504.51
  L 498.06 464.70
  Q 498.09 463.34 496.74 463.45
  Q 495.30 463.57 493.86 463.70
  A 1.72 1.71 88.7 0 0 492.28 465.36
  Q 491.66 484.48 491.09 502.74
  C 490.84 510.63 492.31 518.27 493.55 526.04
  C 494.75 533.63 493.79 539.90 487.74 545.22
  Q 484.10 548.42 479.78 550.39
  Q 459.34 559.71 435.35 566.34
  Q 401.94 575.57 367.94 579.87
  Q 351.92 581.90 336.20 584.00
  Q 334.30 584.26 332.44 584.70
  Q 330.62 585.15 330.35 583.28
  Q 330.32 583.08 330.29 582.88
  Q 329.95 581.11 331.69 580.64
  Q 335.34 579.67 339.01 579.27
  C 366.98 576.21 393.56 572.44 420.64 565.87
  Q 421.43 565.68 421.22 564.89
  C 417.25 549.85 418.77 534.77 426.73 521.97
  Q 428.14 519.70 430.14 516.97
  Q 435.61 509.49 436.68 499.56
  Q 437.57 491.17 437.02 484.49
  Q 435.43 465.25 433.67 446.00
  Q 432.39 431.96 431.96 416.85
  A 0.22 0.22 0.0 0 0 431.61 416.68
  Q 427.23 419.91 423.81 423.70
  C 410.67 438.25 402.87 456.39 393.89 474.04
  Q 378.01 505.27 353.67 531.60
  Q 350.49 535.04 339.40 545.74
  C 328.15 556.59 316.95 567.81 309.33 581.32
  C 293.53 609.33 307.21 635.21 338.00 638.85
  Q 349.62 640.22 361.84 638.36
  Q 382.10 635.27 403.83 627.00
  Q 445.57 611.11 480.31 586.77
  Q 498.44 574.06 509.40 559.90
  C 511.84 556.75 515.86 550.24 516.11 545.84
  C 516.27 543.07 516.57 540.29 516.59 537.52
  Q 516.88 495.63 517.88 453.75
  Q 517.98 449.89 517.62 444.20
  A 3.66 3.65 3.7 0 0 514.67 440.85
  L 513.85 440.69
  Q 511.49 440.23 511.38 442.63
  Q 509.82 474.87 509.26 504.58
  A 1.23 1.20 78.9 0 1 508.55 505.66
  Z
  M 529.30 505.06
  Q 528.18 504.99 528.19 503.87
  C 528.31 492.57 528.94 480.89 528.95 469.57
  Q 528.96 455.60 528.74 441.24
  Q 528.72 439.66 527.21 440.15
  L 524.50 441.03
  A 2.98 2.98 0.0 0 0 522.43 443.65
  Q 522.05 448.69 521.93 454.00
  C 521.27 482.71 520.70 511.44 520.68 540.15
  Q 520.68 544.23 521.93 547.42
  C 526.76 559.71 535.18 569.31 544.73 578.18
  Q 565.77 597.72 591.13 613.41
  C 618.93 630.60 649.43 646.68 682.25 649.80
  Q 690.46 650.58 699.09 649.54
  C 716.04 647.49 735.20 638.56 734.91 618.50
  C 734.77 608.36 730.06 599.22 724.07 591.22
  C 718.07 583.20 713.00 577.50 704.75 568.40
  Q 673.63 534.06 652.59 494.01
  Q 644.75 479.10 637.39 464.61
  C 628.86 447.80 618.01 432.14 602.95 420.33
  A 0.35 0.34 -61.5 0 0 602.42 420.49
  Q 595.92 438.78 590.06 456.55
  Q 585.48 470.41 584.27 480.29
  Q 583.15 489.45 586.60 497.77
  C 588.20 501.64 591.24 504.74 593.64 508.14
  C 604.95 524.15 604.91 548.98 599.99 567.80
  Q 599.81 568.49 600.49 568.71
  Q 624.99 576.57 650.64 580.37
  C 666.36 582.70 682.24 584.09 697.96 585.78
  Q 699.57 585.96 705.18 587.32
  Q 707.23 587.82 706.46 589.78
  L 706.26 590.28
  Q 705.73 591.64 704.31 591.25
  Q 700.99 590.34 697.75 589.93
  Q 688.32 588.71 678.89 587.91
  Q 642.02 584.80 610.66 576.15
  Q 587.19 569.69 566.09 558.28
  C 560.97 555.51 555.95 552.13 551.45 548.38
  Q 545.01 543.03 543.55 535.63
  Q 542.62 530.99 544.01 524.31
  C 545.19 518.67 546.70 512.18 546.66 506.55
  Q 546.53 485.71 546.39 466.10
  Q 546.38 464.43 544.82 463.83
  L 542.85 463.09
  Q 541.33 462.51 541.26 464.14
  Q 540.42 484.06 540.36 503.99
  A 1.25 1.25 0.0 0 1 539.13 505.24
  L 538.33 505.26
  A 0.95 0.95 0.0 0 1 537.37 504.32
  C 537.23 482.81 538.26 460.40 538.11 437.54
  Q 538.10 435.62 536.22 435.24
  Q 535.70 435.13 535.20 435.26
  Q 532.55 435.91 532.50 438.64
  L 531.29 504.20
  Q 531.27 505.16 530.30 505.11
  L 529.30 505.06
  Z
  M 517.58 554.99
  Q 511.40 565.71 502.22 574.24
  C 499.16 577.08 496.04 580.13 492.74 582.71
  Q 465.39 604.07 432.26 619.45
  A 0.96 0.96 0.0 0 0 431.71 620.39
  Q 432.21 626.31 432.76 632.93
  Q 434.11 649.39 429.02 663.24
  Q 426.61 669.80 419.62 677.23
  C 418.91 677.99 418.06 678.66 417.16 679.17
  Q 416.31 679.66 417.28 679.80
  Q 431.06 681.81 442.21 685.99
  C 458.38 692.04 474.11 698.83 491.61 702.68
  C 512.01 707.16 533.21 705.94 553.60 700.56
  Q 573.95 695.18 594.41 686.33
  Q 601.36 683.33 608.44 680.28
  A 0.72 0.72 0.0 0 0 608.81 679.32
  C 602.75 666.19 596.69 652.84 593.18 638.92
  C 591.55 632.45 591.34 626.15 591.86 619.60
  A 1.20 1.18 -71.8 0 0 591.32 618.51
  Q 582.70 613.06 573.66 606.86
  Q 554.31 593.59 537.17 576.64
  Q 525.89 565.49 519.21 552.54
  A 0.38 0.38 0.0 0 0 518.54 552.54
  C 518.13 553.36 518.06 554.17 517.58 554.99
  Z
  M 332.36 871.45
  Q 332.48 872.81 331.71 873.66
  Q 331.36 874.03 330.86 873.99
  Q 319.51 872.90 308.66 875.63
  C 306.15 876.26 303.68 876.59 301.14 876.80
  A 0.47 0.47 0.0 0 0 300.75 877.44
  L 300.87 877.75
  A 0.90 0.88 -17.2 0 0 301.90 878.28
  Q 314.55 875.35 327.81 876.46
  A 0.76 0.75 7.3 0 1 328.49 877.34
  Q 328.39 877.88 327.81 878.05
  Q 325.74 878.66 323.91 878.61
  Q 317.82 878.44 311.42 879.03
  Q 309.94 879.17 311.40 879.43
  C 313.44 879.80 315.20 879.27 317.14 879.60
  C 320.27 880.13 322.69 879.07 325.83 879.50
  Q 334.66 880.72 346.00 880.82
  C 373.22 881.07 400.11 880.97 427.00 881.48
  Q 465.25 882.20 502.50 882.32
  Q 512.99 882.35 522.48 882.49
  Q 602.49 883.67 678.49 884.18
  Q 681.57 884.20 684.76 883.51
  Q 694.48 881.43 705.44 878.89
  Q 705.50 878.88 705.48 878.82
  L 705.48 878.82
  Q 705.46 878.69 705.33 878.71
  Q 697.17 879.91 689.12 880.76
  A 2.07 2.07 0.0 0 1 687.08 879.66
  Q 686.92 879.37 687.00 878.99
  Q 687.21 878.04 688.17 877.91
  Q 698.78 876.42 707.63 876.37
  Q 711.75 876.34 714.78 875.92
  Q 715.13 875.88 715.49 875.92
  Q 715.97 875.99 716.34 875.80
  Q 717.11 875.42 716.29 875.16
  C 707.23 872.28 696.56 872.22 687.18 873.62
  Q 685.67 873.84 685.61 872.32
  L 685.59 871.95
  A 1.15 1.15 0.0 0 1 686.56 870.77
  C 698.47 868.79 710.11 868.91 721.12 873.82
  A 2.11 2.10 -55.9 0 0 723.50 873.36
  L 723.85 872.99
  Q 725.18 871.60 723.41 870.84
  C 710.33 865.18 698.72 863.63 685.31 865.29
  A 1.80 1.79 -13.1 0 1 683.40 864.11
  L 683.25 863.69
  Q 682.84 862.53 684.05 862.31
  C 698.69 859.75 711.36 862.11 724.77 867.47
  Q 725.62 867.81 726.23 867.13
  C 730.37 862.48 726.03 859.08 722.07 857.28
  Q 702.58 848.40 680.80 849.54
  Q 679.67 849.60 678.48 850.07
  Q 662.71 856.29 647.94 861.75
  Q 615.76 873.66 582.99 880.82
  Q 581.79 881.09 581.02 880.83
  C 578.38 879.95 574.10 872.51 572.51 869.66
  Q 564.38 855.09 559.39 837.73
  Q 553.21 816.27 550.47 793.57
  Q 549.76 787.66 549.72 781.51
  A 1.76 1.75 -13.5 0 1 550.70 779.92
  Q 554.63 777.96 559.14 776.67
  C 567.24 774.34 575.21 772.04 583.33 770.10
  Q 639.47 756.70 695.32 742.91
  Q 696.15 742.71 695.99 741.87
  Q 695.81 740.87 695.65 740.02
  Q 695.50 739.20 694.68 739.39
  Q 638.33 752.92 582.15 766.59
  Q 570.55 769.42 557.12 773.34
  Q 552.15 774.78 548.18 777.04
  Q 546.08 778.24 545.99 780.91
  Q 545.74 788.02 547.16 797.29
  A 0.59 0.59 0.0 0 1 546.23 797.86
  Q 544.82 796.84 543.27 795.97
  C 518.70 782.24 492.48 771.08 465.79 761.03
  Q 416.05 742.29 361.22 722.25
  Q 360.64 722.03 360.41 722.61
  L 359.53 724.77
  Q 359.25 725.46 359.94 725.72
  Q 406.90 743.03 454.70 760.78
  Q 471.93 767.18 489.41 774.41
  Q 517.39 786.00 546.60 802.13
  Q 547.11 802.41 547.25 802.98
  L 548.21 806.86
  Q 548.37 807.48 547.82 807.82
  Q 546.01 808.96 543.81 809.81
  Q 490.13 830.44 449.69 843.59
  Q 437.27 847.63 424.10 850.57
  C 417.06 852.14 409.08 852.85 404.49 846.07
  C 400.33 839.93 393.70 836.54 386.26 837.36
  C 378.55 838.22 372.46 842.50 366.00 846.14
  C 357.97 850.68 347.60 851.95 338.56 850.93
  Q 324.66 849.37 309.97 853.44
  C 306.45 854.41 298.27 857.64 299.61 862.58
  Q 299.98 863.95 300.17 865.33
  A 1.28 1.28 0.0 0 0 301.72 866.41
  Q 318.90 862.54 337.30 864.30
  Q 338.73 864.43 339.15 865.81
  Q 339.25 866.13 339.21 866.47
  Q 339.12 867.39 338.20 867.31
  Q 320.86 865.82 304.56 869.12
  C 302.33 869.57 300.68 870.57 298.35 869.74
  A 0.49 0.49 0.0 0 0 297.73 870.37
  L 299.01 873.77
  A 1.13 1.11 71.5 0 0 300.36 874.45
  Q 315.68 869.99 331.83 870.93
  A 0.57 0.57 0.0 0 1 332.36 871.45
  Z"
/>
<path fill="#feffff" d="
  M 517.37 300.79
  A 0.44 0.44 0.0 0 0 517.10 301.32
  Q 521.48 317.11 533.19 327.94
  C 535.73 330.29 538.71 331.91 541.65 333.69
  Q 542.08 333.95 542.12 334.45
  Q 542.32 336.74 542.12 338.92
  Q 540.68 354.90 539.55 369.00
  C 538.37 383.66 545.28 394.68 559.48 399.09
  A 0.49 0.49 0.0 0 1 559.72 399.87
  C 548.94 413.39 532.80 420.05 515.49 421.14
  C 499.21 422.17 482.89 416.40 470.48 406.12
  Q 467.57 403.71 464.70 401.00
  A 0.31 0.31 0.0 0 1 464.85 400.48
  C 478.45 397.44 484.57 384.94 489.35 373.09
  Q 494.90 359.34 498.48 344.98
  A 0.69 0.69 0.0 0 0 497.47 344.21
  C 485.94 350.64 472.20 354.42 458.98 349.80
  Q 446.25 345.34 441.92 332.48
  C 440.62 328.62 440.52 324.55 440.39 320.49
  A 1.35 1.34 0.5 0 0 439.11 319.19
  L 425.06 318.59
  A 0.46 0.45 -72.4 0 1 424.70 317.89
  C 426.81 314.57 434.09 302.43 432.75 298.57
  Q 427.71 283.99 428.73 269.06
  Q 429.87 252.48 436.09 237.52
  A 0.27 0.27 0.0 0 1 436.53 237.43
  C 455.44 257.36 480.51 271.72 506.72 280.82
  A 0.27 0.27 0.0 0 0 507.05 280.70
  Q 511.39 273.02 520.03 275.11
  C 528.65 277.20 529.59 288.05 525.38 294.37
  Q 522.31 298.97 517.37 300.79
  Z"
/>
<path fill="#feffff" d="
  M 522.32 437.27
  C 521.29 437.62 520.60 438.30 520.13 439.25
  Q 519.83 439.87 519.31 439.43
  C 517.88 438.23 515.39 436.86 513.42 437.10
  Q 512.74 437.18 512.09 437.04
  Q 511.62 436.94 511.45 436.49
  Q 509.01 429.97 501.66 431.81
  C 497.77 432.79 497.98 436.78 497.94 439.95
  Q 497.79 449.53 497.59 459.06
  Q 497.58 459.61 497.03 459.60
  C 496.41 459.59 495.82 459.30 495.19 459.35
  Q 488.34 459.90 488.14 466.33
  Q 487.63 482.76 486.98 500.40
  Q 486.71 508.04 487.57 513.96
  Q 488.68 521.63 489.73 529.36
  C 490.53 535.18 488.00 540.16 483.43 543.28
  Q 478.78 546.45 471.40 549.54
  Q 449.75 558.60 425.97 564.40
  A 0.80 0.78 -13.4 0 1 425.01 563.82
  C 421.37 548.55 422.95 533.32 432.50 520.84
  C 436.00 516.26 438.76 510.44 439.85 504.67
  C 440.40 501.78 441.19 499.02 441.28 496.04
  Q 441.55 487.33 440.66 478.34
  Q 437.39 445.56 435.60 414.01
  Q 435.57 413.53 435.97 413.26
  Q 446.51 406.12 459.23 402.37
  A 1.44 1.44 0.0 0 1 460.71 402.78
  C 477.60 421.04 501.85 428.39 525.85 424.01
  Q 549.73 419.66 563.96 401.30
  A 1.11 1.10 -61.7 0 1 565.17 400.93
  Q 583.54 406.73 598.74 417.23
  A 1.01 1.01 0.0 0 1 599.11 418.42
  Q 591.01 439.35 584.72 460.00
  C 580.69 473.20 577.26 486.86 583.00 499.86
  C 585.18 504.79 589.20 508.46 591.82 512.95
  C 600.71 528.20 600.46 549.54 596.17 566.46
  A 0.58 0.57 17.3 0 1 595.42 566.85
  Q 579.39 561.12 565.43 553.09
  C 556.21 547.78 545.03 540.61 547.50 527.93
  C 549.19 519.27 550.81 511.17 550.65 502.14
  Q 550.32 484.03 550.43 466.73
  C 550.45 462.27 547.30 459.06 542.72 458.86
  Q 542.07 458.83 542.07 458.17
  Q 542.14 449.59 542.34 439.67
  Q 542.42 435.57 541.37 434.01
  C 538.24 429.41 532.57 430.09 529.57 434.63
  Q 529.25 435.10 528.70 435.26
  Q 525.54 436.17 522.32 437.27
  Z"
/>
<path fill="#feffff" d="
  M 508.55 505.66
  A 1.23 1.20 78.9 0 0 509.26 504.58
  Q 509.82 474.87 511.38 442.63
  Q 511.49 440.23 513.85 440.69
  L 514.67 440.85
  A 3.66 3.65 3.7 0 1 517.62 444.20
  Q 517.98 449.89 517.88 453.75
  Q 516.88 495.63 516.59 537.52
  C 516.57 540.29 516.27 543.07 516.11 545.84
  C 515.86 550.24 511.84 556.75 509.40 559.90
  Q 498.44 574.06 480.31 586.77
  Q 445.57 611.11 403.83 627.00
  Q 382.10 635.27 361.84 638.36
  Q 349.62 640.22 338.00 638.85
  C 307.21 635.21 293.53 609.33 309.33 581.32
  C 316.95 567.81 328.15 556.59 339.40 545.74
  Q 350.49 535.04 353.67 531.60
  Q 378.01 505.27 393.89 474.04
  C 402.87 456.39 410.67 438.25 423.81 423.70
  Q 427.23 419.91 431.61 416.68
  A 0.22 0.22 0.0 0 1 431.96 416.85
  Q 432.39 431.96 433.67 446.00
  Q 435.43 465.25 437.02 484.49
  Q 437.57 491.17 436.68 499.56
  Q 435.61 509.49 430.14 516.97
  Q 428.14 519.70 426.73 521.97
  C 418.77 534.77 417.25 549.85 421.22 564.89
  Q 421.43 565.68 420.64 565.87
  C 393.56 572.44 366.98 576.21 339.01 579.27
  Q 335.34 579.67 331.69 580.64
  Q 329.95 581.11 330.29 582.88
  Q 330.32 583.08 330.35 583.28
  Q 330.62 585.15 332.44 584.70
  Q 334.30 584.26 336.20 584.00
  Q 351.92 581.90 367.94 579.87
  Q 401.94 575.57 435.35 566.34
  Q 459.34 559.71 479.78 550.39
  Q 484.10 548.42 487.74 545.22
  C 493.79 539.90 494.75 533.63 493.55 526.04
  C 492.31 518.27 490.84 510.63 491.09 502.74
  Q 491.66 484.48 492.28 465.36
  A 1.72 1.71 88.7 0 1 493.86 463.70
  Q 495.30 463.57 496.74 463.45
  Q 498.09 463.34 498.06 464.70
  L 497.03 504.51
  A 0.88 0.87 -88.0 0 0 497.86 505.41
  L 499.22 505.47
  Q 500.00 505.51 500.02 504.74
  L 502.27 437.29
  Q 502.34 435.29 504.33 435.39
  Q 504.67 435.41 505.00 435.49
  Q 507.41 436.11 507.58 438.59
  C 507.81 441.90 508.04 445.22 507.90 448.46
  Q 507.13 466.81 506.39 492.25
  Q 506.21 498.50 506.33 504.79
  A 0.99 0.98 11.9 0 0 506.91 505.67
  Q 507.72 506.03 508.55 505.66
  Z"
/>
<path fill="#feffff" d="
  M 529.30 505.06
  L 530.30 505.11
  Q 531.27 505.16 531.29 504.20
  L 532.50 438.64
  Q 532.55 435.91 535.20 435.26
  Q 535.70 435.13 536.22 435.24
  Q 538.10 435.62 538.11 437.54
  C 538.26 460.40 537.23 482.81 537.37 504.32
  A 0.95 0.95 0.0 0 0 538.33 505.26
  L 539.13 505.24
  A 1.25 1.25 0.0 0 0 540.36 503.99
  Q 540.42 484.06 541.26 464.14
  Q 541.33 462.51 542.85 463.09
  L 544.82 463.83
  Q 546.38 464.43 546.39 466.10
  Q 546.53 485.71 546.66 506.55
  C 546.70 512.18 545.19 518.67 544.01 524.31
  Q 542.62 530.99 543.55 535.63
  Q 545.01 543.03 551.45 548.38
  C 555.95 552.13 560.97 555.51 566.09 558.28
  Q 587.19 569.69 610.66 576.15
  Q 642.02 584.80 678.89 587.91
  Q 688.32 588.71 697.75 589.93
  Q 700.99 590.34 704.31 591.25
  Q 705.73 591.64 706.26 590.28
  L 706.46 589.78
  Q 707.23 587.82 705.18 587.32
  Q 699.57 585.96 697.96 585.78
  C 682.24 584.09 666.36 582.70 650.64 580.37
  Q 624.99 576.57 600.49 568.71
  Q 599.81 568.49 599.99 567.80
  C 604.91 548.98 604.95 524.15 593.64 508.14
  C 591.24 504.74 588.20 501.64 586.60 497.77
  Q 583.15 489.45 584.27 480.29
  Q 585.48 470.41 590.06 456.55
  Q 595.92 438.78 602.42 420.49
  A 0.35 0.34 -61.5 0 1 602.95 420.33
  C 618.01 432.14 628.86 447.80 637.39 464.61
  Q 644.75 479.10 652.59 494.01
  Q 673.63 534.06 704.75 568.40
  C 713.00 577.50 718.07 583.20 724.07 591.22
  C 730.06 599.22 734.77 608.36 734.91 618.50
  C 735.20 638.56 716.04 647.49 699.09 649.54
  Q 690.46 650.58 682.25 649.80
  C 649.43 646.68 618.93 630.60 591.13 613.41
  Q 565.77 597.72 544.73 578.18
  C 535.18 569.31 526.76 559.71 521.93 547.42
  Q 520.68 544.23 520.68 540.15
  C 520.70 511.44 521.27 482.71 521.93 454.00
  Q 522.05 448.69 522.43 443.65
  A 2.98 2.98 0.0 0 1 524.50 441.03
  L 527.21 440.15
  Q 528.72 439.66 528.74 441.24
  Q 528.96 455.60 528.95 469.57
  C 528.94 480.89 528.31 492.57 528.19 503.87
  Q 528.18 504.99 529.30 505.06
  Z"
/>
<path fill="#feffff" d="
  M 517.58 554.99
  C 518.06 554.17 518.13 553.36 518.54 552.54
  A 0.38 0.38 0.0 0 1 519.21 552.54
  Q 525.89 565.49 537.17 576.64
  Q 554.31 593.59 573.66 606.86
  Q 582.70 613.06 591.32 618.51
  A 1.20 1.18 -71.8 0 1 591.86 619.60
  C 591.34 626.15 591.55 632.45 593.18 638.92
  C 596.69 652.84 602.75 666.19 608.81 679.32
  A 0.72 0.72 0.0 0 1 608.44 680.28
  Q 601.36 683.33 594.41 686.33
  Q 573.95 695.18 553.60 700.56
  C 533.21 705.94 512.01 707.16 491.61 702.68
  C 474.11 698.83 458.38 692.04 442.21 685.99
  Q 431.06 681.81 417.28 679.80
  Q 416.31 679.66 417.16 679.17
  C 418.06 678.66 418.91 677.99 419.62 677.23
  Q 426.61 669.80 429.02 663.24
  Q 434.11 649.39 432.76 632.93
  Q 432.21 626.31 431.71 620.39
  A 0.96 0.96 0.0 0 1 432.26 619.45
  Q 465.39 604.07 492.74 582.71
  C 496.04 580.13 499.16 577.08 502.22 574.24
  Q 511.40 565.71 517.58 554.99
  Z"
/>
<path fill="#feffff" d="
  M 332.36 871.45
  A 0.57 0.57 0.0 0 0 331.83 870.93
  Q 315.68 869.99 300.36 874.45
  A 1.13 1.11 71.5 0 1 299.01 873.77
  L 297.73 870.37
  A 0.49 0.49 0.0 0 1 298.35 869.74
  C 300.68 870.57 302.33 869.57 304.56 869.12
  Q 320.86 865.82 338.20 867.31
  Q 339.12 867.39 339.21 866.47
  Q 339.25 866.13 339.15 865.81
  Q 338.73 864.43 337.30 864.30
  Q 318.90 862.54 301.72 866.41
  A 1.28 1.28 0.0 0 1 300.17 865.33
  Q 299.98 863.95 299.61 862.58
  C 298.27 857.64 306.45 854.41 309.97 853.44
  Q 324.66 849.37 338.56 850.93
  C 347.60 851.95 357.97 850.68 366.00 846.14
  C 372.46 842.50 378.55 838.22 386.26 837.36
  C 393.70 836.54 400.33 839.93 404.49 846.07
  C 409.08 852.85 417.06 852.14 424.10 850.57
  Q 437.27 847.63 449.69 843.59
  Q 490.13 830.44 543.81 809.81
  Q 546.01 808.96 547.82 807.82
  Q 548.37 807.48 548.21 806.86
  L 547.25 802.98
  Q 547.11 802.41 546.60 802.13
  Q 517.39 786.00 489.41 774.41
  Q 471.93 767.18 454.70 760.78
  Q 406.90 743.03 359.94 725.72
  Q 359.25 725.46 359.53 724.77
  L 360.41 722.61
  Q 360.64 722.03 361.22 722.25
  Q 416.05 742.29 465.79 761.03
  C 492.48 771.08 518.70 782.24 543.27 795.97
  Q 544.82 796.84 546.23 797.86
  A 0.59 0.59 0.0 0 0 547.16 797.29
  Q 545.74 788.02 545.99 780.91
  Q 546.08 778.24 548.18 777.04
  Q 552.15 774.78 557.12 773.34
  Q 570.55 769.42 582.15 766.59
  Q 638.33 752.92 694.68 739.39
  Q 695.50 739.20 695.65 740.02
  Q 695.81 740.87 695.99 741.87
  Q 696.15 742.71 695.32 742.91
  Q 639.47 756.70 583.33 770.10
  C 575.21 772.04 567.24 774.34 559.14 776.67
  Q 554.63 777.96 550.70 779.92
  A 1.76 1.75 -13.5 0 0 549.72 781.51
  Q 549.76 787.66 550.47 793.57
  Q 553.21 816.27 559.39 837.73
  Q 564.38 855.09 572.51 869.66
  C 574.10 872.51 578.38 879.95 581.02 880.83
  Q 581.79 881.09 582.99 880.82
  Q 615.76 873.66 647.94 861.75
  Q 662.71 856.29 678.48 850.07
  Q 679.67 849.60 680.80 849.54
  Q 702.58 848.40 722.07 857.28
  C 726.03 859.08 730.37 862.48 726.23 867.13
  Q 725.62 867.81 724.77 867.47
  C 711.36 862.11 698.69 859.75 684.05 862.31
  Q 682.84 862.53 683.25 863.69
  L 683.40 864.11
  A 1.80 1.79 -13.1 0 0 685.31 865.29
  C 698.72 863.63 710.33 865.18 723.41 870.84
  Q 725.18 871.60 723.85 872.99
  L 723.50 873.36
  A 2.11 2.10 -55.9 0 1 721.12 873.82
  C 710.11 868.91 698.47 868.79 686.56 870.77
  A 1.15 1.15 0.0 0 0 685.59 871.95
  L 685.61 872.32
  Q 685.67 873.84 687.18 873.62
  C 696.56 872.22 707.23 872.28 716.29 875.16
  Q 717.11 875.42 716.34 875.80
  Q 715.97 875.99 715.49 875.92
  Q 715.13 875.88 714.78 875.92
  Q 711.75 876.34 707.63 876.37
  Q 698.78 876.42 688.17 877.91
  Q 687.21 878.04 687.00 878.99
  Q 686.92 879.37 687.08 879.66
  A 2.07 2.07 0.0 0 0 689.12 880.76
  Q 697.17 879.91 705.33 878.71
  Q 705.46 878.69 705.48 878.82
  L 705.48 878.82
  Q 705.50 878.88 705.44 878.89
  Q 694.48 881.43 684.76 883.51
  Q 681.57 884.20 678.49 884.18
  Q 602.49 883.67 522.48 882.49
  Q 512.99 882.35 502.50 882.32
  Q 465.25 882.20 427.00 881.48
  C 400.11 880.97 373.22 881.07 346.00 880.82
  Q 334.66 880.72 325.83 879.50
  C 322.69 879.07 320.27 880.13 317.14 879.60
  C 315.20 879.27 313.44 879.80 311.40 879.43
  Q 309.94 879.17 311.42 879.03
  Q 317.82 878.44 323.91 878.61
  Q 325.74 878.66 327.81 878.05
  Q 328.39 877.88 328.49 877.34
  A 0.76 0.75 7.3 0 0 327.81 876.46
  Q 314.55 875.35 301.90 878.28
  A 0.90 0.88 -17.2 0 1 300.87 877.75
  L 300.75 877.44
  A 0.47 0.47 0.0 0 1 301.14 876.80
  C 303.68 876.59 306.15 876.26 308.66 875.63
  Q 319.51 872.90 330.86 873.99
  Q 331.36 874.03 331.71 873.66
  Q 332.48 872.81 332.36 871.45
  Z"
/>
<path fill="#030302" d="
  M 815.8931 835.7468
  A 15.78 7.08 124.1 0 1 818.8773 818.7107
  A 15.78 7.08 124.1 0 1 833.5869 809.6132
  A 15.78 7.08 124.1 0 1 830.6027 826.6493
  A 15.78 7.08 124.1 0 1 815.8931 835.7468
  Z
  M 818.5789 831.7010
  A 10.85 2.91 124.6 0 0 827.1353 824.4224
  A 10.85 2.91 124.6 0 0 830.9011 813.8390
  A 10.85 2.91 124.6 0 0 822.3447 821.1176
  A 10.85 2.91 124.6 0 0 818.5789 831.7010
  Z"
/>
<path fill="#030302" d="
  M 233.4252 829.9795
  A 17.00 6.50 29.3 0 1 215.4190 827.3285
  A 17.00 6.50 29.3 0 1 203.7748 813.3405
  A 17.00 6.50 29.3 0 1 221.7810 815.9915
  A 17.00 6.50 29.3 0 1 233.4252 829.9795
  Z
  M 228.7248 827.4394
  A 11.61 2.33 29.4 0 0 219.7538 819.7101
  A 11.61 2.33 29.4 0 0 208.4952 816.0406
  A 11.61 2.33 29.4 0 0 217.4662 823.7699
  A 11.61 2.33 29.4 0 0 228.7248 827.4394
  Z"
/>
<ellipse fill="#feffff" cx="0.00" cy="0.00" transform="translate(824.74,822.77) rotate(124.6)" rx="10.85" ry="2.91"/>
<path fill="#030302" d="
  M 273.3596 829.6496
  A 13.38 5.91 32.3 0 1 258.8920 827.4955
  A 13.38 5.91 32.3 0 1 250.7404 815.3504
  A 13.38 5.91 32.3 0 1 265.2080 817.5045
  A 13.38 5.91 32.3 0 1 273.3596 829.6496
  Z
  M 268.9411 826.8220
  A 8.23 1.84 32.5 0 0 262.9886 820.8482
  A 8.23 1.84 32.5 0 0 255.0589 817.9780
  A 8.23 1.84 32.5 0 0 261.0114 823.9518
  A 8.23 1.84 32.5 0 0 268.9411 826.8220
  Z"
/>
<ellipse fill="#feffff" cx="0.00" cy="0.00" transform="translate(218.61,821.74) rotate(29.4)" rx="11.61" ry="2.33"/>
<ellipse fill="#feffff" cx="0.00" cy="0.00" transform="translate(262.00,822.40) rotate(32.5)" rx="8.23" ry="1.84"/>
<path fill="#030302" d="
  M 771.54 845.09
  C 768.56 845.74 765.60 844.18 767.59 840.79
  Q 773.73 830.37 783.85 826.53
  C 788.04 824.94 793.93 826.36 791.06 832.39
  C 787.85 839.15 778.71 843.52 771.54 845.09
  Z
  M 777.42 838.73
  Q 783.34 836.50 787.23 831.20
  Q 787.49 830.85 787.61 830.45
  A 0.45 0.45 0.0 0 0 787.08 829.90
  C 781.97 831.05 776.57 835.74 773.37 839.50
  Q 772.45 840.59 773.85 840.33
  C 775.15 840.08 776.22 839.19 777.42 838.73
  Z"
/>
<path fill="#feffff" d="
  M 777.42 838.73
  C 776.22 839.19 775.15 840.08 773.85 840.33
  Q 772.45 840.59 773.37 839.50
  C 776.57 835.74 781.97 831.05 787.08 829.90
  A 0.45 0.45 0.0 0 1 787.61 830.45
  Q 787.49 830.85 787.23 831.20
  Q 783.34 836.50 777.42 838.73
  Z"
/>
</svg>
